G04 EasyPC Gerber Version 20.0.2 Build 4112 *
%FSLAX24Y24*%
%MOIN*%
%AMT13*0 Octagon Pad at angle 0*4,1,8,-0.00994,-0.02400,0.00994,-0.02400,0.02400,-0.00994,0.02400,0.00994,0.00994,0.02400,-0.00994,0.02400,-0.02400,0.00994,-0.02400,-0.00994,-0.00994,-0.02400,0*%
%ADD13T13*%
%AMT15*0 Octagon Pad at angle 0*4,1,8,-0.02071,-0.05000,0.02071,-0.05000,0.05000,-0.02071,0.05000,0.02071,0.02071,0.05000,-0.02071,0.05000,-0.05000,0.02071,-0.05000,-0.02071,-0.02071,-0.05000,0*%
%ADD15T15*%
%AMT16*0 Octagon Pad at angle 0*4,1,8,-0.03107,-0.07500,0.03107,-0.07500,0.07500,-0.03107,0.07500,0.03107,0.03107,0.07500,-0.03107,0.07500,-0.07500,0.03107,-0.07500,-0.03107,-0.03107,-0.07500,0*%
%ADD16T16*%
%AMT14*0 Octagon Pad at angle 0*4,1,8,-0.03396,-0.08200,0.03396,-0.08200,0.08200,-0.03396,0.08200,0.03396,0.03396,0.08200,-0.03396,0.08200,-0.08200,0.03396,-0.08200,-0.03396,-0.03396,-0.08200,0*%
%ADD14T14*%
%ADD10O,0.04800X0.09600*%
%ADD17O,0.09600X0.04800*%
%ADD18C,0.03200*%
X0Y0D02*
D02*
D10*
X3500Y26500D03*
Y31500D03*
X7500Y26500D03*
Y31500D03*
X10500Y10500D03*
X13500Y26500D03*
Y31500D03*
X14500Y10500D03*
X17500Y26500D03*
Y31500D03*
X20950Y20500D03*
Y24500D03*
Y28500D03*
Y32500D03*
Y36500D03*
X22050Y20500D03*
Y24500D03*
Y28500D03*
Y32500D03*
Y36500D03*
X28950Y20500D03*
Y24500D03*
Y28500D03*
Y32500D03*
Y36500D03*
X30050Y20500D03*
Y24500D03*
Y28500D03*
Y32500D03*
Y36500D03*
X33500Y7500D03*
Y11000D03*
Y26500D03*
Y36000D03*
X37500Y7500D03*
Y11000D03*
Y26500D03*
Y36000D03*
X43000Y26500D03*
Y31500D03*
X47000Y26500D03*
Y31500D03*
D02*
D13*
X1500Y37500D03*
X3500Y10500D03*
X4000Y11500D03*
Y19500D03*
Y24500D03*
X4500Y7500D03*
Y13500D03*
Y37500D03*
X5000Y8250D03*
Y12750D03*
Y17500D03*
X5500Y7500D03*
Y13500D03*
Y15000D03*
Y16750D03*
X6000Y17500D03*
X6500Y10500D03*
X7000Y11500D03*
Y19000D03*
X7500Y9500D03*
Y13500D03*
X8000Y8750D03*
Y12750D03*
Y17000D03*
X8500Y9500D03*
Y13500D03*
Y15000D03*
Y17750D03*
X9000Y17000D03*
X10000Y19000D03*
X10500Y9500D03*
Y11500D03*
Y13000D03*
X11000Y13750D03*
X11500Y13000D03*
Y15500D03*
Y18500D03*
X12000Y38000D03*
X12500Y19500D03*
Y24500D03*
X13500Y9500D03*
Y11500D03*
Y14000D03*
X14000Y13250D03*
X14500Y14000D03*
X15000Y38000D03*
X15500Y18500D03*
X18500D03*
X33000Y15500D03*
X34500Y12500D03*
X35000Y16500D03*
Y19500D03*
X36000Y15500D03*
Y19500D03*
X36500Y14500D03*
X37000Y13750D03*
Y18000D03*
X37500Y9500D03*
Y12500D03*
Y14500D03*
X38000Y16000D03*
X39000Y19500D03*
X39500Y13500D03*
X40000Y14250D03*
Y18000D03*
X40500Y9500D03*
Y13500D03*
X41000Y16000D03*
X41500Y9500D03*
Y12500D03*
Y19000D03*
X42000Y8750D03*
X42500Y9500D03*
Y14500D03*
Y17500D03*
X43000Y11500D03*
Y13750D03*
Y16750D03*
X43500Y14500D03*
Y17500D03*
X44000Y20000D03*
X44500Y8500D03*
Y12500D03*
Y19000D03*
X45000Y9250D03*
X45500Y8500D03*
Y14500D03*
Y17500D03*
Y19000D03*
X46000Y11500D03*
Y13750D03*
Y16750D03*
X46500Y14500D03*
Y17500D03*
X47000Y20000D03*
X48500Y19000D03*
D02*
D14*
X9500Y26500D03*
Y31500D03*
X41000Y26500D03*
Y31500D03*
D02*
D15*
X3500Y18000D03*
X5000Y24500D03*
X8500Y11000D03*
X13500Y16000D03*
Y24500D03*
X14500Y12000D03*
Y17500D03*
X16000Y15000D03*
X33500Y9500D03*
X35000D03*
X36500Y17000D03*
X41000Y11500D03*
D02*
D16*
X2000Y23500D03*
Y33000D03*
X24000Y23000D03*
Y34500D03*
X27000Y23000D03*
Y34500D03*
X48000Y25000D03*
Y34500D03*
D02*
D17*
X16000Y9500D03*
Y13500D03*
D02*
D18*
X2000Y19500D02*
Y23500D01*
X4000Y19500D02*
X2000D01*
X4500Y6500D02*
X2000D01*
Y19500*
X4500Y6500D02*
Y7500D01*
X5500Y13500D02*
Y14000D01*
X6000Y14500*
X8000*
X8500Y14000*
X6000Y17500D02*
Y19500D01*
X4000*
X8000Y17000D02*
X7000D01*
Y17500*
X6000*
X8500Y9500D02*
X9000D01*
X8500Y13500D02*
Y14000D01*
X9500*
X9000Y6500D02*
Y5500D01*
X47000*
Y10500*
X9000Y6500D02*
X4500D01*
X9000Y9500D02*
Y6500D01*
X9500Y13000D02*
Y9500D01*
X9000*
X9500Y13000D02*
Y14000D01*
X10500Y13000D02*
X9500D01*
X12500Y15000D02*
Y14500D01*
X9500*
Y14000*
X12500Y15000D02*
Y19500D01*
X14500Y14000D02*
Y15000D01*
X12500*
X37500Y14500D02*
X38000Y15000D01*
X39000*
X41500*
X42000Y15500*
X44500*
X39000Y15000D02*
Y14000D01*
X39500Y13500*
X39000Y15000D02*
Y15500D01*
X40000Y16500*
Y18000*
X39000Y19000D02*
Y19000D01*
Y19500D02*
Y19000D01*
X40000Y18000D02*
Y19000D01*
X39000*
X42500Y9500D02*
Y10500D01*
X47000*
X43500Y14500D02*
X44500D01*
Y15500*
Y8500D02*
X42500Y9500D01*
X44500Y15500D02*
X47000D01*
X44500D02*
Y17500D01*
X43500*
X46500Y14500D02*
X47000D01*
Y10500D02*
Y14500D01*
Y15500*
Y17500*
X46500*
X47000Y20000D02*
X48500D01*
Y19000D02*
Y20000D01*
Y19000D02*
X48500Y19000D01*
X48500Y19000D02*
Y17500D01*
X47000*
X48500Y20000D02*
Y25000D01*
X48000*
X0Y0D02*
M02*
