G05
M48
INCH
FMAT,2
T1C00.0320
T2C00.0400
T3C00.0440
T4C00.0550
T5C00.0630
%
T001
X001500Y037500
X003500Y010500
X003500Y026500
X003500Y031500
X004000Y011500
X004000Y019500
X004000Y024500
X004500Y007500
X004500Y013500
X004500Y037500
X005000Y008250
X005000Y012750
X005000Y017500
X005500Y007500
X005500Y013500
X005500Y015000
X005500Y016750
X006000Y017500
X006500Y010500
X007000Y011500
X007000Y019000
X007500Y009500
X007500Y013500
X007500Y026500
X007500Y031500
X008000Y008750
X008000Y012750
X008000Y017000
X008500Y009500
X008500Y013500
X008500Y015000
X008500Y017750
X009000Y017000
X010000Y019000
X010500Y009500
X010500Y010500
X010500Y011500
X010500Y013000
X011000Y013750
X011500Y013000
X011500Y015500
X011500Y018500
X012000Y038000
X012500Y019500
X012500Y024500
X013500Y009500
X013500Y011500
X013500Y014000
X013500Y026500
X013500Y031500
X014000Y013250
X014500Y010500
X014500Y014000
X015000Y038000
X015500Y018500
X016000Y009500
X016000Y013500
X017500Y026500
X017500Y031500
X018500Y018500
X020950Y020500
X020950Y024500
X020950Y028500
X020950Y032500
X020950Y036500
X022050Y020500
X022050Y024500
X022050Y028500
X022050Y032500
X022050Y036500
X028950Y020500
X028950Y024500
X028950Y028500
X028950Y032500
X028950Y036500
X030050Y020500
X030050Y024500
X030050Y028500
X030050Y032500
X030050Y036500
X033000Y015500
X033500Y007500
X033500Y011000
X033500Y026500
X033500Y036000
X034500Y012500
X035000Y016500
X035000Y019500
X036000Y015500
X036000Y019500
X036500Y014500
X037000Y013750
X037000Y018000
X037500Y007500
X037500Y009500
X037500Y011000
X037500Y012500
X037500Y014500
X037500Y026500
X037500Y036000
X038000Y016000
X039000Y019500
X039500Y013500
X040000Y014250
X040000Y018000
X040500Y009500
X040500Y013500
X041000Y016000
X041500Y009500
X041500Y012500
X041500Y019000
X042000Y008750
X042500Y009500
X042500Y014500
X042500Y017500
X043000Y011500
X043000Y013750
X043000Y016750
X043000Y026500
X043000Y031500
X043500Y014500
X043500Y017500
X044000Y020000
X044500Y008500
X044500Y012500
X044500Y019000
X045000Y009250
X045500Y008500
X045500Y014500
X045500Y017500
X045500Y019000
X046000Y011500
X046000Y013750
X046000Y016750
X046500Y014500
X046500Y017500
X047000Y020000
X047000Y026500
X047000Y031500
X048500Y019000
T002
X014500Y012000
X035000Y009500
T003
X003500Y018000
X005000Y024500
X008500Y011000
X013500Y016000
X013500Y024500
X014500Y017500
X016000Y015000
X033500Y009500
X036500Y017000
X041000Y011500
T004
X002000Y023500
X002000Y033000
X024000Y023000
X024000Y034500
X027000Y023000
X027000Y034500
X048000Y025000
X048000Y034500
T005
X009500Y026500
X009500Y031500
X041000Y026500
X041000Y031500
M30
