G04 #@! TF.FileFunction,Copper,L1,Top,Signal*
%FSLAX46Y46*%
G04 Gerber Fmt 4.6, Leading zero omitted, Abs format (unit mm)*
G04 Created by KiCad (PCBNEW 4.0.7) date 12/27/17 22:58:13*
%MOMM*%
%LPD*%
G01*
G04 APERTURE LIST*
%ADD10C,0.100000*%
%ADD11R,1.600000X1.600000*%
%ADD12O,1.600000X1.600000*%
%ADD13C,1.600000*%
%ADD14R,2.800000X2.800000*%
%ADD15O,2.800000X2.800000*%
%ADD16C,4.000500*%
%ADD17C,2.000000*%
%ADD18O,2.000000X2.000000*%
%ADD19C,1.270000*%
G04 APERTURE END LIST*
D10*
D11*
X111760000Y-104140000D03*
D12*
X119380000Y-111760000D03*
X111760000Y-106680000D03*
X119380000Y-109220000D03*
X111760000Y-109220000D03*
X119380000Y-106680000D03*
X111760000Y-111760000D03*
X119380000Y-104140000D03*
D11*
X107950000Y-109220000D03*
D13*
X105450000Y-109220000D03*
D11*
X110490000Y-115570000D03*
D13*
X107990000Y-115570000D03*
D14*
X127000000Y-100330000D03*
D15*
X121920000Y-100330000D03*
D11*
X124460000Y-115570000D03*
D13*
X124460000Y-118070000D03*
D16*
X114300000Y-115570000D03*
X129540000Y-114300000D03*
X106680000Y-119380000D03*
D13*
X123190000Y-106680000D03*
D12*
X123190000Y-104140000D03*
D13*
X127000000Y-106680000D03*
D12*
X127000000Y-104140000D03*
D13*
X124460000Y-111760000D03*
D12*
X121920000Y-111760000D03*
D13*
X119380000Y-116840000D03*
D12*
X119380000Y-114300000D03*
D17*
X111760000Y-100330000D03*
D18*
X116840000Y-100330000D03*
D19*
X109220000Y-109220000D02*
X111760000Y-109220000D01*
X106680000Y-119380000D02*
X119380000Y-119380000D01*
X119380000Y-119380000D02*
X119380000Y-118110000D01*
X107990000Y-115570000D02*
X106680000Y-115570000D01*
X106680000Y-119380000D02*
X106680000Y-115570000D01*
X106680000Y-115570000D02*
X106680000Y-111840000D01*
X106680000Y-111840000D02*
X106760000Y-111760000D01*
X119380000Y-116840000D02*
X119380000Y-118110000D01*
X119380000Y-118110000D02*
X124420000Y-118110000D01*
X111760000Y-106680000D02*
X106680000Y-106680000D01*
X106760000Y-111760000D02*
X111760000Y-111760000D01*
X106720000Y-111720000D02*
X106760000Y-111760000D01*
X106720000Y-106720000D02*
X106720000Y-111720000D01*
X106680000Y-106680000D02*
X106720000Y-106720000D01*
X124420000Y-118110000D02*
X124460000Y-118070000D01*
X127000000Y-100330000D02*
X133350000Y-100330000D01*
X133350000Y-114300000D02*
X129540000Y-114300000D01*
X133350000Y-100330000D02*
X133350000Y-114300000D01*
X129540000Y-114300000D02*
X129540000Y-111760000D01*
X124460000Y-111760000D02*
X129540000Y-111760000D01*
X124460000Y-111760000D02*
X124460000Y-115570000D01*
X111760000Y-100330000D02*
X111760000Y-97790000D01*
X121920000Y-97790000D02*
X121920000Y-100330000D01*
X111760000Y-97790000D02*
X121920000Y-97790000D01*
X111760000Y-104140000D02*
X111760000Y-100330000D01*
X116840000Y-100330000D02*
X116840000Y-106680000D01*
X116840000Y-106680000D02*
X119380000Y-106680000D01*
X119380000Y-106680000D02*
X123190000Y-106680000D01*
X127000000Y-106680000D02*
X123190000Y-106680000D01*
X123190000Y-104140000D02*
X119380000Y-104140000D01*
X110490000Y-115570000D02*
X114300000Y-115570000D01*
X119380000Y-109220000D02*
X114300000Y-109220000D01*
X114300000Y-109220000D02*
X114300000Y-115570000D01*
X119380000Y-109220000D02*
X130810000Y-109220000D01*
X130810000Y-104140000D02*
X128270000Y-104140000D01*
X130810000Y-109220000D02*
X130810000Y-104140000D01*
X127000000Y-104140000D02*
X128270000Y-104140000D01*
X119380000Y-111760000D02*
X119380000Y-114300000D01*
X119380000Y-111760000D02*
X121920000Y-111760000D01*
M02*
