M48
;DRILL file {KiCad 4.0.7} date 12/27/17 22:58:15
;FORMAT={-:-/ absolute / inch / decimal}
FMAT,2
INCH,TZ
T1C0.035
T2C0.039
T3C0.055
T4C0.059
%
G90
G05
M72
T1
X4.1516Y-4.3
X4.25Y-4.3
X4.2516Y-4.55
X4.35Y-4.55
X4.4Y-4.1
X4.4Y-4.2
X4.4Y-4.3
X4.4Y-4.4
X4.7Y-4.1
X4.7Y-4.2
X4.7Y-4.3
X4.7Y-4.4
X4.7Y-4.5
X4.7Y-4.6
X4.8Y-4.4
X4.85Y-4.1
X4.85Y-4.2
X4.9Y-4.4
X4.9Y-4.55
X4.9Y-4.6484
X5.Y-4.1
X5.Y-4.2
T2
X4.4Y-3.95
X4.6Y-3.95
T3
X4.8Y-3.95
X5.Y-3.95
T4
X4.2Y-4.7
X4.5Y-4.55
X5.1Y-4.5
T0
M30
