M48
;DRILL file {KiCad 4.0.7} date 01/18/18 11:52:30
;FORMAT={-:-/ absolute / inch / decimal}
FMAT,2
INCH,TZ
T1C0.032
T2C0.039
T3C0.041
T4C0.047
T5C0.055
T6C0.098
%
G90
G05
M72
T1
X5.2Y-1.2
X5.2Y-1.5
X5.4Y-1.95
X5.5Y-1.95
X5.5Y-2.7
X5.5Y-2.8
X5.6Y-3.8
X5.6Y-4.65
X5.6Y-4.8
X5.7Y-3.8
X5.7Y-4.65
X5.7Y-4.8
X5.85Y-4.4
X5.85Y-4.6
X5.9Y-1.2
X5.9Y-4.05
X5.9Y-4.2
X5.95Y-4.4
X5.95Y-4.6
X6.Y-3.55
X6.Y-3.7
X6.Y-4.05
X6.Y-4.2
X6.05Y-4.6
X6.05Y-4.8
X6.1Y-3.55
X6.1Y-3.7
X6.15Y-4.4
X6.15Y-4.6
X6.15Y-4.8
X6.2Y-1.2
X6.2Y-4.2
X6.25Y-4.4
X6.25Y-4.6
X6.25Y-4.8
X6.3Y-3.8
X6.3Y-4.
X6.3Y-4.2
X6.35Y-4.4
X6.35Y-4.7
X6.35Y-4.8
X6.4Y-3.8
X6.4Y-4.
X6.4Y-4.2
X6.45Y-4.4
X6.5Y-3.8
X6.5Y-4.
X6.5Y-4.2
X6.5Y-4.55
X6.55Y-2.
X6.55Y-4.4
X6.6Y-4.
X6.6Y-4.2
X6.6Y-4.55
X6.65Y-2.
X6.65Y-2.7
X6.65Y-2.8
X6.65Y-4.4
X6.65Y-4.8
X6.7Y-3.5
X6.7Y-3.6
X6.7Y-3.7
X6.7Y-3.8
X6.7Y-4.
X6.7Y-4.2
X6.8Y-1.45
X6.8Y-1.75
X6.8Y-3.5
X6.8Y-3.6
X6.8Y-4.
X6.95Y-1.45
X6.95Y-1.75
X6.95Y-4.8
X7.0516Y-3.9
X7.1Y-1.45
X7.1Y-1.75
X7.1016Y-4.15
X7.15Y-3.9
X7.15Y-4.45
X7.15Y-4.5484
X7.2Y-4.15
X7.25Y-1.45
X7.25Y-1.75
X7.25Y-3.7
X7.25Y-3.8
X7.25Y-3.9
X7.25Y-4.
X7.4Y-1.45
X7.4Y-1.75
X7.5Y-3.5
X7.55Y-1.45
X7.55Y-1.75
X7.55Y-3.7
X7.55Y-3.8
X7.55Y-3.9
X7.55Y-4.
X7.55Y-4.1
X7.55Y-4.2
X7.6Y-3.5
X7.65Y-3.7
X7.65Y-3.8
X7.65Y-4.
X7.7Y-1.45
X7.7Y-1.75
X7.75Y-4.
X7.75Y-4.15
X7.75Y-4.2484
X7.75Y-4.45
X7.75Y-4.5484
X7.85Y-1.45
X7.85Y-1.75
X7.85Y-4.8
X7.95Y-4.3
X7.95Y-4.6
X8.Y-1.45
X8.Y-1.75
X8.15Y-1.45
X8.15Y-1.75
X8.15Y-4.8
X8.25Y-3.65
X8.25Y-3.75
X8.35Y-2.45
X8.35Y-4.35
X8.35Y-4.45
X8.35Y-4.7
X8.35Y-4.8
X8.4Y-3.45
X8.4Y-4.6
X8.45Y-2.45
X8.45Y-3.75
X8.45Y-3.95
X8.45Y-4.15
X8.5Y-3.45
X8.5Y-4.6
X8.55Y-3.6
X8.55Y-3.75
X8.55Y-3.95
X8.55Y-4.15
X8.65Y-1.2
X8.65Y-3.6
X8.65Y-3.75
X8.65Y-3.95
X8.65Y-4.15
X8.65Y-4.55
X8.65Y-4.75
X8.7Y-4.35
X8.75Y-3.75
X8.75Y-3.95
X8.75Y-4.15
X8.75Y-4.55
X8.75Y-4.75
X8.8Y-4.35
X8.85Y-3.75
X8.85Y-3.95
X8.85Y-4.15
X8.85Y-4.55
X8.85Y-4.75
X8.9Y-4.35
X8.95Y-1.2
X8.95Y-3.75
X8.95Y-3.95
X8.95Y-4.15
X9.Y-4.5
X9.Y-4.6
X9.1Y-3.55
X9.1Y-3.65
X9.1Y-4.2
X9.1Y-4.4
X9.15Y-4.55
X9.15Y-4.65
X9.2Y-3.9
X9.2Y-4.
X9.2Y-4.2
X9.2Y-4.4
X9.3Y-4.65
X9.4Y-3.85
X9.4Y-3.95
X9.4Y-4.1
X9.4Y-4.2
X9.4Y-4.65
X9.5Y-2.45
X9.5Y-3.25
X9.6Y-2.45
X9.6Y-3.25
X9.8Y-1.2
X9.8Y-1.5
T2
X5.15Y-4.0063
X5.15Y-4.1047
X5.15Y-4.2031
X5.15Y-4.3016
X5.15Y-4.4
X7.15Y-3.5
X7.35Y-3.5
X7.35Y-4.45
X7.45Y-4.45
X7.55Y-4.45
X9.85Y-4.
X9.85Y-4.0984
X9.85Y-4.1969
X9.85Y-4.2953
X9.85Y-4.3937
T3
X5.5516Y-1.2
X5.65Y-1.2
X7.15Y-4.8
X7.2484Y-4.8
X7.6Y-4.8
X7.6984Y-4.8
X9.35Y-1.2
X9.4484Y-1.2
T4
X6.Y-1.4949
X6.Y-1.8
X6.15Y-3.1
X6.15Y-3.4051
X8.85Y-3.1
X8.85Y-3.4051
X8.95Y-1.4949
X8.95Y-1.8
T5
X5.15Y-3.65
X5.15Y-4.75
X5.3Y-1.8
X5.3Y-2.6
X5.35Y-3.65
X5.35Y-4.75
X5.45Y-3.85
X5.45Y-4.05
X5.45Y-4.35
X5.45Y-4.55
X5.8Y-1.8
X5.8Y-2.6
X6.15Y-1.8
X6.45Y-2.6
X6.65Y-1.8
X6.95Y-2.6
X7.9Y-3.6
X7.9Y-3.8
X8.05Y-2.65
X8.3Y-1.8
X8.55Y-2.65
X8.8Y-1.8
X9.15Y-1.8
X9.15Y-2.65
X9.55Y-3.85
X9.55Y-4.05
X9.55Y-4.35
X9.55Y-4.55
X9.65Y-1.8
X9.65Y-2.65
X9.65Y-3.65
X9.65Y-4.75
X9.85Y-3.65
X9.85Y-4.75
T6
X5.25Y-2.25
X5.25Y-3.
X6.3Y-2.2
X6.3Y-3.
X7.15Y-1.25
X7.15Y-1.25
X7.8Y-1.25
X7.8Y-1.25
X8.65Y-2.2
X8.65Y-3.
X9.75Y-2.25
X9.75Y-3.
T0
M30
