G04 #@! TF.FileFunction,Copper,L2,Bot,Signal*
%FSLAX46Y46*%
G04 Gerber Fmt 4.6, Leading zero omitted, Abs format (unit mm)*
G04 Created by KiCad (PCBNEW 4.0.7) date 01/06/18 16:13:46*
%MOMM*%
%LPD*%
G01*
G04 APERTURE LIST*
%ADD10C,0.100000*%
%ADD11C,1.600000*%
%ADD12O,1.600000X1.600000*%
%ADD13C,1.520000*%
%ADD14R,1.520000X1.520000*%
%ADD15R,2.800000X2.800000*%
%ADD16O,2.800000X2.800000*%
%ADD17C,5.999480*%
%ADD18R,1.750000X1.750000*%
%ADD19C,1.750000*%
%ADD20C,0.812800*%
%ADD21C,0.254000*%
G04 APERTURE END LIST*
D10*
D11*
X214630000Y-82550000D03*
D12*
X212090000Y-82550000D03*
D13*
X229870000Y-99060000D03*
X229870000Y-101600000D03*
D14*
X229870000Y-96520000D03*
D11*
X229870000Y-104140000D03*
D12*
X229870000Y-106680000D03*
D15*
X245110000Y-120650000D03*
D16*
X250190000Y-120650000D03*
D15*
X242570000Y-115570000D03*
D16*
X242570000Y-110490000D03*
D15*
X242570000Y-97790000D03*
D16*
X242570000Y-102870000D03*
D15*
X245110000Y-92710000D03*
D16*
X250190000Y-92710000D03*
D17*
X247650000Y-76200000D03*
X179070000Y-29210000D03*
X219710000Y-76200000D03*
X219710000Y-55880000D03*
X198120000Y-29210000D03*
X247650000Y-57150000D03*
D13*
X231140000Y-119380000D03*
X233680000Y-119380000D03*
D14*
X228600000Y-119380000D03*
D13*
X224790000Y-119380000D03*
X224790000Y-121920000D03*
D14*
X224790000Y-116840000D03*
D13*
X213360000Y-93980000D03*
X210820000Y-93980000D03*
D14*
X215900000Y-93980000D03*
D13*
X213360000Y-123190000D03*
X210820000Y-123190000D03*
D14*
X215900000Y-123190000D03*
D13*
X213360000Y-114300000D03*
X210820000Y-114300000D03*
D14*
X215900000Y-114300000D03*
D13*
X231140000Y-113030000D03*
X228600000Y-113030000D03*
D14*
X233680000Y-113030000D03*
D13*
X214630000Y-100330000D03*
X212090000Y-100330000D03*
D14*
X217170000Y-100330000D03*
D13*
X213360000Y-109220000D03*
X210820000Y-109220000D03*
D14*
X215900000Y-109220000D03*
D11*
X224790000Y-95250000D03*
D12*
X224790000Y-92710000D03*
D11*
X233680000Y-100330000D03*
D12*
X233680000Y-97790000D03*
D11*
X224790000Y-100330000D03*
D12*
X224790000Y-97790000D03*
D11*
X233680000Y-123190000D03*
D12*
X236220000Y-123190000D03*
D11*
X233680000Y-107950000D03*
D12*
X233680000Y-105410000D03*
D11*
X219710000Y-95250000D03*
D12*
X219710000Y-92710000D03*
D11*
X222250000Y-107950000D03*
D12*
X222250000Y-105410000D03*
D11*
X219710000Y-100330000D03*
D12*
X219710000Y-97790000D03*
D11*
X226060000Y-107950000D03*
D12*
X226060000Y-105410000D03*
D11*
X229870000Y-92710000D03*
D12*
X232410000Y-92710000D03*
D11*
X243840000Y-82550000D03*
D12*
X241300000Y-82550000D03*
D11*
X214630000Y-62230000D03*
D12*
X212090000Y-62230000D03*
D11*
X243840000Y-62230000D03*
D12*
X241300000Y-62230000D03*
D18*
X250190000Y-101600000D03*
D19*
X250190000Y-104100000D03*
X250190000Y-106600000D03*
X250190000Y-109100000D03*
X250190000Y-111600000D03*
D15*
X135890000Y-92710000D03*
D16*
X130810000Y-92710000D03*
D15*
X138430000Y-97790000D03*
D16*
X138430000Y-102870000D03*
D15*
X138430000Y-115570000D03*
D16*
X138430000Y-110490000D03*
D15*
X135890000Y-120650000D03*
D16*
X130810000Y-120650000D03*
D18*
X130810000Y-111760000D03*
D19*
X130810000Y-109260000D03*
X130810000Y-106760000D03*
X130810000Y-104260000D03*
X130810000Y-101760000D03*
D17*
X132080000Y-57150000D03*
X198120000Y-29210000D03*
X160020000Y-55880000D03*
X160020000Y-76200000D03*
X179070000Y-29210000D03*
X132080000Y-76200000D03*
D13*
X154940000Y-121920000D03*
X152400000Y-121920000D03*
D14*
X157480000Y-121920000D03*
D13*
X157480000Y-111760000D03*
X154940000Y-111760000D03*
D14*
X160020000Y-111760000D03*
D13*
X160020000Y-106680000D03*
X157480000Y-106680000D03*
D14*
X162560000Y-106680000D03*
D13*
X167640000Y-111760000D03*
X165100000Y-111760000D03*
D14*
X170180000Y-111760000D03*
D13*
X162560000Y-96520000D03*
X165100000Y-96520000D03*
D14*
X160020000Y-96520000D03*
D13*
X162560000Y-101600000D03*
X165100000Y-101600000D03*
D14*
X160020000Y-101600000D03*
D13*
X154940000Y-116840000D03*
X152400000Y-116840000D03*
D14*
X157480000Y-116840000D03*
D13*
X170180000Y-101600000D03*
X167640000Y-101600000D03*
D14*
X172720000Y-101600000D03*
D13*
X167640000Y-106680000D03*
X165100000Y-106680000D03*
D14*
X170180000Y-106680000D03*
D11*
X153670000Y-107950000D03*
D12*
X151130000Y-107950000D03*
D11*
X151130000Y-111760000D03*
D12*
X148590000Y-111760000D03*
D11*
X151130000Y-104140000D03*
D12*
X153670000Y-104140000D03*
D11*
X148590000Y-121920000D03*
D12*
X146050000Y-121920000D03*
D11*
X162560000Y-118110000D03*
D12*
X162560000Y-120650000D03*
D11*
X156210000Y-95250000D03*
D12*
X153670000Y-95250000D03*
D11*
X170180000Y-96520000D03*
D12*
X170180000Y-93980000D03*
D11*
X156210000Y-99060000D03*
D12*
X153670000Y-99060000D03*
D11*
X176530000Y-96520000D03*
D12*
X173990000Y-96520000D03*
D11*
X148590000Y-116840000D03*
D12*
X146050000Y-116840000D03*
D11*
X156210000Y-91440000D03*
D12*
X153670000Y-91440000D03*
D11*
X166370000Y-50800000D03*
D12*
X168910000Y-50800000D03*
D11*
X137160000Y-49530000D03*
D12*
X139700000Y-49530000D03*
D11*
X168910000Y-68580000D03*
D12*
X168910000Y-71120000D03*
D11*
X139700000Y-68580000D03*
D12*
X139700000Y-71120000D03*
D11*
X207010000Y-44450000D03*
D12*
X207010000Y-36830000D03*
D11*
X203200000Y-44450000D03*
D12*
X203200000Y-36830000D03*
D11*
X199390000Y-44450000D03*
D12*
X199390000Y-36830000D03*
D11*
X195580000Y-44450000D03*
D12*
X195580000Y-36830000D03*
D11*
X191770000Y-44450000D03*
D12*
X191770000Y-36830000D03*
D11*
X187960000Y-44450000D03*
D12*
X187960000Y-36830000D03*
D11*
X184150000Y-44450000D03*
D12*
X184150000Y-36830000D03*
D11*
X180340000Y-44450000D03*
D12*
X180340000Y-36830000D03*
D11*
X176530000Y-44450000D03*
D12*
X176530000Y-36830000D03*
D11*
X172720000Y-44450000D03*
D12*
X172720000Y-36830000D03*
D15*
X204470000Y-67310000D03*
D16*
X217170000Y-67310000D03*
D15*
X232410000Y-67310000D03*
D16*
X245110000Y-67310000D03*
D15*
X210820000Y-45720000D03*
D16*
X223520000Y-45720000D03*
D15*
X229870000Y-45720000D03*
D16*
X242570000Y-45720000D03*
D15*
X168910000Y-45720000D03*
D16*
X156210000Y-45720000D03*
D15*
X147320000Y-45720000D03*
D16*
X134620000Y-45720000D03*
D15*
X176530000Y-66040000D03*
D16*
X163830000Y-66040000D03*
D15*
X147320000Y-66040000D03*
D16*
X134620000Y-66040000D03*
D20*
X130810000Y-106760000D02*
X140890000Y-106760000D01*
X143510000Y-104140000D02*
X151130000Y-104140000D01*
X140890000Y-106760000D02*
X143510000Y-104140000D01*
X160020000Y-101600000D02*
X160020000Y-102870000D01*
X160020000Y-102870000D02*
X161290000Y-104140000D01*
X162560000Y-106680000D02*
X162560000Y-104140000D01*
X162560000Y-104140000D02*
X161290000Y-104140000D01*
X137160000Y-40640000D02*
X137160000Y-45720000D01*
X137160000Y-45720000D02*
X134620000Y-45720000D01*
X162560000Y-46990000D02*
X162560000Y-38100000D01*
X163830000Y-46990000D02*
X162560000Y-46990000D01*
X162560000Y-38100000D02*
X161290000Y-38100000D01*
X163830000Y-46990000D02*
X163830000Y-49530000D01*
X165100000Y-49530000D02*
X163830000Y-49530000D01*
X166370000Y-50800000D02*
X165100000Y-49530000D01*
X137160000Y-38100000D02*
X161290000Y-38100000D01*
X137160000Y-40640000D02*
X137160000Y-38100000D01*
X168910000Y-68580000D02*
X168910000Y-62230000D01*
X166370000Y-54610000D02*
X166370000Y-50800000D01*
X167640000Y-54610000D02*
X166370000Y-54610000D01*
X167640000Y-60960000D02*
X167640000Y-54610000D01*
X168910000Y-62230000D02*
X167640000Y-60960000D01*
X242570000Y-90170000D02*
X243840000Y-90170000D01*
X238760000Y-90170000D02*
X242570000Y-90170000D01*
X243840000Y-82550000D02*
X243840000Y-90170000D01*
X238760000Y-90170000D02*
X238760000Y-95250000D01*
X215900000Y-123190000D02*
X215900000Y-125730000D01*
X228600000Y-125730000D02*
X228600000Y-119380000D01*
X215900000Y-125730000D02*
X228600000Y-125730000D01*
X228600000Y-116840000D02*
X228600000Y-115570000D01*
X233680000Y-115570000D02*
X233680000Y-113030000D01*
X228600000Y-115570000D02*
X233680000Y-115570000D01*
X224790000Y-116840000D02*
X228600000Y-116840000D01*
X228600000Y-116840000D02*
X228600000Y-119380000D01*
X215900000Y-93980000D02*
X217170000Y-93980000D01*
X217170000Y-93980000D02*
X217170000Y-100330000D01*
X217170000Y-100330000D02*
X219710000Y-100330000D01*
X224790000Y-100330000D02*
X219710000Y-100330000D01*
X229870000Y-96520000D02*
X231140000Y-95250000D01*
X231140000Y-95250000D02*
X238760000Y-95250000D01*
X238840000Y-104060000D02*
X238840000Y-106600000D01*
X238760000Y-95250000D02*
X238760000Y-104140000D01*
X238760000Y-104140000D02*
X238840000Y-104060000D01*
X238840000Y-106600000D02*
X250190000Y-106600000D01*
X233680000Y-105410000D02*
X236220000Y-105410000D01*
X236220000Y-115570000D02*
X242570000Y-115570000D01*
X236220000Y-105410000D02*
X236220000Y-115570000D01*
X162560000Y-120650000D02*
X162560000Y-125730000D01*
X143510000Y-111760000D02*
X148590000Y-111760000D01*
X143510000Y-125730000D02*
X143510000Y-111760000D01*
X162560000Y-125730000D02*
X143510000Y-125730000D01*
X151130000Y-107950000D02*
X142240000Y-107950000D01*
X142240000Y-113030000D02*
X139700000Y-115570000D01*
X142240000Y-107950000D02*
X142240000Y-113030000D01*
X241300000Y-87630000D02*
X240030000Y-87630000D01*
X215900000Y-87630000D02*
X240030000Y-87630000D01*
X241300000Y-82550000D02*
X241300000Y-87630000D01*
X210820000Y-92710000D02*
X215900000Y-87630000D01*
X210820000Y-92710000D02*
X210820000Y-93980000D01*
X210820000Y-93980000D02*
X209550000Y-93980000D01*
X209550000Y-95250000D02*
X209550000Y-93980000D01*
X229870000Y-101600000D02*
X228600000Y-101600000D01*
X209550000Y-105410000D02*
X209550000Y-95250000D01*
X218440000Y-105410000D02*
X209550000Y-105410000D01*
X220980000Y-102870000D02*
X218440000Y-105410000D01*
X227330000Y-102870000D02*
X220980000Y-102870000D01*
X228600000Y-101600000D02*
X227330000Y-102870000D01*
X229870000Y-92710000D02*
X229870000Y-90170000D01*
X213360000Y-92710000D02*
X213360000Y-93980000D01*
X215900000Y-90170000D02*
X213360000Y-92710000D01*
X229870000Y-90170000D02*
X215900000Y-90170000D01*
X233680000Y-107950000D02*
X232410000Y-109220000D01*
X210820000Y-120650000D02*
X210820000Y-123190000D01*
X217170000Y-120650000D02*
X210820000Y-120650000D01*
X228600000Y-109220000D02*
X217170000Y-120650000D01*
X232410000Y-109220000D02*
X228600000Y-109220000D01*
X238760000Y-71120000D02*
X238760000Y-64770000D01*
X238760000Y-64770000D02*
X241300000Y-62230000D01*
X208280000Y-92710000D02*
X215900000Y-85090000D01*
X215900000Y-85090000D02*
X218440000Y-85090000D01*
X207010000Y-97790000D02*
X207010000Y-93980000D01*
X207010000Y-93980000D02*
X208280000Y-92710000D01*
X207645000Y-93345000D02*
X207010000Y-93980000D01*
X207645000Y-93345000D02*
X208280000Y-92710000D01*
X238760000Y-76200000D02*
X238760000Y-71120000D01*
X238760000Y-85090000D02*
X238760000Y-76200000D01*
X218440000Y-85090000D02*
X238760000Y-85090000D01*
X207010000Y-111760000D02*
X207010000Y-97790000D01*
X210820000Y-111760000D02*
X207010000Y-111760000D01*
X222250000Y-107950000D02*
X218440000Y-111760000D01*
X218440000Y-111760000D02*
X210820000Y-111760000D01*
X210820000Y-109220000D02*
X210820000Y-111760000D01*
X210820000Y-111760000D02*
X210820000Y-114300000D01*
X209550000Y-71120000D02*
X209550000Y-64770000D01*
X209550000Y-64770000D02*
X212090000Y-62230000D01*
X209550000Y-86360000D02*
X208280000Y-87630000D01*
X204470000Y-91440000D02*
X208280000Y-87630000D01*
X204470000Y-118110000D02*
X204470000Y-91440000D01*
X215900000Y-118110000D02*
X204470000Y-118110000D01*
X215900000Y-118110000D02*
X226060000Y-107950000D01*
X209550000Y-86360000D02*
X209550000Y-71120000D01*
X162560000Y-118110000D02*
X158750000Y-114300000D01*
X157480000Y-114300000D02*
X157480000Y-111760000D01*
X158750000Y-114300000D02*
X157480000Y-114300000D01*
X165100000Y-101600000D02*
X165100000Y-99060000D01*
X165100000Y-99060000D02*
X156210000Y-99060000D01*
X147320000Y-45720000D02*
X149860000Y-54610000D01*
X160020000Y-106680000D02*
X160020000Y-105410000D01*
X158750000Y-104140000D02*
X153670000Y-104140000D01*
X160020000Y-105410000D02*
X158750000Y-104140000D01*
D21*
G36*
X234823000Y-60833000D02*
X219837000Y-60833000D01*
X219837000Y-59690000D01*
X219826994Y-59640590D01*
X219798553Y-59598965D01*
X219756159Y-59571685D01*
X219710000Y-59563000D01*
X214757000Y-59563000D01*
X214757000Y-58476443D01*
X217293162Y-58476443D01*
X217635723Y-58951063D01*
X218968863Y-59511084D01*
X220414834Y-59518305D01*
X221753501Y-58971627D01*
X221784277Y-58951063D01*
X222126838Y-58476443D01*
X219710000Y-56059605D01*
X217293162Y-58476443D01*
X214757000Y-58476443D01*
X214757000Y-56584834D01*
X216071695Y-56584834D01*
X216618373Y-57923501D01*
X216638937Y-57954277D01*
X217113557Y-58296838D01*
X219530395Y-55880000D01*
X219889605Y-55880000D01*
X222306443Y-58296838D01*
X222781063Y-57954277D01*
X223341084Y-56621137D01*
X223348305Y-55175166D01*
X222801627Y-53836499D01*
X222781063Y-53805723D01*
X222306443Y-53463162D01*
X219889605Y-55880000D01*
X219530395Y-55880000D01*
X217113557Y-53463162D01*
X216638937Y-53805723D01*
X216078916Y-55138863D01*
X216071695Y-56584834D01*
X214757000Y-56584834D01*
X214757000Y-53283557D01*
X217293162Y-53283557D01*
X219710000Y-55700395D01*
X222126838Y-53283557D01*
X221784277Y-52808937D01*
X220451137Y-52248916D01*
X219005166Y-52241695D01*
X217666499Y-52788373D01*
X217635723Y-52808937D01*
X217293162Y-53283557D01*
X214757000Y-53283557D01*
X214757000Y-50927000D01*
X215900000Y-50927000D01*
X215949410Y-50916994D01*
X215991035Y-50888553D01*
X216018315Y-50846159D01*
X216027000Y-50800000D01*
X216027000Y-46163160D01*
X221533840Y-46163160D01*
X221802205Y-46811070D01*
X222350499Y-47385389D01*
X223076839Y-47706167D01*
X223393000Y-47592290D01*
X223393000Y-45847000D01*
X223647000Y-45847000D01*
X223647000Y-47592290D01*
X223963161Y-47706167D01*
X224689501Y-47385389D01*
X225237795Y-46811070D01*
X225506160Y-46163160D01*
X225449296Y-46005750D01*
X227835000Y-46005750D01*
X227835000Y-47246310D01*
X227931673Y-47479699D01*
X228110302Y-47658327D01*
X228343691Y-47755000D01*
X229584250Y-47755000D01*
X229743000Y-47596250D01*
X229743000Y-45847000D01*
X229997000Y-45847000D01*
X229997000Y-47596250D01*
X230155750Y-47755000D01*
X231396309Y-47755000D01*
X231629698Y-47658327D01*
X231808327Y-47479699D01*
X231905000Y-47246310D01*
X231905000Y-46005750D01*
X231746250Y-45847000D01*
X229997000Y-45847000D01*
X229743000Y-45847000D01*
X227993750Y-45847000D01*
X227835000Y-46005750D01*
X225449296Y-46005750D01*
X225391947Y-45847000D01*
X223647000Y-45847000D01*
X223393000Y-45847000D01*
X221648053Y-45847000D01*
X221533840Y-46163160D01*
X216027000Y-46163160D01*
X216027000Y-45276840D01*
X221533840Y-45276840D01*
X221648053Y-45593000D01*
X223393000Y-45593000D01*
X223393000Y-43847710D01*
X223647000Y-43847710D01*
X223647000Y-45593000D01*
X225391947Y-45593000D01*
X225506160Y-45276840D01*
X225237795Y-44628930D01*
X224822278Y-44193690D01*
X227835000Y-44193690D01*
X227835000Y-45434250D01*
X227993750Y-45593000D01*
X229743000Y-45593000D01*
X229743000Y-43843750D01*
X229997000Y-43843750D01*
X229997000Y-45593000D01*
X231746250Y-45593000D01*
X231905000Y-45434250D01*
X231905000Y-44193690D01*
X231808327Y-43960301D01*
X231629698Y-43781673D01*
X231396309Y-43685000D01*
X230155750Y-43685000D01*
X229997000Y-43843750D01*
X229743000Y-43843750D01*
X229584250Y-43685000D01*
X228343691Y-43685000D01*
X228110302Y-43781673D01*
X227931673Y-43960301D01*
X227835000Y-44193690D01*
X224822278Y-44193690D01*
X224689501Y-44054611D01*
X223963161Y-43733833D01*
X223647000Y-43847710D01*
X223393000Y-43847710D01*
X223076839Y-43733833D01*
X222350499Y-44054611D01*
X221802205Y-44628930D01*
X221533840Y-45276840D01*
X216027000Y-45276840D01*
X216027000Y-42037000D01*
X234823000Y-42037000D01*
X234823000Y-60833000D01*
X234823000Y-60833000D01*
G37*
X234823000Y-60833000D02*
X219837000Y-60833000D01*
X219837000Y-59690000D01*
X219826994Y-59640590D01*
X219798553Y-59598965D01*
X219756159Y-59571685D01*
X219710000Y-59563000D01*
X214757000Y-59563000D01*
X214757000Y-58476443D01*
X217293162Y-58476443D01*
X217635723Y-58951063D01*
X218968863Y-59511084D01*
X220414834Y-59518305D01*
X221753501Y-58971627D01*
X221784277Y-58951063D01*
X222126838Y-58476443D01*
X219710000Y-56059605D01*
X217293162Y-58476443D01*
X214757000Y-58476443D01*
X214757000Y-56584834D01*
X216071695Y-56584834D01*
X216618373Y-57923501D01*
X216638937Y-57954277D01*
X217113557Y-58296838D01*
X219530395Y-55880000D01*
X219889605Y-55880000D01*
X222306443Y-58296838D01*
X222781063Y-57954277D01*
X223341084Y-56621137D01*
X223348305Y-55175166D01*
X222801627Y-53836499D01*
X222781063Y-53805723D01*
X222306443Y-53463162D01*
X219889605Y-55880000D01*
X219530395Y-55880000D01*
X217113557Y-53463162D01*
X216638937Y-53805723D01*
X216078916Y-55138863D01*
X216071695Y-56584834D01*
X214757000Y-56584834D01*
X214757000Y-53283557D01*
X217293162Y-53283557D01*
X219710000Y-55700395D01*
X222126838Y-53283557D01*
X221784277Y-52808937D01*
X220451137Y-52248916D01*
X219005166Y-52241695D01*
X217666499Y-52788373D01*
X217635723Y-52808937D01*
X217293162Y-53283557D01*
X214757000Y-53283557D01*
X214757000Y-50927000D01*
X215900000Y-50927000D01*
X215949410Y-50916994D01*
X215991035Y-50888553D01*
X216018315Y-50846159D01*
X216027000Y-50800000D01*
X216027000Y-46163160D01*
X221533840Y-46163160D01*
X221802205Y-46811070D01*
X222350499Y-47385389D01*
X223076839Y-47706167D01*
X223393000Y-47592290D01*
X223393000Y-45847000D01*
X223647000Y-45847000D01*
X223647000Y-47592290D01*
X223963161Y-47706167D01*
X224689501Y-47385389D01*
X225237795Y-46811070D01*
X225506160Y-46163160D01*
X225449296Y-46005750D01*
X227835000Y-46005750D01*
X227835000Y-47246310D01*
X227931673Y-47479699D01*
X228110302Y-47658327D01*
X228343691Y-47755000D01*
X229584250Y-47755000D01*
X229743000Y-47596250D01*
X229743000Y-45847000D01*
X229997000Y-45847000D01*
X229997000Y-47596250D01*
X230155750Y-47755000D01*
X231396309Y-47755000D01*
X231629698Y-47658327D01*
X231808327Y-47479699D01*
X231905000Y-47246310D01*
X231905000Y-46005750D01*
X231746250Y-45847000D01*
X229997000Y-45847000D01*
X229743000Y-45847000D01*
X227993750Y-45847000D01*
X227835000Y-46005750D01*
X225449296Y-46005750D01*
X225391947Y-45847000D01*
X223647000Y-45847000D01*
X223393000Y-45847000D01*
X221648053Y-45847000D01*
X221533840Y-46163160D01*
X216027000Y-46163160D01*
X216027000Y-45276840D01*
X221533840Y-45276840D01*
X221648053Y-45593000D01*
X223393000Y-45593000D01*
X223393000Y-43847710D01*
X223647000Y-43847710D01*
X223647000Y-45593000D01*
X225391947Y-45593000D01*
X225506160Y-45276840D01*
X225237795Y-44628930D01*
X224822278Y-44193690D01*
X227835000Y-44193690D01*
X227835000Y-45434250D01*
X227993750Y-45593000D01*
X229743000Y-45593000D01*
X229743000Y-43843750D01*
X229997000Y-43843750D01*
X229997000Y-45593000D01*
X231746250Y-45593000D01*
X231905000Y-45434250D01*
X231905000Y-44193690D01*
X231808327Y-43960301D01*
X231629698Y-43781673D01*
X231396309Y-43685000D01*
X230155750Y-43685000D01*
X229997000Y-43843750D01*
X229743000Y-43843750D01*
X229584250Y-43685000D01*
X228343691Y-43685000D01*
X228110302Y-43781673D01*
X227931673Y-43960301D01*
X227835000Y-44193690D01*
X224822278Y-44193690D01*
X224689501Y-44054611D01*
X223963161Y-43733833D01*
X223647000Y-43847710D01*
X223393000Y-43847710D01*
X223076839Y-43733833D01*
X222350499Y-44054611D01*
X221802205Y-44628930D01*
X221533840Y-45276840D01*
X216027000Y-45276840D01*
X216027000Y-42037000D01*
X234823000Y-42037000D01*
X234823000Y-60833000D01*
G36*
X213233000Y-49403000D02*
X205740000Y-49403000D01*
X205690590Y-49413006D01*
X205648965Y-49441447D01*
X205621685Y-49483841D01*
X205613000Y-49530000D01*
X205613000Y-65275000D01*
X204755750Y-65275000D01*
X204597000Y-65433750D01*
X204597000Y-67183000D01*
X204617000Y-67183000D01*
X204617000Y-67437000D01*
X204597000Y-67437000D01*
X204597000Y-69186250D01*
X204755750Y-69345000D01*
X205613000Y-69345000D01*
X205613000Y-82423000D01*
X174117000Y-82423000D01*
X174117000Y-66325750D01*
X174495000Y-66325750D01*
X174495000Y-67566310D01*
X174591673Y-67799699D01*
X174770302Y-67978327D01*
X175003691Y-68075000D01*
X176244250Y-68075000D01*
X176403000Y-67916250D01*
X176403000Y-66167000D01*
X176657000Y-66167000D01*
X176657000Y-67916250D01*
X176815750Y-68075000D01*
X178056309Y-68075000D01*
X178289698Y-67978327D01*
X178468327Y-67799699D01*
X178552805Y-67595750D01*
X202435000Y-67595750D01*
X202435000Y-68836310D01*
X202531673Y-69069699D01*
X202710302Y-69248327D01*
X202943691Y-69345000D01*
X204184250Y-69345000D01*
X204343000Y-69186250D01*
X204343000Y-67437000D01*
X202593750Y-67437000D01*
X202435000Y-67595750D01*
X178552805Y-67595750D01*
X178565000Y-67566310D01*
X178565000Y-66325750D01*
X178406250Y-66167000D01*
X176657000Y-66167000D01*
X176403000Y-66167000D01*
X174653750Y-66167000D01*
X174495000Y-66325750D01*
X174117000Y-66325750D01*
X174117000Y-64513690D01*
X174495000Y-64513690D01*
X174495000Y-65754250D01*
X174653750Y-65913000D01*
X176403000Y-65913000D01*
X176403000Y-64163750D01*
X176657000Y-64163750D01*
X176657000Y-65913000D01*
X178406250Y-65913000D01*
X178535560Y-65783690D01*
X202435000Y-65783690D01*
X202435000Y-67024250D01*
X202593750Y-67183000D01*
X204343000Y-67183000D01*
X204343000Y-65433750D01*
X204184250Y-65275000D01*
X202943691Y-65275000D01*
X202710302Y-65371673D01*
X202531673Y-65550301D01*
X202435000Y-65783690D01*
X178535560Y-65783690D01*
X178565000Y-65754250D01*
X178565000Y-64513690D01*
X178468327Y-64280301D01*
X178289698Y-64101673D01*
X178056309Y-64005000D01*
X176815750Y-64005000D01*
X176657000Y-64163750D01*
X176403000Y-64163750D01*
X176244250Y-64005000D01*
X175003691Y-64005000D01*
X174770302Y-64101673D01*
X174591673Y-64280301D01*
X174495000Y-64513690D01*
X174117000Y-64513690D01*
X174117000Y-48260000D01*
X174106994Y-48210590D01*
X174078553Y-48168965D01*
X174036159Y-48141685D01*
X173990000Y-48133000D01*
X166497000Y-48133000D01*
X166497000Y-46005750D01*
X166875000Y-46005750D01*
X166875000Y-47246310D01*
X166971673Y-47479699D01*
X167150302Y-47658327D01*
X167383691Y-47755000D01*
X168624250Y-47755000D01*
X168783000Y-47596250D01*
X168783000Y-45847000D01*
X169037000Y-45847000D01*
X169037000Y-47596250D01*
X169195750Y-47755000D01*
X170436309Y-47755000D01*
X170669698Y-47658327D01*
X170848327Y-47479699D01*
X170945000Y-47246310D01*
X170945000Y-46005750D01*
X208785000Y-46005750D01*
X208785000Y-47246310D01*
X208881673Y-47479699D01*
X209060302Y-47658327D01*
X209293691Y-47755000D01*
X210534250Y-47755000D01*
X210693000Y-47596250D01*
X210693000Y-45847000D01*
X210947000Y-45847000D01*
X210947000Y-47596250D01*
X211105750Y-47755000D01*
X212346309Y-47755000D01*
X212579698Y-47658327D01*
X212758327Y-47479699D01*
X212855000Y-47246310D01*
X212855000Y-46005750D01*
X212696250Y-45847000D01*
X210947000Y-45847000D01*
X210693000Y-45847000D01*
X208943750Y-45847000D01*
X208785000Y-46005750D01*
X170945000Y-46005750D01*
X170786250Y-45847000D01*
X169037000Y-45847000D01*
X168783000Y-45847000D01*
X167033750Y-45847000D01*
X166875000Y-46005750D01*
X166497000Y-46005750D01*
X166497000Y-44193690D01*
X166875000Y-44193690D01*
X166875000Y-45434250D01*
X167033750Y-45593000D01*
X168783000Y-45593000D01*
X168783000Y-43843750D01*
X169037000Y-43843750D01*
X169037000Y-45593000D01*
X170786250Y-45593000D01*
X170921505Y-45457745D01*
X171891861Y-45457745D01*
X171965995Y-45703864D01*
X172503223Y-45896965D01*
X173073454Y-45869778D01*
X173474005Y-45703864D01*
X173548139Y-45457745D01*
X175701861Y-45457745D01*
X175775995Y-45703864D01*
X176313223Y-45896965D01*
X176883454Y-45869778D01*
X177284005Y-45703864D01*
X177358139Y-45457745D01*
X179511861Y-45457745D01*
X179585995Y-45703864D01*
X180123223Y-45896965D01*
X180693454Y-45869778D01*
X181094005Y-45703864D01*
X181168139Y-45457745D01*
X183321861Y-45457745D01*
X183395995Y-45703864D01*
X183933223Y-45896965D01*
X184503454Y-45869778D01*
X184904005Y-45703864D01*
X184978139Y-45457745D01*
X187131861Y-45457745D01*
X187205995Y-45703864D01*
X187743223Y-45896965D01*
X188313454Y-45869778D01*
X188714005Y-45703864D01*
X188788139Y-45457745D01*
X190941861Y-45457745D01*
X191015995Y-45703864D01*
X191553223Y-45896965D01*
X192123454Y-45869778D01*
X192524005Y-45703864D01*
X192598139Y-45457745D01*
X194751861Y-45457745D01*
X194825995Y-45703864D01*
X195363223Y-45896965D01*
X195933454Y-45869778D01*
X196334005Y-45703864D01*
X196408139Y-45457745D01*
X198561861Y-45457745D01*
X198635995Y-45703864D01*
X199173223Y-45896965D01*
X199743454Y-45869778D01*
X200144005Y-45703864D01*
X200218139Y-45457745D01*
X202371861Y-45457745D01*
X202445995Y-45703864D01*
X202983223Y-45896965D01*
X203553454Y-45869778D01*
X203954005Y-45703864D01*
X204028139Y-45457745D01*
X206181861Y-45457745D01*
X206255995Y-45703864D01*
X206793223Y-45896965D01*
X207363454Y-45869778D01*
X207764005Y-45703864D01*
X207838139Y-45457745D01*
X207010000Y-44629605D01*
X206181861Y-45457745D01*
X204028139Y-45457745D01*
X203200000Y-44629605D01*
X202371861Y-45457745D01*
X200218139Y-45457745D01*
X199390000Y-44629605D01*
X198561861Y-45457745D01*
X196408139Y-45457745D01*
X195580000Y-44629605D01*
X194751861Y-45457745D01*
X192598139Y-45457745D01*
X191770000Y-44629605D01*
X190941861Y-45457745D01*
X188788139Y-45457745D01*
X187960000Y-44629605D01*
X187131861Y-45457745D01*
X184978139Y-45457745D01*
X184150000Y-44629605D01*
X183321861Y-45457745D01*
X181168139Y-45457745D01*
X180340000Y-44629605D01*
X179511861Y-45457745D01*
X177358139Y-45457745D01*
X176530000Y-44629605D01*
X175701861Y-45457745D01*
X173548139Y-45457745D01*
X172720000Y-44629605D01*
X171891861Y-45457745D01*
X170921505Y-45457745D01*
X170945000Y-45434250D01*
X170945000Y-44233223D01*
X171273035Y-44233223D01*
X171300222Y-44803454D01*
X171466136Y-45204005D01*
X171712255Y-45278139D01*
X172540395Y-44450000D01*
X172899605Y-44450000D01*
X173727745Y-45278139D01*
X173973864Y-45204005D01*
X174166965Y-44666777D01*
X174146295Y-44233223D01*
X175083035Y-44233223D01*
X175110222Y-44803454D01*
X175276136Y-45204005D01*
X175522255Y-45278139D01*
X176350395Y-44450000D01*
X176709605Y-44450000D01*
X177537745Y-45278139D01*
X177783864Y-45204005D01*
X177976965Y-44666777D01*
X177956295Y-44233223D01*
X178893035Y-44233223D01*
X178920222Y-44803454D01*
X179086136Y-45204005D01*
X179332255Y-45278139D01*
X180160395Y-44450000D01*
X180519605Y-44450000D01*
X181347745Y-45278139D01*
X181593864Y-45204005D01*
X181786965Y-44666777D01*
X181766295Y-44233223D01*
X182703035Y-44233223D01*
X182730222Y-44803454D01*
X182896136Y-45204005D01*
X183142255Y-45278139D01*
X183970395Y-44450000D01*
X184329605Y-44450000D01*
X185157745Y-45278139D01*
X185403864Y-45204005D01*
X185596965Y-44666777D01*
X185576295Y-44233223D01*
X186513035Y-44233223D01*
X186540222Y-44803454D01*
X186706136Y-45204005D01*
X186952255Y-45278139D01*
X187780395Y-44450000D01*
X188139605Y-44450000D01*
X188967745Y-45278139D01*
X189213864Y-45204005D01*
X189406965Y-44666777D01*
X189386295Y-44233223D01*
X190323035Y-44233223D01*
X190350222Y-44803454D01*
X190516136Y-45204005D01*
X190762255Y-45278139D01*
X191590395Y-44450000D01*
X191949605Y-44450000D01*
X192777745Y-45278139D01*
X193023864Y-45204005D01*
X193216965Y-44666777D01*
X193196295Y-44233223D01*
X194133035Y-44233223D01*
X194160222Y-44803454D01*
X194326136Y-45204005D01*
X194572255Y-45278139D01*
X195400395Y-44450000D01*
X195759605Y-44450000D01*
X196587745Y-45278139D01*
X196833864Y-45204005D01*
X197026965Y-44666777D01*
X197006295Y-44233223D01*
X197943035Y-44233223D01*
X197970222Y-44803454D01*
X198136136Y-45204005D01*
X198382255Y-45278139D01*
X199210395Y-44450000D01*
X199569605Y-44450000D01*
X200397745Y-45278139D01*
X200643864Y-45204005D01*
X200836965Y-44666777D01*
X200816295Y-44233223D01*
X201753035Y-44233223D01*
X201780222Y-44803454D01*
X201946136Y-45204005D01*
X202192255Y-45278139D01*
X203020395Y-44450000D01*
X203379605Y-44450000D01*
X204207745Y-45278139D01*
X204453864Y-45204005D01*
X204646965Y-44666777D01*
X204626295Y-44233223D01*
X205563035Y-44233223D01*
X205590222Y-44803454D01*
X205756136Y-45204005D01*
X206002255Y-45278139D01*
X206830395Y-44450000D01*
X207189605Y-44450000D01*
X208017745Y-45278139D01*
X208263864Y-45204005D01*
X208456965Y-44666777D01*
X208434410Y-44193690D01*
X208785000Y-44193690D01*
X208785000Y-45434250D01*
X208943750Y-45593000D01*
X210693000Y-45593000D01*
X210693000Y-43843750D01*
X210947000Y-43843750D01*
X210947000Y-45593000D01*
X212696250Y-45593000D01*
X212855000Y-45434250D01*
X212855000Y-44193690D01*
X212758327Y-43960301D01*
X212579698Y-43781673D01*
X212346309Y-43685000D01*
X211105750Y-43685000D01*
X210947000Y-43843750D01*
X210693000Y-43843750D01*
X210534250Y-43685000D01*
X209293691Y-43685000D01*
X209060302Y-43781673D01*
X208881673Y-43960301D01*
X208785000Y-44193690D01*
X208434410Y-44193690D01*
X208429778Y-44096546D01*
X208263864Y-43695995D01*
X208017745Y-43621861D01*
X207189605Y-44450000D01*
X206830395Y-44450000D01*
X206002255Y-43621861D01*
X205756136Y-43695995D01*
X205563035Y-44233223D01*
X204626295Y-44233223D01*
X204619778Y-44096546D01*
X204453864Y-43695995D01*
X204207745Y-43621861D01*
X203379605Y-44450000D01*
X203020395Y-44450000D01*
X202192255Y-43621861D01*
X201946136Y-43695995D01*
X201753035Y-44233223D01*
X200816295Y-44233223D01*
X200809778Y-44096546D01*
X200643864Y-43695995D01*
X200397745Y-43621861D01*
X199569605Y-44450000D01*
X199210395Y-44450000D01*
X198382255Y-43621861D01*
X198136136Y-43695995D01*
X197943035Y-44233223D01*
X197006295Y-44233223D01*
X196999778Y-44096546D01*
X196833864Y-43695995D01*
X196587745Y-43621861D01*
X195759605Y-44450000D01*
X195400395Y-44450000D01*
X194572255Y-43621861D01*
X194326136Y-43695995D01*
X194133035Y-44233223D01*
X193196295Y-44233223D01*
X193189778Y-44096546D01*
X193023864Y-43695995D01*
X192777745Y-43621861D01*
X191949605Y-44450000D01*
X191590395Y-44450000D01*
X190762255Y-43621861D01*
X190516136Y-43695995D01*
X190323035Y-44233223D01*
X189386295Y-44233223D01*
X189379778Y-44096546D01*
X189213864Y-43695995D01*
X188967745Y-43621861D01*
X188139605Y-44450000D01*
X187780395Y-44450000D01*
X186952255Y-43621861D01*
X186706136Y-43695995D01*
X186513035Y-44233223D01*
X185576295Y-44233223D01*
X185569778Y-44096546D01*
X185403864Y-43695995D01*
X185157745Y-43621861D01*
X184329605Y-44450000D01*
X183970395Y-44450000D01*
X183142255Y-43621861D01*
X182896136Y-43695995D01*
X182703035Y-44233223D01*
X181766295Y-44233223D01*
X181759778Y-44096546D01*
X181593864Y-43695995D01*
X181347745Y-43621861D01*
X180519605Y-44450000D01*
X180160395Y-44450000D01*
X179332255Y-43621861D01*
X179086136Y-43695995D01*
X178893035Y-44233223D01*
X177956295Y-44233223D01*
X177949778Y-44096546D01*
X177783864Y-43695995D01*
X177537745Y-43621861D01*
X176709605Y-44450000D01*
X176350395Y-44450000D01*
X175522255Y-43621861D01*
X175276136Y-43695995D01*
X175083035Y-44233223D01*
X174146295Y-44233223D01*
X174139778Y-44096546D01*
X173973864Y-43695995D01*
X173727745Y-43621861D01*
X172899605Y-44450000D01*
X172540395Y-44450000D01*
X171712255Y-43621861D01*
X171466136Y-43695995D01*
X171273035Y-44233223D01*
X170945000Y-44233223D01*
X170945000Y-44193690D01*
X170848327Y-43960301D01*
X170669698Y-43781673D01*
X170436309Y-43685000D01*
X169195750Y-43685000D01*
X169037000Y-43843750D01*
X168783000Y-43843750D01*
X168624250Y-43685000D01*
X167383691Y-43685000D01*
X167150302Y-43781673D01*
X166971673Y-43960301D01*
X166875000Y-44193690D01*
X166497000Y-44193690D01*
X166497000Y-43442255D01*
X171891861Y-43442255D01*
X172720000Y-44270395D01*
X173548139Y-43442255D01*
X175701861Y-43442255D01*
X176530000Y-44270395D01*
X177358139Y-43442255D01*
X179511861Y-43442255D01*
X180340000Y-44270395D01*
X181168139Y-43442255D01*
X183321861Y-43442255D01*
X184150000Y-44270395D01*
X184978139Y-43442255D01*
X187131861Y-43442255D01*
X187960000Y-44270395D01*
X188788139Y-43442255D01*
X190941861Y-43442255D01*
X191770000Y-44270395D01*
X192598139Y-43442255D01*
X194751861Y-43442255D01*
X195580000Y-44270395D01*
X196408139Y-43442255D01*
X198561861Y-43442255D01*
X199390000Y-44270395D01*
X200218139Y-43442255D01*
X202371861Y-43442255D01*
X203200000Y-44270395D01*
X204028139Y-43442255D01*
X206181861Y-43442255D01*
X207010000Y-44270395D01*
X207838139Y-43442255D01*
X207764005Y-43196136D01*
X207226777Y-43003035D01*
X206656546Y-43030222D01*
X206255995Y-43196136D01*
X206181861Y-43442255D01*
X204028139Y-43442255D01*
X203954005Y-43196136D01*
X203416777Y-43003035D01*
X202846546Y-43030222D01*
X202445995Y-43196136D01*
X202371861Y-43442255D01*
X200218139Y-43442255D01*
X200144005Y-43196136D01*
X199606777Y-43003035D01*
X199036546Y-43030222D01*
X198635995Y-43196136D01*
X198561861Y-43442255D01*
X196408139Y-43442255D01*
X196334005Y-43196136D01*
X195796777Y-43003035D01*
X195226546Y-43030222D01*
X194825995Y-43196136D01*
X194751861Y-43442255D01*
X192598139Y-43442255D01*
X192524005Y-43196136D01*
X191986777Y-43003035D01*
X191416546Y-43030222D01*
X191015995Y-43196136D01*
X190941861Y-43442255D01*
X188788139Y-43442255D01*
X188714005Y-43196136D01*
X188176777Y-43003035D01*
X187606546Y-43030222D01*
X187205995Y-43196136D01*
X187131861Y-43442255D01*
X184978139Y-43442255D01*
X184904005Y-43196136D01*
X184366777Y-43003035D01*
X183796546Y-43030222D01*
X183395995Y-43196136D01*
X183321861Y-43442255D01*
X181168139Y-43442255D01*
X181094005Y-43196136D01*
X180556777Y-43003035D01*
X179986546Y-43030222D01*
X179585995Y-43196136D01*
X179511861Y-43442255D01*
X177358139Y-43442255D01*
X177284005Y-43196136D01*
X176746777Y-43003035D01*
X176176546Y-43030222D01*
X175775995Y-43196136D01*
X175701861Y-43442255D01*
X173548139Y-43442255D01*
X173474005Y-43196136D01*
X172936777Y-43003035D01*
X172366546Y-43030222D01*
X171965995Y-43196136D01*
X171891861Y-43442255D01*
X166497000Y-43442255D01*
X166497000Y-42037000D01*
X213233000Y-42037000D01*
X213233000Y-49403000D01*
X213233000Y-49403000D01*
G37*
X213233000Y-49403000D02*
X205740000Y-49403000D01*
X205690590Y-49413006D01*
X205648965Y-49441447D01*
X205621685Y-49483841D01*
X205613000Y-49530000D01*
X205613000Y-65275000D01*
X204755750Y-65275000D01*
X204597000Y-65433750D01*
X204597000Y-67183000D01*
X204617000Y-67183000D01*
X204617000Y-67437000D01*
X204597000Y-67437000D01*
X204597000Y-69186250D01*
X204755750Y-69345000D01*
X205613000Y-69345000D01*
X205613000Y-82423000D01*
X174117000Y-82423000D01*
X174117000Y-66325750D01*
X174495000Y-66325750D01*
X174495000Y-67566310D01*
X174591673Y-67799699D01*
X174770302Y-67978327D01*
X175003691Y-68075000D01*
X176244250Y-68075000D01*
X176403000Y-67916250D01*
X176403000Y-66167000D01*
X176657000Y-66167000D01*
X176657000Y-67916250D01*
X176815750Y-68075000D01*
X178056309Y-68075000D01*
X178289698Y-67978327D01*
X178468327Y-67799699D01*
X178552805Y-67595750D01*
X202435000Y-67595750D01*
X202435000Y-68836310D01*
X202531673Y-69069699D01*
X202710302Y-69248327D01*
X202943691Y-69345000D01*
X204184250Y-69345000D01*
X204343000Y-69186250D01*
X204343000Y-67437000D01*
X202593750Y-67437000D01*
X202435000Y-67595750D01*
X178552805Y-67595750D01*
X178565000Y-67566310D01*
X178565000Y-66325750D01*
X178406250Y-66167000D01*
X176657000Y-66167000D01*
X176403000Y-66167000D01*
X174653750Y-66167000D01*
X174495000Y-66325750D01*
X174117000Y-66325750D01*
X174117000Y-64513690D01*
X174495000Y-64513690D01*
X174495000Y-65754250D01*
X174653750Y-65913000D01*
X176403000Y-65913000D01*
X176403000Y-64163750D01*
X176657000Y-64163750D01*
X176657000Y-65913000D01*
X178406250Y-65913000D01*
X178535560Y-65783690D01*
X202435000Y-65783690D01*
X202435000Y-67024250D01*
X202593750Y-67183000D01*
X204343000Y-67183000D01*
X204343000Y-65433750D01*
X204184250Y-65275000D01*
X202943691Y-65275000D01*
X202710302Y-65371673D01*
X202531673Y-65550301D01*
X202435000Y-65783690D01*
X178535560Y-65783690D01*
X178565000Y-65754250D01*
X178565000Y-64513690D01*
X178468327Y-64280301D01*
X178289698Y-64101673D01*
X178056309Y-64005000D01*
X176815750Y-64005000D01*
X176657000Y-64163750D01*
X176403000Y-64163750D01*
X176244250Y-64005000D01*
X175003691Y-64005000D01*
X174770302Y-64101673D01*
X174591673Y-64280301D01*
X174495000Y-64513690D01*
X174117000Y-64513690D01*
X174117000Y-48260000D01*
X174106994Y-48210590D01*
X174078553Y-48168965D01*
X174036159Y-48141685D01*
X173990000Y-48133000D01*
X166497000Y-48133000D01*
X166497000Y-46005750D01*
X166875000Y-46005750D01*
X166875000Y-47246310D01*
X166971673Y-47479699D01*
X167150302Y-47658327D01*
X167383691Y-47755000D01*
X168624250Y-47755000D01*
X168783000Y-47596250D01*
X168783000Y-45847000D01*
X169037000Y-45847000D01*
X169037000Y-47596250D01*
X169195750Y-47755000D01*
X170436309Y-47755000D01*
X170669698Y-47658327D01*
X170848327Y-47479699D01*
X170945000Y-47246310D01*
X170945000Y-46005750D01*
X208785000Y-46005750D01*
X208785000Y-47246310D01*
X208881673Y-47479699D01*
X209060302Y-47658327D01*
X209293691Y-47755000D01*
X210534250Y-47755000D01*
X210693000Y-47596250D01*
X210693000Y-45847000D01*
X210947000Y-45847000D01*
X210947000Y-47596250D01*
X211105750Y-47755000D01*
X212346309Y-47755000D01*
X212579698Y-47658327D01*
X212758327Y-47479699D01*
X212855000Y-47246310D01*
X212855000Y-46005750D01*
X212696250Y-45847000D01*
X210947000Y-45847000D01*
X210693000Y-45847000D01*
X208943750Y-45847000D01*
X208785000Y-46005750D01*
X170945000Y-46005750D01*
X170786250Y-45847000D01*
X169037000Y-45847000D01*
X168783000Y-45847000D01*
X167033750Y-45847000D01*
X166875000Y-46005750D01*
X166497000Y-46005750D01*
X166497000Y-44193690D01*
X166875000Y-44193690D01*
X166875000Y-45434250D01*
X167033750Y-45593000D01*
X168783000Y-45593000D01*
X168783000Y-43843750D01*
X169037000Y-43843750D01*
X169037000Y-45593000D01*
X170786250Y-45593000D01*
X170921505Y-45457745D01*
X171891861Y-45457745D01*
X171965995Y-45703864D01*
X172503223Y-45896965D01*
X173073454Y-45869778D01*
X173474005Y-45703864D01*
X173548139Y-45457745D01*
X175701861Y-45457745D01*
X175775995Y-45703864D01*
X176313223Y-45896965D01*
X176883454Y-45869778D01*
X177284005Y-45703864D01*
X177358139Y-45457745D01*
X179511861Y-45457745D01*
X179585995Y-45703864D01*
X180123223Y-45896965D01*
X180693454Y-45869778D01*
X181094005Y-45703864D01*
X181168139Y-45457745D01*
X183321861Y-45457745D01*
X183395995Y-45703864D01*
X183933223Y-45896965D01*
X184503454Y-45869778D01*
X184904005Y-45703864D01*
X184978139Y-45457745D01*
X187131861Y-45457745D01*
X187205995Y-45703864D01*
X187743223Y-45896965D01*
X188313454Y-45869778D01*
X188714005Y-45703864D01*
X188788139Y-45457745D01*
X190941861Y-45457745D01*
X191015995Y-45703864D01*
X191553223Y-45896965D01*
X192123454Y-45869778D01*
X192524005Y-45703864D01*
X192598139Y-45457745D01*
X194751861Y-45457745D01*
X194825995Y-45703864D01*
X195363223Y-45896965D01*
X195933454Y-45869778D01*
X196334005Y-45703864D01*
X196408139Y-45457745D01*
X198561861Y-45457745D01*
X198635995Y-45703864D01*
X199173223Y-45896965D01*
X199743454Y-45869778D01*
X200144005Y-45703864D01*
X200218139Y-45457745D01*
X202371861Y-45457745D01*
X202445995Y-45703864D01*
X202983223Y-45896965D01*
X203553454Y-45869778D01*
X203954005Y-45703864D01*
X204028139Y-45457745D01*
X206181861Y-45457745D01*
X206255995Y-45703864D01*
X206793223Y-45896965D01*
X207363454Y-45869778D01*
X207764005Y-45703864D01*
X207838139Y-45457745D01*
X207010000Y-44629605D01*
X206181861Y-45457745D01*
X204028139Y-45457745D01*
X203200000Y-44629605D01*
X202371861Y-45457745D01*
X200218139Y-45457745D01*
X199390000Y-44629605D01*
X198561861Y-45457745D01*
X196408139Y-45457745D01*
X195580000Y-44629605D01*
X194751861Y-45457745D01*
X192598139Y-45457745D01*
X191770000Y-44629605D01*
X190941861Y-45457745D01*
X188788139Y-45457745D01*
X187960000Y-44629605D01*
X187131861Y-45457745D01*
X184978139Y-45457745D01*
X184150000Y-44629605D01*
X183321861Y-45457745D01*
X181168139Y-45457745D01*
X180340000Y-44629605D01*
X179511861Y-45457745D01*
X177358139Y-45457745D01*
X176530000Y-44629605D01*
X175701861Y-45457745D01*
X173548139Y-45457745D01*
X172720000Y-44629605D01*
X171891861Y-45457745D01*
X170921505Y-45457745D01*
X170945000Y-45434250D01*
X170945000Y-44233223D01*
X171273035Y-44233223D01*
X171300222Y-44803454D01*
X171466136Y-45204005D01*
X171712255Y-45278139D01*
X172540395Y-44450000D01*
X172899605Y-44450000D01*
X173727745Y-45278139D01*
X173973864Y-45204005D01*
X174166965Y-44666777D01*
X174146295Y-44233223D01*
X175083035Y-44233223D01*
X175110222Y-44803454D01*
X175276136Y-45204005D01*
X175522255Y-45278139D01*
X176350395Y-44450000D01*
X176709605Y-44450000D01*
X177537745Y-45278139D01*
X177783864Y-45204005D01*
X177976965Y-44666777D01*
X177956295Y-44233223D01*
X178893035Y-44233223D01*
X178920222Y-44803454D01*
X179086136Y-45204005D01*
X179332255Y-45278139D01*
X180160395Y-44450000D01*
X180519605Y-44450000D01*
X181347745Y-45278139D01*
X181593864Y-45204005D01*
X181786965Y-44666777D01*
X181766295Y-44233223D01*
X182703035Y-44233223D01*
X182730222Y-44803454D01*
X182896136Y-45204005D01*
X183142255Y-45278139D01*
X183970395Y-44450000D01*
X184329605Y-44450000D01*
X185157745Y-45278139D01*
X185403864Y-45204005D01*
X185596965Y-44666777D01*
X185576295Y-44233223D01*
X186513035Y-44233223D01*
X186540222Y-44803454D01*
X186706136Y-45204005D01*
X186952255Y-45278139D01*
X187780395Y-44450000D01*
X188139605Y-44450000D01*
X188967745Y-45278139D01*
X189213864Y-45204005D01*
X189406965Y-44666777D01*
X189386295Y-44233223D01*
X190323035Y-44233223D01*
X190350222Y-44803454D01*
X190516136Y-45204005D01*
X190762255Y-45278139D01*
X191590395Y-44450000D01*
X191949605Y-44450000D01*
X192777745Y-45278139D01*
X193023864Y-45204005D01*
X193216965Y-44666777D01*
X193196295Y-44233223D01*
X194133035Y-44233223D01*
X194160222Y-44803454D01*
X194326136Y-45204005D01*
X194572255Y-45278139D01*
X195400395Y-44450000D01*
X195759605Y-44450000D01*
X196587745Y-45278139D01*
X196833864Y-45204005D01*
X197026965Y-44666777D01*
X197006295Y-44233223D01*
X197943035Y-44233223D01*
X197970222Y-44803454D01*
X198136136Y-45204005D01*
X198382255Y-45278139D01*
X199210395Y-44450000D01*
X199569605Y-44450000D01*
X200397745Y-45278139D01*
X200643864Y-45204005D01*
X200836965Y-44666777D01*
X200816295Y-44233223D01*
X201753035Y-44233223D01*
X201780222Y-44803454D01*
X201946136Y-45204005D01*
X202192255Y-45278139D01*
X203020395Y-44450000D01*
X203379605Y-44450000D01*
X204207745Y-45278139D01*
X204453864Y-45204005D01*
X204646965Y-44666777D01*
X204626295Y-44233223D01*
X205563035Y-44233223D01*
X205590222Y-44803454D01*
X205756136Y-45204005D01*
X206002255Y-45278139D01*
X206830395Y-44450000D01*
X207189605Y-44450000D01*
X208017745Y-45278139D01*
X208263864Y-45204005D01*
X208456965Y-44666777D01*
X208434410Y-44193690D01*
X208785000Y-44193690D01*
X208785000Y-45434250D01*
X208943750Y-45593000D01*
X210693000Y-45593000D01*
X210693000Y-43843750D01*
X210947000Y-43843750D01*
X210947000Y-45593000D01*
X212696250Y-45593000D01*
X212855000Y-45434250D01*
X212855000Y-44193690D01*
X212758327Y-43960301D01*
X212579698Y-43781673D01*
X212346309Y-43685000D01*
X211105750Y-43685000D01*
X210947000Y-43843750D01*
X210693000Y-43843750D01*
X210534250Y-43685000D01*
X209293691Y-43685000D01*
X209060302Y-43781673D01*
X208881673Y-43960301D01*
X208785000Y-44193690D01*
X208434410Y-44193690D01*
X208429778Y-44096546D01*
X208263864Y-43695995D01*
X208017745Y-43621861D01*
X207189605Y-44450000D01*
X206830395Y-44450000D01*
X206002255Y-43621861D01*
X205756136Y-43695995D01*
X205563035Y-44233223D01*
X204626295Y-44233223D01*
X204619778Y-44096546D01*
X204453864Y-43695995D01*
X204207745Y-43621861D01*
X203379605Y-44450000D01*
X203020395Y-44450000D01*
X202192255Y-43621861D01*
X201946136Y-43695995D01*
X201753035Y-44233223D01*
X200816295Y-44233223D01*
X200809778Y-44096546D01*
X200643864Y-43695995D01*
X200397745Y-43621861D01*
X199569605Y-44450000D01*
X199210395Y-44450000D01*
X198382255Y-43621861D01*
X198136136Y-43695995D01*
X197943035Y-44233223D01*
X197006295Y-44233223D01*
X196999778Y-44096546D01*
X196833864Y-43695995D01*
X196587745Y-43621861D01*
X195759605Y-44450000D01*
X195400395Y-44450000D01*
X194572255Y-43621861D01*
X194326136Y-43695995D01*
X194133035Y-44233223D01*
X193196295Y-44233223D01*
X193189778Y-44096546D01*
X193023864Y-43695995D01*
X192777745Y-43621861D01*
X191949605Y-44450000D01*
X191590395Y-44450000D01*
X190762255Y-43621861D01*
X190516136Y-43695995D01*
X190323035Y-44233223D01*
X189386295Y-44233223D01*
X189379778Y-44096546D01*
X189213864Y-43695995D01*
X188967745Y-43621861D01*
X188139605Y-44450000D01*
X187780395Y-44450000D01*
X186952255Y-43621861D01*
X186706136Y-43695995D01*
X186513035Y-44233223D01*
X185576295Y-44233223D01*
X185569778Y-44096546D01*
X185403864Y-43695995D01*
X185157745Y-43621861D01*
X184329605Y-44450000D01*
X183970395Y-44450000D01*
X183142255Y-43621861D01*
X182896136Y-43695995D01*
X182703035Y-44233223D01*
X181766295Y-44233223D01*
X181759778Y-44096546D01*
X181593864Y-43695995D01*
X181347745Y-43621861D01*
X180519605Y-44450000D01*
X180160395Y-44450000D01*
X179332255Y-43621861D01*
X179086136Y-43695995D01*
X178893035Y-44233223D01*
X177956295Y-44233223D01*
X177949778Y-44096546D01*
X177783864Y-43695995D01*
X177537745Y-43621861D01*
X176709605Y-44450000D01*
X176350395Y-44450000D01*
X175522255Y-43621861D01*
X175276136Y-43695995D01*
X175083035Y-44233223D01*
X174146295Y-44233223D01*
X174139778Y-44096546D01*
X173973864Y-43695995D01*
X173727745Y-43621861D01*
X172899605Y-44450000D01*
X172540395Y-44450000D01*
X171712255Y-43621861D01*
X171466136Y-43695995D01*
X171273035Y-44233223D01*
X170945000Y-44233223D01*
X170945000Y-44193690D01*
X170848327Y-43960301D01*
X170669698Y-43781673D01*
X170436309Y-43685000D01*
X169195750Y-43685000D01*
X169037000Y-43843750D01*
X168783000Y-43843750D01*
X168624250Y-43685000D01*
X167383691Y-43685000D01*
X167150302Y-43781673D01*
X166971673Y-43960301D01*
X166875000Y-44193690D01*
X166497000Y-44193690D01*
X166497000Y-43442255D01*
X171891861Y-43442255D01*
X172720000Y-44270395D01*
X173548139Y-43442255D01*
X175701861Y-43442255D01*
X176530000Y-44270395D01*
X177358139Y-43442255D01*
X179511861Y-43442255D01*
X180340000Y-44270395D01*
X181168139Y-43442255D01*
X183321861Y-43442255D01*
X184150000Y-44270395D01*
X184978139Y-43442255D01*
X187131861Y-43442255D01*
X187960000Y-44270395D01*
X188788139Y-43442255D01*
X190941861Y-43442255D01*
X191770000Y-44270395D01*
X192598139Y-43442255D01*
X194751861Y-43442255D01*
X195580000Y-44270395D01*
X196408139Y-43442255D01*
X198561861Y-43442255D01*
X199390000Y-44270395D01*
X200218139Y-43442255D01*
X202371861Y-43442255D01*
X203200000Y-44270395D01*
X204028139Y-43442255D01*
X206181861Y-43442255D01*
X207010000Y-44270395D01*
X207838139Y-43442255D01*
X207764005Y-43196136D01*
X207226777Y-43003035D01*
X206656546Y-43030222D01*
X206255995Y-43196136D01*
X206181861Y-43442255D01*
X204028139Y-43442255D01*
X203954005Y-43196136D01*
X203416777Y-43003035D01*
X202846546Y-43030222D01*
X202445995Y-43196136D01*
X202371861Y-43442255D01*
X200218139Y-43442255D01*
X200144005Y-43196136D01*
X199606777Y-43003035D01*
X199036546Y-43030222D01*
X198635995Y-43196136D01*
X198561861Y-43442255D01*
X196408139Y-43442255D01*
X196334005Y-43196136D01*
X195796777Y-43003035D01*
X195226546Y-43030222D01*
X194825995Y-43196136D01*
X194751861Y-43442255D01*
X192598139Y-43442255D01*
X192524005Y-43196136D01*
X191986777Y-43003035D01*
X191416546Y-43030222D01*
X191015995Y-43196136D01*
X190941861Y-43442255D01*
X188788139Y-43442255D01*
X188714005Y-43196136D01*
X188176777Y-43003035D01*
X187606546Y-43030222D01*
X187205995Y-43196136D01*
X187131861Y-43442255D01*
X184978139Y-43442255D01*
X184904005Y-43196136D01*
X184366777Y-43003035D01*
X183796546Y-43030222D01*
X183395995Y-43196136D01*
X183321861Y-43442255D01*
X181168139Y-43442255D01*
X181094005Y-43196136D01*
X180556777Y-43003035D01*
X179986546Y-43030222D01*
X179585995Y-43196136D01*
X179511861Y-43442255D01*
X177358139Y-43442255D01*
X177284005Y-43196136D01*
X176746777Y-43003035D01*
X176176546Y-43030222D01*
X175775995Y-43196136D01*
X175701861Y-43442255D01*
X173548139Y-43442255D01*
X173474005Y-43196136D01*
X172936777Y-43003035D01*
X172366546Y-43030222D01*
X171965995Y-43196136D01*
X171891861Y-43442255D01*
X166497000Y-43442255D01*
X166497000Y-42037000D01*
X213233000Y-42037000D01*
X213233000Y-49403000D01*
G36*
X234823000Y-82423000D02*
X218567000Y-82423000D01*
X218567000Y-80010000D01*
X218556994Y-79960590D01*
X218528553Y-79918965D01*
X218486159Y-79891685D01*
X218440000Y-79883000D01*
X213487000Y-79883000D01*
X213487000Y-78796443D01*
X217293162Y-78796443D01*
X217635723Y-79271063D01*
X218968863Y-79831084D01*
X220414834Y-79838305D01*
X221753501Y-79291627D01*
X221784277Y-79271063D01*
X222126838Y-78796443D01*
X219710000Y-76379605D01*
X217293162Y-78796443D01*
X213487000Y-78796443D01*
X213487000Y-76904834D01*
X216071695Y-76904834D01*
X216618373Y-78243501D01*
X216638937Y-78274277D01*
X217113557Y-78616838D01*
X219530395Y-76200000D01*
X219889605Y-76200000D01*
X222306443Y-78616838D01*
X222781063Y-78274277D01*
X223341084Y-76941137D01*
X223348305Y-75495166D01*
X222801627Y-74156499D01*
X222781063Y-74125723D01*
X222306443Y-73783162D01*
X219889605Y-76200000D01*
X219530395Y-76200000D01*
X217113557Y-73783162D01*
X216638937Y-74125723D01*
X216078916Y-75458863D01*
X216071695Y-76904834D01*
X213487000Y-76904834D01*
X213487000Y-73603557D01*
X217293162Y-73603557D01*
X219710000Y-76020395D01*
X222126838Y-73603557D01*
X221784277Y-73128937D01*
X220451137Y-72568916D01*
X219005166Y-72561695D01*
X217666499Y-73108373D01*
X217635723Y-73128937D01*
X217293162Y-73603557D01*
X213487000Y-73603557D01*
X213487000Y-67753160D01*
X215183840Y-67753160D01*
X215452205Y-68401070D01*
X216000499Y-68975389D01*
X216726839Y-69296167D01*
X217043000Y-69182290D01*
X217043000Y-67437000D01*
X217297000Y-67437000D01*
X217297000Y-69182290D01*
X217613161Y-69296167D01*
X218339501Y-68975389D01*
X218887795Y-68401070D01*
X219156160Y-67753160D01*
X219099296Y-67595750D01*
X230375000Y-67595750D01*
X230375000Y-68836310D01*
X230471673Y-69069699D01*
X230650302Y-69248327D01*
X230883691Y-69345000D01*
X232124250Y-69345000D01*
X232283000Y-69186250D01*
X232283000Y-67437000D01*
X232537000Y-67437000D01*
X232537000Y-69186250D01*
X232695750Y-69345000D01*
X233936309Y-69345000D01*
X234169698Y-69248327D01*
X234348327Y-69069699D01*
X234445000Y-68836310D01*
X234445000Y-67595750D01*
X234286250Y-67437000D01*
X232537000Y-67437000D01*
X232283000Y-67437000D01*
X230533750Y-67437000D01*
X230375000Y-67595750D01*
X219099296Y-67595750D01*
X219041947Y-67437000D01*
X217297000Y-67437000D01*
X217043000Y-67437000D01*
X215298053Y-67437000D01*
X215183840Y-67753160D01*
X213487000Y-67753160D01*
X213487000Y-66866840D01*
X215183840Y-66866840D01*
X215298053Y-67183000D01*
X217043000Y-67183000D01*
X217043000Y-65437710D01*
X217297000Y-65437710D01*
X217297000Y-67183000D01*
X219041947Y-67183000D01*
X219156160Y-66866840D01*
X218887795Y-66218930D01*
X218472278Y-65783690D01*
X230375000Y-65783690D01*
X230375000Y-67024250D01*
X230533750Y-67183000D01*
X232283000Y-67183000D01*
X232283000Y-65433750D01*
X232537000Y-65433750D01*
X232537000Y-67183000D01*
X234286250Y-67183000D01*
X234445000Y-67024250D01*
X234445000Y-65783690D01*
X234348327Y-65550301D01*
X234169698Y-65371673D01*
X233936309Y-65275000D01*
X232695750Y-65275000D01*
X232537000Y-65433750D01*
X232283000Y-65433750D01*
X232124250Y-65275000D01*
X230883691Y-65275000D01*
X230650302Y-65371673D01*
X230471673Y-65550301D01*
X230375000Y-65783690D01*
X218472278Y-65783690D01*
X218339501Y-65644611D01*
X217613161Y-65323833D01*
X217297000Y-65437710D01*
X217043000Y-65437710D01*
X216726839Y-65323833D01*
X216000499Y-65644611D01*
X215452205Y-66218930D01*
X215183840Y-66866840D01*
X213487000Y-66866840D01*
X213487000Y-64897000D01*
X234823000Y-64897000D01*
X234823000Y-82423000D01*
X234823000Y-82423000D01*
G37*
X234823000Y-82423000D02*
X218567000Y-82423000D01*
X218567000Y-80010000D01*
X218556994Y-79960590D01*
X218528553Y-79918965D01*
X218486159Y-79891685D01*
X218440000Y-79883000D01*
X213487000Y-79883000D01*
X213487000Y-78796443D01*
X217293162Y-78796443D01*
X217635723Y-79271063D01*
X218968863Y-79831084D01*
X220414834Y-79838305D01*
X221753501Y-79291627D01*
X221784277Y-79271063D01*
X222126838Y-78796443D01*
X219710000Y-76379605D01*
X217293162Y-78796443D01*
X213487000Y-78796443D01*
X213487000Y-76904834D01*
X216071695Y-76904834D01*
X216618373Y-78243501D01*
X216638937Y-78274277D01*
X217113557Y-78616838D01*
X219530395Y-76200000D01*
X219889605Y-76200000D01*
X222306443Y-78616838D01*
X222781063Y-78274277D01*
X223341084Y-76941137D01*
X223348305Y-75495166D01*
X222801627Y-74156499D01*
X222781063Y-74125723D01*
X222306443Y-73783162D01*
X219889605Y-76200000D01*
X219530395Y-76200000D01*
X217113557Y-73783162D01*
X216638937Y-74125723D01*
X216078916Y-75458863D01*
X216071695Y-76904834D01*
X213487000Y-76904834D01*
X213487000Y-73603557D01*
X217293162Y-73603557D01*
X219710000Y-76020395D01*
X222126838Y-73603557D01*
X221784277Y-73128937D01*
X220451137Y-72568916D01*
X219005166Y-72561695D01*
X217666499Y-73108373D01*
X217635723Y-73128937D01*
X217293162Y-73603557D01*
X213487000Y-73603557D01*
X213487000Y-67753160D01*
X215183840Y-67753160D01*
X215452205Y-68401070D01*
X216000499Y-68975389D01*
X216726839Y-69296167D01*
X217043000Y-69182290D01*
X217043000Y-67437000D01*
X217297000Y-67437000D01*
X217297000Y-69182290D01*
X217613161Y-69296167D01*
X218339501Y-68975389D01*
X218887795Y-68401070D01*
X219156160Y-67753160D01*
X219099296Y-67595750D01*
X230375000Y-67595750D01*
X230375000Y-68836310D01*
X230471673Y-69069699D01*
X230650302Y-69248327D01*
X230883691Y-69345000D01*
X232124250Y-69345000D01*
X232283000Y-69186250D01*
X232283000Y-67437000D01*
X232537000Y-67437000D01*
X232537000Y-69186250D01*
X232695750Y-69345000D01*
X233936309Y-69345000D01*
X234169698Y-69248327D01*
X234348327Y-69069699D01*
X234445000Y-68836310D01*
X234445000Y-67595750D01*
X234286250Y-67437000D01*
X232537000Y-67437000D01*
X232283000Y-67437000D01*
X230533750Y-67437000D01*
X230375000Y-67595750D01*
X219099296Y-67595750D01*
X219041947Y-67437000D01*
X217297000Y-67437000D01*
X217043000Y-67437000D01*
X215298053Y-67437000D01*
X215183840Y-67753160D01*
X213487000Y-67753160D01*
X213487000Y-66866840D01*
X215183840Y-66866840D01*
X215298053Y-67183000D01*
X217043000Y-67183000D01*
X217043000Y-65437710D01*
X217297000Y-65437710D01*
X217297000Y-67183000D01*
X219041947Y-67183000D01*
X219156160Y-66866840D01*
X218887795Y-66218930D01*
X218472278Y-65783690D01*
X230375000Y-65783690D01*
X230375000Y-67024250D01*
X230533750Y-67183000D01*
X232283000Y-67183000D01*
X232283000Y-65433750D01*
X232537000Y-65433750D01*
X232537000Y-67183000D01*
X234286250Y-67183000D01*
X234445000Y-67024250D01*
X234445000Y-65783690D01*
X234348327Y-65550301D01*
X234169698Y-65371673D01*
X233936309Y-65275000D01*
X232695750Y-65275000D01*
X232537000Y-65433750D01*
X232283000Y-65433750D01*
X232124250Y-65275000D01*
X230883691Y-65275000D01*
X230650302Y-65371673D01*
X230471673Y-65550301D01*
X230375000Y-65783690D01*
X218472278Y-65783690D01*
X218339501Y-65644611D01*
X217613161Y-65323833D01*
X217297000Y-65437710D01*
X217043000Y-65437710D01*
X216726839Y-65323833D01*
X216000499Y-65644611D01*
X215452205Y-66218930D01*
X215183840Y-66866840D01*
X213487000Y-66866840D01*
X213487000Y-64897000D01*
X234823000Y-64897000D01*
X234823000Y-82423000D01*
G36*
X253315000Y-83693000D02*
X244627399Y-83693000D01*
X244668139Y-83557745D01*
X243840000Y-82729605D01*
X243011861Y-83557745D01*
X243052601Y-83693000D01*
X242697000Y-83693000D01*
X242697000Y-83337399D01*
X242832255Y-83378139D01*
X243660395Y-82550000D01*
X244019605Y-82550000D01*
X244847745Y-83378139D01*
X245093864Y-83304005D01*
X245286965Y-82766777D01*
X245259778Y-82196546D01*
X245093864Y-81795995D01*
X244847745Y-81721861D01*
X244019605Y-82550000D01*
X243660395Y-82550000D01*
X242832255Y-81721861D01*
X242697000Y-81762601D01*
X242697000Y-81542255D01*
X243011861Y-81542255D01*
X243840000Y-82370395D01*
X244668139Y-81542255D01*
X244594005Y-81296136D01*
X244056777Y-81103035D01*
X243486546Y-81130222D01*
X243085995Y-81296136D01*
X243011861Y-81542255D01*
X242697000Y-81542255D01*
X242697000Y-78796443D01*
X245233162Y-78796443D01*
X245575723Y-79271063D01*
X246908863Y-79831084D01*
X248354834Y-79838305D01*
X249693501Y-79291627D01*
X249724277Y-79271063D01*
X250066838Y-78796443D01*
X247650000Y-76379605D01*
X245233162Y-78796443D01*
X242697000Y-78796443D01*
X242697000Y-76904834D01*
X244011695Y-76904834D01*
X244558373Y-78243501D01*
X244578937Y-78274277D01*
X245053557Y-78616838D01*
X247470395Y-76200000D01*
X247829605Y-76200000D01*
X250246443Y-78616838D01*
X250721063Y-78274277D01*
X251281084Y-76941137D01*
X251288305Y-75495166D01*
X250741627Y-74156499D01*
X250721063Y-74125723D01*
X250246443Y-73783162D01*
X247829605Y-76200000D01*
X247470395Y-76200000D01*
X245053557Y-73783162D01*
X244578937Y-74125723D01*
X244018916Y-75458863D01*
X244011695Y-76904834D01*
X242697000Y-76904834D01*
X242697000Y-73603557D01*
X245233162Y-73603557D01*
X247650000Y-76020395D01*
X250066838Y-73603557D01*
X249724277Y-73128937D01*
X248391137Y-72568916D01*
X246945166Y-72561695D01*
X245606499Y-73108373D01*
X245575723Y-73128937D01*
X245233162Y-73603557D01*
X242697000Y-73603557D01*
X242697000Y-67753160D01*
X243123840Y-67753160D01*
X243392205Y-68401070D01*
X243940499Y-68975389D01*
X244666839Y-69296167D01*
X244983000Y-69182290D01*
X244983000Y-67437000D01*
X245237000Y-67437000D01*
X245237000Y-69182290D01*
X245553161Y-69296167D01*
X246279501Y-68975389D01*
X246827795Y-68401070D01*
X247096160Y-67753160D01*
X246981947Y-67437000D01*
X245237000Y-67437000D01*
X244983000Y-67437000D01*
X243238053Y-67437000D01*
X243123840Y-67753160D01*
X242697000Y-67753160D01*
X242697000Y-66866840D01*
X243123840Y-66866840D01*
X243238053Y-67183000D01*
X244983000Y-67183000D01*
X244983000Y-65437710D01*
X245237000Y-65437710D01*
X245237000Y-67183000D01*
X246981947Y-67183000D01*
X247096160Y-66866840D01*
X246827795Y-66218930D01*
X246279501Y-65644611D01*
X245553161Y-65323833D01*
X245237000Y-65437710D01*
X244983000Y-65437710D01*
X244666839Y-65323833D01*
X243940499Y-65644611D01*
X243392205Y-66218930D01*
X243123840Y-66866840D01*
X242697000Y-66866840D01*
X242697000Y-63237745D01*
X243011861Y-63237745D01*
X243085995Y-63483864D01*
X243623223Y-63676965D01*
X244193454Y-63649778D01*
X244594005Y-63483864D01*
X244668139Y-63237745D01*
X243840000Y-62409605D01*
X243011861Y-63237745D01*
X242697000Y-63237745D01*
X242697000Y-63017399D01*
X242832255Y-63058139D01*
X243660395Y-62230000D01*
X244019605Y-62230000D01*
X244847745Y-63058139D01*
X245093864Y-62984005D01*
X245286965Y-62446777D01*
X245259778Y-61876546D01*
X245093864Y-61475995D01*
X244847745Y-61401861D01*
X244019605Y-62230000D01*
X243660395Y-62230000D01*
X242832255Y-61401861D01*
X242697000Y-61442601D01*
X242697000Y-61087000D01*
X243052601Y-61087000D01*
X243011861Y-61222255D01*
X243840000Y-62050395D01*
X244668139Y-61222255D01*
X244594005Y-60976136D01*
X244056777Y-60783035D01*
X243967000Y-60787315D01*
X243967000Y-59746443D01*
X245233162Y-59746443D01*
X245575723Y-60221063D01*
X246908863Y-60781084D01*
X248354834Y-60788305D01*
X249693501Y-60241627D01*
X249724277Y-60221063D01*
X250066838Y-59746443D01*
X247650000Y-57329605D01*
X245233162Y-59746443D01*
X243967000Y-59746443D01*
X243967000Y-57854834D01*
X244011695Y-57854834D01*
X244558373Y-59193501D01*
X244578937Y-59224277D01*
X245053557Y-59566838D01*
X247470395Y-57150000D01*
X247829605Y-57150000D01*
X250246443Y-59566838D01*
X250721063Y-59224277D01*
X251281084Y-57891137D01*
X251288305Y-56445166D01*
X250741627Y-55106499D01*
X250721063Y-55075723D01*
X250246443Y-54733162D01*
X247829605Y-57150000D01*
X247470395Y-57150000D01*
X245053557Y-54733162D01*
X244578937Y-55075723D01*
X244018916Y-56408863D01*
X244011695Y-57854834D01*
X243967000Y-57854834D01*
X243967000Y-54553557D01*
X245233162Y-54553557D01*
X247650000Y-56970395D01*
X250066838Y-54553557D01*
X249724277Y-54078937D01*
X248391137Y-53518916D01*
X246945166Y-53511695D01*
X245606499Y-54058373D01*
X245575723Y-54078937D01*
X245233162Y-54553557D01*
X243967000Y-54553557D01*
X243967000Y-50800000D01*
X243956994Y-50750590D01*
X243928553Y-50708965D01*
X243886159Y-50681685D01*
X243840000Y-50673000D01*
X240157000Y-50673000D01*
X240157000Y-46163160D01*
X240583840Y-46163160D01*
X240852205Y-46811070D01*
X241400499Y-47385389D01*
X242126839Y-47706167D01*
X242443000Y-47592290D01*
X242443000Y-45847000D01*
X242697000Y-45847000D01*
X242697000Y-47592290D01*
X243013161Y-47706167D01*
X243739501Y-47385389D01*
X244287795Y-46811070D01*
X244556160Y-46163160D01*
X244441947Y-45847000D01*
X242697000Y-45847000D01*
X242443000Y-45847000D01*
X240698053Y-45847000D01*
X240583840Y-46163160D01*
X240157000Y-46163160D01*
X240157000Y-45276840D01*
X240583840Y-45276840D01*
X240698053Y-45593000D01*
X242443000Y-45593000D01*
X242443000Y-43847710D01*
X242697000Y-43847710D01*
X242697000Y-45593000D01*
X244441947Y-45593000D01*
X244556160Y-45276840D01*
X244287795Y-44628930D01*
X243739501Y-44054611D01*
X243013161Y-43733833D01*
X242697000Y-43847710D01*
X242443000Y-43847710D01*
X242126839Y-43733833D01*
X241400499Y-44054611D01*
X240852205Y-44628930D01*
X240583840Y-45276840D01*
X240157000Y-45276840D01*
X240157000Y-42037000D01*
X253315000Y-42037000D01*
X253315000Y-83693000D01*
X253315000Y-83693000D01*
G37*
X253315000Y-83693000D02*
X244627399Y-83693000D01*
X244668139Y-83557745D01*
X243840000Y-82729605D01*
X243011861Y-83557745D01*
X243052601Y-83693000D01*
X242697000Y-83693000D01*
X242697000Y-83337399D01*
X242832255Y-83378139D01*
X243660395Y-82550000D01*
X244019605Y-82550000D01*
X244847745Y-83378139D01*
X245093864Y-83304005D01*
X245286965Y-82766777D01*
X245259778Y-82196546D01*
X245093864Y-81795995D01*
X244847745Y-81721861D01*
X244019605Y-82550000D01*
X243660395Y-82550000D01*
X242832255Y-81721861D01*
X242697000Y-81762601D01*
X242697000Y-81542255D01*
X243011861Y-81542255D01*
X243840000Y-82370395D01*
X244668139Y-81542255D01*
X244594005Y-81296136D01*
X244056777Y-81103035D01*
X243486546Y-81130222D01*
X243085995Y-81296136D01*
X243011861Y-81542255D01*
X242697000Y-81542255D01*
X242697000Y-78796443D01*
X245233162Y-78796443D01*
X245575723Y-79271063D01*
X246908863Y-79831084D01*
X248354834Y-79838305D01*
X249693501Y-79291627D01*
X249724277Y-79271063D01*
X250066838Y-78796443D01*
X247650000Y-76379605D01*
X245233162Y-78796443D01*
X242697000Y-78796443D01*
X242697000Y-76904834D01*
X244011695Y-76904834D01*
X244558373Y-78243501D01*
X244578937Y-78274277D01*
X245053557Y-78616838D01*
X247470395Y-76200000D01*
X247829605Y-76200000D01*
X250246443Y-78616838D01*
X250721063Y-78274277D01*
X251281084Y-76941137D01*
X251288305Y-75495166D01*
X250741627Y-74156499D01*
X250721063Y-74125723D01*
X250246443Y-73783162D01*
X247829605Y-76200000D01*
X247470395Y-76200000D01*
X245053557Y-73783162D01*
X244578937Y-74125723D01*
X244018916Y-75458863D01*
X244011695Y-76904834D01*
X242697000Y-76904834D01*
X242697000Y-73603557D01*
X245233162Y-73603557D01*
X247650000Y-76020395D01*
X250066838Y-73603557D01*
X249724277Y-73128937D01*
X248391137Y-72568916D01*
X246945166Y-72561695D01*
X245606499Y-73108373D01*
X245575723Y-73128937D01*
X245233162Y-73603557D01*
X242697000Y-73603557D01*
X242697000Y-67753160D01*
X243123840Y-67753160D01*
X243392205Y-68401070D01*
X243940499Y-68975389D01*
X244666839Y-69296167D01*
X244983000Y-69182290D01*
X244983000Y-67437000D01*
X245237000Y-67437000D01*
X245237000Y-69182290D01*
X245553161Y-69296167D01*
X246279501Y-68975389D01*
X246827795Y-68401070D01*
X247096160Y-67753160D01*
X246981947Y-67437000D01*
X245237000Y-67437000D01*
X244983000Y-67437000D01*
X243238053Y-67437000D01*
X243123840Y-67753160D01*
X242697000Y-67753160D01*
X242697000Y-66866840D01*
X243123840Y-66866840D01*
X243238053Y-67183000D01*
X244983000Y-67183000D01*
X244983000Y-65437710D01*
X245237000Y-65437710D01*
X245237000Y-67183000D01*
X246981947Y-67183000D01*
X247096160Y-66866840D01*
X246827795Y-66218930D01*
X246279501Y-65644611D01*
X245553161Y-65323833D01*
X245237000Y-65437710D01*
X244983000Y-65437710D01*
X244666839Y-65323833D01*
X243940499Y-65644611D01*
X243392205Y-66218930D01*
X243123840Y-66866840D01*
X242697000Y-66866840D01*
X242697000Y-63237745D01*
X243011861Y-63237745D01*
X243085995Y-63483864D01*
X243623223Y-63676965D01*
X244193454Y-63649778D01*
X244594005Y-63483864D01*
X244668139Y-63237745D01*
X243840000Y-62409605D01*
X243011861Y-63237745D01*
X242697000Y-63237745D01*
X242697000Y-63017399D01*
X242832255Y-63058139D01*
X243660395Y-62230000D01*
X244019605Y-62230000D01*
X244847745Y-63058139D01*
X245093864Y-62984005D01*
X245286965Y-62446777D01*
X245259778Y-61876546D01*
X245093864Y-61475995D01*
X244847745Y-61401861D01*
X244019605Y-62230000D01*
X243660395Y-62230000D01*
X242832255Y-61401861D01*
X242697000Y-61442601D01*
X242697000Y-61087000D01*
X243052601Y-61087000D01*
X243011861Y-61222255D01*
X243840000Y-62050395D01*
X244668139Y-61222255D01*
X244594005Y-60976136D01*
X244056777Y-60783035D01*
X243967000Y-60787315D01*
X243967000Y-59746443D01*
X245233162Y-59746443D01*
X245575723Y-60221063D01*
X246908863Y-60781084D01*
X248354834Y-60788305D01*
X249693501Y-60241627D01*
X249724277Y-60221063D01*
X250066838Y-59746443D01*
X247650000Y-57329605D01*
X245233162Y-59746443D01*
X243967000Y-59746443D01*
X243967000Y-57854834D01*
X244011695Y-57854834D01*
X244558373Y-59193501D01*
X244578937Y-59224277D01*
X245053557Y-59566838D01*
X247470395Y-57150000D01*
X247829605Y-57150000D01*
X250246443Y-59566838D01*
X250721063Y-59224277D01*
X251281084Y-57891137D01*
X251288305Y-56445166D01*
X250741627Y-55106499D01*
X250721063Y-55075723D01*
X250246443Y-54733162D01*
X247829605Y-57150000D01*
X247470395Y-57150000D01*
X245053557Y-54733162D01*
X244578937Y-55075723D01*
X244018916Y-56408863D01*
X244011695Y-57854834D01*
X243967000Y-57854834D01*
X243967000Y-54553557D01*
X245233162Y-54553557D01*
X247650000Y-56970395D01*
X250066838Y-54553557D01*
X249724277Y-54078937D01*
X248391137Y-53518916D01*
X246945166Y-53511695D01*
X245606499Y-54058373D01*
X245575723Y-54078937D01*
X245233162Y-54553557D01*
X243967000Y-54553557D01*
X243967000Y-50800000D01*
X243956994Y-50750590D01*
X243928553Y-50708965D01*
X243886159Y-50681685D01*
X243840000Y-50673000D01*
X240157000Y-50673000D01*
X240157000Y-46163160D01*
X240583840Y-46163160D01*
X240852205Y-46811070D01*
X241400499Y-47385389D01*
X242126839Y-47706167D01*
X242443000Y-47592290D01*
X242443000Y-45847000D01*
X242697000Y-45847000D01*
X242697000Y-47592290D01*
X243013161Y-47706167D01*
X243739501Y-47385389D01*
X244287795Y-46811070D01*
X244556160Y-46163160D01*
X244441947Y-45847000D01*
X242697000Y-45847000D01*
X242443000Y-45847000D01*
X240698053Y-45847000D01*
X240583840Y-46163160D01*
X240157000Y-46163160D01*
X240157000Y-45276840D01*
X240583840Y-45276840D01*
X240698053Y-45593000D01*
X242443000Y-45593000D01*
X242443000Y-43847710D01*
X242697000Y-43847710D01*
X242697000Y-45593000D01*
X244441947Y-45593000D01*
X244556160Y-45276840D01*
X244287795Y-44628930D01*
X243739501Y-44054611D01*
X243013161Y-43733833D01*
X242697000Y-43847710D01*
X242443000Y-43847710D01*
X242126839Y-43733833D01*
X241400499Y-44054611D01*
X240852205Y-44628930D01*
X240583840Y-45276840D01*
X240157000Y-45276840D01*
X240157000Y-42037000D01*
X253315000Y-42037000D01*
X253315000Y-83693000D01*
G36*
X177026499Y-26118373D02*
X176995723Y-26138937D01*
X176653162Y-26613557D01*
X179070000Y-29030395D01*
X181486838Y-26613557D01*
X181144277Y-26138937D01*
X181015879Y-26085000D01*
X196158220Y-26085000D01*
X196076499Y-26118373D01*
X196045723Y-26138937D01*
X195703162Y-26613557D01*
X198120000Y-29030395D01*
X200536838Y-26613557D01*
X200194277Y-26138937D01*
X200065879Y-26085000D01*
X213233000Y-26085000D01*
X213233000Y-39243000D01*
X166497000Y-39243000D01*
X166497000Y-37179041D01*
X171328086Y-37179041D01*
X171567611Y-37685134D01*
X171982577Y-38061041D01*
X172370961Y-38221904D01*
X172593000Y-38099915D01*
X172593000Y-36957000D01*
X172847000Y-36957000D01*
X172847000Y-38099915D01*
X173069039Y-38221904D01*
X173457423Y-38061041D01*
X173872389Y-37685134D01*
X174111914Y-37179041D01*
X175138086Y-37179041D01*
X175377611Y-37685134D01*
X175792577Y-38061041D01*
X176180961Y-38221904D01*
X176403000Y-38099915D01*
X176403000Y-36957000D01*
X176657000Y-36957000D01*
X176657000Y-38099915D01*
X176879039Y-38221904D01*
X177267423Y-38061041D01*
X177682389Y-37685134D01*
X177921914Y-37179041D01*
X178948086Y-37179041D01*
X179187611Y-37685134D01*
X179602577Y-38061041D01*
X179990961Y-38221904D01*
X180213000Y-38099915D01*
X180213000Y-36957000D01*
X180467000Y-36957000D01*
X180467000Y-38099915D01*
X180689039Y-38221904D01*
X181077423Y-38061041D01*
X181492389Y-37685134D01*
X181731914Y-37179041D01*
X182758086Y-37179041D01*
X182997611Y-37685134D01*
X183412577Y-38061041D01*
X183800961Y-38221904D01*
X184023000Y-38099915D01*
X184023000Y-36957000D01*
X184277000Y-36957000D01*
X184277000Y-38099915D01*
X184499039Y-38221904D01*
X184887423Y-38061041D01*
X185302389Y-37685134D01*
X185541914Y-37179041D01*
X186568086Y-37179041D01*
X186807611Y-37685134D01*
X187222577Y-38061041D01*
X187610961Y-38221904D01*
X187833000Y-38099915D01*
X187833000Y-36957000D01*
X188087000Y-36957000D01*
X188087000Y-38099915D01*
X188309039Y-38221904D01*
X188697423Y-38061041D01*
X189112389Y-37685134D01*
X189351914Y-37179041D01*
X190378086Y-37179041D01*
X190617611Y-37685134D01*
X191032577Y-38061041D01*
X191420961Y-38221904D01*
X191643000Y-38099915D01*
X191643000Y-36957000D01*
X191897000Y-36957000D01*
X191897000Y-38099915D01*
X192119039Y-38221904D01*
X192507423Y-38061041D01*
X192922389Y-37685134D01*
X193161914Y-37179041D01*
X194188086Y-37179041D01*
X194427611Y-37685134D01*
X194842577Y-38061041D01*
X195230961Y-38221904D01*
X195453000Y-38099915D01*
X195453000Y-36957000D01*
X195707000Y-36957000D01*
X195707000Y-38099915D01*
X195929039Y-38221904D01*
X196317423Y-38061041D01*
X196732389Y-37685134D01*
X196971914Y-37179041D01*
X197998086Y-37179041D01*
X198237611Y-37685134D01*
X198652577Y-38061041D01*
X199040961Y-38221904D01*
X199263000Y-38099915D01*
X199263000Y-36957000D01*
X199517000Y-36957000D01*
X199517000Y-38099915D01*
X199739039Y-38221904D01*
X200127423Y-38061041D01*
X200542389Y-37685134D01*
X200781914Y-37179041D01*
X201808086Y-37179041D01*
X202047611Y-37685134D01*
X202462577Y-38061041D01*
X202850961Y-38221904D01*
X203073000Y-38099915D01*
X203073000Y-36957000D01*
X203327000Y-36957000D01*
X203327000Y-38099915D01*
X203549039Y-38221904D01*
X203937423Y-38061041D01*
X204352389Y-37685134D01*
X204591914Y-37179041D01*
X205618086Y-37179041D01*
X205857611Y-37685134D01*
X206272577Y-38061041D01*
X206660961Y-38221904D01*
X206883000Y-38099915D01*
X206883000Y-36957000D01*
X207137000Y-36957000D01*
X207137000Y-38099915D01*
X207359039Y-38221904D01*
X207747423Y-38061041D01*
X208162389Y-37685134D01*
X208401914Y-37179041D01*
X208280629Y-36957000D01*
X207137000Y-36957000D01*
X206883000Y-36957000D01*
X205739371Y-36957000D01*
X205618086Y-37179041D01*
X204591914Y-37179041D01*
X204470629Y-36957000D01*
X203327000Y-36957000D01*
X203073000Y-36957000D01*
X201929371Y-36957000D01*
X201808086Y-37179041D01*
X200781914Y-37179041D01*
X200660629Y-36957000D01*
X199517000Y-36957000D01*
X199263000Y-36957000D01*
X198119371Y-36957000D01*
X197998086Y-37179041D01*
X196971914Y-37179041D01*
X196850629Y-36957000D01*
X195707000Y-36957000D01*
X195453000Y-36957000D01*
X194309371Y-36957000D01*
X194188086Y-37179041D01*
X193161914Y-37179041D01*
X193040629Y-36957000D01*
X191897000Y-36957000D01*
X191643000Y-36957000D01*
X190499371Y-36957000D01*
X190378086Y-37179041D01*
X189351914Y-37179041D01*
X189230629Y-36957000D01*
X188087000Y-36957000D01*
X187833000Y-36957000D01*
X186689371Y-36957000D01*
X186568086Y-37179041D01*
X185541914Y-37179041D01*
X185420629Y-36957000D01*
X184277000Y-36957000D01*
X184023000Y-36957000D01*
X182879371Y-36957000D01*
X182758086Y-37179041D01*
X181731914Y-37179041D01*
X181610629Y-36957000D01*
X180467000Y-36957000D01*
X180213000Y-36957000D01*
X179069371Y-36957000D01*
X178948086Y-37179041D01*
X177921914Y-37179041D01*
X177800629Y-36957000D01*
X176657000Y-36957000D01*
X176403000Y-36957000D01*
X175259371Y-36957000D01*
X175138086Y-37179041D01*
X174111914Y-37179041D01*
X173990629Y-36957000D01*
X172847000Y-36957000D01*
X172593000Y-36957000D01*
X171449371Y-36957000D01*
X171328086Y-37179041D01*
X166497000Y-37179041D01*
X166497000Y-36480959D01*
X171328086Y-36480959D01*
X171449371Y-36703000D01*
X172593000Y-36703000D01*
X172593000Y-35560085D01*
X172847000Y-35560085D01*
X172847000Y-36703000D01*
X173990629Y-36703000D01*
X174111914Y-36480959D01*
X175138086Y-36480959D01*
X175259371Y-36703000D01*
X176403000Y-36703000D01*
X176403000Y-35560085D01*
X176657000Y-35560085D01*
X176657000Y-36703000D01*
X177800629Y-36703000D01*
X177921914Y-36480959D01*
X178948086Y-36480959D01*
X179069371Y-36703000D01*
X180213000Y-36703000D01*
X180213000Y-35560085D01*
X180467000Y-35560085D01*
X180467000Y-36703000D01*
X181610629Y-36703000D01*
X181731914Y-36480959D01*
X182758086Y-36480959D01*
X182879371Y-36703000D01*
X184023000Y-36703000D01*
X184023000Y-35560085D01*
X184277000Y-35560085D01*
X184277000Y-36703000D01*
X185420629Y-36703000D01*
X185541914Y-36480959D01*
X186568086Y-36480959D01*
X186689371Y-36703000D01*
X187833000Y-36703000D01*
X187833000Y-35560085D01*
X188087000Y-35560085D01*
X188087000Y-36703000D01*
X189230629Y-36703000D01*
X189351914Y-36480959D01*
X190378086Y-36480959D01*
X190499371Y-36703000D01*
X191643000Y-36703000D01*
X191643000Y-35560085D01*
X191897000Y-35560085D01*
X191897000Y-36703000D01*
X193040629Y-36703000D01*
X193161914Y-36480959D01*
X194188086Y-36480959D01*
X194309371Y-36703000D01*
X195453000Y-36703000D01*
X195453000Y-35560085D01*
X195707000Y-35560085D01*
X195707000Y-36703000D01*
X196850629Y-36703000D01*
X196971914Y-36480959D01*
X197998086Y-36480959D01*
X198119371Y-36703000D01*
X199263000Y-36703000D01*
X199263000Y-35560085D01*
X199517000Y-35560085D01*
X199517000Y-36703000D01*
X200660629Y-36703000D01*
X200781914Y-36480959D01*
X201808086Y-36480959D01*
X201929371Y-36703000D01*
X203073000Y-36703000D01*
X203073000Y-35560085D01*
X203327000Y-35560085D01*
X203327000Y-36703000D01*
X204470629Y-36703000D01*
X204591914Y-36480959D01*
X205618086Y-36480959D01*
X205739371Y-36703000D01*
X206883000Y-36703000D01*
X206883000Y-35560085D01*
X207137000Y-35560085D01*
X207137000Y-36703000D01*
X208280629Y-36703000D01*
X208401914Y-36480959D01*
X208162389Y-35974866D01*
X207747423Y-35598959D01*
X207359039Y-35438096D01*
X207137000Y-35560085D01*
X206883000Y-35560085D01*
X206660961Y-35438096D01*
X206272577Y-35598959D01*
X205857611Y-35974866D01*
X205618086Y-36480959D01*
X204591914Y-36480959D01*
X204352389Y-35974866D01*
X203937423Y-35598959D01*
X203549039Y-35438096D01*
X203327000Y-35560085D01*
X203073000Y-35560085D01*
X202850961Y-35438096D01*
X202462577Y-35598959D01*
X202047611Y-35974866D01*
X201808086Y-36480959D01*
X200781914Y-36480959D01*
X200542389Y-35974866D01*
X200127423Y-35598959D01*
X199739039Y-35438096D01*
X199517000Y-35560085D01*
X199263000Y-35560085D01*
X199040961Y-35438096D01*
X198652577Y-35598959D01*
X198237611Y-35974866D01*
X197998086Y-36480959D01*
X196971914Y-36480959D01*
X196732389Y-35974866D01*
X196317423Y-35598959D01*
X195929039Y-35438096D01*
X195707000Y-35560085D01*
X195453000Y-35560085D01*
X195230961Y-35438096D01*
X194842577Y-35598959D01*
X194427611Y-35974866D01*
X194188086Y-36480959D01*
X193161914Y-36480959D01*
X192922389Y-35974866D01*
X192507423Y-35598959D01*
X192119039Y-35438096D01*
X191897000Y-35560085D01*
X191643000Y-35560085D01*
X191420961Y-35438096D01*
X191032577Y-35598959D01*
X190617611Y-35974866D01*
X190378086Y-36480959D01*
X189351914Y-36480959D01*
X189112389Y-35974866D01*
X188697423Y-35598959D01*
X188309039Y-35438096D01*
X188087000Y-35560085D01*
X187833000Y-35560085D01*
X187610961Y-35438096D01*
X187222577Y-35598959D01*
X186807611Y-35974866D01*
X186568086Y-36480959D01*
X185541914Y-36480959D01*
X185302389Y-35974866D01*
X184887423Y-35598959D01*
X184499039Y-35438096D01*
X184277000Y-35560085D01*
X184023000Y-35560085D01*
X183800961Y-35438096D01*
X183412577Y-35598959D01*
X182997611Y-35974866D01*
X182758086Y-36480959D01*
X181731914Y-36480959D01*
X181492389Y-35974866D01*
X181077423Y-35598959D01*
X180689039Y-35438096D01*
X180467000Y-35560085D01*
X180213000Y-35560085D01*
X179990961Y-35438096D01*
X179602577Y-35598959D01*
X179187611Y-35974866D01*
X178948086Y-36480959D01*
X177921914Y-36480959D01*
X177682389Y-35974866D01*
X177267423Y-35598959D01*
X176879039Y-35438096D01*
X176657000Y-35560085D01*
X176403000Y-35560085D01*
X176180961Y-35438096D01*
X175792577Y-35598959D01*
X175377611Y-35974866D01*
X175138086Y-36480959D01*
X174111914Y-36480959D01*
X173872389Y-35974866D01*
X173457423Y-35598959D01*
X173069039Y-35438096D01*
X172847000Y-35560085D01*
X172593000Y-35560085D01*
X172370961Y-35438096D01*
X171982577Y-35598959D01*
X171567611Y-35974866D01*
X171328086Y-36480959D01*
X166497000Y-36480959D01*
X166497000Y-31806443D01*
X176653162Y-31806443D01*
X176995723Y-32281063D01*
X178328863Y-32841084D01*
X179774834Y-32848305D01*
X181113501Y-32301627D01*
X181144277Y-32281063D01*
X181486838Y-31806443D01*
X195703162Y-31806443D01*
X196045723Y-32281063D01*
X197378863Y-32841084D01*
X198824834Y-32848305D01*
X200163501Y-32301627D01*
X200194277Y-32281063D01*
X200536838Y-31806443D01*
X198120000Y-29389605D01*
X195703162Y-31806443D01*
X181486838Y-31806443D01*
X179070000Y-29389605D01*
X176653162Y-31806443D01*
X166497000Y-31806443D01*
X166497000Y-29914834D01*
X175431695Y-29914834D01*
X175978373Y-31253501D01*
X175998937Y-31284277D01*
X176473557Y-31626838D01*
X178890395Y-29210000D01*
X179249605Y-29210000D01*
X181666443Y-31626838D01*
X182141063Y-31284277D01*
X182701084Y-29951137D01*
X182701265Y-29914834D01*
X194481695Y-29914834D01*
X195028373Y-31253501D01*
X195048937Y-31284277D01*
X195523557Y-31626838D01*
X197940395Y-29210000D01*
X198299605Y-29210000D01*
X200716443Y-31626838D01*
X201191063Y-31284277D01*
X201751084Y-29951137D01*
X201758305Y-28505166D01*
X201211627Y-27166499D01*
X201191063Y-27135723D01*
X200716443Y-26793162D01*
X198299605Y-29210000D01*
X197940395Y-29210000D01*
X195523557Y-26793162D01*
X195048937Y-27135723D01*
X194488916Y-28468863D01*
X194481695Y-29914834D01*
X182701265Y-29914834D01*
X182708305Y-28505166D01*
X182161627Y-27166499D01*
X182141063Y-27135723D01*
X181666443Y-26793162D01*
X179249605Y-29210000D01*
X178890395Y-29210000D01*
X176473557Y-26793162D01*
X175998937Y-27135723D01*
X175438916Y-28468863D01*
X175431695Y-29914834D01*
X166497000Y-29914834D01*
X166497000Y-26085000D01*
X177108220Y-26085000D01*
X177026499Y-26118373D01*
X177026499Y-26118373D01*
G37*
X177026499Y-26118373D02*
X176995723Y-26138937D01*
X176653162Y-26613557D01*
X179070000Y-29030395D01*
X181486838Y-26613557D01*
X181144277Y-26138937D01*
X181015879Y-26085000D01*
X196158220Y-26085000D01*
X196076499Y-26118373D01*
X196045723Y-26138937D01*
X195703162Y-26613557D01*
X198120000Y-29030395D01*
X200536838Y-26613557D01*
X200194277Y-26138937D01*
X200065879Y-26085000D01*
X213233000Y-26085000D01*
X213233000Y-39243000D01*
X166497000Y-39243000D01*
X166497000Y-37179041D01*
X171328086Y-37179041D01*
X171567611Y-37685134D01*
X171982577Y-38061041D01*
X172370961Y-38221904D01*
X172593000Y-38099915D01*
X172593000Y-36957000D01*
X172847000Y-36957000D01*
X172847000Y-38099915D01*
X173069039Y-38221904D01*
X173457423Y-38061041D01*
X173872389Y-37685134D01*
X174111914Y-37179041D01*
X175138086Y-37179041D01*
X175377611Y-37685134D01*
X175792577Y-38061041D01*
X176180961Y-38221904D01*
X176403000Y-38099915D01*
X176403000Y-36957000D01*
X176657000Y-36957000D01*
X176657000Y-38099915D01*
X176879039Y-38221904D01*
X177267423Y-38061041D01*
X177682389Y-37685134D01*
X177921914Y-37179041D01*
X178948086Y-37179041D01*
X179187611Y-37685134D01*
X179602577Y-38061041D01*
X179990961Y-38221904D01*
X180213000Y-38099915D01*
X180213000Y-36957000D01*
X180467000Y-36957000D01*
X180467000Y-38099915D01*
X180689039Y-38221904D01*
X181077423Y-38061041D01*
X181492389Y-37685134D01*
X181731914Y-37179041D01*
X182758086Y-37179041D01*
X182997611Y-37685134D01*
X183412577Y-38061041D01*
X183800961Y-38221904D01*
X184023000Y-38099915D01*
X184023000Y-36957000D01*
X184277000Y-36957000D01*
X184277000Y-38099915D01*
X184499039Y-38221904D01*
X184887423Y-38061041D01*
X185302389Y-37685134D01*
X185541914Y-37179041D01*
X186568086Y-37179041D01*
X186807611Y-37685134D01*
X187222577Y-38061041D01*
X187610961Y-38221904D01*
X187833000Y-38099915D01*
X187833000Y-36957000D01*
X188087000Y-36957000D01*
X188087000Y-38099915D01*
X188309039Y-38221904D01*
X188697423Y-38061041D01*
X189112389Y-37685134D01*
X189351914Y-37179041D01*
X190378086Y-37179041D01*
X190617611Y-37685134D01*
X191032577Y-38061041D01*
X191420961Y-38221904D01*
X191643000Y-38099915D01*
X191643000Y-36957000D01*
X191897000Y-36957000D01*
X191897000Y-38099915D01*
X192119039Y-38221904D01*
X192507423Y-38061041D01*
X192922389Y-37685134D01*
X193161914Y-37179041D01*
X194188086Y-37179041D01*
X194427611Y-37685134D01*
X194842577Y-38061041D01*
X195230961Y-38221904D01*
X195453000Y-38099915D01*
X195453000Y-36957000D01*
X195707000Y-36957000D01*
X195707000Y-38099915D01*
X195929039Y-38221904D01*
X196317423Y-38061041D01*
X196732389Y-37685134D01*
X196971914Y-37179041D01*
X197998086Y-37179041D01*
X198237611Y-37685134D01*
X198652577Y-38061041D01*
X199040961Y-38221904D01*
X199263000Y-38099915D01*
X199263000Y-36957000D01*
X199517000Y-36957000D01*
X199517000Y-38099915D01*
X199739039Y-38221904D01*
X200127423Y-38061041D01*
X200542389Y-37685134D01*
X200781914Y-37179041D01*
X201808086Y-37179041D01*
X202047611Y-37685134D01*
X202462577Y-38061041D01*
X202850961Y-38221904D01*
X203073000Y-38099915D01*
X203073000Y-36957000D01*
X203327000Y-36957000D01*
X203327000Y-38099915D01*
X203549039Y-38221904D01*
X203937423Y-38061041D01*
X204352389Y-37685134D01*
X204591914Y-37179041D01*
X205618086Y-37179041D01*
X205857611Y-37685134D01*
X206272577Y-38061041D01*
X206660961Y-38221904D01*
X206883000Y-38099915D01*
X206883000Y-36957000D01*
X207137000Y-36957000D01*
X207137000Y-38099915D01*
X207359039Y-38221904D01*
X207747423Y-38061041D01*
X208162389Y-37685134D01*
X208401914Y-37179041D01*
X208280629Y-36957000D01*
X207137000Y-36957000D01*
X206883000Y-36957000D01*
X205739371Y-36957000D01*
X205618086Y-37179041D01*
X204591914Y-37179041D01*
X204470629Y-36957000D01*
X203327000Y-36957000D01*
X203073000Y-36957000D01*
X201929371Y-36957000D01*
X201808086Y-37179041D01*
X200781914Y-37179041D01*
X200660629Y-36957000D01*
X199517000Y-36957000D01*
X199263000Y-36957000D01*
X198119371Y-36957000D01*
X197998086Y-37179041D01*
X196971914Y-37179041D01*
X196850629Y-36957000D01*
X195707000Y-36957000D01*
X195453000Y-36957000D01*
X194309371Y-36957000D01*
X194188086Y-37179041D01*
X193161914Y-37179041D01*
X193040629Y-36957000D01*
X191897000Y-36957000D01*
X191643000Y-36957000D01*
X190499371Y-36957000D01*
X190378086Y-37179041D01*
X189351914Y-37179041D01*
X189230629Y-36957000D01*
X188087000Y-36957000D01*
X187833000Y-36957000D01*
X186689371Y-36957000D01*
X186568086Y-37179041D01*
X185541914Y-37179041D01*
X185420629Y-36957000D01*
X184277000Y-36957000D01*
X184023000Y-36957000D01*
X182879371Y-36957000D01*
X182758086Y-37179041D01*
X181731914Y-37179041D01*
X181610629Y-36957000D01*
X180467000Y-36957000D01*
X180213000Y-36957000D01*
X179069371Y-36957000D01*
X178948086Y-37179041D01*
X177921914Y-37179041D01*
X177800629Y-36957000D01*
X176657000Y-36957000D01*
X176403000Y-36957000D01*
X175259371Y-36957000D01*
X175138086Y-37179041D01*
X174111914Y-37179041D01*
X173990629Y-36957000D01*
X172847000Y-36957000D01*
X172593000Y-36957000D01*
X171449371Y-36957000D01*
X171328086Y-37179041D01*
X166497000Y-37179041D01*
X166497000Y-36480959D01*
X171328086Y-36480959D01*
X171449371Y-36703000D01*
X172593000Y-36703000D01*
X172593000Y-35560085D01*
X172847000Y-35560085D01*
X172847000Y-36703000D01*
X173990629Y-36703000D01*
X174111914Y-36480959D01*
X175138086Y-36480959D01*
X175259371Y-36703000D01*
X176403000Y-36703000D01*
X176403000Y-35560085D01*
X176657000Y-35560085D01*
X176657000Y-36703000D01*
X177800629Y-36703000D01*
X177921914Y-36480959D01*
X178948086Y-36480959D01*
X179069371Y-36703000D01*
X180213000Y-36703000D01*
X180213000Y-35560085D01*
X180467000Y-35560085D01*
X180467000Y-36703000D01*
X181610629Y-36703000D01*
X181731914Y-36480959D01*
X182758086Y-36480959D01*
X182879371Y-36703000D01*
X184023000Y-36703000D01*
X184023000Y-35560085D01*
X184277000Y-35560085D01*
X184277000Y-36703000D01*
X185420629Y-36703000D01*
X185541914Y-36480959D01*
X186568086Y-36480959D01*
X186689371Y-36703000D01*
X187833000Y-36703000D01*
X187833000Y-35560085D01*
X188087000Y-35560085D01*
X188087000Y-36703000D01*
X189230629Y-36703000D01*
X189351914Y-36480959D01*
X190378086Y-36480959D01*
X190499371Y-36703000D01*
X191643000Y-36703000D01*
X191643000Y-35560085D01*
X191897000Y-35560085D01*
X191897000Y-36703000D01*
X193040629Y-36703000D01*
X193161914Y-36480959D01*
X194188086Y-36480959D01*
X194309371Y-36703000D01*
X195453000Y-36703000D01*
X195453000Y-35560085D01*
X195707000Y-35560085D01*
X195707000Y-36703000D01*
X196850629Y-36703000D01*
X196971914Y-36480959D01*
X197998086Y-36480959D01*
X198119371Y-36703000D01*
X199263000Y-36703000D01*
X199263000Y-35560085D01*
X199517000Y-35560085D01*
X199517000Y-36703000D01*
X200660629Y-36703000D01*
X200781914Y-36480959D01*
X201808086Y-36480959D01*
X201929371Y-36703000D01*
X203073000Y-36703000D01*
X203073000Y-35560085D01*
X203327000Y-35560085D01*
X203327000Y-36703000D01*
X204470629Y-36703000D01*
X204591914Y-36480959D01*
X205618086Y-36480959D01*
X205739371Y-36703000D01*
X206883000Y-36703000D01*
X206883000Y-35560085D01*
X207137000Y-35560085D01*
X207137000Y-36703000D01*
X208280629Y-36703000D01*
X208401914Y-36480959D01*
X208162389Y-35974866D01*
X207747423Y-35598959D01*
X207359039Y-35438096D01*
X207137000Y-35560085D01*
X206883000Y-35560085D01*
X206660961Y-35438096D01*
X206272577Y-35598959D01*
X205857611Y-35974866D01*
X205618086Y-36480959D01*
X204591914Y-36480959D01*
X204352389Y-35974866D01*
X203937423Y-35598959D01*
X203549039Y-35438096D01*
X203327000Y-35560085D01*
X203073000Y-35560085D01*
X202850961Y-35438096D01*
X202462577Y-35598959D01*
X202047611Y-35974866D01*
X201808086Y-36480959D01*
X200781914Y-36480959D01*
X200542389Y-35974866D01*
X200127423Y-35598959D01*
X199739039Y-35438096D01*
X199517000Y-35560085D01*
X199263000Y-35560085D01*
X199040961Y-35438096D01*
X198652577Y-35598959D01*
X198237611Y-35974866D01*
X197998086Y-36480959D01*
X196971914Y-36480959D01*
X196732389Y-35974866D01*
X196317423Y-35598959D01*
X195929039Y-35438096D01*
X195707000Y-35560085D01*
X195453000Y-35560085D01*
X195230961Y-35438096D01*
X194842577Y-35598959D01*
X194427611Y-35974866D01*
X194188086Y-36480959D01*
X193161914Y-36480959D01*
X192922389Y-35974866D01*
X192507423Y-35598959D01*
X192119039Y-35438096D01*
X191897000Y-35560085D01*
X191643000Y-35560085D01*
X191420961Y-35438096D01*
X191032577Y-35598959D01*
X190617611Y-35974866D01*
X190378086Y-36480959D01*
X189351914Y-36480959D01*
X189112389Y-35974866D01*
X188697423Y-35598959D01*
X188309039Y-35438096D01*
X188087000Y-35560085D01*
X187833000Y-35560085D01*
X187610961Y-35438096D01*
X187222577Y-35598959D01*
X186807611Y-35974866D01*
X186568086Y-36480959D01*
X185541914Y-36480959D01*
X185302389Y-35974866D01*
X184887423Y-35598959D01*
X184499039Y-35438096D01*
X184277000Y-35560085D01*
X184023000Y-35560085D01*
X183800961Y-35438096D01*
X183412577Y-35598959D01*
X182997611Y-35974866D01*
X182758086Y-36480959D01*
X181731914Y-36480959D01*
X181492389Y-35974866D01*
X181077423Y-35598959D01*
X180689039Y-35438096D01*
X180467000Y-35560085D01*
X180213000Y-35560085D01*
X179990961Y-35438096D01*
X179602577Y-35598959D01*
X179187611Y-35974866D01*
X178948086Y-36480959D01*
X177921914Y-36480959D01*
X177682389Y-35974866D01*
X177267423Y-35598959D01*
X176879039Y-35438096D01*
X176657000Y-35560085D01*
X176403000Y-35560085D01*
X176180961Y-35438096D01*
X175792577Y-35598959D01*
X175377611Y-35974866D01*
X175138086Y-36480959D01*
X174111914Y-36480959D01*
X173872389Y-35974866D01*
X173457423Y-35598959D01*
X173069039Y-35438096D01*
X172847000Y-35560085D01*
X172593000Y-35560085D01*
X172370961Y-35438096D01*
X171982577Y-35598959D01*
X171567611Y-35974866D01*
X171328086Y-36480959D01*
X166497000Y-36480959D01*
X166497000Y-31806443D01*
X176653162Y-31806443D01*
X176995723Y-32281063D01*
X178328863Y-32841084D01*
X179774834Y-32848305D01*
X181113501Y-32301627D01*
X181144277Y-32281063D01*
X181486838Y-31806443D01*
X195703162Y-31806443D01*
X196045723Y-32281063D01*
X197378863Y-32841084D01*
X198824834Y-32848305D01*
X200163501Y-32301627D01*
X200194277Y-32281063D01*
X200536838Y-31806443D01*
X198120000Y-29389605D01*
X195703162Y-31806443D01*
X181486838Y-31806443D01*
X179070000Y-29389605D01*
X176653162Y-31806443D01*
X166497000Y-31806443D01*
X166497000Y-29914834D01*
X175431695Y-29914834D01*
X175978373Y-31253501D01*
X175998937Y-31284277D01*
X176473557Y-31626838D01*
X178890395Y-29210000D01*
X179249605Y-29210000D01*
X181666443Y-31626838D01*
X182141063Y-31284277D01*
X182701084Y-29951137D01*
X182701265Y-29914834D01*
X194481695Y-29914834D01*
X195028373Y-31253501D01*
X195048937Y-31284277D01*
X195523557Y-31626838D01*
X197940395Y-29210000D01*
X198299605Y-29210000D01*
X200716443Y-31626838D01*
X201191063Y-31284277D01*
X201751084Y-29951137D01*
X201758305Y-28505166D01*
X201211627Y-27166499D01*
X201191063Y-27135723D01*
X200716443Y-26793162D01*
X198299605Y-29210000D01*
X197940395Y-29210000D01*
X195523557Y-26793162D01*
X195048937Y-27135723D01*
X194488916Y-28468863D01*
X194481695Y-29914834D01*
X182701265Y-29914834D01*
X182708305Y-28505166D01*
X182161627Y-27166499D01*
X182141063Y-27135723D01*
X181666443Y-26793162D01*
X179249605Y-29210000D01*
X178890395Y-29210000D01*
X176473557Y-26793162D01*
X175998937Y-27135723D01*
X175438916Y-28468863D01*
X175431695Y-29914834D01*
X166497000Y-29914834D01*
X166497000Y-26085000D01*
X177108220Y-26085000D01*
X177026499Y-26118373D01*
G36*
X159893000Y-49530000D02*
X159903006Y-49579410D01*
X159931447Y-49621035D01*
X159973841Y-49648315D01*
X160020000Y-49657000D01*
X161163000Y-49657000D01*
X161163000Y-50800000D01*
X161173006Y-50849410D01*
X161201447Y-50891035D01*
X161243841Y-50918315D01*
X161290000Y-50927000D01*
X162433000Y-50927000D01*
X162433000Y-53278239D01*
X162094277Y-52808937D01*
X160761137Y-52248916D01*
X159315166Y-52241695D01*
X157976499Y-52788373D01*
X157945723Y-52808937D01*
X157603162Y-53283557D01*
X160020000Y-55700395D01*
X160034143Y-55686253D01*
X160213748Y-55865858D01*
X160199605Y-55880000D01*
X162616443Y-58296838D01*
X163091063Y-57954277D01*
X163651084Y-56621137D01*
X163658305Y-55175166D01*
X163111627Y-53836499D01*
X163091063Y-53805723D01*
X162621761Y-53467000D01*
X164973000Y-53467000D01*
X164973000Y-60833000D01*
X144907000Y-60833000D01*
X144907000Y-58476443D01*
X157603162Y-58476443D01*
X157945723Y-58951063D01*
X159278863Y-59511084D01*
X160724834Y-59518305D01*
X162063501Y-58971627D01*
X162094277Y-58951063D01*
X162436838Y-58476443D01*
X160020000Y-56059605D01*
X157603162Y-58476443D01*
X144907000Y-58476443D01*
X144907000Y-56584834D01*
X156381695Y-56584834D01*
X156928373Y-57923501D01*
X156948937Y-57954277D01*
X157423557Y-58296838D01*
X159840395Y-55880000D01*
X157423557Y-53463162D01*
X156948937Y-53805723D01*
X156388916Y-55138863D01*
X156381695Y-56584834D01*
X144907000Y-56584834D01*
X144907000Y-46005750D01*
X145285000Y-46005750D01*
X145285000Y-47246310D01*
X145381673Y-47479699D01*
X145560302Y-47658327D01*
X145793691Y-47755000D01*
X147034250Y-47755000D01*
X147193000Y-47596250D01*
X147193000Y-45847000D01*
X147447000Y-45847000D01*
X147447000Y-47596250D01*
X147605750Y-47755000D01*
X148846309Y-47755000D01*
X149079698Y-47658327D01*
X149258327Y-47479699D01*
X149355000Y-47246310D01*
X149355000Y-46163160D01*
X154223840Y-46163160D01*
X154492205Y-46811070D01*
X155040499Y-47385389D01*
X155766839Y-47706167D01*
X156083000Y-47592290D01*
X156083000Y-45847000D01*
X156337000Y-45847000D01*
X156337000Y-47592290D01*
X156653161Y-47706167D01*
X157379501Y-47385389D01*
X157927795Y-46811070D01*
X158196160Y-46163160D01*
X158081947Y-45847000D01*
X156337000Y-45847000D01*
X156083000Y-45847000D01*
X154338053Y-45847000D01*
X154223840Y-46163160D01*
X149355000Y-46163160D01*
X149355000Y-46005750D01*
X149196250Y-45847000D01*
X147447000Y-45847000D01*
X147193000Y-45847000D01*
X145443750Y-45847000D01*
X145285000Y-46005750D01*
X144907000Y-46005750D01*
X144907000Y-44193690D01*
X145285000Y-44193690D01*
X145285000Y-45434250D01*
X145443750Y-45593000D01*
X147193000Y-45593000D01*
X147193000Y-43843750D01*
X147447000Y-43843750D01*
X147447000Y-45593000D01*
X149196250Y-45593000D01*
X149355000Y-45434250D01*
X149355000Y-45276840D01*
X154223840Y-45276840D01*
X154338053Y-45593000D01*
X156083000Y-45593000D01*
X156083000Y-43847710D01*
X156337000Y-43847710D01*
X156337000Y-45593000D01*
X158081947Y-45593000D01*
X158196160Y-45276840D01*
X157927795Y-44628930D01*
X157379501Y-44054611D01*
X156653161Y-43733833D01*
X156337000Y-43847710D01*
X156083000Y-43847710D01*
X155766839Y-43733833D01*
X155040499Y-44054611D01*
X154492205Y-44628930D01*
X154223840Y-45276840D01*
X149355000Y-45276840D01*
X149355000Y-44193690D01*
X149258327Y-43960301D01*
X149079698Y-43781673D01*
X148846309Y-43685000D01*
X147605750Y-43685000D01*
X147447000Y-43843750D01*
X147193000Y-43843750D01*
X147034250Y-43685000D01*
X145793691Y-43685000D01*
X145560302Y-43781673D01*
X145381673Y-43960301D01*
X145285000Y-44193690D01*
X144907000Y-44193690D01*
X144907000Y-42037000D01*
X159893000Y-42037000D01*
X159893000Y-49530000D01*
X159893000Y-49530000D01*
G37*
X159893000Y-49530000D02*
X159903006Y-49579410D01*
X159931447Y-49621035D01*
X159973841Y-49648315D01*
X160020000Y-49657000D01*
X161163000Y-49657000D01*
X161163000Y-50800000D01*
X161173006Y-50849410D01*
X161201447Y-50891035D01*
X161243841Y-50918315D01*
X161290000Y-50927000D01*
X162433000Y-50927000D01*
X162433000Y-53278239D01*
X162094277Y-52808937D01*
X160761137Y-52248916D01*
X159315166Y-52241695D01*
X157976499Y-52788373D01*
X157945723Y-52808937D01*
X157603162Y-53283557D01*
X160020000Y-55700395D01*
X160034143Y-55686253D01*
X160213748Y-55865858D01*
X160199605Y-55880000D01*
X162616443Y-58296838D01*
X163091063Y-57954277D01*
X163651084Y-56621137D01*
X163658305Y-55175166D01*
X163111627Y-53836499D01*
X163091063Y-53805723D01*
X162621761Y-53467000D01*
X164973000Y-53467000D01*
X164973000Y-60833000D01*
X144907000Y-60833000D01*
X144907000Y-58476443D01*
X157603162Y-58476443D01*
X157945723Y-58951063D01*
X159278863Y-59511084D01*
X160724834Y-59518305D01*
X162063501Y-58971627D01*
X162094277Y-58951063D01*
X162436838Y-58476443D01*
X160020000Y-56059605D01*
X157603162Y-58476443D01*
X144907000Y-58476443D01*
X144907000Y-56584834D01*
X156381695Y-56584834D01*
X156928373Y-57923501D01*
X156948937Y-57954277D01*
X157423557Y-58296838D01*
X159840395Y-55880000D01*
X157423557Y-53463162D01*
X156948937Y-53805723D01*
X156388916Y-55138863D01*
X156381695Y-56584834D01*
X144907000Y-56584834D01*
X144907000Y-46005750D01*
X145285000Y-46005750D01*
X145285000Y-47246310D01*
X145381673Y-47479699D01*
X145560302Y-47658327D01*
X145793691Y-47755000D01*
X147034250Y-47755000D01*
X147193000Y-47596250D01*
X147193000Y-45847000D01*
X147447000Y-45847000D01*
X147447000Y-47596250D01*
X147605750Y-47755000D01*
X148846309Y-47755000D01*
X149079698Y-47658327D01*
X149258327Y-47479699D01*
X149355000Y-47246310D01*
X149355000Y-46163160D01*
X154223840Y-46163160D01*
X154492205Y-46811070D01*
X155040499Y-47385389D01*
X155766839Y-47706167D01*
X156083000Y-47592290D01*
X156083000Y-45847000D01*
X156337000Y-45847000D01*
X156337000Y-47592290D01*
X156653161Y-47706167D01*
X157379501Y-47385389D01*
X157927795Y-46811070D01*
X158196160Y-46163160D01*
X158081947Y-45847000D01*
X156337000Y-45847000D01*
X156083000Y-45847000D01*
X154338053Y-45847000D01*
X154223840Y-46163160D01*
X149355000Y-46163160D01*
X149355000Y-46005750D01*
X149196250Y-45847000D01*
X147447000Y-45847000D01*
X147193000Y-45847000D01*
X145443750Y-45847000D01*
X145285000Y-46005750D01*
X144907000Y-46005750D01*
X144907000Y-44193690D01*
X145285000Y-44193690D01*
X145285000Y-45434250D01*
X145443750Y-45593000D01*
X147193000Y-45593000D01*
X147193000Y-43843750D01*
X147447000Y-43843750D01*
X147447000Y-45593000D01*
X149196250Y-45593000D01*
X149355000Y-45434250D01*
X149355000Y-45276840D01*
X154223840Y-45276840D01*
X154338053Y-45593000D01*
X156083000Y-45593000D01*
X156083000Y-43847710D01*
X156337000Y-43847710D01*
X156337000Y-45593000D01*
X158081947Y-45593000D01*
X158196160Y-45276840D01*
X157927795Y-44628930D01*
X157379501Y-44054611D01*
X156653161Y-43733833D01*
X156337000Y-43847710D01*
X156083000Y-43847710D01*
X155766839Y-43733833D01*
X155040499Y-44054611D01*
X154492205Y-44628930D01*
X154223840Y-45276840D01*
X149355000Y-45276840D01*
X149355000Y-44193690D01*
X149258327Y-43960301D01*
X149079698Y-43781673D01*
X148846309Y-43685000D01*
X147605750Y-43685000D01*
X147447000Y-43843750D01*
X147193000Y-43843750D01*
X147034250Y-43685000D01*
X145793691Y-43685000D01*
X145560302Y-43781673D01*
X145381673Y-43960301D01*
X145285000Y-44193690D01*
X144907000Y-44193690D01*
X144907000Y-42037000D01*
X159893000Y-42037000D01*
X159893000Y-49530000D01*
G36*
X138303000Y-48742601D02*
X138167745Y-48701861D01*
X137339605Y-49530000D01*
X138167745Y-50358139D01*
X138303000Y-50317399D01*
X138303000Y-50673000D01*
X137947399Y-50673000D01*
X137988139Y-50537745D01*
X137160000Y-49709605D01*
X136331861Y-50537745D01*
X136405995Y-50783864D01*
X136943223Y-50976965D01*
X137033000Y-50972685D01*
X137033000Y-82423000D01*
X127685000Y-82423000D01*
X127685000Y-78796443D01*
X129663162Y-78796443D01*
X130005723Y-79271063D01*
X131338863Y-79831084D01*
X132784834Y-79838305D01*
X134123501Y-79291627D01*
X134154277Y-79271063D01*
X134496838Y-78796443D01*
X132080000Y-76379605D01*
X129663162Y-78796443D01*
X127685000Y-78796443D01*
X127685000Y-76904834D01*
X128441695Y-76904834D01*
X128988373Y-78243501D01*
X129008937Y-78274277D01*
X129483557Y-78616838D01*
X131900395Y-76200000D01*
X132259605Y-76200000D01*
X134676443Y-78616838D01*
X135151063Y-78274277D01*
X135711084Y-76941137D01*
X135718305Y-75495166D01*
X135171627Y-74156499D01*
X135151063Y-74125723D01*
X134676443Y-73783162D01*
X132259605Y-76200000D01*
X131900395Y-76200000D01*
X129483557Y-73783162D01*
X129008937Y-74125723D01*
X128448916Y-75458863D01*
X128441695Y-76904834D01*
X127685000Y-76904834D01*
X127685000Y-73603557D01*
X129663162Y-73603557D01*
X132080000Y-76020395D01*
X134496838Y-73603557D01*
X134154277Y-73128937D01*
X132821137Y-72568916D01*
X131375166Y-72561695D01*
X130036499Y-73108373D01*
X130005723Y-73128937D01*
X129663162Y-73603557D01*
X127685000Y-73603557D01*
X127685000Y-66483160D01*
X132633840Y-66483160D01*
X132902205Y-67131070D01*
X133450499Y-67705389D01*
X134176839Y-68026167D01*
X134493000Y-67912290D01*
X134493000Y-66167000D01*
X134747000Y-66167000D01*
X134747000Y-67912290D01*
X135063161Y-68026167D01*
X135789501Y-67705389D01*
X136337795Y-67131070D01*
X136606160Y-66483160D01*
X136491947Y-66167000D01*
X134747000Y-66167000D01*
X134493000Y-66167000D01*
X132748053Y-66167000D01*
X132633840Y-66483160D01*
X127685000Y-66483160D01*
X127685000Y-65596840D01*
X132633840Y-65596840D01*
X132748053Y-65913000D01*
X134493000Y-65913000D01*
X134493000Y-64167710D01*
X134747000Y-64167710D01*
X134747000Y-65913000D01*
X136491947Y-65913000D01*
X136606160Y-65596840D01*
X136337795Y-64948930D01*
X135789501Y-64374611D01*
X135063161Y-64053833D01*
X134747000Y-64167710D01*
X134493000Y-64167710D01*
X134176839Y-64053833D01*
X133450499Y-64374611D01*
X132902205Y-64948930D01*
X132633840Y-65596840D01*
X127685000Y-65596840D01*
X127685000Y-59746443D01*
X129663162Y-59746443D01*
X130005723Y-60221063D01*
X131338863Y-60781084D01*
X132784834Y-60788305D01*
X134123501Y-60241627D01*
X134154277Y-60221063D01*
X134496838Y-59746443D01*
X132080000Y-57329605D01*
X129663162Y-59746443D01*
X127685000Y-59746443D01*
X127685000Y-57854834D01*
X128441695Y-57854834D01*
X128988373Y-59193501D01*
X129008937Y-59224277D01*
X129483557Y-59566838D01*
X131900395Y-57150000D01*
X132259605Y-57150000D01*
X134676443Y-59566838D01*
X135151063Y-59224277D01*
X135711084Y-57891137D01*
X135718305Y-56445166D01*
X135171627Y-55106499D01*
X135151063Y-55075723D01*
X134676443Y-54733162D01*
X132259605Y-57150000D01*
X131900395Y-57150000D01*
X129483557Y-54733162D01*
X129008937Y-55075723D01*
X128448916Y-56408863D01*
X128441695Y-57854834D01*
X127685000Y-57854834D01*
X127685000Y-54553557D01*
X129663162Y-54553557D01*
X132080000Y-56970395D01*
X134496838Y-54553557D01*
X134154277Y-54078937D01*
X132821137Y-53518916D01*
X131375166Y-53511695D01*
X130036499Y-54058373D01*
X130005723Y-54078937D01*
X129663162Y-54553557D01*
X127685000Y-54553557D01*
X127685000Y-49313223D01*
X135713035Y-49313223D01*
X135740222Y-49883454D01*
X135906136Y-50284005D01*
X136152255Y-50358139D01*
X136980395Y-49530000D01*
X136152255Y-48701861D01*
X135906136Y-48775995D01*
X135713035Y-49313223D01*
X127685000Y-49313223D01*
X127685000Y-48522255D01*
X136331861Y-48522255D01*
X137160000Y-49350395D01*
X137988139Y-48522255D01*
X137914005Y-48276136D01*
X137376777Y-48083035D01*
X136806546Y-48110222D01*
X136405995Y-48276136D01*
X136331861Y-48522255D01*
X127685000Y-48522255D01*
X127685000Y-46163160D01*
X132633840Y-46163160D01*
X132902205Y-46811070D01*
X133450499Y-47385389D01*
X134176839Y-47706167D01*
X134493000Y-47592290D01*
X134493000Y-45847000D01*
X134747000Y-45847000D01*
X134747000Y-47592290D01*
X135063161Y-47706167D01*
X135789501Y-47385389D01*
X136337795Y-46811070D01*
X136606160Y-46163160D01*
X136491947Y-45847000D01*
X134747000Y-45847000D01*
X134493000Y-45847000D01*
X132748053Y-45847000D01*
X132633840Y-46163160D01*
X127685000Y-46163160D01*
X127685000Y-45276840D01*
X132633840Y-45276840D01*
X132748053Y-45593000D01*
X134493000Y-45593000D01*
X134493000Y-43847710D01*
X134747000Y-43847710D01*
X134747000Y-45593000D01*
X136491947Y-45593000D01*
X136606160Y-45276840D01*
X136337795Y-44628930D01*
X135789501Y-44054611D01*
X135063161Y-43733833D01*
X134747000Y-43847710D01*
X134493000Y-43847710D01*
X134176839Y-43733833D01*
X133450499Y-44054611D01*
X132902205Y-44628930D01*
X132633840Y-45276840D01*
X127685000Y-45276840D01*
X127685000Y-42037000D01*
X138303000Y-42037000D01*
X138303000Y-48742601D01*
X138303000Y-48742601D01*
G37*
X138303000Y-48742601D02*
X138167745Y-48701861D01*
X137339605Y-49530000D01*
X138167745Y-50358139D01*
X138303000Y-50317399D01*
X138303000Y-50673000D01*
X137947399Y-50673000D01*
X137988139Y-50537745D01*
X137160000Y-49709605D01*
X136331861Y-50537745D01*
X136405995Y-50783864D01*
X136943223Y-50976965D01*
X137033000Y-50972685D01*
X137033000Y-82423000D01*
X127685000Y-82423000D01*
X127685000Y-78796443D01*
X129663162Y-78796443D01*
X130005723Y-79271063D01*
X131338863Y-79831084D01*
X132784834Y-79838305D01*
X134123501Y-79291627D01*
X134154277Y-79271063D01*
X134496838Y-78796443D01*
X132080000Y-76379605D01*
X129663162Y-78796443D01*
X127685000Y-78796443D01*
X127685000Y-76904834D01*
X128441695Y-76904834D01*
X128988373Y-78243501D01*
X129008937Y-78274277D01*
X129483557Y-78616838D01*
X131900395Y-76200000D01*
X132259605Y-76200000D01*
X134676443Y-78616838D01*
X135151063Y-78274277D01*
X135711084Y-76941137D01*
X135718305Y-75495166D01*
X135171627Y-74156499D01*
X135151063Y-74125723D01*
X134676443Y-73783162D01*
X132259605Y-76200000D01*
X131900395Y-76200000D01*
X129483557Y-73783162D01*
X129008937Y-74125723D01*
X128448916Y-75458863D01*
X128441695Y-76904834D01*
X127685000Y-76904834D01*
X127685000Y-73603557D01*
X129663162Y-73603557D01*
X132080000Y-76020395D01*
X134496838Y-73603557D01*
X134154277Y-73128937D01*
X132821137Y-72568916D01*
X131375166Y-72561695D01*
X130036499Y-73108373D01*
X130005723Y-73128937D01*
X129663162Y-73603557D01*
X127685000Y-73603557D01*
X127685000Y-66483160D01*
X132633840Y-66483160D01*
X132902205Y-67131070D01*
X133450499Y-67705389D01*
X134176839Y-68026167D01*
X134493000Y-67912290D01*
X134493000Y-66167000D01*
X134747000Y-66167000D01*
X134747000Y-67912290D01*
X135063161Y-68026167D01*
X135789501Y-67705389D01*
X136337795Y-67131070D01*
X136606160Y-66483160D01*
X136491947Y-66167000D01*
X134747000Y-66167000D01*
X134493000Y-66167000D01*
X132748053Y-66167000D01*
X132633840Y-66483160D01*
X127685000Y-66483160D01*
X127685000Y-65596840D01*
X132633840Y-65596840D01*
X132748053Y-65913000D01*
X134493000Y-65913000D01*
X134493000Y-64167710D01*
X134747000Y-64167710D01*
X134747000Y-65913000D01*
X136491947Y-65913000D01*
X136606160Y-65596840D01*
X136337795Y-64948930D01*
X135789501Y-64374611D01*
X135063161Y-64053833D01*
X134747000Y-64167710D01*
X134493000Y-64167710D01*
X134176839Y-64053833D01*
X133450499Y-64374611D01*
X132902205Y-64948930D01*
X132633840Y-65596840D01*
X127685000Y-65596840D01*
X127685000Y-59746443D01*
X129663162Y-59746443D01*
X130005723Y-60221063D01*
X131338863Y-60781084D01*
X132784834Y-60788305D01*
X134123501Y-60241627D01*
X134154277Y-60221063D01*
X134496838Y-59746443D01*
X132080000Y-57329605D01*
X129663162Y-59746443D01*
X127685000Y-59746443D01*
X127685000Y-57854834D01*
X128441695Y-57854834D01*
X128988373Y-59193501D01*
X129008937Y-59224277D01*
X129483557Y-59566838D01*
X131900395Y-57150000D01*
X132259605Y-57150000D01*
X134676443Y-59566838D01*
X135151063Y-59224277D01*
X135711084Y-57891137D01*
X135718305Y-56445166D01*
X135171627Y-55106499D01*
X135151063Y-55075723D01*
X134676443Y-54733162D01*
X132259605Y-57150000D01*
X131900395Y-57150000D01*
X129483557Y-54733162D01*
X129008937Y-55075723D01*
X128448916Y-56408863D01*
X128441695Y-57854834D01*
X127685000Y-57854834D01*
X127685000Y-54553557D01*
X129663162Y-54553557D01*
X132080000Y-56970395D01*
X134496838Y-54553557D01*
X134154277Y-54078937D01*
X132821137Y-53518916D01*
X131375166Y-53511695D01*
X130036499Y-54058373D01*
X130005723Y-54078937D01*
X129663162Y-54553557D01*
X127685000Y-54553557D01*
X127685000Y-49313223D01*
X135713035Y-49313223D01*
X135740222Y-49883454D01*
X135906136Y-50284005D01*
X136152255Y-50358139D01*
X136980395Y-49530000D01*
X136152255Y-48701861D01*
X135906136Y-48775995D01*
X135713035Y-49313223D01*
X127685000Y-49313223D01*
X127685000Y-48522255D01*
X136331861Y-48522255D01*
X137160000Y-49350395D01*
X137988139Y-48522255D01*
X137914005Y-48276136D01*
X137376777Y-48083035D01*
X136806546Y-48110222D01*
X136405995Y-48276136D01*
X136331861Y-48522255D01*
X127685000Y-48522255D01*
X127685000Y-46163160D01*
X132633840Y-46163160D01*
X132902205Y-46811070D01*
X133450499Y-47385389D01*
X134176839Y-47706167D01*
X134493000Y-47592290D01*
X134493000Y-45847000D01*
X134747000Y-45847000D01*
X134747000Y-47592290D01*
X135063161Y-47706167D01*
X135789501Y-47385389D01*
X136337795Y-46811070D01*
X136606160Y-46163160D01*
X136491947Y-45847000D01*
X134747000Y-45847000D01*
X134493000Y-45847000D01*
X132748053Y-45847000D01*
X132633840Y-46163160D01*
X127685000Y-46163160D01*
X127685000Y-45276840D01*
X132633840Y-45276840D01*
X132748053Y-45593000D01*
X134493000Y-45593000D01*
X134493000Y-43847710D01*
X134747000Y-43847710D01*
X134747000Y-45593000D01*
X136491947Y-45593000D01*
X136606160Y-45276840D01*
X136337795Y-44628930D01*
X135789501Y-44054611D01*
X135063161Y-43733833D01*
X134747000Y-43847710D01*
X134493000Y-43847710D01*
X134176839Y-43733833D01*
X133450499Y-44054611D01*
X132902205Y-44628930D01*
X132633840Y-45276840D01*
X127685000Y-45276840D01*
X127685000Y-42037000D01*
X138303000Y-42037000D01*
X138303000Y-48742601D01*
G36*
X166243000Y-82423000D02*
X144907000Y-82423000D01*
X144907000Y-78796443D01*
X157603162Y-78796443D01*
X157945723Y-79271063D01*
X159278863Y-79831084D01*
X160724834Y-79838305D01*
X162063501Y-79291627D01*
X162094277Y-79271063D01*
X162436838Y-78796443D01*
X160020000Y-76379605D01*
X157603162Y-78796443D01*
X144907000Y-78796443D01*
X144907000Y-76904834D01*
X156381695Y-76904834D01*
X156928373Y-78243501D01*
X156948937Y-78274277D01*
X157423557Y-78616838D01*
X159840395Y-76200000D01*
X160199605Y-76200000D01*
X162616443Y-78616838D01*
X163091063Y-78274277D01*
X163651084Y-76941137D01*
X163658305Y-75495166D01*
X163111627Y-74156499D01*
X163091063Y-74125723D01*
X162616443Y-73783162D01*
X160199605Y-76200000D01*
X159840395Y-76200000D01*
X157423557Y-73783162D01*
X156948937Y-74125723D01*
X156388916Y-75458863D01*
X156381695Y-76904834D01*
X144907000Y-76904834D01*
X144907000Y-73603557D01*
X157603162Y-73603557D01*
X160020000Y-76020395D01*
X162436838Y-73603557D01*
X162094277Y-73128937D01*
X160761137Y-72568916D01*
X159315166Y-72561695D01*
X157976499Y-73108373D01*
X157945723Y-73128937D01*
X157603162Y-73603557D01*
X144907000Y-73603557D01*
X144907000Y-66325750D01*
X145285000Y-66325750D01*
X145285000Y-67566310D01*
X145381673Y-67799699D01*
X145560302Y-67978327D01*
X145793691Y-68075000D01*
X147034250Y-68075000D01*
X147193000Y-67916250D01*
X147193000Y-66167000D01*
X147447000Y-66167000D01*
X147447000Y-67916250D01*
X147605750Y-68075000D01*
X148846309Y-68075000D01*
X149079698Y-67978327D01*
X149258327Y-67799699D01*
X149355000Y-67566310D01*
X149355000Y-66483160D01*
X161843840Y-66483160D01*
X162112205Y-67131070D01*
X162660499Y-67705389D01*
X163386839Y-68026167D01*
X163703000Y-67912290D01*
X163703000Y-66167000D01*
X163957000Y-66167000D01*
X163957000Y-67912290D01*
X164273161Y-68026167D01*
X164999501Y-67705389D01*
X165547795Y-67131070D01*
X165816160Y-66483160D01*
X165701947Y-66167000D01*
X163957000Y-66167000D01*
X163703000Y-66167000D01*
X161958053Y-66167000D01*
X161843840Y-66483160D01*
X149355000Y-66483160D01*
X149355000Y-66325750D01*
X149196250Y-66167000D01*
X147447000Y-66167000D01*
X147193000Y-66167000D01*
X145443750Y-66167000D01*
X145285000Y-66325750D01*
X144907000Y-66325750D01*
X144907000Y-64513690D01*
X145285000Y-64513690D01*
X145285000Y-65754250D01*
X145443750Y-65913000D01*
X147193000Y-65913000D01*
X147193000Y-64163750D01*
X147447000Y-64163750D01*
X147447000Y-65913000D01*
X149196250Y-65913000D01*
X149355000Y-65754250D01*
X149355000Y-65596840D01*
X161843840Y-65596840D01*
X161958053Y-65913000D01*
X163703000Y-65913000D01*
X163703000Y-64167710D01*
X163957000Y-64167710D01*
X163957000Y-65913000D01*
X165701947Y-65913000D01*
X165816160Y-65596840D01*
X165547795Y-64948930D01*
X164999501Y-64374611D01*
X164273161Y-64053833D01*
X163957000Y-64167710D01*
X163703000Y-64167710D01*
X163386839Y-64053833D01*
X162660499Y-64374611D01*
X162112205Y-64948930D01*
X161843840Y-65596840D01*
X149355000Y-65596840D01*
X149355000Y-64513690D01*
X149258327Y-64280301D01*
X149079698Y-64101673D01*
X148846309Y-64005000D01*
X147605750Y-64005000D01*
X147447000Y-64163750D01*
X147193000Y-64163750D01*
X147034250Y-64005000D01*
X145793691Y-64005000D01*
X145560302Y-64101673D01*
X145381673Y-64280301D01*
X145285000Y-64513690D01*
X144907000Y-64513690D01*
X144907000Y-63627000D01*
X166243000Y-63627000D01*
X166243000Y-82423000D01*
X166243000Y-82423000D01*
G37*
X166243000Y-82423000D02*
X144907000Y-82423000D01*
X144907000Y-78796443D01*
X157603162Y-78796443D01*
X157945723Y-79271063D01*
X159278863Y-79831084D01*
X160724834Y-79838305D01*
X162063501Y-79291627D01*
X162094277Y-79271063D01*
X162436838Y-78796443D01*
X160020000Y-76379605D01*
X157603162Y-78796443D01*
X144907000Y-78796443D01*
X144907000Y-76904834D01*
X156381695Y-76904834D01*
X156928373Y-78243501D01*
X156948937Y-78274277D01*
X157423557Y-78616838D01*
X159840395Y-76200000D01*
X160199605Y-76200000D01*
X162616443Y-78616838D01*
X163091063Y-78274277D01*
X163651084Y-76941137D01*
X163658305Y-75495166D01*
X163111627Y-74156499D01*
X163091063Y-74125723D01*
X162616443Y-73783162D01*
X160199605Y-76200000D01*
X159840395Y-76200000D01*
X157423557Y-73783162D01*
X156948937Y-74125723D01*
X156388916Y-75458863D01*
X156381695Y-76904834D01*
X144907000Y-76904834D01*
X144907000Y-73603557D01*
X157603162Y-73603557D01*
X160020000Y-76020395D01*
X162436838Y-73603557D01*
X162094277Y-73128937D01*
X160761137Y-72568916D01*
X159315166Y-72561695D01*
X157976499Y-73108373D01*
X157945723Y-73128937D01*
X157603162Y-73603557D01*
X144907000Y-73603557D01*
X144907000Y-66325750D01*
X145285000Y-66325750D01*
X145285000Y-67566310D01*
X145381673Y-67799699D01*
X145560302Y-67978327D01*
X145793691Y-68075000D01*
X147034250Y-68075000D01*
X147193000Y-67916250D01*
X147193000Y-66167000D01*
X147447000Y-66167000D01*
X147447000Y-67916250D01*
X147605750Y-68075000D01*
X148846309Y-68075000D01*
X149079698Y-67978327D01*
X149258327Y-67799699D01*
X149355000Y-67566310D01*
X149355000Y-66483160D01*
X161843840Y-66483160D01*
X162112205Y-67131070D01*
X162660499Y-67705389D01*
X163386839Y-68026167D01*
X163703000Y-67912290D01*
X163703000Y-66167000D01*
X163957000Y-66167000D01*
X163957000Y-67912290D01*
X164273161Y-68026167D01*
X164999501Y-67705389D01*
X165547795Y-67131070D01*
X165816160Y-66483160D01*
X165701947Y-66167000D01*
X163957000Y-66167000D01*
X163703000Y-66167000D01*
X161958053Y-66167000D01*
X161843840Y-66483160D01*
X149355000Y-66483160D01*
X149355000Y-66325750D01*
X149196250Y-66167000D01*
X147447000Y-66167000D01*
X147193000Y-66167000D01*
X145443750Y-66167000D01*
X145285000Y-66325750D01*
X144907000Y-66325750D01*
X144907000Y-64513690D01*
X145285000Y-64513690D01*
X145285000Y-65754250D01*
X145443750Y-65913000D01*
X147193000Y-65913000D01*
X147193000Y-64163750D01*
X147447000Y-64163750D01*
X147447000Y-65913000D01*
X149196250Y-65913000D01*
X149355000Y-65754250D01*
X149355000Y-65596840D01*
X161843840Y-65596840D01*
X161958053Y-65913000D01*
X163703000Y-65913000D01*
X163703000Y-64167710D01*
X163957000Y-64167710D01*
X163957000Y-65913000D01*
X165701947Y-65913000D01*
X165816160Y-65596840D01*
X165547795Y-64948930D01*
X164999501Y-64374611D01*
X164273161Y-64053833D01*
X163957000Y-64167710D01*
X163703000Y-64167710D01*
X163386839Y-64053833D01*
X162660499Y-64374611D01*
X162112205Y-64948930D01*
X161843840Y-65596840D01*
X149355000Y-65596840D01*
X149355000Y-64513690D01*
X149258327Y-64280301D01*
X149079698Y-64101673D01*
X148846309Y-64005000D01*
X147605750Y-64005000D01*
X147447000Y-64163750D01*
X147193000Y-64163750D01*
X147034250Y-64005000D01*
X145793691Y-64005000D01*
X145560302Y-64101673D01*
X145381673Y-64280301D01*
X145285000Y-64513690D01*
X144907000Y-64513690D01*
X144907000Y-63627000D01*
X166243000Y-63627000D01*
X166243000Y-82423000D01*
M02*
