G04 #@! TF.FileFunction,Copper,L2,Bot,Signal*
%FSLAX46Y46*%
G04 Gerber Fmt 4.6, Leading zero omitted, Abs format (unit mm)*
G04 Created by KiCad (PCBNEW 4.0.7) date 01/18/18 11:52:26*
%MOMM*%
%LPD*%
G01*
G04 APERTURE LIST*
%ADD10C,0.100000*%
%ADD11C,1.600000*%
%ADD12O,1.600000X1.600000*%
%ADD13C,1.520000*%
%ADD14R,1.520000X1.520000*%
%ADD15C,5.999480*%
%ADD16R,2.800000X2.800000*%
%ADD17O,2.800000X2.800000*%
%ADD18R,1.750000X1.750000*%
%ADD19C,1.750000*%
%ADD20R,1.600000X1.600000*%
%ADD21C,2.000000*%
%ADD22O,2.000000X2.000000*%
%ADD23R,1.800000X1.800000*%
%ADD24O,1.800000X1.800000*%
%ADD25C,2.400000*%
%ADD26C,0.812800*%
%ADD27C,1.270000*%
%ADD28C,0.254000*%
G04 APERTURE END LIST*
D10*
D11*
X236220000Y-118110000D03*
D12*
X238760000Y-118110000D03*
D11*
X238760000Y-100330000D03*
D12*
X238760000Y-97790000D03*
D13*
X217170000Y-105410000D03*
X214630000Y-105410000D03*
D14*
X219710000Y-105410000D03*
D13*
X162560000Y-96520000D03*
X165100000Y-96520000D03*
D14*
X160020000Y-96520000D03*
D15*
X247650000Y-76200000D03*
X181610000Y-31750000D03*
X219710000Y-76200000D03*
X219710000Y-55880000D03*
X198120000Y-31750000D03*
X247650000Y-57150000D03*
D11*
X214630000Y-62230000D03*
D12*
X212090000Y-62230000D03*
D11*
X243840000Y-62230000D03*
D12*
X241300000Y-62230000D03*
D16*
X135890000Y-92710000D03*
D17*
X130810000Y-92710000D03*
D16*
X138430000Y-97790000D03*
D17*
X138430000Y-102870000D03*
D16*
X138430000Y-115570000D03*
D17*
X138430000Y-110490000D03*
D16*
X135890000Y-120650000D03*
D17*
X130810000Y-120650000D03*
D18*
X130810000Y-111760000D03*
D19*
X130810000Y-109260000D03*
X130810000Y-106760000D03*
X130810000Y-104260000D03*
X130810000Y-101760000D03*
D15*
X133350000Y-57150000D03*
X198120000Y-31750000D03*
X160020000Y-55880000D03*
X160020000Y-76200000D03*
X181610000Y-31750000D03*
X133350000Y-76200000D03*
D13*
X156210000Y-121920000D03*
X153670000Y-121920000D03*
D14*
X158750000Y-121920000D03*
D13*
X158750000Y-111760000D03*
X156210000Y-111760000D03*
D14*
X161290000Y-111760000D03*
D13*
X160020000Y-106680000D03*
X157480000Y-106680000D03*
D14*
X162560000Y-106680000D03*
D13*
X166370000Y-111760000D03*
X163830000Y-111760000D03*
D14*
X168910000Y-111760000D03*
D13*
X162560000Y-101600000D03*
X165100000Y-101600000D03*
D14*
X160020000Y-101600000D03*
D13*
X156210000Y-116840000D03*
X153670000Y-116840000D03*
D14*
X158750000Y-116840000D03*
D13*
X170180000Y-101600000D03*
X167640000Y-101600000D03*
D14*
X172720000Y-101600000D03*
D13*
X167640000Y-106680000D03*
X165100000Y-106680000D03*
D14*
X170180000Y-106680000D03*
D11*
X152400000Y-106680000D03*
D12*
X149860000Y-106680000D03*
D11*
X151130000Y-111760000D03*
D12*
X148590000Y-111760000D03*
D11*
X149860000Y-102870000D03*
D12*
X152400000Y-102870000D03*
D11*
X144780000Y-118110000D03*
D12*
X142240000Y-118110000D03*
D11*
X148590000Y-116840000D03*
D12*
X151130000Y-116840000D03*
D11*
X154940000Y-93980000D03*
D12*
X152400000Y-93980000D03*
D11*
X170180000Y-96520000D03*
D12*
X170180000Y-93980000D03*
D11*
X144780000Y-96520000D03*
D12*
X142240000Y-96520000D03*
D11*
X172720000Y-88900000D03*
D12*
X172720000Y-91440000D03*
D11*
X144780000Y-121920000D03*
D12*
X142240000Y-121920000D03*
D11*
X154940000Y-90170000D03*
D12*
X152400000Y-90170000D03*
D11*
X166370000Y-50800000D03*
D12*
X168910000Y-50800000D03*
D11*
X137160000Y-49530000D03*
D12*
X139700000Y-49530000D03*
D11*
X168910000Y-68580000D03*
D12*
X168910000Y-71120000D03*
D11*
X139700000Y-68580000D03*
D12*
X139700000Y-71120000D03*
D16*
X204470000Y-67310000D03*
D17*
X217170000Y-67310000D03*
D16*
X232410000Y-67310000D03*
D17*
X245110000Y-67310000D03*
D16*
X210820000Y-45720000D03*
D17*
X223520000Y-45720000D03*
D16*
X232410000Y-45720000D03*
D17*
X245110000Y-45720000D03*
D16*
X168910000Y-45720000D03*
D17*
X156210000Y-45720000D03*
D16*
X147320000Y-45720000D03*
D17*
X134620000Y-45720000D03*
D16*
X176530000Y-66040000D03*
D17*
X163830000Y-66040000D03*
D16*
X147320000Y-66040000D03*
D17*
X134620000Y-66040000D03*
D20*
X181610000Y-99060000D03*
D11*
X179110000Y-99060000D03*
D20*
X196850000Y-105410000D03*
D11*
X196850000Y-107910000D03*
D20*
X181610000Y-113030000D03*
D11*
X181610000Y-115530000D03*
D20*
X182880000Y-105410000D03*
D11*
X180380000Y-105410000D03*
D20*
X196850000Y-113030000D03*
D11*
X196850000Y-115530000D03*
D16*
X200660000Y-96520000D03*
D17*
X200660000Y-91440000D03*
D21*
X181610000Y-88900000D03*
D22*
X186690000Y-88900000D03*
D11*
X191770000Y-106680000D03*
D12*
X191770000Y-104140000D03*
D11*
X194310000Y-96520000D03*
D12*
X194310000Y-93980000D03*
D11*
X196850000Y-101600000D03*
D12*
X194310000Y-101600000D03*
D11*
X190500000Y-88900000D03*
D12*
X193040000Y-88900000D03*
D23*
X186690000Y-113030000D03*
D24*
X189230000Y-113030000D03*
X191770000Y-113030000D03*
D11*
X176530000Y-121920000D03*
D12*
X168910000Y-121920000D03*
D11*
X207010000Y-36830000D03*
D12*
X207010000Y-44450000D03*
D11*
X203200000Y-36830000D03*
D12*
X203200000Y-44450000D03*
D11*
X199390000Y-36830000D03*
D12*
X199390000Y-44450000D03*
D11*
X195580000Y-36830000D03*
D12*
X195580000Y-44450000D03*
D11*
X191770000Y-36830000D03*
D12*
X191770000Y-44450000D03*
D11*
X187960000Y-36830000D03*
D12*
X187960000Y-44450000D03*
D11*
X184150000Y-36830000D03*
D12*
X184150000Y-44450000D03*
D11*
X180340000Y-36830000D03*
D12*
X180340000Y-44450000D03*
D11*
X176530000Y-36830000D03*
D12*
X176530000Y-44450000D03*
D11*
X172720000Y-36830000D03*
D12*
X172720000Y-44450000D03*
D18*
X181610000Y-121920000D03*
D19*
X184110000Y-121920000D03*
D18*
X193040000Y-121920000D03*
D19*
X195540000Y-121920000D03*
D11*
X201930000Y-116840000D03*
D12*
X201930000Y-109220000D03*
D11*
X199390000Y-121920000D03*
D12*
X207010000Y-121920000D03*
D20*
X184150000Y-93980000D03*
D12*
X191770000Y-101600000D03*
X184150000Y-96520000D03*
X191770000Y-99060000D03*
X184150000Y-99060000D03*
X191770000Y-96520000D03*
X184150000Y-101600000D03*
X191770000Y-93980000D03*
D11*
X161290000Y-121920000D03*
D12*
X161290000Y-119380000D03*
D11*
X167640000Y-115570000D03*
D12*
X165100000Y-115570000D03*
D25*
X152400000Y-45720000D03*
X152400000Y-37970000D03*
X227330000Y-45720000D03*
X227330000Y-37970000D03*
X156210000Y-78740000D03*
X156210000Y-86490000D03*
D11*
X170180000Y-88900000D03*
D12*
X170180000Y-91440000D03*
D25*
X224790000Y-78740000D03*
X224790000Y-86490000D03*
D16*
X245110000Y-120650000D03*
D17*
X250190000Y-120650000D03*
D16*
X242570000Y-115570000D03*
D17*
X242570000Y-110490000D03*
D16*
X242570000Y-97790000D03*
D17*
X242570000Y-102870000D03*
D16*
X245110000Y-92710000D03*
D17*
X250190000Y-92710000D03*
D18*
X250190000Y-101600000D03*
D19*
X250190000Y-104100000D03*
X250190000Y-106600000D03*
X250190000Y-109100000D03*
X250190000Y-111600000D03*
D13*
X222250000Y-120650000D03*
X219710000Y-120650000D03*
D14*
X224790000Y-120650000D03*
D13*
X223520000Y-110490000D03*
X220980000Y-110490000D03*
D14*
X226060000Y-110490000D03*
D13*
X224790000Y-105410000D03*
X222250000Y-105410000D03*
D14*
X227330000Y-105410000D03*
D13*
X224790000Y-95250000D03*
X227330000Y-95250000D03*
D14*
X222250000Y-95250000D03*
D13*
X224790000Y-100330000D03*
X227330000Y-100330000D03*
D14*
X222250000Y-100330000D03*
D13*
X222250000Y-115570000D03*
X219710000Y-115570000D03*
D14*
X224790000Y-115570000D03*
D13*
X217170000Y-95250000D03*
X214630000Y-95250000D03*
D14*
X219710000Y-95250000D03*
D13*
X217170000Y-100330000D03*
X214630000Y-100330000D03*
D14*
X219710000Y-100330000D03*
D11*
X212090000Y-119380000D03*
D12*
X212090000Y-121920000D03*
D11*
X238760000Y-106680000D03*
D12*
X238760000Y-104140000D03*
D11*
X232410000Y-115570000D03*
D12*
X232410000Y-118110000D03*
D11*
X231140000Y-106680000D03*
D12*
X233680000Y-106680000D03*
D11*
X231140000Y-90170000D03*
D12*
X231140000Y-92710000D03*
D11*
X233680000Y-99060000D03*
D12*
X233680000Y-101600000D03*
D11*
X219710000Y-91440000D03*
D12*
X217170000Y-91440000D03*
D11*
X231140000Y-111760000D03*
D12*
X233680000Y-111760000D03*
D11*
X212090000Y-110490000D03*
D12*
X212090000Y-113030000D03*
D11*
X215900000Y-87630000D03*
D12*
X213360000Y-87630000D03*
D11*
X228600000Y-116840000D03*
D12*
X228600000Y-114300000D03*
D11*
X215900000Y-116840000D03*
D12*
X213360000Y-116840000D03*
D11*
X243840000Y-82550000D03*
D12*
X241300000Y-82550000D03*
D11*
X209550000Y-92710000D03*
D12*
X209550000Y-95250000D03*
D11*
X227330000Y-30480000D03*
D12*
X219710000Y-30480000D03*
D11*
X248920000Y-30480000D03*
D12*
X248920000Y-38100000D03*
D18*
X237490000Y-30480000D03*
D19*
X239990000Y-30480000D03*
D11*
X149860000Y-30480000D03*
D12*
X157480000Y-30480000D03*
D11*
X132080000Y-30480000D03*
D12*
X132080000Y-38100000D03*
D18*
X143510000Y-30480000D03*
D19*
X141010000Y-30480000D03*
D26*
X250190000Y-104100000D02*
X243800000Y-104100000D01*
X243800000Y-104100000D02*
X242570000Y-102870000D01*
X250190000Y-101600000D02*
X250190000Y-92710000D01*
D27*
X134620000Y-45720000D02*
X135890000Y-44450000D01*
X135890000Y-44450000D02*
X135890000Y-37970000D01*
X135890000Y-37970000D02*
X135890000Y-38100000D01*
X135890000Y-38100000D02*
X135890000Y-37970000D01*
X132080000Y-38100000D02*
X132080000Y-43180000D01*
X132080000Y-43180000D02*
X134620000Y-45720000D01*
X248920000Y-38100000D02*
X248920000Y-45720000D01*
X248920000Y-45720000D02*
X245110000Y-45720000D01*
D26*
X228600000Y-116840000D02*
X224790000Y-116840000D01*
X250190000Y-106600000D02*
X238840000Y-106600000D01*
X238840000Y-106600000D02*
X238760000Y-106680000D01*
X168910000Y-111760000D02*
X168910000Y-113030000D01*
X167640000Y-114300000D02*
X167640000Y-115570000D01*
X168910000Y-113030000D02*
X167640000Y-114300000D01*
X224790000Y-115570000D02*
X224790000Y-113030000D01*
X226060000Y-113030000D02*
X226060000Y-110490000D01*
X224790000Y-113030000D02*
X226060000Y-113030000D01*
X224790000Y-115570000D02*
X224790000Y-116840000D01*
X224790000Y-116840000D02*
X224790000Y-120650000D01*
X214630000Y-62230000D02*
X214630000Y-63500000D01*
X238760000Y-57150000D02*
X247650000Y-57150000D01*
X238760000Y-60960000D02*
X238760000Y-57150000D01*
X236220000Y-63500000D02*
X238760000Y-60960000D01*
X214630000Y-63500000D02*
X236220000Y-63500000D01*
X158750000Y-121920000D02*
X161290000Y-121920000D01*
X204470000Y-105410000D02*
X205740000Y-105410000D01*
X205740000Y-105410000D02*
X205740000Y-92710000D01*
X209550000Y-92710000D02*
X205740000Y-92710000D01*
X198160000Y-107910000D02*
X196850000Y-107910000D01*
X200660000Y-105410000D02*
X198160000Y-107910000D01*
X204470000Y-105410000D02*
X200660000Y-105410000D01*
X215900000Y-87630000D02*
X217170000Y-87630000D01*
X217170000Y-87630000D02*
X219710000Y-90170000D01*
X219710000Y-90170000D02*
X219710000Y-91440000D01*
X219710000Y-91440000D02*
X219710000Y-91440000D01*
X219710000Y-95250000D02*
X219710000Y-91440000D01*
X224920000Y-86490000D02*
X224790000Y-86490000D01*
X224660000Y-86490000D02*
X224790000Y-86490000D01*
X219710000Y-95250000D02*
X219710000Y-100330000D01*
X219710000Y-105410000D02*
X219710000Y-100330000D01*
X222250000Y-95250000D02*
X222250000Y-100330000D01*
D27*
X227330000Y-37970000D02*
X244980000Y-37970000D01*
X245110000Y-38100000D02*
X245110000Y-45720000D01*
X244980000Y-37970000D02*
X245110000Y-38100000D01*
X152400000Y-37970000D02*
X135890000Y-37970000D01*
D26*
X152400000Y-37970000D02*
X162430000Y-37970000D01*
X162430000Y-37970000D02*
X162560000Y-38100000D01*
X162560000Y-38100000D02*
X162560000Y-39370000D01*
D27*
X181610000Y-115530000D02*
X179110000Y-115530000D01*
X179110000Y-115530000D02*
X179110000Y-107910000D01*
X191770000Y-106680000D02*
X191770000Y-107910000D01*
X184150000Y-101600000D02*
X179110000Y-101600000D01*
X179110000Y-101600000D02*
X179070000Y-101600000D01*
X179070000Y-101600000D02*
X179110000Y-101600000D01*
X179110000Y-99060000D02*
X179110000Y-101600000D01*
X179110000Y-101600000D02*
X179110000Y-105370000D01*
X184150000Y-96520000D02*
X179070000Y-96520000D01*
X179070000Y-96520000D02*
X179110000Y-96560000D01*
X179110000Y-96560000D02*
X179110000Y-99060000D01*
X191770000Y-107910000D02*
X191770000Y-107950000D01*
X191770000Y-107950000D02*
X191770000Y-107910000D01*
X196850000Y-107910000D02*
X191770000Y-107910000D01*
X191770000Y-107910000D02*
X179110000Y-107910000D01*
X179110000Y-107910000D02*
X179110000Y-105370000D01*
X179150000Y-105410000D02*
X180380000Y-105410000D01*
X179110000Y-105370000D02*
X179150000Y-105410000D01*
D26*
X160020000Y-101600000D02*
X160020000Y-96520000D01*
X162560000Y-46990000D02*
X162560000Y-39370000D01*
X162560000Y-39370000D02*
X162560000Y-38100000D01*
X163830000Y-46990000D02*
X162560000Y-46990000D01*
X163830000Y-46990000D02*
X163830000Y-49530000D01*
X165100000Y-49530000D02*
X163830000Y-49530000D01*
X166370000Y-50800000D02*
X165100000Y-49530000D01*
X168910000Y-68580000D02*
X168910000Y-62230000D01*
X166370000Y-54610000D02*
X166370000Y-50800000D01*
X167640000Y-54610000D02*
X166370000Y-54610000D01*
X167640000Y-60960000D02*
X167640000Y-54610000D01*
X168910000Y-62230000D02*
X167640000Y-60960000D01*
X250190000Y-109100000D02*
X243960000Y-109100000D01*
X243960000Y-109100000D02*
X242570000Y-110490000D01*
X130810000Y-109260000D02*
X137200000Y-109260000D01*
X137200000Y-109260000D02*
X138430000Y-110490000D01*
X168910000Y-118110000D02*
X172720000Y-114300000D01*
X168910000Y-118110000D02*
X163830000Y-118110000D01*
X163830000Y-118110000D02*
X163830000Y-119380000D01*
X163830000Y-124460000D02*
X163830000Y-119380000D01*
X135890000Y-124460000D02*
X135890000Y-120650000D01*
X163830000Y-124460000D02*
X135890000Y-124460000D01*
X172720000Y-114300000D02*
X172720000Y-113030000D01*
X173990000Y-93980000D02*
X173990000Y-99060000D01*
X173990000Y-99060000D02*
X175260000Y-100330000D01*
X175260000Y-100330000D02*
X175260000Y-104140000D01*
X175260000Y-104140000D02*
X172720000Y-106680000D01*
X172720000Y-106680000D02*
X172720000Y-113030000D01*
X170180000Y-93980000D02*
X172720000Y-93980000D01*
X172720000Y-93980000D02*
X173990000Y-93980000D01*
X130810000Y-111760000D02*
X130810000Y-120650000D01*
X222250000Y-115570000D02*
X222250000Y-113030000D01*
X220980000Y-113030000D02*
X220980000Y-110490000D01*
X222250000Y-113030000D02*
X220980000Y-113030000D01*
X222250000Y-118110000D02*
X222250000Y-120650000D01*
X222250000Y-115570000D02*
X222250000Y-118110000D01*
X222250000Y-118110000D02*
X218440000Y-118110000D01*
X212090000Y-119380000D02*
X218440000Y-119380000D01*
X218440000Y-119380000D02*
X218440000Y-118472857D01*
X218440000Y-118472857D02*
X218440000Y-118110000D01*
X218440000Y-118110000D02*
X218440000Y-118472857D01*
X213360000Y-116840000D02*
X212090000Y-116840000D01*
X212090000Y-116840000D02*
X212090000Y-119380000D01*
X213360000Y-116840000D02*
X213360000Y-116840000D01*
X236220000Y-118110000D02*
X236220000Y-95250000D01*
X241300000Y-87630000D02*
X241300000Y-82550000D01*
X236220000Y-92710000D02*
X241300000Y-87630000D01*
X236220000Y-95250000D02*
X236220000Y-92710000D01*
X224790000Y-102870000D02*
X222250000Y-102870000D01*
X222250000Y-102870000D02*
X222250000Y-105410000D01*
X224790000Y-100330000D02*
X224790000Y-102870000D01*
X222250000Y-105410000D02*
X222250000Y-105410000D01*
X224790000Y-95250000D02*
X224790000Y-100330000D01*
X217170000Y-100330000D02*
X217170000Y-97790000D01*
X217170000Y-97790000D02*
X214630000Y-97790000D01*
X214630000Y-97790000D02*
X214630000Y-95250000D01*
X217170000Y-105410000D02*
X217170000Y-100330000D01*
X227330000Y-95250000D02*
X227330000Y-92710000D01*
X222250000Y-92710000D02*
X222250000Y-90170000D01*
X227330000Y-92710000D02*
X222250000Y-92710000D01*
X227330000Y-95250000D02*
X229870000Y-95250000D01*
X229870000Y-97790000D02*
X229870000Y-106680000D01*
X231140000Y-106680000D02*
X229870000Y-106680000D01*
X229870000Y-95250000D02*
X229870000Y-97790000D01*
X213360000Y-87630000D02*
X213360000Y-85090000D01*
X213360000Y-85090000D02*
X214630000Y-85090000D01*
X217170000Y-85090000D02*
X219710000Y-85090000D01*
X219710000Y-85090000D02*
X219710000Y-87630000D01*
X214630000Y-85090000D02*
X217170000Y-85090000D01*
X222250000Y-90170000D02*
X219710000Y-87630000D01*
X237490000Y-87630000D02*
X238760000Y-86360000D01*
X233680000Y-91440000D02*
X237490000Y-87630000D01*
X238760000Y-64770000D02*
X241300000Y-62230000D01*
X233680000Y-99060000D02*
X233680000Y-91440000D01*
X238760000Y-86360000D02*
X238760000Y-64770000D01*
X219710000Y-115570000D02*
X218440000Y-115570000D01*
X218440000Y-115570000D02*
X218440000Y-107950000D01*
X209550000Y-87630000D02*
X209550000Y-85090000D01*
X212090000Y-90170000D02*
X209550000Y-87630000D01*
X218440000Y-107950000D02*
X212090000Y-107950000D01*
X209550000Y-64770000D02*
X212090000Y-62230000D01*
X209550000Y-85090000D02*
X209550000Y-67310000D01*
X209550000Y-67310000D02*
X209550000Y-64770000D01*
X212090000Y-107950000D02*
X212090000Y-90170000D01*
X227330000Y-107950000D02*
X228600000Y-107950000D01*
X227330000Y-107950000D02*
X218440000Y-107950000D01*
X231140000Y-109220000D02*
X229870000Y-109220000D01*
X229870000Y-109220000D02*
X228600000Y-109220000D01*
X231140000Y-111760000D02*
X231140000Y-109220000D01*
X228600000Y-107950000D02*
X228600000Y-109220000D01*
X161290000Y-119380000D02*
X161290000Y-119380000D01*
X156210000Y-116840000D02*
X156210000Y-119380000D01*
X161290000Y-119380000D02*
X156210000Y-119380000D01*
X156210000Y-119380000D02*
X156210000Y-121920000D01*
X146050000Y-88900000D02*
X147320000Y-90170000D01*
X142240000Y-85090000D02*
X146050000Y-88900000D01*
X147320000Y-97790000D02*
X147320000Y-90170000D01*
X142240000Y-85090000D02*
X142240000Y-49530000D01*
X142240000Y-49530000D02*
X139700000Y-49530000D01*
X146050000Y-99060000D02*
X147320000Y-97790000D01*
X144780000Y-118110000D02*
X147320000Y-120650000D01*
X146050000Y-99060000D02*
X144780000Y-100330000D01*
X144780000Y-118110000D02*
X144780000Y-113030000D01*
X144780000Y-113030000D02*
X144780000Y-100330000D01*
X147320000Y-120650000D02*
X148590000Y-121920000D01*
X148590000Y-121920000D02*
X153670000Y-121920000D01*
X162560000Y-99060000D02*
X167640000Y-99060000D01*
X167640000Y-91440000D02*
X170180000Y-91440000D01*
X167640000Y-99060000D02*
X167640000Y-91440000D01*
X162560000Y-102870000D02*
X161290000Y-104140000D01*
X157480000Y-105410000D02*
X158750000Y-104140000D01*
X158750000Y-104140000D02*
X161290000Y-104140000D01*
X157480000Y-106680000D02*
X157480000Y-105410000D01*
X162560000Y-102870000D02*
X162560000Y-101600000D01*
X162560000Y-101600000D02*
X162560000Y-99060000D01*
X162560000Y-99060000D02*
X162560000Y-96520000D01*
X167640000Y-106680000D02*
X167640000Y-109220000D01*
X166370000Y-109220000D02*
X166370000Y-111760000D01*
X167640000Y-109220000D02*
X166370000Y-109220000D01*
X166370000Y-111760000D02*
X166370000Y-113030000D01*
X166370000Y-113030000D02*
X165100000Y-114300000D01*
X165100000Y-114300000D02*
X165100000Y-115570000D01*
X167640000Y-87630000D02*
X166370000Y-88900000D01*
X166370000Y-88900000D02*
X165100000Y-90170000D01*
X167640000Y-87630000D02*
X168910000Y-86360000D01*
X168910000Y-86360000D02*
X171450000Y-86360000D01*
X171450000Y-86360000D02*
X171450000Y-82550000D01*
X165100000Y-90170000D02*
X165100000Y-91440000D01*
X165100000Y-96520000D02*
X165100000Y-91440000D01*
X171450000Y-50800000D02*
X168910000Y-50800000D01*
X171450000Y-82550000D02*
X171450000Y-50800000D01*
X139700000Y-86360000D02*
X142240000Y-88900000D01*
X142240000Y-88900000D02*
X144780000Y-91440000D01*
X144780000Y-96520000D02*
X144780000Y-91440000D01*
X139700000Y-86360000D02*
X139700000Y-71120000D01*
X157480000Y-95250000D02*
X158750000Y-93980000D01*
X154940000Y-102870000D02*
X156210000Y-101600000D01*
X156210000Y-101600000D02*
X157480000Y-100330000D01*
X161290000Y-91440000D02*
X158750000Y-93980000D01*
X168910000Y-82550000D02*
X168910000Y-71120000D01*
X168910000Y-83820000D02*
X167640000Y-85090000D01*
X168910000Y-82550000D02*
X168910000Y-83820000D01*
X165100000Y-87630000D02*
X167640000Y-85090000D01*
X163830000Y-88900000D02*
X165100000Y-87630000D01*
X161290000Y-91440000D02*
X163830000Y-88900000D01*
X153670000Y-116840000D02*
X153670000Y-114300000D01*
X154940000Y-109220000D02*
X154940000Y-107950000D01*
X153670000Y-114300000D02*
X153670000Y-110490000D01*
X154940000Y-107950000D02*
X154940000Y-102870000D01*
X157480000Y-100330000D02*
X157480000Y-95250000D01*
X153670000Y-110490000D02*
X154940000Y-109220000D01*
X217170000Y-95250000D02*
X217170000Y-91440000D01*
X212090000Y-121920000D02*
X209550000Y-121920000D01*
X232410000Y-118110000D02*
X232410000Y-124460000D01*
X245110000Y-120650000D02*
X245110000Y-124460000D01*
X245110000Y-124460000D02*
X232410000Y-124460000D01*
X232410000Y-124460000D02*
X231140000Y-124460000D01*
X209550000Y-124460000D02*
X209550000Y-121920000D01*
X231140000Y-124460000D02*
X209550000Y-124460000D01*
X212090000Y-113030000D02*
X209550000Y-113030000D01*
X209550000Y-113030000D02*
X209550000Y-114300000D01*
X209550000Y-120650000D02*
X209550000Y-114300000D01*
X209550000Y-121920000D02*
X209550000Y-120650000D01*
X233680000Y-101600000D02*
X233680000Y-106680000D01*
X238760000Y-118110000D02*
X241300000Y-118110000D01*
X241300000Y-118110000D02*
X242570000Y-116840000D01*
X242570000Y-116840000D02*
X242570000Y-115570000D01*
X233680000Y-111760000D02*
X233680000Y-106680000D01*
X148590000Y-100330000D02*
X149860000Y-99060000D01*
X148590000Y-100330000D02*
X147320000Y-101600000D01*
X151130000Y-116840000D02*
X151130000Y-114300000D01*
X148590000Y-114300000D02*
X148590000Y-111760000D01*
X151130000Y-114300000D02*
X148590000Y-114300000D01*
X152400000Y-90170000D02*
X149860000Y-90170000D01*
X149860000Y-90170000D02*
X149860000Y-99060000D01*
X148590000Y-111760000D02*
X148590000Y-110490000D01*
X147320000Y-101600000D02*
X147320000Y-109220000D01*
X148590000Y-110490000D02*
X147320000Y-109220000D01*
X142240000Y-121920000D02*
X142240000Y-118110000D01*
X142240000Y-118110000D02*
X142240000Y-96520000D01*
X250190000Y-111600000D02*
X250190000Y-120650000D01*
X130810000Y-101760000D02*
X130810000Y-92710000D01*
X130810000Y-104260000D02*
X137040000Y-104260000D01*
X137040000Y-104260000D02*
X138430000Y-102870000D01*
D27*
X201930000Y-116840000D02*
X201930000Y-119380000D01*
X193040000Y-119380000D02*
X193040000Y-121920000D01*
X201930000Y-119380000D02*
X193040000Y-119380000D01*
X195540000Y-121920000D02*
X199390000Y-121920000D01*
X157480000Y-30480000D02*
X172720000Y-30480000D01*
X172720000Y-30480000D02*
X172720000Y-36830000D01*
X219710000Y-30480000D02*
X199390000Y-30480000D01*
X199390000Y-30480000D02*
X198120000Y-31750000D01*
X237490000Y-30480000D02*
X227330000Y-30480000D01*
X239990000Y-30480000D02*
X248920000Y-30480000D01*
X149860000Y-30480000D02*
X143510000Y-30480000D01*
X141010000Y-30480000D02*
X132080000Y-30480000D01*
D28*
G36*
X234823000Y-60833000D02*
X219837000Y-60833000D01*
X219837000Y-59690000D01*
X219826994Y-59640590D01*
X219798553Y-59598965D01*
X219756159Y-59571685D01*
X219710000Y-59563000D01*
X214757000Y-59563000D01*
X214757000Y-58476443D01*
X217293162Y-58476443D01*
X217635723Y-58951063D01*
X218968863Y-59511084D01*
X220414834Y-59518305D01*
X221753501Y-58971627D01*
X221784277Y-58951063D01*
X222126838Y-58476443D01*
X219710000Y-56059605D01*
X217293162Y-58476443D01*
X214757000Y-58476443D01*
X214757000Y-56584834D01*
X216071695Y-56584834D01*
X216618373Y-57923501D01*
X216638937Y-57954277D01*
X217113557Y-58296838D01*
X219530395Y-55880000D01*
X219889605Y-55880000D01*
X222306443Y-58296838D01*
X222781063Y-57954277D01*
X223341084Y-56621137D01*
X223348305Y-55175166D01*
X222801627Y-53836499D01*
X222781063Y-53805723D01*
X222306443Y-53463162D01*
X219889605Y-55880000D01*
X219530395Y-55880000D01*
X217113557Y-53463162D01*
X216638937Y-53805723D01*
X216078916Y-55138863D01*
X216071695Y-56584834D01*
X214757000Y-56584834D01*
X214757000Y-53283557D01*
X217293162Y-53283557D01*
X219710000Y-55700395D01*
X222126838Y-53283557D01*
X221784277Y-52808937D01*
X220451137Y-52248916D01*
X219005166Y-52241695D01*
X217666499Y-52788373D01*
X217635723Y-52808937D01*
X217293162Y-53283557D01*
X214757000Y-53283557D01*
X214757000Y-50927000D01*
X215900000Y-50927000D01*
X215949410Y-50916994D01*
X215991035Y-50888553D01*
X216018315Y-50846159D01*
X216027000Y-50800000D01*
X216027000Y-46163160D01*
X221533840Y-46163160D01*
X221802205Y-46811070D01*
X222350499Y-47385389D01*
X223076839Y-47706167D01*
X223393000Y-47592290D01*
X223393000Y-45847000D01*
X221648053Y-45847000D01*
X221533840Y-46163160D01*
X216027000Y-46163160D01*
X216027000Y-45276840D01*
X221533840Y-45276840D01*
X221648053Y-45593000D01*
X223393000Y-45593000D01*
X223393000Y-43847710D01*
X223647000Y-43847710D01*
X223647000Y-45593000D01*
X223667000Y-45593000D01*
X223667000Y-45847000D01*
X223647000Y-45847000D01*
X223647000Y-47592290D01*
X223963161Y-47706167D01*
X224689501Y-47385389D01*
X225041029Y-47017175D01*
X226212430Y-47017175D01*
X226335565Y-47304788D01*
X227017734Y-47564707D01*
X227747443Y-47543786D01*
X228324435Y-47304788D01*
X228447570Y-47017175D01*
X227330000Y-45899605D01*
X226212430Y-47017175D01*
X225041029Y-47017175D01*
X225237795Y-46811070D01*
X225506160Y-46163160D01*
X225391948Y-45847002D01*
X225497887Y-45847002D01*
X225506214Y-46137443D01*
X225745212Y-46714435D01*
X226032825Y-46837570D01*
X227150395Y-45720000D01*
X227509605Y-45720000D01*
X228627175Y-46837570D01*
X228914788Y-46714435D01*
X229174707Y-46032266D01*
X229173947Y-46005750D01*
X230375000Y-46005750D01*
X230375000Y-47246310D01*
X230471673Y-47479699D01*
X230650302Y-47658327D01*
X230883691Y-47755000D01*
X232124250Y-47755000D01*
X232283000Y-47596250D01*
X232283000Y-45847000D01*
X232537000Y-45847000D01*
X232537000Y-47596250D01*
X232695750Y-47755000D01*
X233936309Y-47755000D01*
X234169698Y-47658327D01*
X234348327Y-47479699D01*
X234445000Y-47246310D01*
X234445000Y-46005750D01*
X234286250Y-45847000D01*
X232537000Y-45847000D01*
X232283000Y-45847000D01*
X230533750Y-45847000D01*
X230375000Y-46005750D01*
X229173947Y-46005750D01*
X229153786Y-45302557D01*
X228914788Y-44725565D01*
X228627175Y-44602430D01*
X227509605Y-45720000D01*
X227150395Y-45720000D01*
X226032825Y-44602430D01*
X225745212Y-44725565D01*
X225485293Y-45407734D01*
X225490605Y-45592998D01*
X225391948Y-45592998D01*
X225506160Y-45276840D01*
X225237795Y-44628930D01*
X225041030Y-44422825D01*
X226212430Y-44422825D01*
X227330000Y-45540395D01*
X228447570Y-44422825D01*
X228349472Y-44193690D01*
X230375000Y-44193690D01*
X230375000Y-45434250D01*
X230533750Y-45593000D01*
X232283000Y-45593000D01*
X232283000Y-43843750D01*
X232537000Y-43843750D01*
X232537000Y-45593000D01*
X234286250Y-45593000D01*
X234445000Y-45434250D01*
X234445000Y-44193690D01*
X234348327Y-43960301D01*
X234169698Y-43781673D01*
X233936309Y-43685000D01*
X232695750Y-43685000D01*
X232537000Y-43843750D01*
X232283000Y-43843750D01*
X232124250Y-43685000D01*
X230883691Y-43685000D01*
X230650302Y-43781673D01*
X230471673Y-43960301D01*
X230375000Y-44193690D01*
X228349472Y-44193690D01*
X228324435Y-44135212D01*
X227642266Y-43875293D01*
X226912557Y-43896214D01*
X226335565Y-44135212D01*
X226212430Y-44422825D01*
X225041030Y-44422825D01*
X224689501Y-44054611D01*
X223963161Y-43733833D01*
X223647000Y-43847710D01*
X223393000Y-43847710D01*
X223076839Y-43733833D01*
X222350499Y-44054611D01*
X221802205Y-44628930D01*
X221533840Y-45276840D01*
X216027000Y-45276840D01*
X216027000Y-42037000D01*
X234823000Y-42037000D01*
X234823000Y-60833000D01*
X234823000Y-60833000D01*
G37*
X234823000Y-60833000D02*
X219837000Y-60833000D01*
X219837000Y-59690000D01*
X219826994Y-59640590D01*
X219798553Y-59598965D01*
X219756159Y-59571685D01*
X219710000Y-59563000D01*
X214757000Y-59563000D01*
X214757000Y-58476443D01*
X217293162Y-58476443D01*
X217635723Y-58951063D01*
X218968863Y-59511084D01*
X220414834Y-59518305D01*
X221753501Y-58971627D01*
X221784277Y-58951063D01*
X222126838Y-58476443D01*
X219710000Y-56059605D01*
X217293162Y-58476443D01*
X214757000Y-58476443D01*
X214757000Y-56584834D01*
X216071695Y-56584834D01*
X216618373Y-57923501D01*
X216638937Y-57954277D01*
X217113557Y-58296838D01*
X219530395Y-55880000D01*
X219889605Y-55880000D01*
X222306443Y-58296838D01*
X222781063Y-57954277D01*
X223341084Y-56621137D01*
X223348305Y-55175166D01*
X222801627Y-53836499D01*
X222781063Y-53805723D01*
X222306443Y-53463162D01*
X219889605Y-55880000D01*
X219530395Y-55880000D01*
X217113557Y-53463162D01*
X216638937Y-53805723D01*
X216078916Y-55138863D01*
X216071695Y-56584834D01*
X214757000Y-56584834D01*
X214757000Y-53283557D01*
X217293162Y-53283557D01*
X219710000Y-55700395D01*
X222126838Y-53283557D01*
X221784277Y-52808937D01*
X220451137Y-52248916D01*
X219005166Y-52241695D01*
X217666499Y-52788373D01*
X217635723Y-52808937D01*
X217293162Y-53283557D01*
X214757000Y-53283557D01*
X214757000Y-50927000D01*
X215900000Y-50927000D01*
X215949410Y-50916994D01*
X215991035Y-50888553D01*
X216018315Y-50846159D01*
X216027000Y-50800000D01*
X216027000Y-46163160D01*
X221533840Y-46163160D01*
X221802205Y-46811070D01*
X222350499Y-47385389D01*
X223076839Y-47706167D01*
X223393000Y-47592290D01*
X223393000Y-45847000D01*
X221648053Y-45847000D01*
X221533840Y-46163160D01*
X216027000Y-46163160D01*
X216027000Y-45276840D01*
X221533840Y-45276840D01*
X221648053Y-45593000D01*
X223393000Y-45593000D01*
X223393000Y-43847710D01*
X223647000Y-43847710D01*
X223647000Y-45593000D01*
X223667000Y-45593000D01*
X223667000Y-45847000D01*
X223647000Y-45847000D01*
X223647000Y-47592290D01*
X223963161Y-47706167D01*
X224689501Y-47385389D01*
X225041029Y-47017175D01*
X226212430Y-47017175D01*
X226335565Y-47304788D01*
X227017734Y-47564707D01*
X227747443Y-47543786D01*
X228324435Y-47304788D01*
X228447570Y-47017175D01*
X227330000Y-45899605D01*
X226212430Y-47017175D01*
X225041029Y-47017175D01*
X225237795Y-46811070D01*
X225506160Y-46163160D01*
X225391948Y-45847002D01*
X225497887Y-45847002D01*
X225506214Y-46137443D01*
X225745212Y-46714435D01*
X226032825Y-46837570D01*
X227150395Y-45720000D01*
X227509605Y-45720000D01*
X228627175Y-46837570D01*
X228914788Y-46714435D01*
X229174707Y-46032266D01*
X229173947Y-46005750D01*
X230375000Y-46005750D01*
X230375000Y-47246310D01*
X230471673Y-47479699D01*
X230650302Y-47658327D01*
X230883691Y-47755000D01*
X232124250Y-47755000D01*
X232283000Y-47596250D01*
X232283000Y-45847000D01*
X232537000Y-45847000D01*
X232537000Y-47596250D01*
X232695750Y-47755000D01*
X233936309Y-47755000D01*
X234169698Y-47658327D01*
X234348327Y-47479699D01*
X234445000Y-47246310D01*
X234445000Y-46005750D01*
X234286250Y-45847000D01*
X232537000Y-45847000D01*
X232283000Y-45847000D01*
X230533750Y-45847000D01*
X230375000Y-46005750D01*
X229173947Y-46005750D01*
X229153786Y-45302557D01*
X228914788Y-44725565D01*
X228627175Y-44602430D01*
X227509605Y-45720000D01*
X227150395Y-45720000D01*
X226032825Y-44602430D01*
X225745212Y-44725565D01*
X225485293Y-45407734D01*
X225490605Y-45592998D01*
X225391948Y-45592998D01*
X225506160Y-45276840D01*
X225237795Y-44628930D01*
X225041030Y-44422825D01*
X226212430Y-44422825D01*
X227330000Y-45540395D01*
X228447570Y-44422825D01*
X228349472Y-44193690D01*
X230375000Y-44193690D01*
X230375000Y-45434250D01*
X230533750Y-45593000D01*
X232283000Y-45593000D01*
X232283000Y-43843750D01*
X232537000Y-43843750D01*
X232537000Y-45593000D01*
X234286250Y-45593000D01*
X234445000Y-45434250D01*
X234445000Y-44193690D01*
X234348327Y-43960301D01*
X234169698Y-43781673D01*
X233936309Y-43685000D01*
X232695750Y-43685000D01*
X232537000Y-43843750D01*
X232283000Y-43843750D01*
X232124250Y-43685000D01*
X230883691Y-43685000D01*
X230650302Y-43781673D01*
X230471673Y-43960301D01*
X230375000Y-44193690D01*
X228349472Y-44193690D01*
X228324435Y-44135212D01*
X227642266Y-43875293D01*
X226912557Y-43896214D01*
X226335565Y-44135212D01*
X226212430Y-44422825D01*
X225041030Y-44422825D01*
X224689501Y-44054611D01*
X223963161Y-43733833D01*
X223647000Y-43847710D01*
X223393000Y-43847710D01*
X223076839Y-43733833D01*
X222350499Y-44054611D01*
X221802205Y-44628930D01*
X221533840Y-45276840D01*
X216027000Y-45276840D01*
X216027000Y-42037000D01*
X234823000Y-42037000D01*
X234823000Y-60833000D01*
G36*
X213233000Y-49403000D02*
X205740000Y-49403000D01*
X205690590Y-49413006D01*
X205648965Y-49441447D01*
X205621685Y-49483841D01*
X205613000Y-49530000D01*
X205613000Y-65275000D01*
X204755750Y-65275000D01*
X204597000Y-65433750D01*
X204597000Y-67183000D01*
X204617000Y-67183000D01*
X204617000Y-67437000D01*
X204597000Y-67437000D01*
X204597000Y-69186250D01*
X204755750Y-69345000D01*
X205613000Y-69345000D01*
X205613000Y-82423000D01*
X174117000Y-82423000D01*
X174117000Y-66325750D01*
X174495000Y-66325750D01*
X174495000Y-67566310D01*
X174591673Y-67799699D01*
X174770302Y-67978327D01*
X175003691Y-68075000D01*
X176244250Y-68075000D01*
X176403000Y-67916250D01*
X176403000Y-66167000D01*
X176657000Y-66167000D01*
X176657000Y-67916250D01*
X176815750Y-68075000D01*
X178056309Y-68075000D01*
X178289698Y-67978327D01*
X178468327Y-67799699D01*
X178552805Y-67595750D01*
X202435000Y-67595750D01*
X202435000Y-68836310D01*
X202531673Y-69069699D01*
X202710302Y-69248327D01*
X202943691Y-69345000D01*
X204184250Y-69345000D01*
X204343000Y-69186250D01*
X204343000Y-67437000D01*
X202593750Y-67437000D01*
X202435000Y-67595750D01*
X178552805Y-67595750D01*
X178565000Y-67566310D01*
X178565000Y-66325750D01*
X178406250Y-66167000D01*
X176657000Y-66167000D01*
X176403000Y-66167000D01*
X174653750Y-66167000D01*
X174495000Y-66325750D01*
X174117000Y-66325750D01*
X174117000Y-64513690D01*
X174495000Y-64513690D01*
X174495000Y-65754250D01*
X174653750Y-65913000D01*
X176403000Y-65913000D01*
X176403000Y-64163750D01*
X176657000Y-64163750D01*
X176657000Y-65913000D01*
X178406250Y-65913000D01*
X178535560Y-65783690D01*
X202435000Y-65783690D01*
X202435000Y-67024250D01*
X202593750Y-67183000D01*
X204343000Y-67183000D01*
X204343000Y-65433750D01*
X204184250Y-65275000D01*
X202943691Y-65275000D01*
X202710302Y-65371673D01*
X202531673Y-65550301D01*
X202435000Y-65783690D01*
X178535560Y-65783690D01*
X178565000Y-65754250D01*
X178565000Y-64513690D01*
X178468327Y-64280301D01*
X178289698Y-64101673D01*
X178056309Y-64005000D01*
X176815750Y-64005000D01*
X176657000Y-64163750D01*
X176403000Y-64163750D01*
X176244250Y-64005000D01*
X175003691Y-64005000D01*
X174770302Y-64101673D01*
X174591673Y-64280301D01*
X174495000Y-64513690D01*
X174117000Y-64513690D01*
X174117000Y-48260000D01*
X174106994Y-48210590D01*
X174078553Y-48168965D01*
X174036159Y-48141685D01*
X173990000Y-48133000D01*
X166497000Y-48133000D01*
X166497000Y-46005750D01*
X166875000Y-46005750D01*
X166875000Y-47246310D01*
X166971673Y-47479699D01*
X167150302Y-47658327D01*
X167383691Y-47755000D01*
X168624250Y-47755000D01*
X168783000Y-47596250D01*
X168783000Y-45847000D01*
X169037000Y-45847000D01*
X169037000Y-47596250D01*
X169195750Y-47755000D01*
X170436309Y-47755000D01*
X170669698Y-47658327D01*
X170848327Y-47479699D01*
X170945000Y-47246310D01*
X170945000Y-46005750D01*
X208785000Y-46005750D01*
X208785000Y-47246310D01*
X208881673Y-47479699D01*
X209060302Y-47658327D01*
X209293691Y-47755000D01*
X210534250Y-47755000D01*
X210693000Y-47596250D01*
X210693000Y-45847000D01*
X210947000Y-45847000D01*
X210947000Y-47596250D01*
X211105750Y-47755000D01*
X212346309Y-47755000D01*
X212579698Y-47658327D01*
X212758327Y-47479699D01*
X212855000Y-47246310D01*
X212855000Y-46005750D01*
X212696250Y-45847000D01*
X210947000Y-45847000D01*
X210693000Y-45847000D01*
X208943750Y-45847000D01*
X208785000Y-46005750D01*
X170945000Y-46005750D01*
X170786250Y-45847000D01*
X169037000Y-45847000D01*
X168783000Y-45847000D01*
X167033750Y-45847000D01*
X166875000Y-46005750D01*
X166497000Y-46005750D01*
X166497000Y-44193690D01*
X166875000Y-44193690D01*
X166875000Y-45434250D01*
X167033750Y-45593000D01*
X168783000Y-45593000D01*
X168783000Y-43843750D01*
X169037000Y-43843750D01*
X169037000Y-45593000D01*
X170786250Y-45593000D01*
X170945000Y-45434250D01*
X170945000Y-44799041D01*
X171328086Y-44799041D01*
X171567611Y-45305134D01*
X171982577Y-45681041D01*
X172370961Y-45841904D01*
X172593000Y-45719915D01*
X172593000Y-44577000D01*
X172847000Y-44577000D01*
X172847000Y-45719915D01*
X173069039Y-45841904D01*
X173457423Y-45681041D01*
X173872389Y-45305134D01*
X174111914Y-44799041D01*
X175138086Y-44799041D01*
X175377611Y-45305134D01*
X175792577Y-45681041D01*
X176180961Y-45841904D01*
X176403000Y-45719915D01*
X176403000Y-44577000D01*
X176657000Y-44577000D01*
X176657000Y-45719915D01*
X176879039Y-45841904D01*
X177267423Y-45681041D01*
X177682389Y-45305134D01*
X177921914Y-44799041D01*
X178948086Y-44799041D01*
X179187611Y-45305134D01*
X179602577Y-45681041D01*
X179990961Y-45841904D01*
X180213000Y-45719915D01*
X180213000Y-44577000D01*
X180467000Y-44577000D01*
X180467000Y-45719915D01*
X180689039Y-45841904D01*
X181077423Y-45681041D01*
X181492389Y-45305134D01*
X181731914Y-44799041D01*
X182758086Y-44799041D01*
X182997611Y-45305134D01*
X183412577Y-45681041D01*
X183800961Y-45841904D01*
X184023000Y-45719915D01*
X184023000Y-44577000D01*
X184277000Y-44577000D01*
X184277000Y-45719915D01*
X184499039Y-45841904D01*
X184887423Y-45681041D01*
X185302389Y-45305134D01*
X185541914Y-44799041D01*
X186568086Y-44799041D01*
X186807611Y-45305134D01*
X187222577Y-45681041D01*
X187610961Y-45841904D01*
X187833000Y-45719915D01*
X187833000Y-44577000D01*
X188087000Y-44577000D01*
X188087000Y-45719915D01*
X188309039Y-45841904D01*
X188697423Y-45681041D01*
X189112389Y-45305134D01*
X189351914Y-44799041D01*
X190378086Y-44799041D01*
X190617611Y-45305134D01*
X191032577Y-45681041D01*
X191420961Y-45841904D01*
X191643000Y-45719915D01*
X191643000Y-44577000D01*
X191897000Y-44577000D01*
X191897000Y-45719915D01*
X192119039Y-45841904D01*
X192507423Y-45681041D01*
X192922389Y-45305134D01*
X193161914Y-44799041D01*
X194188086Y-44799041D01*
X194427611Y-45305134D01*
X194842577Y-45681041D01*
X195230961Y-45841904D01*
X195453000Y-45719915D01*
X195453000Y-44577000D01*
X195707000Y-44577000D01*
X195707000Y-45719915D01*
X195929039Y-45841904D01*
X196317423Y-45681041D01*
X196732389Y-45305134D01*
X196971914Y-44799041D01*
X197998086Y-44799041D01*
X198237611Y-45305134D01*
X198652577Y-45681041D01*
X199040961Y-45841904D01*
X199263000Y-45719915D01*
X199263000Y-44577000D01*
X199517000Y-44577000D01*
X199517000Y-45719915D01*
X199739039Y-45841904D01*
X200127423Y-45681041D01*
X200542389Y-45305134D01*
X200781914Y-44799041D01*
X201808086Y-44799041D01*
X202047611Y-45305134D01*
X202462577Y-45681041D01*
X202850961Y-45841904D01*
X203073000Y-45719915D01*
X203073000Y-44577000D01*
X203327000Y-44577000D01*
X203327000Y-45719915D01*
X203549039Y-45841904D01*
X203937423Y-45681041D01*
X204352389Y-45305134D01*
X204591914Y-44799041D01*
X205618086Y-44799041D01*
X205857611Y-45305134D01*
X206272577Y-45681041D01*
X206660961Y-45841904D01*
X206883000Y-45719915D01*
X206883000Y-44577000D01*
X207137000Y-44577000D01*
X207137000Y-45719915D01*
X207359039Y-45841904D01*
X207747423Y-45681041D01*
X208162389Y-45305134D01*
X208401914Y-44799041D01*
X208280629Y-44577000D01*
X207137000Y-44577000D01*
X206883000Y-44577000D01*
X205739371Y-44577000D01*
X205618086Y-44799041D01*
X204591914Y-44799041D01*
X204470629Y-44577000D01*
X203327000Y-44577000D01*
X203073000Y-44577000D01*
X201929371Y-44577000D01*
X201808086Y-44799041D01*
X200781914Y-44799041D01*
X200660629Y-44577000D01*
X199517000Y-44577000D01*
X199263000Y-44577000D01*
X198119371Y-44577000D01*
X197998086Y-44799041D01*
X196971914Y-44799041D01*
X196850629Y-44577000D01*
X195707000Y-44577000D01*
X195453000Y-44577000D01*
X194309371Y-44577000D01*
X194188086Y-44799041D01*
X193161914Y-44799041D01*
X193040629Y-44577000D01*
X191897000Y-44577000D01*
X191643000Y-44577000D01*
X190499371Y-44577000D01*
X190378086Y-44799041D01*
X189351914Y-44799041D01*
X189230629Y-44577000D01*
X188087000Y-44577000D01*
X187833000Y-44577000D01*
X186689371Y-44577000D01*
X186568086Y-44799041D01*
X185541914Y-44799041D01*
X185420629Y-44577000D01*
X184277000Y-44577000D01*
X184023000Y-44577000D01*
X182879371Y-44577000D01*
X182758086Y-44799041D01*
X181731914Y-44799041D01*
X181610629Y-44577000D01*
X180467000Y-44577000D01*
X180213000Y-44577000D01*
X179069371Y-44577000D01*
X178948086Y-44799041D01*
X177921914Y-44799041D01*
X177800629Y-44577000D01*
X176657000Y-44577000D01*
X176403000Y-44577000D01*
X175259371Y-44577000D01*
X175138086Y-44799041D01*
X174111914Y-44799041D01*
X173990629Y-44577000D01*
X172847000Y-44577000D01*
X172593000Y-44577000D01*
X171449371Y-44577000D01*
X171328086Y-44799041D01*
X170945000Y-44799041D01*
X170945000Y-44193690D01*
X170906590Y-44100959D01*
X171328086Y-44100959D01*
X171449371Y-44323000D01*
X172593000Y-44323000D01*
X172593000Y-43180085D01*
X172847000Y-43180085D01*
X172847000Y-44323000D01*
X173990629Y-44323000D01*
X174111914Y-44100959D01*
X175138086Y-44100959D01*
X175259371Y-44323000D01*
X176403000Y-44323000D01*
X176403000Y-43180085D01*
X176657000Y-43180085D01*
X176657000Y-44323000D01*
X177800629Y-44323000D01*
X177921914Y-44100959D01*
X178948086Y-44100959D01*
X179069371Y-44323000D01*
X180213000Y-44323000D01*
X180213000Y-43180085D01*
X180467000Y-43180085D01*
X180467000Y-44323000D01*
X181610629Y-44323000D01*
X181731914Y-44100959D01*
X182758086Y-44100959D01*
X182879371Y-44323000D01*
X184023000Y-44323000D01*
X184023000Y-43180085D01*
X184277000Y-43180085D01*
X184277000Y-44323000D01*
X185420629Y-44323000D01*
X185541914Y-44100959D01*
X186568086Y-44100959D01*
X186689371Y-44323000D01*
X187833000Y-44323000D01*
X187833000Y-43180085D01*
X188087000Y-43180085D01*
X188087000Y-44323000D01*
X189230629Y-44323000D01*
X189351914Y-44100959D01*
X190378086Y-44100959D01*
X190499371Y-44323000D01*
X191643000Y-44323000D01*
X191643000Y-43180085D01*
X191897000Y-43180085D01*
X191897000Y-44323000D01*
X193040629Y-44323000D01*
X193161914Y-44100959D01*
X194188086Y-44100959D01*
X194309371Y-44323000D01*
X195453000Y-44323000D01*
X195453000Y-43180085D01*
X195707000Y-43180085D01*
X195707000Y-44323000D01*
X196850629Y-44323000D01*
X196971914Y-44100959D01*
X197998086Y-44100959D01*
X198119371Y-44323000D01*
X199263000Y-44323000D01*
X199263000Y-43180085D01*
X199517000Y-43180085D01*
X199517000Y-44323000D01*
X200660629Y-44323000D01*
X200781914Y-44100959D01*
X201808086Y-44100959D01*
X201929371Y-44323000D01*
X203073000Y-44323000D01*
X203073000Y-43180085D01*
X203327000Y-43180085D01*
X203327000Y-44323000D01*
X204470629Y-44323000D01*
X204591914Y-44100959D01*
X205618086Y-44100959D01*
X205739371Y-44323000D01*
X206883000Y-44323000D01*
X206883000Y-43180085D01*
X207137000Y-43180085D01*
X207137000Y-44323000D01*
X208280629Y-44323000D01*
X208351261Y-44193690D01*
X208785000Y-44193690D01*
X208785000Y-45434250D01*
X208943750Y-45593000D01*
X210693000Y-45593000D01*
X210693000Y-43843750D01*
X210947000Y-43843750D01*
X210947000Y-45593000D01*
X212696250Y-45593000D01*
X212855000Y-45434250D01*
X212855000Y-44193690D01*
X212758327Y-43960301D01*
X212579698Y-43781673D01*
X212346309Y-43685000D01*
X211105750Y-43685000D01*
X210947000Y-43843750D01*
X210693000Y-43843750D01*
X210534250Y-43685000D01*
X209293691Y-43685000D01*
X209060302Y-43781673D01*
X208881673Y-43960301D01*
X208785000Y-44193690D01*
X208351261Y-44193690D01*
X208401914Y-44100959D01*
X208162389Y-43594866D01*
X207747423Y-43218959D01*
X207359039Y-43058096D01*
X207137000Y-43180085D01*
X206883000Y-43180085D01*
X206660961Y-43058096D01*
X206272577Y-43218959D01*
X205857611Y-43594866D01*
X205618086Y-44100959D01*
X204591914Y-44100959D01*
X204352389Y-43594866D01*
X203937423Y-43218959D01*
X203549039Y-43058096D01*
X203327000Y-43180085D01*
X203073000Y-43180085D01*
X202850961Y-43058096D01*
X202462577Y-43218959D01*
X202047611Y-43594866D01*
X201808086Y-44100959D01*
X200781914Y-44100959D01*
X200542389Y-43594866D01*
X200127423Y-43218959D01*
X199739039Y-43058096D01*
X199517000Y-43180085D01*
X199263000Y-43180085D01*
X199040961Y-43058096D01*
X198652577Y-43218959D01*
X198237611Y-43594866D01*
X197998086Y-44100959D01*
X196971914Y-44100959D01*
X196732389Y-43594866D01*
X196317423Y-43218959D01*
X195929039Y-43058096D01*
X195707000Y-43180085D01*
X195453000Y-43180085D01*
X195230961Y-43058096D01*
X194842577Y-43218959D01*
X194427611Y-43594866D01*
X194188086Y-44100959D01*
X193161914Y-44100959D01*
X192922389Y-43594866D01*
X192507423Y-43218959D01*
X192119039Y-43058096D01*
X191897000Y-43180085D01*
X191643000Y-43180085D01*
X191420961Y-43058096D01*
X191032577Y-43218959D01*
X190617611Y-43594866D01*
X190378086Y-44100959D01*
X189351914Y-44100959D01*
X189112389Y-43594866D01*
X188697423Y-43218959D01*
X188309039Y-43058096D01*
X188087000Y-43180085D01*
X187833000Y-43180085D01*
X187610961Y-43058096D01*
X187222577Y-43218959D01*
X186807611Y-43594866D01*
X186568086Y-44100959D01*
X185541914Y-44100959D01*
X185302389Y-43594866D01*
X184887423Y-43218959D01*
X184499039Y-43058096D01*
X184277000Y-43180085D01*
X184023000Y-43180085D01*
X183800961Y-43058096D01*
X183412577Y-43218959D01*
X182997611Y-43594866D01*
X182758086Y-44100959D01*
X181731914Y-44100959D01*
X181492389Y-43594866D01*
X181077423Y-43218959D01*
X180689039Y-43058096D01*
X180467000Y-43180085D01*
X180213000Y-43180085D01*
X179990961Y-43058096D01*
X179602577Y-43218959D01*
X179187611Y-43594866D01*
X178948086Y-44100959D01*
X177921914Y-44100959D01*
X177682389Y-43594866D01*
X177267423Y-43218959D01*
X176879039Y-43058096D01*
X176657000Y-43180085D01*
X176403000Y-43180085D01*
X176180961Y-43058096D01*
X175792577Y-43218959D01*
X175377611Y-43594866D01*
X175138086Y-44100959D01*
X174111914Y-44100959D01*
X173872389Y-43594866D01*
X173457423Y-43218959D01*
X173069039Y-43058096D01*
X172847000Y-43180085D01*
X172593000Y-43180085D01*
X172370961Y-43058096D01*
X171982577Y-43218959D01*
X171567611Y-43594866D01*
X171328086Y-44100959D01*
X170906590Y-44100959D01*
X170848327Y-43960301D01*
X170669698Y-43781673D01*
X170436309Y-43685000D01*
X169195750Y-43685000D01*
X169037000Y-43843750D01*
X168783000Y-43843750D01*
X168624250Y-43685000D01*
X167383691Y-43685000D01*
X167150302Y-43781673D01*
X166971673Y-43960301D01*
X166875000Y-44193690D01*
X166497000Y-44193690D01*
X166497000Y-42037000D01*
X213233000Y-42037000D01*
X213233000Y-49403000D01*
X213233000Y-49403000D01*
G37*
X213233000Y-49403000D02*
X205740000Y-49403000D01*
X205690590Y-49413006D01*
X205648965Y-49441447D01*
X205621685Y-49483841D01*
X205613000Y-49530000D01*
X205613000Y-65275000D01*
X204755750Y-65275000D01*
X204597000Y-65433750D01*
X204597000Y-67183000D01*
X204617000Y-67183000D01*
X204617000Y-67437000D01*
X204597000Y-67437000D01*
X204597000Y-69186250D01*
X204755750Y-69345000D01*
X205613000Y-69345000D01*
X205613000Y-82423000D01*
X174117000Y-82423000D01*
X174117000Y-66325750D01*
X174495000Y-66325750D01*
X174495000Y-67566310D01*
X174591673Y-67799699D01*
X174770302Y-67978327D01*
X175003691Y-68075000D01*
X176244250Y-68075000D01*
X176403000Y-67916250D01*
X176403000Y-66167000D01*
X176657000Y-66167000D01*
X176657000Y-67916250D01*
X176815750Y-68075000D01*
X178056309Y-68075000D01*
X178289698Y-67978327D01*
X178468327Y-67799699D01*
X178552805Y-67595750D01*
X202435000Y-67595750D01*
X202435000Y-68836310D01*
X202531673Y-69069699D01*
X202710302Y-69248327D01*
X202943691Y-69345000D01*
X204184250Y-69345000D01*
X204343000Y-69186250D01*
X204343000Y-67437000D01*
X202593750Y-67437000D01*
X202435000Y-67595750D01*
X178552805Y-67595750D01*
X178565000Y-67566310D01*
X178565000Y-66325750D01*
X178406250Y-66167000D01*
X176657000Y-66167000D01*
X176403000Y-66167000D01*
X174653750Y-66167000D01*
X174495000Y-66325750D01*
X174117000Y-66325750D01*
X174117000Y-64513690D01*
X174495000Y-64513690D01*
X174495000Y-65754250D01*
X174653750Y-65913000D01*
X176403000Y-65913000D01*
X176403000Y-64163750D01*
X176657000Y-64163750D01*
X176657000Y-65913000D01*
X178406250Y-65913000D01*
X178535560Y-65783690D01*
X202435000Y-65783690D01*
X202435000Y-67024250D01*
X202593750Y-67183000D01*
X204343000Y-67183000D01*
X204343000Y-65433750D01*
X204184250Y-65275000D01*
X202943691Y-65275000D01*
X202710302Y-65371673D01*
X202531673Y-65550301D01*
X202435000Y-65783690D01*
X178535560Y-65783690D01*
X178565000Y-65754250D01*
X178565000Y-64513690D01*
X178468327Y-64280301D01*
X178289698Y-64101673D01*
X178056309Y-64005000D01*
X176815750Y-64005000D01*
X176657000Y-64163750D01*
X176403000Y-64163750D01*
X176244250Y-64005000D01*
X175003691Y-64005000D01*
X174770302Y-64101673D01*
X174591673Y-64280301D01*
X174495000Y-64513690D01*
X174117000Y-64513690D01*
X174117000Y-48260000D01*
X174106994Y-48210590D01*
X174078553Y-48168965D01*
X174036159Y-48141685D01*
X173990000Y-48133000D01*
X166497000Y-48133000D01*
X166497000Y-46005750D01*
X166875000Y-46005750D01*
X166875000Y-47246310D01*
X166971673Y-47479699D01*
X167150302Y-47658327D01*
X167383691Y-47755000D01*
X168624250Y-47755000D01*
X168783000Y-47596250D01*
X168783000Y-45847000D01*
X169037000Y-45847000D01*
X169037000Y-47596250D01*
X169195750Y-47755000D01*
X170436309Y-47755000D01*
X170669698Y-47658327D01*
X170848327Y-47479699D01*
X170945000Y-47246310D01*
X170945000Y-46005750D01*
X208785000Y-46005750D01*
X208785000Y-47246310D01*
X208881673Y-47479699D01*
X209060302Y-47658327D01*
X209293691Y-47755000D01*
X210534250Y-47755000D01*
X210693000Y-47596250D01*
X210693000Y-45847000D01*
X210947000Y-45847000D01*
X210947000Y-47596250D01*
X211105750Y-47755000D01*
X212346309Y-47755000D01*
X212579698Y-47658327D01*
X212758327Y-47479699D01*
X212855000Y-47246310D01*
X212855000Y-46005750D01*
X212696250Y-45847000D01*
X210947000Y-45847000D01*
X210693000Y-45847000D01*
X208943750Y-45847000D01*
X208785000Y-46005750D01*
X170945000Y-46005750D01*
X170786250Y-45847000D01*
X169037000Y-45847000D01*
X168783000Y-45847000D01*
X167033750Y-45847000D01*
X166875000Y-46005750D01*
X166497000Y-46005750D01*
X166497000Y-44193690D01*
X166875000Y-44193690D01*
X166875000Y-45434250D01*
X167033750Y-45593000D01*
X168783000Y-45593000D01*
X168783000Y-43843750D01*
X169037000Y-43843750D01*
X169037000Y-45593000D01*
X170786250Y-45593000D01*
X170945000Y-45434250D01*
X170945000Y-44799041D01*
X171328086Y-44799041D01*
X171567611Y-45305134D01*
X171982577Y-45681041D01*
X172370961Y-45841904D01*
X172593000Y-45719915D01*
X172593000Y-44577000D01*
X172847000Y-44577000D01*
X172847000Y-45719915D01*
X173069039Y-45841904D01*
X173457423Y-45681041D01*
X173872389Y-45305134D01*
X174111914Y-44799041D01*
X175138086Y-44799041D01*
X175377611Y-45305134D01*
X175792577Y-45681041D01*
X176180961Y-45841904D01*
X176403000Y-45719915D01*
X176403000Y-44577000D01*
X176657000Y-44577000D01*
X176657000Y-45719915D01*
X176879039Y-45841904D01*
X177267423Y-45681041D01*
X177682389Y-45305134D01*
X177921914Y-44799041D01*
X178948086Y-44799041D01*
X179187611Y-45305134D01*
X179602577Y-45681041D01*
X179990961Y-45841904D01*
X180213000Y-45719915D01*
X180213000Y-44577000D01*
X180467000Y-44577000D01*
X180467000Y-45719915D01*
X180689039Y-45841904D01*
X181077423Y-45681041D01*
X181492389Y-45305134D01*
X181731914Y-44799041D01*
X182758086Y-44799041D01*
X182997611Y-45305134D01*
X183412577Y-45681041D01*
X183800961Y-45841904D01*
X184023000Y-45719915D01*
X184023000Y-44577000D01*
X184277000Y-44577000D01*
X184277000Y-45719915D01*
X184499039Y-45841904D01*
X184887423Y-45681041D01*
X185302389Y-45305134D01*
X185541914Y-44799041D01*
X186568086Y-44799041D01*
X186807611Y-45305134D01*
X187222577Y-45681041D01*
X187610961Y-45841904D01*
X187833000Y-45719915D01*
X187833000Y-44577000D01*
X188087000Y-44577000D01*
X188087000Y-45719915D01*
X188309039Y-45841904D01*
X188697423Y-45681041D01*
X189112389Y-45305134D01*
X189351914Y-44799041D01*
X190378086Y-44799041D01*
X190617611Y-45305134D01*
X191032577Y-45681041D01*
X191420961Y-45841904D01*
X191643000Y-45719915D01*
X191643000Y-44577000D01*
X191897000Y-44577000D01*
X191897000Y-45719915D01*
X192119039Y-45841904D01*
X192507423Y-45681041D01*
X192922389Y-45305134D01*
X193161914Y-44799041D01*
X194188086Y-44799041D01*
X194427611Y-45305134D01*
X194842577Y-45681041D01*
X195230961Y-45841904D01*
X195453000Y-45719915D01*
X195453000Y-44577000D01*
X195707000Y-44577000D01*
X195707000Y-45719915D01*
X195929039Y-45841904D01*
X196317423Y-45681041D01*
X196732389Y-45305134D01*
X196971914Y-44799041D01*
X197998086Y-44799041D01*
X198237611Y-45305134D01*
X198652577Y-45681041D01*
X199040961Y-45841904D01*
X199263000Y-45719915D01*
X199263000Y-44577000D01*
X199517000Y-44577000D01*
X199517000Y-45719915D01*
X199739039Y-45841904D01*
X200127423Y-45681041D01*
X200542389Y-45305134D01*
X200781914Y-44799041D01*
X201808086Y-44799041D01*
X202047611Y-45305134D01*
X202462577Y-45681041D01*
X202850961Y-45841904D01*
X203073000Y-45719915D01*
X203073000Y-44577000D01*
X203327000Y-44577000D01*
X203327000Y-45719915D01*
X203549039Y-45841904D01*
X203937423Y-45681041D01*
X204352389Y-45305134D01*
X204591914Y-44799041D01*
X205618086Y-44799041D01*
X205857611Y-45305134D01*
X206272577Y-45681041D01*
X206660961Y-45841904D01*
X206883000Y-45719915D01*
X206883000Y-44577000D01*
X207137000Y-44577000D01*
X207137000Y-45719915D01*
X207359039Y-45841904D01*
X207747423Y-45681041D01*
X208162389Y-45305134D01*
X208401914Y-44799041D01*
X208280629Y-44577000D01*
X207137000Y-44577000D01*
X206883000Y-44577000D01*
X205739371Y-44577000D01*
X205618086Y-44799041D01*
X204591914Y-44799041D01*
X204470629Y-44577000D01*
X203327000Y-44577000D01*
X203073000Y-44577000D01*
X201929371Y-44577000D01*
X201808086Y-44799041D01*
X200781914Y-44799041D01*
X200660629Y-44577000D01*
X199517000Y-44577000D01*
X199263000Y-44577000D01*
X198119371Y-44577000D01*
X197998086Y-44799041D01*
X196971914Y-44799041D01*
X196850629Y-44577000D01*
X195707000Y-44577000D01*
X195453000Y-44577000D01*
X194309371Y-44577000D01*
X194188086Y-44799041D01*
X193161914Y-44799041D01*
X193040629Y-44577000D01*
X191897000Y-44577000D01*
X191643000Y-44577000D01*
X190499371Y-44577000D01*
X190378086Y-44799041D01*
X189351914Y-44799041D01*
X189230629Y-44577000D01*
X188087000Y-44577000D01*
X187833000Y-44577000D01*
X186689371Y-44577000D01*
X186568086Y-44799041D01*
X185541914Y-44799041D01*
X185420629Y-44577000D01*
X184277000Y-44577000D01*
X184023000Y-44577000D01*
X182879371Y-44577000D01*
X182758086Y-44799041D01*
X181731914Y-44799041D01*
X181610629Y-44577000D01*
X180467000Y-44577000D01*
X180213000Y-44577000D01*
X179069371Y-44577000D01*
X178948086Y-44799041D01*
X177921914Y-44799041D01*
X177800629Y-44577000D01*
X176657000Y-44577000D01*
X176403000Y-44577000D01*
X175259371Y-44577000D01*
X175138086Y-44799041D01*
X174111914Y-44799041D01*
X173990629Y-44577000D01*
X172847000Y-44577000D01*
X172593000Y-44577000D01*
X171449371Y-44577000D01*
X171328086Y-44799041D01*
X170945000Y-44799041D01*
X170945000Y-44193690D01*
X170906590Y-44100959D01*
X171328086Y-44100959D01*
X171449371Y-44323000D01*
X172593000Y-44323000D01*
X172593000Y-43180085D01*
X172847000Y-43180085D01*
X172847000Y-44323000D01*
X173990629Y-44323000D01*
X174111914Y-44100959D01*
X175138086Y-44100959D01*
X175259371Y-44323000D01*
X176403000Y-44323000D01*
X176403000Y-43180085D01*
X176657000Y-43180085D01*
X176657000Y-44323000D01*
X177800629Y-44323000D01*
X177921914Y-44100959D01*
X178948086Y-44100959D01*
X179069371Y-44323000D01*
X180213000Y-44323000D01*
X180213000Y-43180085D01*
X180467000Y-43180085D01*
X180467000Y-44323000D01*
X181610629Y-44323000D01*
X181731914Y-44100959D01*
X182758086Y-44100959D01*
X182879371Y-44323000D01*
X184023000Y-44323000D01*
X184023000Y-43180085D01*
X184277000Y-43180085D01*
X184277000Y-44323000D01*
X185420629Y-44323000D01*
X185541914Y-44100959D01*
X186568086Y-44100959D01*
X186689371Y-44323000D01*
X187833000Y-44323000D01*
X187833000Y-43180085D01*
X188087000Y-43180085D01*
X188087000Y-44323000D01*
X189230629Y-44323000D01*
X189351914Y-44100959D01*
X190378086Y-44100959D01*
X190499371Y-44323000D01*
X191643000Y-44323000D01*
X191643000Y-43180085D01*
X191897000Y-43180085D01*
X191897000Y-44323000D01*
X193040629Y-44323000D01*
X193161914Y-44100959D01*
X194188086Y-44100959D01*
X194309371Y-44323000D01*
X195453000Y-44323000D01*
X195453000Y-43180085D01*
X195707000Y-43180085D01*
X195707000Y-44323000D01*
X196850629Y-44323000D01*
X196971914Y-44100959D01*
X197998086Y-44100959D01*
X198119371Y-44323000D01*
X199263000Y-44323000D01*
X199263000Y-43180085D01*
X199517000Y-43180085D01*
X199517000Y-44323000D01*
X200660629Y-44323000D01*
X200781914Y-44100959D01*
X201808086Y-44100959D01*
X201929371Y-44323000D01*
X203073000Y-44323000D01*
X203073000Y-43180085D01*
X203327000Y-43180085D01*
X203327000Y-44323000D01*
X204470629Y-44323000D01*
X204591914Y-44100959D01*
X205618086Y-44100959D01*
X205739371Y-44323000D01*
X206883000Y-44323000D01*
X206883000Y-43180085D01*
X207137000Y-43180085D01*
X207137000Y-44323000D01*
X208280629Y-44323000D01*
X208351261Y-44193690D01*
X208785000Y-44193690D01*
X208785000Y-45434250D01*
X208943750Y-45593000D01*
X210693000Y-45593000D01*
X210693000Y-43843750D01*
X210947000Y-43843750D01*
X210947000Y-45593000D01*
X212696250Y-45593000D01*
X212855000Y-45434250D01*
X212855000Y-44193690D01*
X212758327Y-43960301D01*
X212579698Y-43781673D01*
X212346309Y-43685000D01*
X211105750Y-43685000D01*
X210947000Y-43843750D01*
X210693000Y-43843750D01*
X210534250Y-43685000D01*
X209293691Y-43685000D01*
X209060302Y-43781673D01*
X208881673Y-43960301D01*
X208785000Y-44193690D01*
X208351261Y-44193690D01*
X208401914Y-44100959D01*
X208162389Y-43594866D01*
X207747423Y-43218959D01*
X207359039Y-43058096D01*
X207137000Y-43180085D01*
X206883000Y-43180085D01*
X206660961Y-43058096D01*
X206272577Y-43218959D01*
X205857611Y-43594866D01*
X205618086Y-44100959D01*
X204591914Y-44100959D01*
X204352389Y-43594866D01*
X203937423Y-43218959D01*
X203549039Y-43058096D01*
X203327000Y-43180085D01*
X203073000Y-43180085D01*
X202850961Y-43058096D01*
X202462577Y-43218959D01*
X202047611Y-43594866D01*
X201808086Y-44100959D01*
X200781914Y-44100959D01*
X200542389Y-43594866D01*
X200127423Y-43218959D01*
X199739039Y-43058096D01*
X199517000Y-43180085D01*
X199263000Y-43180085D01*
X199040961Y-43058096D01*
X198652577Y-43218959D01*
X198237611Y-43594866D01*
X197998086Y-44100959D01*
X196971914Y-44100959D01*
X196732389Y-43594866D01*
X196317423Y-43218959D01*
X195929039Y-43058096D01*
X195707000Y-43180085D01*
X195453000Y-43180085D01*
X195230961Y-43058096D01*
X194842577Y-43218959D01*
X194427611Y-43594866D01*
X194188086Y-44100959D01*
X193161914Y-44100959D01*
X192922389Y-43594866D01*
X192507423Y-43218959D01*
X192119039Y-43058096D01*
X191897000Y-43180085D01*
X191643000Y-43180085D01*
X191420961Y-43058096D01*
X191032577Y-43218959D01*
X190617611Y-43594866D01*
X190378086Y-44100959D01*
X189351914Y-44100959D01*
X189112389Y-43594866D01*
X188697423Y-43218959D01*
X188309039Y-43058096D01*
X188087000Y-43180085D01*
X187833000Y-43180085D01*
X187610961Y-43058096D01*
X187222577Y-43218959D01*
X186807611Y-43594866D01*
X186568086Y-44100959D01*
X185541914Y-44100959D01*
X185302389Y-43594866D01*
X184887423Y-43218959D01*
X184499039Y-43058096D01*
X184277000Y-43180085D01*
X184023000Y-43180085D01*
X183800961Y-43058096D01*
X183412577Y-43218959D01*
X182997611Y-43594866D01*
X182758086Y-44100959D01*
X181731914Y-44100959D01*
X181492389Y-43594866D01*
X181077423Y-43218959D01*
X180689039Y-43058096D01*
X180467000Y-43180085D01*
X180213000Y-43180085D01*
X179990961Y-43058096D01*
X179602577Y-43218959D01*
X179187611Y-43594866D01*
X178948086Y-44100959D01*
X177921914Y-44100959D01*
X177682389Y-43594866D01*
X177267423Y-43218959D01*
X176879039Y-43058096D01*
X176657000Y-43180085D01*
X176403000Y-43180085D01*
X176180961Y-43058096D01*
X175792577Y-43218959D01*
X175377611Y-43594866D01*
X175138086Y-44100959D01*
X174111914Y-44100959D01*
X173872389Y-43594866D01*
X173457423Y-43218959D01*
X173069039Y-43058096D01*
X172847000Y-43180085D01*
X172593000Y-43180085D01*
X172370961Y-43058096D01*
X171982577Y-43218959D01*
X171567611Y-43594866D01*
X171328086Y-44100959D01*
X170906590Y-44100959D01*
X170848327Y-43960301D01*
X170669698Y-43781673D01*
X170436309Y-43685000D01*
X169195750Y-43685000D01*
X169037000Y-43843750D01*
X168783000Y-43843750D01*
X168624250Y-43685000D01*
X167383691Y-43685000D01*
X167150302Y-43781673D01*
X166971673Y-43960301D01*
X166875000Y-44193690D01*
X166497000Y-44193690D01*
X166497000Y-42037000D01*
X213233000Y-42037000D01*
X213233000Y-49403000D01*
G36*
X215452205Y-66218930D02*
X215183840Y-66866840D01*
X215298053Y-67183000D01*
X217043000Y-67183000D01*
X217043000Y-67163000D01*
X217297000Y-67163000D01*
X217297000Y-67183000D01*
X219041947Y-67183000D01*
X219156160Y-66866840D01*
X218887795Y-66218930D01*
X218838218Y-66167000D01*
X230375000Y-66167000D01*
X230375000Y-67024250D01*
X230533750Y-67183000D01*
X232283000Y-67183000D01*
X232283000Y-67163000D01*
X232537000Y-67163000D01*
X232537000Y-67183000D01*
X234286250Y-67183000D01*
X234445000Y-67024250D01*
X234445000Y-66167000D01*
X234823000Y-66167000D01*
X234823000Y-82423000D01*
X218567000Y-82423000D01*
X218567000Y-80037175D01*
X223672430Y-80037175D01*
X223795565Y-80324788D01*
X224477734Y-80584707D01*
X225207443Y-80563786D01*
X225784435Y-80324788D01*
X225907570Y-80037175D01*
X224790000Y-78919605D01*
X223672430Y-80037175D01*
X218567000Y-80037175D01*
X218567000Y-80010000D01*
X218556994Y-79960590D01*
X218528553Y-79918965D01*
X218486159Y-79891685D01*
X218440000Y-79883000D01*
X213487000Y-79883000D01*
X213487000Y-78796443D01*
X217293162Y-78796443D01*
X217635723Y-79271063D01*
X218968863Y-79831084D01*
X220414834Y-79838305D01*
X221753501Y-79291627D01*
X221784277Y-79271063D01*
X222126838Y-78796443D01*
X219710000Y-76379605D01*
X217293162Y-78796443D01*
X213487000Y-78796443D01*
X213487000Y-76904834D01*
X216071695Y-76904834D01*
X216618373Y-78243501D01*
X216638937Y-78274277D01*
X217113557Y-78616838D01*
X219530395Y-76200000D01*
X219889605Y-76200000D01*
X222306443Y-78616838D01*
X222568447Y-78427734D01*
X222945293Y-78427734D01*
X222966214Y-79157443D01*
X223205212Y-79734435D01*
X223492825Y-79857570D01*
X224610395Y-78740000D01*
X224969605Y-78740000D01*
X226087175Y-79857570D01*
X226374788Y-79734435D01*
X226634707Y-79052266D01*
X226613786Y-78322557D01*
X226374788Y-77745565D01*
X226087175Y-77622430D01*
X224969605Y-78740000D01*
X224610395Y-78740000D01*
X223492825Y-77622430D01*
X223205212Y-77745565D01*
X222945293Y-78427734D01*
X222568447Y-78427734D01*
X222781063Y-78274277D01*
X223130336Y-77442825D01*
X223672430Y-77442825D01*
X224790000Y-78560395D01*
X225907570Y-77442825D01*
X225784435Y-77155212D01*
X225102266Y-76895293D01*
X224372557Y-76916214D01*
X223795565Y-77155212D01*
X223672430Y-77442825D01*
X223130336Y-77442825D01*
X223341084Y-76941137D01*
X223348305Y-75495166D01*
X222801627Y-74156499D01*
X222781063Y-74125723D01*
X222306443Y-73783162D01*
X219889605Y-76200000D01*
X219530395Y-76200000D01*
X217113557Y-73783162D01*
X216638937Y-74125723D01*
X216078916Y-75458863D01*
X216071695Y-76904834D01*
X213487000Y-76904834D01*
X213487000Y-73603557D01*
X217293162Y-73603557D01*
X219710000Y-76020395D01*
X222126838Y-73603557D01*
X221784277Y-73128937D01*
X220451137Y-72568916D01*
X219005166Y-72561695D01*
X217666499Y-73108373D01*
X217635723Y-73128937D01*
X217293162Y-73603557D01*
X213487000Y-73603557D01*
X213487000Y-67753160D01*
X215183840Y-67753160D01*
X215452205Y-68401070D01*
X216000499Y-68975389D01*
X216726839Y-69296167D01*
X217043000Y-69182290D01*
X217043000Y-67437000D01*
X217297000Y-67437000D01*
X217297000Y-69182290D01*
X217613161Y-69296167D01*
X218339501Y-68975389D01*
X218887795Y-68401070D01*
X219156160Y-67753160D01*
X219099296Y-67595750D01*
X230375000Y-67595750D01*
X230375000Y-68836310D01*
X230471673Y-69069699D01*
X230650302Y-69248327D01*
X230883691Y-69345000D01*
X232124250Y-69345000D01*
X232283000Y-69186250D01*
X232283000Y-67437000D01*
X232537000Y-67437000D01*
X232537000Y-69186250D01*
X232695750Y-69345000D01*
X233936309Y-69345000D01*
X234169698Y-69248327D01*
X234348327Y-69069699D01*
X234445000Y-68836310D01*
X234445000Y-67595750D01*
X234286250Y-67437000D01*
X232537000Y-67437000D01*
X232283000Y-67437000D01*
X230533750Y-67437000D01*
X230375000Y-67595750D01*
X219099296Y-67595750D01*
X219041947Y-67437000D01*
X217297000Y-67437000D01*
X217043000Y-67437000D01*
X215298053Y-67437000D01*
X215183840Y-67753160D01*
X213487000Y-67753160D01*
X213487000Y-66167000D01*
X215501782Y-66167000D01*
X215452205Y-66218930D01*
X215452205Y-66218930D01*
G37*
X215452205Y-66218930D02*
X215183840Y-66866840D01*
X215298053Y-67183000D01*
X217043000Y-67183000D01*
X217043000Y-67163000D01*
X217297000Y-67163000D01*
X217297000Y-67183000D01*
X219041947Y-67183000D01*
X219156160Y-66866840D01*
X218887795Y-66218930D01*
X218838218Y-66167000D01*
X230375000Y-66167000D01*
X230375000Y-67024250D01*
X230533750Y-67183000D01*
X232283000Y-67183000D01*
X232283000Y-67163000D01*
X232537000Y-67163000D01*
X232537000Y-67183000D01*
X234286250Y-67183000D01*
X234445000Y-67024250D01*
X234445000Y-66167000D01*
X234823000Y-66167000D01*
X234823000Y-82423000D01*
X218567000Y-82423000D01*
X218567000Y-80037175D01*
X223672430Y-80037175D01*
X223795565Y-80324788D01*
X224477734Y-80584707D01*
X225207443Y-80563786D01*
X225784435Y-80324788D01*
X225907570Y-80037175D01*
X224790000Y-78919605D01*
X223672430Y-80037175D01*
X218567000Y-80037175D01*
X218567000Y-80010000D01*
X218556994Y-79960590D01*
X218528553Y-79918965D01*
X218486159Y-79891685D01*
X218440000Y-79883000D01*
X213487000Y-79883000D01*
X213487000Y-78796443D01*
X217293162Y-78796443D01*
X217635723Y-79271063D01*
X218968863Y-79831084D01*
X220414834Y-79838305D01*
X221753501Y-79291627D01*
X221784277Y-79271063D01*
X222126838Y-78796443D01*
X219710000Y-76379605D01*
X217293162Y-78796443D01*
X213487000Y-78796443D01*
X213487000Y-76904834D01*
X216071695Y-76904834D01*
X216618373Y-78243501D01*
X216638937Y-78274277D01*
X217113557Y-78616838D01*
X219530395Y-76200000D01*
X219889605Y-76200000D01*
X222306443Y-78616838D01*
X222568447Y-78427734D01*
X222945293Y-78427734D01*
X222966214Y-79157443D01*
X223205212Y-79734435D01*
X223492825Y-79857570D01*
X224610395Y-78740000D01*
X224969605Y-78740000D01*
X226087175Y-79857570D01*
X226374788Y-79734435D01*
X226634707Y-79052266D01*
X226613786Y-78322557D01*
X226374788Y-77745565D01*
X226087175Y-77622430D01*
X224969605Y-78740000D01*
X224610395Y-78740000D01*
X223492825Y-77622430D01*
X223205212Y-77745565D01*
X222945293Y-78427734D01*
X222568447Y-78427734D01*
X222781063Y-78274277D01*
X223130336Y-77442825D01*
X223672430Y-77442825D01*
X224790000Y-78560395D01*
X225907570Y-77442825D01*
X225784435Y-77155212D01*
X225102266Y-76895293D01*
X224372557Y-76916214D01*
X223795565Y-77155212D01*
X223672430Y-77442825D01*
X223130336Y-77442825D01*
X223341084Y-76941137D01*
X223348305Y-75495166D01*
X222801627Y-74156499D01*
X222781063Y-74125723D01*
X222306443Y-73783162D01*
X219889605Y-76200000D01*
X219530395Y-76200000D01*
X217113557Y-73783162D01*
X216638937Y-74125723D01*
X216078916Y-75458863D01*
X216071695Y-76904834D01*
X213487000Y-76904834D01*
X213487000Y-73603557D01*
X217293162Y-73603557D01*
X219710000Y-76020395D01*
X222126838Y-73603557D01*
X221784277Y-73128937D01*
X220451137Y-72568916D01*
X219005166Y-72561695D01*
X217666499Y-73108373D01*
X217635723Y-73128937D01*
X217293162Y-73603557D01*
X213487000Y-73603557D01*
X213487000Y-67753160D01*
X215183840Y-67753160D01*
X215452205Y-68401070D01*
X216000499Y-68975389D01*
X216726839Y-69296167D01*
X217043000Y-69182290D01*
X217043000Y-67437000D01*
X217297000Y-67437000D01*
X217297000Y-69182290D01*
X217613161Y-69296167D01*
X218339501Y-68975389D01*
X218887795Y-68401070D01*
X219156160Y-67753160D01*
X219099296Y-67595750D01*
X230375000Y-67595750D01*
X230375000Y-68836310D01*
X230471673Y-69069699D01*
X230650302Y-69248327D01*
X230883691Y-69345000D01*
X232124250Y-69345000D01*
X232283000Y-69186250D01*
X232283000Y-67437000D01*
X232537000Y-67437000D01*
X232537000Y-69186250D01*
X232695750Y-69345000D01*
X233936309Y-69345000D01*
X234169698Y-69248327D01*
X234348327Y-69069699D01*
X234445000Y-68836310D01*
X234445000Y-67595750D01*
X234286250Y-67437000D01*
X232537000Y-67437000D01*
X232283000Y-67437000D01*
X230533750Y-67437000D01*
X230375000Y-67595750D01*
X219099296Y-67595750D01*
X219041947Y-67437000D01*
X217297000Y-67437000D01*
X217043000Y-67437000D01*
X215298053Y-67437000D01*
X215183840Y-67753160D01*
X213487000Y-67753160D01*
X213487000Y-66167000D01*
X215501782Y-66167000D01*
X215452205Y-66218930D01*
G36*
X251333000Y-83693000D02*
X244627399Y-83693000D01*
X244668139Y-83557745D01*
X243840000Y-82729605D01*
X243011861Y-83557745D01*
X243052601Y-83693000D01*
X242697000Y-83693000D01*
X242697000Y-83337399D01*
X242832255Y-83378139D01*
X243660395Y-82550000D01*
X244019605Y-82550000D01*
X244847745Y-83378139D01*
X245093864Y-83304005D01*
X245286965Y-82766777D01*
X245259778Y-82196546D01*
X245093864Y-81795995D01*
X244847745Y-81721861D01*
X244019605Y-82550000D01*
X243660395Y-82550000D01*
X242832255Y-81721861D01*
X242697000Y-81762601D01*
X242697000Y-81542255D01*
X243011861Y-81542255D01*
X243840000Y-82370395D01*
X244668139Y-81542255D01*
X244594005Y-81296136D01*
X244056777Y-81103035D01*
X243486546Y-81130222D01*
X243085995Y-81296136D01*
X243011861Y-81542255D01*
X242697000Y-81542255D01*
X242697000Y-78796443D01*
X245233162Y-78796443D01*
X245575723Y-79271063D01*
X246908863Y-79831084D01*
X248354834Y-79838305D01*
X249693501Y-79291627D01*
X249724277Y-79271063D01*
X250066838Y-78796443D01*
X247650000Y-76379605D01*
X245233162Y-78796443D01*
X242697000Y-78796443D01*
X242697000Y-76904834D01*
X244011695Y-76904834D01*
X244558373Y-78243501D01*
X244578937Y-78274277D01*
X245053557Y-78616838D01*
X247470395Y-76200000D01*
X247829605Y-76200000D01*
X250246443Y-78616838D01*
X250721063Y-78274277D01*
X251281084Y-76941137D01*
X251288305Y-75495166D01*
X250741627Y-74156499D01*
X250721063Y-74125723D01*
X250246443Y-73783162D01*
X247829605Y-76200000D01*
X247470395Y-76200000D01*
X245053557Y-73783162D01*
X244578937Y-74125723D01*
X244018916Y-75458863D01*
X244011695Y-76904834D01*
X242697000Y-76904834D01*
X242697000Y-73603557D01*
X245233162Y-73603557D01*
X247650000Y-76020395D01*
X250066838Y-73603557D01*
X249724277Y-73128937D01*
X248391137Y-72568916D01*
X246945166Y-72561695D01*
X245606499Y-73108373D01*
X245575723Y-73128937D01*
X245233162Y-73603557D01*
X242697000Y-73603557D01*
X242697000Y-67753160D01*
X243123840Y-67753160D01*
X243392205Y-68401070D01*
X243940499Y-68975389D01*
X244666839Y-69296167D01*
X244983000Y-69182290D01*
X244983000Y-67437000D01*
X245237000Y-67437000D01*
X245237000Y-69182290D01*
X245553161Y-69296167D01*
X246279501Y-68975389D01*
X246827795Y-68401070D01*
X247096160Y-67753160D01*
X246981947Y-67437000D01*
X245237000Y-67437000D01*
X244983000Y-67437000D01*
X243238053Y-67437000D01*
X243123840Y-67753160D01*
X242697000Y-67753160D01*
X242697000Y-66866840D01*
X243123840Y-66866840D01*
X243238053Y-67183000D01*
X244983000Y-67183000D01*
X244983000Y-65437710D01*
X245237000Y-65437710D01*
X245237000Y-67183000D01*
X246981947Y-67183000D01*
X247096160Y-66866840D01*
X246827795Y-66218930D01*
X246279501Y-65644611D01*
X245553161Y-65323833D01*
X245237000Y-65437710D01*
X244983000Y-65437710D01*
X244666839Y-65323833D01*
X243940499Y-65644611D01*
X243392205Y-66218930D01*
X243123840Y-66866840D01*
X242697000Y-66866840D01*
X242697000Y-63237745D01*
X243011861Y-63237745D01*
X243085995Y-63483864D01*
X243623223Y-63676965D01*
X244193454Y-63649778D01*
X244594005Y-63483864D01*
X244668139Y-63237745D01*
X243840000Y-62409605D01*
X243011861Y-63237745D01*
X242697000Y-63237745D01*
X242697000Y-63017399D01*
X242832255Y-63058139D01*
X243660395Y-62230000D01*
X244019605Y-62230000D01*
X244847745Y-63058139D01*
X245093864Y-62984005D01*
X245286965Y-62446777D01*
X245259778Y-61876546D01*
X245093864Y-61475995D01*
X244847745Y-61401861D01*
X244019605Y-62230000D01*
X243660395Y-62230000D01*
X242832255Y-61401861D01*
X242697000Y-61442601D01*
X242697000Y-61087000D01*
X243052601Y-61087000D01*
X243011861Y-61222255D01*
X243840000Y-62050395D01*
X244668139Y-61222255D01*
X244594005Y-60976136D01*
X244056777Y-60783035D01*
X243967000Y-60787315D01*
X243967000Y-59746443D01*
X245233162Y-59746443D01*
X245575723Y-60221063D01*
X246908863Y-60781084D01*
X248354834Y-60788305D01*
X249693501Y-60241627D01*
X249724277Y-60221063D01*
X250066838Y-59746443D01*
X247650000Y-57329605D01*
X245233162Y-59746443D01*
X243967000Y-59746443D01*
X243967000Y-57854834D01*
X244011695Y-57854834D01*
X244558373Y-59193501D01*
X244578937Y-59224277D01*
X245053557Y-59566838D01*
X247470395Y-57150000D01*
X247829605Y-57150000D01*
X250246443Y-59566838D01*
X250721063Y-59224277D01*
X251281084Y-57891137D01*
X251288305Y-56445166D01*
X250741627Y-55106499D01*
X250721063Y-55075723D01*
X250246443Y-54733162D01*
X247829605Y-57150000D01*
X247470395Y-57150000D01*
X245053557Y-54733162D01*
X244578937Y-55075723D01*
X244018916Y-56408863D01*
X244011695Y-57854834D01*
X243967000Y-57854834D01*
X243967000Y-54553557D01*
X245233162Y-54553557D01*
X247650000Y-56970395D01*
X250066838Y-54553557D01*
X249724277Y-54078937D01*
X248391137Y-53518916D01*
X246945166Y-53511695D01*
X245606499Y-54058373D01*
X245575723Y-54078937D01*
X245233162Y-54553557D01*
X243967000Y-54553557D01*
X243967000Y-50800000D01*
X243956994Y-50750590D01*
X243928553Y-50708965D01*
X243886159Y-50681685D01*
X243840000Y-50673000D01*
X240157000Y-50673000D01*
X240157000Y-46163160D01*
X243123840Y-46163160D01*
X243392205Y-46811070D01*
X243940499Y-47385389D01*
X244666839Y-47706167D01*
X244983000Y-47592290D01*
X244983000Y-45847000D01*
X245237000Y-45847000D01*
X245237000Y-47592290D01*
X245553161Y-47706167D01*
X246279501Y-47385389D01*
X246827795Y-46811070D01*
X247096160Y-46163160D01*
X246981947Y-45847000D01*
X245237000Y-45847000D01*
X244983000Y-45847000D01*
X243238053Y-45847000D01*
X243123840Y-46163160D01*
X240157000Y-46163160D01*
X240157000Y-45276840D01*
X243123840Y-45276840D01*
X243238053Y-45593000D01*
X244983000Y-45593000D01*
X244983000Y-43847710D01*
X245237000Y-43847710D01*
X245237000Y-45593000D01*
X246981947Y-45593000D01*
X247096160Y-45276840D01*
X246827795Y-44628930D01*
X246279501Y-44054611D01*
X245553161Y-43733833D01*
X245237000Y-43847710D01*
X244983000Y-43847710D01*
X244666839Y-43733833D01*
X243940499Y-44054611D01*
X243392205Y-44628930D01*
X243123840Y-45276840D01*
X240157000Y-45276840D01*
X240157000Y-42037000D01*
X251333000Y-42037000D01*
X251333000Y-83693000D01*
X251333000Y-83693000D01*
G37*
X251333000Y-83693000D02*
X244627399Y-83693000D01*
X244668139Y-83557745D01*
X243840000Y-82729605D01*
X243011861Y-83557745D01*
X243052601Y-83693000D01*
X242697000Y-83693000D01*
X242697000Y-83337399D01*
X242832255Y-83378139D01*
X243660395Y-82550000D01*
X244019605Y-82550000D01*
X244847745Y-83378139D01*
X245093864Y-83304005D01*
X245286965Y-82766777D01*
X245259778Y-82196546D01*
X245093864Y-81795995D01*
X244847745Y-81721861D01*
X244019605Y-82550000D01*
X243660395Y-82550000D01*
X242832255Y-81721861D01*
X242697000Y-81762601D01*
X242697000Y-81542255D01*
X243011861Y-81542255D01*
X243840000Y-82370395D01*
X244668139Y-81542255D01*
X244594005Y-81296136D01*
X244056777Y-81103035D01*
X243486546Y-81130222D01*
X243085995Y-81296136D01*
X243011861Y-81542255D01*
X242697000Y-81542255D01*
X242697000Y-78796443D01*
X245233162Y-78796443D01*
X245575723Y-79271063D01*
X246908863Y-79831084D01*
X248354834Y-79838305D01*
X249693501Y-79291627D01*
X249724277Y-79271063D01*
X250066838Y-78796443D01*
X247650000Y-76379605D01*
X245233162Y-78796443D01*
X242697000Y-78796443D01*
X242697000Y-76904834D01*
X244011695Y-76904834D01*
X244558373Y-78243501D01*
X244578937Y-78274277D01*
X245053557Y-78616838D01*
X247470395Y-76200000D01*
X247829605Y-76200000D01*
X250246443Y-78616838D01*
X250721063Y-78274277D01*
X251281084Y-76941137D01*
X251288305Y-75495166D01*
X250741627Y-74156499D01*
X250721063Y-74125723D01*
X250246443Y-73783162D01*
X247829605Y-76200000D01*
X247470395Y-76200000D01*
X245053557Y-73783162D01*
X244578937Y-74125723D01*
X244018916Y-75458863D01*
X244011695Y-76904834D01*
X242697000Y-76904834D01*
X242697000Y-73603557D01*
X245233162Y-73603557D01*
X247650000Y-76020395D01*
X250066838Y-73603557D01*
X249724277Y-73128937D01*
X248391137Y-72568916D01*
X246945166Y-72561695D01*
X245606499Y-73108373D01*
X245575723Y-73128937D01*
X245233162Y-73603557D01*
X242697000Y-73603557D01*
X242697000Y-67753160D01*
X243123840Y-67753160D01*
X243392205Y-68401070D01*
X243940499Y-68975389D01*
X244666839Y-69296167D01*
X244983000Y-69182290D01*
X244983000Y-67437000D01*
X245237000Y-67437000D01*
X245237000Y-69182290D01*
X245553161Y-69296167D01*
X246279501Y-68975389D01*
X246827795Y-68401070D01*
X247096160Y-67753160D01*
X246981947Y-67437000D01*
X245237000Y-67437000D01*
X244983000Y-67437000D01*
X243238053Y-67437000D01*
X243123840Y-67753160D01*
X242697000Y-67753160D01*
X242697000Y-66866840D01*
X243123840Y-66866840D01*
X243238053Y-67183000D01*
X244983000Y-67183000D01*
X244983000Y-65437710D01*
X245237000Y-65437710D01*
X245237000Y-67183000D01*
X246981947Y-67183000D01*
X247096160Y-66866840D01*
X246827795Y-66218930D01*
X246279501Y-65644611D01*
X245553161Y-65323833D01*
X245237000Y-65437710D01*
X244983000Y-65437710D01*
X244666839Y-65323833D01*
X243940499Y-65644611D01*
X243392205Y-66218930D01*
X243123840Y-66866840D01*
X242697000Y-66866840D01*
X242697000Y-63237745D01*
X243011861Y-63237745D01*
X243085995Y-63483864D01*
X243623223Y-63676965D01*
X244193454Y-63649778D01*
X244594005Y-63483864D01*
X244668139Y-63237745D01*
X243840000Y-62409605D01*
X243011861Y-63237745D01*
X242697000Y-63237745D01*
X242697000Y-63017399D01*
X242832255Y-63058139D01*
X243660395Y-62230000D01*
X244019605Y-62230000D01*
X244847745Y-63058139D01*
X245093864Y-62984005D01*
X245286965Y-62446777D01*
X245259778Y-61876546D01*
X245093864Y-61475995D01*
X244847745Y-61401861D01*
X244019605Y-62230000D01*
X243660395Y-62230000D01*
X242832255Y-61401861D01*
X242697000Y-61442601D01*
X242697000Y-61087000D01*
X243052601Y-61087000D01*
X243011861Y-61222255D01*
X243840000Y-62050395D01*
X244668139Y-61222255D01*
X244594005Y-60976136D01*
X244056777Y-60783035D01*
X243967000Y-60787315D01*
X243967000Y-59746443D01*
X245233162Y-59746443D01*
X245575723Y-60221063D01*
X246908863Y-60781084D01*
X248354834Y-60788305D01*
X249693501Y-60241627D01*
X249724277Y-60221063D01*
X250066838Y-59746443D01*
X247650000Y-57329605D01*
X245233162Y-59746443D01*
X243967000Y-59746443D01*
X243967000Y-57854834D01*
X244011695Y-57854834D01*
X244558373Y-59193501D01*
X244578937Y-59224277D01*
X245053557Y-59566838D01*
X247470395Y-57150000D01*
X247829605Y-57150000D01*
X250246443Y-59566838D01*
X250721063Y-59224277D01*
X251281084Y-57891137D01*
X251288305Y-56445166D01*
X250741627Y-55106499D01*
X250721063Y-55075723D01*
X250246443Y-54733162D01*
X247829605Y-57150000D01*
X247470395Y-57150000D01*
X245053557Y-54733162D01*
X244578937Y-55075723D01*
X244018916Y-56408863D01*
X244011695Y-57854834D01*
X243967000Y-57854834D01*
X243967000Y-54553557D01*
X245233162Y-54553557D01*
X247650000Y-56970395D01*
X250066838Y-54553557D01*
X249724277Y-54078937D01*
X248391137Y-53518916D01*
X246945166Y-53511695D01*
X245606499Y-54058373D01*
X245575723Y-54078937D01*
X245233162Y-54553557D01*
X243967000Y-54553557D01*
X243967000Y-50800000D01*
X243956994Y-50750590D01*
X243928553Y-50708965D01*
X243886159Y-50681685D01*
X243840000Y-50673000D01*
X240157000Y-50673000D01*
X240157000Y-46163160D01*
X243123840Y-46163160D01*
X243392205Y-46811070D01*
X243940499Y-47385389D01*
X244666839Y-47706167D01*
X244983000Y-47592290D01*
X244983000Y-45847000D01*
X245237000Y-45847000D01*
X245237000Y-47592290D01*
X245553161Y-47706167D01*
X246279501Y-47385389D01*
X246827795Y-46811070D01*
X247096160Y-46163160D01*
X246981947Y-45847000D01*
X245237000Y-45847000D01*
X244983000Y-45847000D01*
X243238053Y-45847000D01*
X243123840Y-46163160D01*
X240157000Y-46163160D01*
X240157000Y-45276840D01*
X243123840Y-45276840D01*
X243238053Y-45593000D01*
X244983000Y-45593000D01*
X244983000Y-43847710D01*
X245237000Y-43847710D01*
X245237000Y-45593000D01*
X246981947Y-45593000D01*
X247096160Y-45276840D01*
X246827795Y-44628930D01*
X246279501Y-44054611D01*
X245553161Y-43733833D01*
X245237000Y-43847710D01*
X244983000Y-43847710D01*
X244666839Y-43733833D01*
X243940499Y-44054611D01*
X243392205Y-44628930D01*
X243123840Y-45276840D01*
X240157000Y-45276840D01*
X240157000Y-42037000D01*
X251333000Y-42037000D01*
X251333000Y-83693000D01*
G36*
X213233000Y-39243000D02*
X166497000Y-39243000D01*
X166497000Y-37837745D01*
X171891861Y-37837745D01*
X171965995Y-38083864D01*
X172503223Y-38276965D01*
X173073454Y-38249778D01*
X173474005Y-38083864D01*
X173548139Y-37837745D01*
X175701861Y-37837745D01*
X175775995Y-38083864D01*
X176313223Y-38276965D01*
X176883454Y-38249778D01*
X177284005Y-38083864D01*
X177358139Y-37837745D01*
X179511861Y-37837745D01*
X179585995Y-38083864D01*
X180123223Y-38276965D01*
X180693454Y-38249778D01*
X181094005Y-38083864D01*
X181168139Y-37837745D01*
X183321861Y-37837745D01*
X183395995Y-38083864D01*
X183933223Y-38276965D01*
X184503454Y-38249778D01*
X184904005Y-38083864D01*
X184978139Y-37837745D01*
X187131861Y-37837745D01*
X187205995Y-38083864D01*
X187743223Y-38276965D01*
X188313454Y-38249778D01*
X188714005Y-38083864D01*
X188788139Y-37837745D01*
X190941861Y-37837745D01*
X191015995Y-38083864D01*
X191553223Y-38276965D01*
X192123454Y-38249778D01*
X192524005Y-38083864D01*
X192598139Y-37837745D01*
X194751861Y-37837745D01*
X194825995Y-38083864D01*
X195363223Y-38276965D01*
X195933454Y-38249778D01*
X196334005Y-38083864D01*
X196408139Y-37837745D01*
X198561861Y-37837745D01*
X198635995Y-38083864D01*
X199173223Y-38276965D01*
X199743454Y-38249778D01*
X200144005Y-38083864D01*
X200218139Y-37837745D01*
X202371861Y-37837745D01*
X202445995Y-38083864D01*
X202983223Y-38276965D01*
X203553454Y-38249778D01*
X203954005Y-38083864D01*
X204028139Y-37837745D01*
X206181861Y-37837745D01*
X206255995Y-38083864D01*
X206793223Y-38276965D01*
X207363454Y-38249778D01*
X207764005Y-38083864D01*
X207838139Y-37837745D01*
X207010000Y-37009605D01*
X206181861Y-37837745D01*
X204028139Y-37837745D01*
X203200000Y-37009605D01*
X202371861Y-37837745D01*
X200218139Y-37837745D01*
X199390000Y-37009605D01*
X198561861Y-37837745D01*
X196408139Y-37837745D01*
X195580000Y-37009605D01*
X194751861Y-37837745D01*
X192598139Y-37837745D01*
X191770000Y-37009605D01*
X190941861Y-37837745D01*
X188788139Y-37837745D01*
X187960000Y-37009605D01*
X187131861Y-37837745D01*
X184978139Y-37837745D01*
X184150000Y-37009605D01*
X183321861Y-37837745D01*
X181168139Y-37837745D01*
X180340000Y-37009605D01*
X179511861Y-37837745D01*
X177358139Y-37837745D01*
X176530000Y-37009605D01*
X175701861Y-37837745D01*
X173548139Y-37837745D01*
X172720000Y-37009605D01*
X171891861Y-37837745D01*
X166497000Y-37837745D01*
X166497000Y-36613223D01*
X171273035Y-36613223D01*
X171300222Y-37183454D01*
X171466136Y-37584005D01*
X171712255Y-37658139D01*
X172540395Y-36830000D01*
X172899605Y-36830000D01*
X173727745Y-37658139D01*
X173973864Y-37584005D01*
X174166965Y-37046777D01*
X174146295Y-36613223D01*
X175083035Y-36613223D01*
X175110222Y-37183454D01*
X175276136Y-37584005D01*
X175522255Y-37658139D01*
X176350395Y-36830000D01*
X176709605Y-36830000D01*
X177537745Y-37658139D01*
X177783864Y-37584005D01*
X177976965Y-37046777D01*
X177956295Y-36613223D01*
X178893035Y-36613223D01*
X178920222Y-37183454D01*
X179086136Y-37584005D01*
X179332255Y-37658139D01*
X180160395Y-36830000D01*
X180519605Y-36830000D01*
X181347745Y-37658139D01*
X181593864Y-37584005D01*
X181786965Y-37046777D01*
X181766295Y-36613223D01*
X182703035Y-36613223D01*
X182730222Y-37183454D01*
X182896136Y-37584005D01*
X183142255Y-37658139D01*
X183970395Y-36830000D01*
X184329605Y-36830000D01*
X185157745Y-37658139D01*
X185403864Y-37584005D01*
X185596965Y-37046777D01*
X185576295Y-36613223D01*
X186513035Y-36613223D01*
X186540222Y-37183454D01*
X186706136Y-37584005D01*
X186952255Y-37658139D01*
X187780395Y-36830000D01*
X188139605Y-36830000D01*
X188967745Y-37658139D01*
X189213864Y-37584005D01*
X189406965Y-37046777D01*
X189386295Y-36613223D01*
X190323035Y-36613223D01*
X190350222Y-37183454D01*
X190516136Y-37584005D01*
X190762255Y-37658139D01*
X191590395Y-36830000D01*
X191949605Y-36830000D01*
X192777745Y-37658139D01*
X193023864Y-37584005D01*
X193216965Y-37046777D01*
X193196295Y-36613223D01*
X194133035Y-36613223D01*
X194160222Y-37183454D01*
X194326136Y-37584005D01*
X194572255Y-37658139D01*
X195400395Y-36830000D01*
X195759605Y-36830000D01*
X196587745Y-37658139D01*
X196833864Y-37584005D01*
X197026965Y-37046777D01*
X197006295Y-36613223D01*
X197943035Y-36613223D01*
X197970222Y-37183454D01*
X198136136Y-37584005D01*
X198382255Y-37658139D01*
X199210395Y-36830000D01*
X199569605Y-36830000D01*
X200397745Y-37658139D01*
X200643864Y-37584005D01*
X200836965Y-37046777D01*
X200816295Y-36613223D01*
X201753035Y-36613223D01*
X201780222Y-37183454D01*
X201946136Y-37584005D01*
X202192255Y-37658139D01*
X203020395Y-36830000D01*
X203379605Y-36830000D01*
X204207745Y-37658139D01*
X204453864Y-37584005D01*
X204646965Y-37046777D01*
X204626295Y-36613223D01*
X205563035Y-36613223D01*
X205590222Y-37183454D01*
X205756136Y-37584005D01*
X206002255Y-37658139D01*
X206830395Y-36830000D01*
X207189605Y-36830000D01*
X208017745Y-37658139D01*
X208263864Y-37584005D01*
X208456965Y-37046777D01*
X208429778Y-36476546D01*
X208263864Y-36075995D01*
X208017745Y-36001861D01*
X207189605Y-36830000D01*
X206830395Y-36830000D01*
X206002255Y-36001861D01*
X205756136Y-36075995D01*
X205563035Y-36613223D01*
X204626295Y-36613223D01*
X204619778Y-36476546D01*
X204453864Y-36075995D01*
X204207745Y-36001861D01*
X203379605Y-36830000D01*
X203020395Y-36830000D01*
X202192255Y-36001861D01*
X201946136Y-36075995D01*
X201753035Y-36613223D01*
X200816295Y-36613223D01*
X200809778Y-36476546D01*
X200643864Y-36075995D01*
X200397745Y-36001861D01*
X199569605Y-36830000D01*
X199210395Y-36830000D01*
X198382255Y-36001861D01*
X198136136Y-36075995D01*
X197943035Y-36613223D01*
X197006295Y-36613223D01*
X196999778Y-36476546D01*
X196833864Y-36075995D01*
X196587745Y-36001861D01*
X195759605Y-36830000D01*
X195400395Y-36830000D01*
X194572255Y-36001861D01*
X194326136Y-36075995D01*
X194133035Y-36613223D01*
X193196295Y-36613223D01*
X193189778Y-36476546D01*
X193023864Y-36075995D01*
X192777745Y-36001861D01*
X191949605Y-36830000D01*
X191590395Y-36830000D01*
X190762255Y-36001861D01*
X190516136Y-36075995D01*
X190323035Y-36613223D01*
X189386295Y-36613223D01*
X189379778Y-36476546D01*
X189213864Y-36075995D01*
X188967745Y-36001861D01*
X188139605Y-36830000D01*
X187780395Y-36830000D01*
X186952255Y-36001861D01*
X186706136Y-36075995D01*
X186513035Y-36613223D01*
X185576295Y-36613223D01*
X185569778Y-36476546D01*
X185403864Y-36075995D01*
X185157745Y-36001861D01*
X184329605Y-36830000D01*
X183970395Y-36830000D01*
X183142255Y-36001861D01*
X182896136Y-36075995D01*
X182703035Y-36613223D01*
X181766295Y-36613223D01*
X181759778Y-36476546D01*
X181593864Y-36075995D01*
X181347745Y-36001861D01*
X180519605Y-36830000D01*
X180160395Y-36830000D01*
X179332255Y-36001861D01*
X179086136Y-36075995D01*
X178893035Y-36613223D01*
X177956295Y-36613223D01*
X177949778Y-36476546D01*
X177783864Y-36075995D01*
X177537745Y-36001861D01*
X176709605Y-36830000D01*
X176350395Y-36830000D01*
X175522255Y-36001861D01*
X175276136Y-36075995D01*
X175083035Y-36613223D01*
X174146295Y-36613223D01*
X174139778Y-36476546D01*
X173973864Y-36075995D01*
X173727745Y-36001861D01*
X172899605Y-36830000D01*
X172540395Y-36830000D01*
X171712255Y-36001861D01*
X171466136Y-36075995D01*
X171273035Y-36613223D01*
X166497000Y-36613223D01*
X166497000Y-35822255D01*
X171891861Y-35822255D01*
X172720000Y-36650395D01*
X173548139Y-35822255D01*
X175701861Y-35822255D01*
X176530000Y-36650395D01*
X177358139Y-35822255D01*
X179511861Y-35822255D01*
X180340000Y-36650395D01*
X181168139Y-35822255D01*
X183321861Y-35822255D01*
X184150000Y-36650395D01*
X184978139Y-35822255D01*
X187131861Y-35822255D01*
X187960000Y-36650395D01*
X188788139Y-35822255D01*
X190941861Y-35822255D01*
X191770000Y-36650395D01*
X192598139Y-35822255D01*
X194751861Y-35822255D01*
X195580000Y-36650395D01*
X196408139Y-35822255D01*
X198561861Y-35822255D01*
X199390000Y-36650395D01*
X200218139Y-35822255D01*
X202371861Y-35822255D01*
X203200000Y-36650395D01*
X204028139Y-35822255D01*
X206181861Y-35822255D01*
X207010000Y-36650395D01*
X207838139Y-35822255D01*
X207764005Y-35576136D01*
X207226777Y-35383035D01*
X206656546Y-35410222D01*
X206255995Y-35576136D01*
X206181861Y-35822255D01*
X204028139Y-35822255D01*
X203954005Y-35576136D01*
X203416777Y-35383035D01*
X202846546Y-35410222D01*
X202445995Y-35576136D01*
X202371861Y-35822255D01*
X200218139Y-35822255D01*
X200144005Y-35576136D01*
X199606777Y-35383035D01*
X199036546Y-35410222D01*
X198635995Y-35576136D01*
X198561861Y-35822255D01*
X196408139Y-35822255D01*
X196334005Y-35576136D01*
X195796777Y-35383035D01*
X195226546Y-35410222D01*
X194825995Y-35576136D01*
X194751861Y-35822255D01*
X192598139Y-35822255D01*
X192524005Y-35576136D01*
X191986777Y-35383035D01*
X191416546Y-35410222D01*
X191015995Y-35576136D01*
X190941861Y-35822255D01*
X188788139Y-35822255D01*
X188714005Y-35576136D01*
X188176777Y-35383035D01*
X187606546Y-35410222D01*
X187205995Y-35576136D01*
X187131861Y-35822255D01*
X184978139Y-35822255D01*
X184904005Y-35576136D01*
X184366777Y-35383035D01*
X183796546Y-35410222D01*
X183395995Y-35576136D01*
X183321861Y-35822255D01*
X181168139Y-35822255D01*
X181094005Y-35576136D01*
X180556777Y-35383035D01*
X179986546Y-35410222D01*
X179585995Y-35576136D01*
X179511861Y-35822255D01*
X177358139Y-35822255D01*
X177284005Y-35576136D01*
X176746777Y-35383035D01*
X176176546Y-35410222D01*
X175775995Y-35576136D01*
X175701861Y-35822255D01*
X173548139Y-35822255D01*
X173474005Y-35576136D01*
X172936777Y-35383035D01*
X172366546Y-35410222D01*
X171965995Y-35576136D01*
X171891861Y-35822255D01*
X166497000Y-35822255D01*
X166497000Y-34346443D01*
X179193162Y-34346443D01*
X179535723Y-34821063D01*
X180868863Y-35381084D01*
X182314834Y-35388305D01*
X183653501Y-34841627D01*
X183684277Y-34821063D01*
X184026838Y-34346443D01*
X195703162Y-34346443D01*
X196045723Y-34821063D01*
X197378863Y-35381084D01*
X198824834Y-35388305D01*
X200163501Y-34841627D01*
X200194277Y-34821063D01*
X200536838Y-34346443D01*
X198120000Y-31929605D01*
X195703162Y-34346443D01*
X184026838Y-34346443D01*
X181610000Y-31929605D01*
X179193162Y-34346443D01*
X166497000Y-34346443D01*
X166497000Y-32454834D01*
X177971695Y-32454834D01*
X178518373Y-33793501D01*
X178538937Y-33824277D01*
X179013557Y-34166838D01*
X181430395Y-31750000D01*
X181789605Y-31750000D01*
X184206443Y-34166838D01*
X184681063Y-33824277D01*
X185241084Y-32491137D01*
X185241265Y-32454834D01*
X194481695Y-32454834D01*
X195028373Y-33793501D01*
X195048937Y-33824277D01*
X195523557Y-34166838D01*
X197940395Y-31750000D01*
X198299605Y-31750000D01*
X200716443Y-34166838D01*
X201191063Y-33824277D01*
X201751084Y-32491137D01*
X201758305Y-31045166D01*
X201211627Y-29706499D01*
X201191063Y-29675723D01*
X200716443Y-29333162D01*
X198299605Y-31750000D01*
X197940395Y-31750000D01*
X195523557Y-29333162D01*
X195048937Y-29675723D01*
X194488916Y-31008863D01*
X194481695Y-32454834D01*
X185241265Y-32454834D01*
X185248305Y-31045166D01*
X184701627Y-29706499D01*
X184681063Y-29675723D01*
X184206443Y-29333162D01*
X181789605Y-31750000D01*
X181430395Y-31750000D01*
X179013557Y-29333162D01*
X178538937Y-29675723D01*
X177978916Y-31008863D01*
X177971695Y-32454834D01*
X166497000Y-32454834D01*
X166497000Y-29153557D01*
X179193162Y-29153557D01*
X181610000Y-31570395D01*
X184026838Y-29153557D01*
X195703162Y-29153557D01*
X198120000Y-31570395D01*
X200536838Y-29153557D01*
X200194277Y-28678937D01*
X198861137Y-28118916D01*
X197415166Y-28111695D01*
X196076499Y-28658373D01*
X196045723Y-28678937D01*
X195703162Y-29153557D01*
X184026838Y-29153557D01*
X183684277Y-28678937D01*
X182351137Y-28118916D01*
X180905166Y-28111695D01*
X179566499Y-28658373D01*
X179535723Y-28678937D01*
X179193162Y-29153557D01*
X166497000Y-29153557D01*
X166497000Y-28067000D01*
X213233000Y-28067000D01*
X213233000Y-39243000D01*
X213233000Y-39243000D01*
G37*
X213233000Y-39243000D02*
X166497000Y-39243000D01*
X166497000Y-37837745D01*
X171891861Y-37837745D01*
X171965995Y-38083864D01*
X172503223Y-38276965D01*
X173073454Y-38249778D01*
X173474005Y-38083864D01*
X173548139Y-37837745D01*
X175701861Y-37837745D01*
X175775995Y-38083864D01*
X176313223Y-38276965D01*
X176883454Y-38249778D01*
X177284005Y-38083864D01*
X177358139Y-37837745D01*
X179511861Y-37837745D01*
X179585995Y-38083864D01*
X180123223Y-38276965D01*
X180693454Y-38249778D01*
X181094005Y-38083864D01*
X181168139Y-37837745D01*
X183321861Y-37837745D01*
X183395995Y-38083864D01*
X183933223Y-38276965D01*
X184503454Y-38249778D01*
X184904005Y-38083864D01*
X184978139Y-37837745D01*
X187131861Y-37837745D01*
X187205995Y-38083864D01*
X187743223Y-38276965D01*
X188313454Y-38249778D01*
X188714005Y-38083864D01*
X188788139Y-37837745D01*
X190941861Y-37837745D01*
X191015995Y-38083864D01*
X191553223Y-38276965D01*
X192123454Y-38249778D01*
X192524005Y-38083864D01*
X192598139Y-37837745D01*
X194751861Y-37837745D01*
X194825995Y-38083864D01*
X195363223Y-38276965D01*
X195933454Y-38249778D01*
X196334005Y-38083864D01*
X196408139Y-37837745D01*
X198561861Y-37837745D01*
X198635995Y-38083864D01*
X199173223Y-38276965D01*
X199743454Y-38249778D01*
X200144005Y-38083864D01*
X200218139Y-37837745D01*
X202371861Y-37837745D01*
X202445995Y-38083864D01*
X202983223Y-38276965D01*
X203553454Y-38249778D01*
X203954005Y-38083864D01*
X204028139Y-37837745D01*
X206181861Y-37837745D01*
X206255995Y-38083864D01*
X206793223Y-38276965D01*
X207363454Y-38249778D01*
X207764005Y-38083864D01*
X207838139Y-37837745D01*
X207010000Y-37009605D01*
X206181861Y-37837745D01*
X204028139Y-37837745D01*
X203200000Y-37009605D01*
X202371861Y-37837745D01*
X200218139Y-37837745D01*
X199390000Y-37009605D01*
X198561861Y-37837745D01*
X196408139Y-37837745D01*
X195580000Y-37009605D01*
X194751861Y-37837745D01*
X192598139Y-37837745D01*
X191770000Y-37009605D01*
X190941861Y-37837745D01*
X188788139Y-37837745D01*
X187960000Y-37009605D01*
X187131861Y-37837745D01*
X184978139Y-37837745D01*
X184150000Y-37009605D01*
X183321861Y-37837745D01*
X181168139Y-37837745D01*
X180340000Y-37009605D01*
X179511861Y-37837745D01*
X177358139Y-37837745D01*
X176530000Y-37009605D01*
X175701861Y-37837745D01*
X173548139Y-37837745D01*
X172720000Y-37009605D01*
X171891861Y-37837745D01*
X166497000Y-37837745D01*
X166497000Y-36613223D01*
X171273035Y-36613223D01*
X171300222Y-37183454D01*
X171466136Y-37584005D01*
X171712255Y-37658139D01*
X172540395Y-36830000D01*
X172899605Y-36830000D01*
X173727745Y-37658139D01*
X173973864Y-37584005D01*
X174166965Y-37046777D01*
X174146295Y-36613223D01*
X175083035Y-36613223D01*
X175110222Y-37183454D01*
X175276136Y-37584005D01*
X175522255Y-37658139D01*
X176350395Y-36830000D01*
X176709605Y-36830000D01*
X177537745Y-37658139D01*
X177783864Y-37584005D01*
X177976965Y-37046777D01*
X177956295Y-36613223D01*
X178893035Y-36613223D01*
X178920222Y-37183454D01*
X179086136Y-37584005D01*
X179332255Y-37658139D01*
X180160395Y-36830000D01*
X180519605Y-36830000D01*
X181347745Y-37658139D01*
X181593864Y-37584005D01*
X181786965Y-37046777D01*
X181766295Y-36613223D01*
X182703035Y-36613223D01*
X182730222Y-37183454D01*
X182896136Y-37584005D01*
X183142255Y-37658139D01*
X183970395Y-36830000D01*
X184329605Y-36830000D01*
X185157745Y-37658139D01*
X185403864Y-37584005D01*
X185596965Y-37046777D01*
X185576295Y-36613223D01*
X186513035Y-36613223D01*
X186540222Y-37183454D01*
X186706136Y-37584005D01*
X186952255Y-37658139D01*
X187780395Y-36830000D01*
X188139605Y-36830000D01*
X188967745Y-37658139D01*
X189213864Y-37584005D01*
X189406965Y-37046777D01*
X189386295Y-36613223D01*
X190323035Y-36613223D01*
X190350222Y-37183454D01*
X190516136Y-37584005D01*
X190762255Y-37658139D01*
X191590395Y-36830000D01*
X191949605Y-36830000D01*
X192777745Y-37658139D01*
X193023864Y-37584005D01*
X193216965Y-37046777D01*
X193196295Y-36613223D01*
X194133035Y-36613223D01*
X194160222Y-37183454D01*
X194326136Y-37584005D01*
X194572255Y-37658139D01*
X195400395Y-36830000D01*
X195759605Y-36830000D01*
X196587745Y-37658139D01*
X196833864Y-37584005D01*
X197026965Y-37046777D01*
X197006295Y-36613223D01*
X197943035Y-36613223D01*
X197970222Y-37183454D01*
X198136136Y-37584005D01*
X198382255Y-37658139D01*
X199210395Y-36830000D01*
X199569605Y-36830000D01*
X200397745Y-37658139D01*
X200643864Y-37584005D01*
X200836965Y-37046777D01*
X200816295Y-36613223D01*
X201753035Y-36613223D01*
X201780222Y-37183454D01*
X201946136Y-37584005D01*
X202192255Y-37658139D01*
X203020395Y-36830000D01*
X203379605Y-36830000D01*
X204207745Y-37658139D01*
X204453864Y-37584005D01*
X204646965Y-37046777D01*
X204626295Y-36613223D01*
X205563035Y-36613223D01*
X205590222Y-37183454D01*
X205756136Y-37584005D01*
X206002255Y-37658139D01*
X206830395Y-36830000D01*
X207189605Y-36830000D01*
X208017745Y-37658139D01*
X208263864Y-37584005D01*
X208456965Y-37046777D01*
X208429778Y-36476546D01*
X208263864Y-36075995D01*
X208017745Y-36001861D01*
X207189605Y-36830000D01*
X206830395Y-36830000D01*
X206002255Y-36001861D01*
X205756136Y-36075995D01*
X205563035Y-36613223D01*
X204626295Y-36613223D01*
X204619778Y-36476546D01*
X204453864Y-36075995D01*
X204207745Y-36001861D01*
X203379605Y-36830000D01*
X203020395Y-36830000D01*
X202192255Y-36001861D01*
X201946136Y-36075995D01*
X201753035Y-36613223D01*
X200816295Y-36613223D01*
X200809778Y-36476546D01*
X200643864Y-36075995D01*
X200397745Y-36001861D01*
X199569605Y-36830000D01*
X199210395Y-36830000D01*
X198382255Y-36001861D01*
X198136136Y-36075995D01*
X197943035Y-36613223D01*
X197006295Y-36613223D01*
X196999778Y-36476546D01*
X196833864Y-36075995D01*
X196587745Y-36001861D01*
X195759605Y-36830000D01*
X195400395Y-36830000D01*
X194572255Y-36001861D01*
X194326136Y-36075995D01*
X194133035Y-36613223D01*
X193196295Y-36613223D01*
X193189778Y-36476546D01*
X193023864Y-36075995D01*
X192777745Y-36001861D01*
X191949605Y-36830000D01*
X191590395Y-36830000D01*
X190762255Y-36001861D01*
X190516136Y-36075995D01*
X190323035Y-36613223D01*
X189386295Y-36613223D01*
X189379778Y-36476546D01*
X189213864Y-36075995D01*
X188967745Y-36001861D01*
X188139605Y-36830000D01*
X187780395Y-36830000D01*
X186952255Y-36001861D01*
X186706136Y-36075995D01*
X186513035Y-36613223D01*
X185576295Y-36613223D01*
X185569778Y-36476546D01*
X185403864Y-36075995D01*
X185157745Y-36001861D01*
X184329605Y-36830000D01*
X183970395Y-36830000D01*
X183142255Y-36001861D01*
X182896136Y-36075995D01*
X182703035Y-36613223D01*
X181766295Y-36613223D01*
X181759778Y-36476546D01*
X181593864Y-36075995D01*
X181347745Y-36001861D01*
X180519605Y-36830000D01*
X180160395Y-36830000D01*
X179332255Y-36001861D01*
X179086136Y-36075995D01*
X178893035Y-36613223D01*
X177956295Y-36613223D01*
X177949778Y-36476546D01*
X177783864Y-36075995D01*
X177537745Y-36001861D01*
X176709605Y-36830000D01*
X176350395Y-36830000D01*
X175522255Y-36001861D01*
X175276136Y-36075995D01*
X175083035Y-36613223D01*
X174146295Y-36613223D01*
X174139778Y-36476546D01*
X173973864Y-36075995D01*
X173727745Y-36001861D01*
X172899605Y-36830000D01*
X172540395Y-36830000D01*
X171712255Y-36001861D01*
X171466136Y-36075995D01*
X171273035Y-36613223D01*
X166497000Y-36613223D01*
X166497000Y-35822255D01*
X171891861Y-35822255D01*
X172720000Y-36650395D01*
X173548139Y-35822255D01*
X175701861Y-35822255D01*
X176530000Y-36650395D01*
X177358139Y-35822255D01*
X179511861Y-35822255D01*
X180340000Y-36650395D01*
X181168139Y-35822255D01*
X183321861Y-35822255D01*
X184150000Y-36650395D01*
X184978139Y-35822255D01*
X187131861Y-35822255D01*
X187960000Y-36650395D01*
X188788139Y-35822255D01*
X190941861Y-35822255D01*
X191770000Y-36650395D01*
X192598139Y-35822255D01*
X194751861Y-35822255D01*
X195580000Y-36650395D01*
X196408139Y-35822255D01*
X198561861Y-35822255D01*
X199390000Y-36650395D01*
X200218139Y-35822255D01*
X202371861Y-35822255D01*
X203200000Y-36650395D01*
X204028139Y-35822255D01*
X206181861Y-35822255D01*
X207010000Y-36650395D01*
X207838139Y-35822255D01*
X207764005Y-35576136D01*
X207226777Y-35383035D01*
X206656546Y-35410222D01*
X206255995Y-35576136D01*
X206181861Y-35822255D01*
X204028139Y-35822255D01*
X203954005Y-35576136D01*
X203416777Y-35383035D01*
X202846546Y-35410222D01*
X202445995Y-35576136D01*
X202371861Y-35822255D01*
X200218139Y-35822255D01*
X200144005Y-35576136D01*
X199606777Y-35383035D01*
X199036546Y-35410222D01*
X198635995Y-35576136D01*
X198561861Y-35822255D01*
X196408139Y-35822255D01*
X196334005Y-35576136D01*
X195796777Y-35383035D01*
X195226546Y-35410222D01*
X194825995Y-35576136D01*
X194751861Y-35822255D01*
X192598139Y-35822255D01*
X192524005Y-35576136D01*
X191986777Y-35383035D01*
X191416546Y-35410222D01*
X191015995Y-35576136D01*
X190941861Y-35822255D01*
X188788139Y-35822255D01*
X188714005Y-35576136D01*
X188176777Y-35383035D01*
X187606546Y-35410222D01*
X187205995Y-35576136D01*
X187131861Y-35822255D01*
X184978139Y-35822255D01*
X184904005Y-35576136D01*
X184366777Y-35383035D01*
X183796546Y-35410222D01*
X183395995Y-35576136D01*
X183321861Y-35822255D01*
X181168139Y-35822255D01*
X181094005Y-35576136D01*
X180556777Y-35383035D01*
X179986546Y-35410222D01*
X179585995Y-35576136D01*
X179511861Y-35822255D01*
X177358139Y-35822255D01*
X177284005Y-35576136D01*
X176746777Y-35383035D01*
X176176546Y-35410222D01*
X175775995Y-35576136D01*
X175701861Y-35822255D01*
X173548139Y-35822255D01*
X173474005Y-35576136D01*
X172936777Y-35383035D01*
X172366546Y-35410222D01*
X171965995Y-35576136D01*
X171891861Y-35822255D01*
X166497000Y-35822255D01*
X166497000Y-34346443D01*
X179193162Y-34346443D01*
X179535723Y-34821063D01*
X180868863Y-35381084D01*
X182314834Y-35388305D01*
X183653501Y-34841627D01*
X183684277Y-34821063D01*
X184026838Y-34346443D01*
X195703162Y-34346443D01*
X196045723Y-34821063D01*
X197378863Y-35381084D01*
X198824834Y-35388305D01*
X200163501Y-34841627D01*
X200194277Y-34821063D01*
X200536838Y-34346443D01*
X198120000Y-31929605D01*
X195703162Y-34346443D01*
X184026838Y-34346443D01*
X181610000Y-31929605D01*
X179193162Y-34346443D01*
X166497000Y-34346443D01*
X166497000Y-32454834D01*
X177971695Y-32454834D01*
X178518373Y-33793501D01*
X178538937Y-33824277D01*
X179013557Y-34166838D01*
X181430395Y-31750000D01*
X181789605Y-31750000D01*
X184206443Y-34166838D01*
X184681063Y-33824277D01*
X185241084Y-32491137D01*
X185241265Y-32454834D01*
X194481695Y-32454834D01*
X195028373Y-33793501D01*
X195048937Y-33824277D01*
X195523557Y-34166838D01*
X197940395Y-31750000D01*
X198299605Y-31750000D01*
X200716443Y-34166838D01*
X201191063Y-33824277D01*
X201751084Y-32491137D01*
X201758305Y-31045166D01*
X201211627Y-29706499D01*
X201191063Y-29675723D01*
X200716443Y-29333162D01*
X198299605Y-31750000D01*
X197940395Y-31750000D01*
X195523557Y-29333162D01*
X195048937Y-29675723D01*
X194488916Y-31008863D01*
X194481695Y-32454834D01*
X185241265Y-32454834D01*
X185248305Y-31045166D01*
X184701627Y-29706499D01*
X184681063Y-29675723D01*
X184206443Y-29333162D01*
X181789605Y-31750000D01*
X181430395Y-31750000D01*
X179013557Y-29333162D01*
X178538937Y-29675723D01*
X177978916Y-31008863D01*
X177971695Y-32454834D01*
X166497000Y-32454834D01*
X166497000Y-29153557D01*
X179193162Y-29153557D01*
X181610000Y-31570395D01*
X184026838Y-29153557D01*
X195703162Y-29153557D01*
X198120000Y-31570395D01*
X200536838Y-29153557D01*
X200194277Y-28678937D01*
X198861137Y-28118916D01*
X197415166Y-28111695D01*
X196076499Y-28658373D01*
X196045723Y-28678937D01*
X195703162Y-29153557D01*
X184026838Y-29153557D01*
X183684277Y-28678937D01*
X182351137Y-28118916D01*
X180905166Y-28111695D01*
X179566499Y-28658373D01*
X179535723Y-28678937D01*
X179193162Y-29153557D01*
X166497000Y-29153557D01*
X166497000Y-28067000D01*
X213233000Y-28067000D01*
X213233000Y-39243000D01*
G36*
X159893000Y-49530000D02*
X159903006Y-49579410D01*
X159931447Y-49621035D01*
X159973841Y-49648315D01*
X160020000Y-49657000D01*
X161163000Y-49657000D01*
X161163000Y-50800000D01*
X161173006Y-50849410D01*
X161201447Y-50891035D01*
X161243841Y-50918315D01*
X161290000Y-50927000D01*
X162433000Y-50927000D01*
X162433000Y-53278239D01*
X162094277Y-52808937D01*
X160761137Y-52248916D01*
X159315166Y-52241695D01*
X157976499Y-52788373D01*
X157945723Y-52808937D01*
X157603162Y-53283557D01*
X160020000Y-55700395D01*
X160034143Y-55686253D01*
X160213748Y-55865858D01*
X160199605Y-55880000D01*
X162616443Y-58296838D01*
X163091063Y-57954277D01*
X163651084Y-56621137D01*
X163658305Y-55175166D01*
X163111627Y-53836499D01*
X163091063Y-53805723D01*
X162621761Y-53467000D01*
X164973000Y-53467000D01*
X164973000Y-60833000D01*
X144907000Y-60833000D01*
X144907000Y-58476443D01*
X157603162Y-58476443D01*
X157945723Y-58951063D01*
X159278863Y-59511084D01*
X160724834Y-59518305D01*
X162063501Y-58971627D01*
X162094277Y-58951063D01*
X162436838Y-58476443D01*
X160020000Y-56059605D01*
X157603162Y-58476443D01*
X144907000Y-58476443D01*
X144907000Y-56584834D01*
X156381695Y-56584834D01*
X156928373Y-57923501D01*
X156948937Y-57954277D01*
X157423557Y-58296838D01*
X159840395Y-55880000D01*
X157423557Y-53463162D01*
X156948937Y-53805723D01*
X156388916Y-55138863D01*
X156381695Y-56584834D01*
X144907000Y-56584834D01*
X144907000Y-46005750D01*
X145285000Y-46005750D01*
X145285000Y-47246310D01*
X145381673Y-47479699D01*
X145560302Y-47658327D01*
X145793691Y-47755000D01*
X147034250Y-47755000D01*
X147193000Y-47596250D01*
X147193000Y-45847000D01*
X147447000Y-45847000D01*
X147447000Y-47596250D01*
X147605750Y-47755000D01*
X148846309Y-47755000D01*
X149079698Y-47658327D01*
X149258327Y-47479699D01*
X149355000Y-47246310D01*
X149355000Y-47017175D01*
X151282430Y-47017175D01*
X151405565Y-47304788D01*
X152087734Y-47564707D01*
X152817443Y-47543786D01*
X153394435Y-47304788D01*
X153517570Y-47017175D01*
X152400000Y-45899605D01*
X151282430Y-47017175D01*
X149355000Y-47017175D01*
X149355000Y-46005750D01*
X149196250Y-45847000D01*
X147447000Y-45847000D01*
X147193000Y-45847000D01*
X145443750Y-45847000D01*
X145285000Y-46005750D01*
X144907000Y-46005750D01*
X144907000Y-44193690D01*
X145285000Y-44193690D01*
X145285000Y-45434250D01*
X145443750Y-45593000D01*
X147193000Y-45593000D01*
X147193000Y-43843750D01*
X147447000Y-43843750D01*
X147447000Y-45593000D01*
X149196250Y-45593000D01*
X149355000Y-45434250D01*
X149355000Y-45407734D01*
X150555293Y-45407734D01*
X150576214Y-46137443D01*
X150815212Y-46714435D01*
X151102825Y-46837570D01*
X152220395Y-45720000D01*
X152579605Y-45720000D01*
X153697175Y-46837570D01*
X153984788Y-46714435D01*
X154244707Y-46032266D01*
X154239395Y-45847002D01*
X154338052Y-45847002D01*
X154223840Y-46163160D01*
X154492205Y-46811070D01*
X155040499Y-47385389D01*
X155766839Y-47706167D01*
X156083000Y-47592290D01*
X156083000Y-45847000D01*
X156337000Y-45847000D01*
X156337000Y-47592290D01*
X156653161Y-47706167D01*
X157379501Y-47385389D01*
X157927795Y-46811070D01*
X158196160Y-46163160D01*
X158081947Y-45847000D01*
X156337000Y-45847000D01*
X156083000Y-45847000D01*
X156063000Y-45847000D01*
X156063000Y-45593000D01*
X156083000Y-45593000D01*
X156083000Y-43847710D01*
X156337000Y-43847710D01*
X156337000Y-45593000D01*
X158081947Y-45593000D01*
X158196160Y-45276840D01*
X157927795Y-44628930D01*
X157379501Y-44054611D01*
X156653161Y-43733833D01*
X156337000Y-43847710D01*
X156083000Y-43847710D01*
X155766839Y-43733833D01*
X155040499Y-44054611D01*
X154492205Y-44628930D01*
X154223840Y-45276840D01*
X154338052Y-45592998D01*
X154232113Y-45592998D01*
X154223786Y-45302557D01*
X153984788Y-44725565D01*
X153697175Y-44602430D01*
X152579605Y-45720000D01*
X152220395Y-45720000D01*
X151102825Y-44602430D01*
X150815212Y-44725565D01*
X150555293Y-45407734D01*
X149355000Y-45407734D01*
X149355000Y-44422825D01*
X151282430Y-44422825D01*
X152400000Y-45540395D01*
X153517570Y-44422825D01*
X153394435Y-44135212D01*
X152712266Y-43875293D01*
X151982557Y-43896214D01*
X151405565Y-44135212D01*
X151282430Y-44422825D01*
X149355000Y-44422825D01*
X149355000Y-44193690D01*
X149258327Y-43960301D01*
X149079698Y-43781673D01*
X148846309Y-43685000D01*
X147605750Y-43685000D01*
X147447000Y-43843750D01*
X147193000Y-43843750D01*
X147034250Y-43685000D01*
X145793691Y-43685000D01*
X145560302Y-43781673D01*
X145381673Y-43960301D01*
X145285000Y-44193690D01*
X144907000Y-44193690D01*
X144907000Y-42037000D01*
X159893000Y-42037000D01*
X159893000Y-49530000D01*
X159893000Y-49530000D01*
G37*
X159893000Y-49530000D02*
X159903006Y-49579410D01*
X159931447Y-49621035D01*
X159973841Y-49648315D01*
X160020000Y-49657000D01*
X161163000Y-49657000D01*
X161163000Y-50800000D01*
X161173006Y-50849410D01*
X161201447Y-50891035D01*
X161243841Y-50918315D01*
X161290000Y-50927000D01*
X162433000Y-50927000D01*
X162433000Y-53278239D01*
X162094277Y-52808937D01*
X160761137Y-52248916D01*
X159315166Y-52241695D01*
X157976499Y-52788373D01*
X157945723Y-52808937D01*
X157603162Y-53283557D01*
X160020000Y-55700395D01*
X160034143Y-55686253D01*
X160213748Y-55865858D01*
X160199605Y-55880000D01*
X162616443Y-58296838D01*
X163091063Y-57954277D01*
X163651084Y-56621137D01*
X163658305Y-55175166D01*
X163111627Y-53836499D01*
X163091063Y-53805723D01*
X162621761Y-53467000D01*
X164973000Y-53467000D01*
X164973000Y-60833000D01*
X144907000Y-60833000D01*
X144907000Y-58476443D01*
X157603162Y-58476443D01*
X157945723Y-58951063D01*
X159278863Y-59511084D01*
X160724834Y-59518305D01*
X162063501Y-58971627D01*
X162094277Y-58951063D01*
X162436838Y-58476443D01*
X160020000Y-56059605D01*
X157603162Y-58476443D01*
X144907000Y-58476443D01*
X144907000Y-56584834D01*
X156381695Y-56584834D01*
X156928373Y-57923501D01*
X156948937Y-57954277D01*
X157423557Y-58296838D01*
X159840395Y-55880000D01*
X157423557Y-53463162D01*
X156948937Y-53805723D01*
X156388916Y-55138863D01*
X156381695Y-56584834D01*
X144907000Y-56584834D01*
X144907000Y-46005750D01*
X145285000Y-46005750D01*
X145285000Y-47246310D01*
X145381673Y-47479699D01*
X145560302Y-47658327D01*
X145793691Y-47755000D01*
X147034250Y-47755000D01*
X147193000Y-47596250D01*
X147193000Y-45847000D01*
X147447000Y-45847000D01*
X147447000Y-47596250D01*
X147605750Y-47755000D01*
X148846309Y-47755000D01*
X149079698Y-47658327D01*
X149258327Y-47479699D01*
X149355000Y-47246310D01*
X149355000Y-47017175D01*
X151282430Y-47017175D01*
X151405565Y-47304788D01*
X152087734Y-47564707D01*
X152817443Y-47543786D01*
X153394435Y-47304788D01*
X153517570Y-47017175D01*
X152400000Y-45899605D01*
X151282430Y-47017175D01*
X149355000Y-47017175D01*
X149355000Y-46005750D01*
X149196250Y-45847000D01*
X147447000Y-45847000D01*
X147193000Y-45847000D01*
X145443750Y-45847000D01*
X145285000Y-46005750D01*
X144907000Y-46005750D01*
X144907000Y-44193690D01*
X145285000Y-44193690D01*
X145285000Y-45434250D01*
X145443750Y-45593000D01*
X147193000Y-45593000D01*
X147193000Y-43843750D01*
X147447000Y-43843750D01*
X147447000Y-45593000D01*
X149196250Y-45593000D01*
X149355000Y-45434250D01*
X149355000Y-45407734D01*
X150555293Y-45407734D01*
X150576214Y-46137443D01*
X150815212Y-46714435D01*
X151102825Y-46837570D01*
X152220395Y-45720000D01*
X152579605Y-45720000D01*
X153697175Y-46837570D01*
X153984788Y-46714435D01*
X154244707Y-46032266D01*
X154239395Y-45847002D01*
X154338052Y-45847002D01*
X154223840Y-46163160D01*
X154492205Y-46811070D01*
X155040499Y-47385389D01*
X155766839Y-47706167D01*
X156083000Y-47592290D01*
X156083000Y-45847000D01*
X156337000Y-45847000D01*
X156337000Y-47592290D01*
X156653161Y-47706167D01*
X157379501Y-47385389D01*
X157927795Y-46811070D01*
X158196160Y-46163160D01*
X158081947Y-45847000D01*
X156337000Y-45847000D01*
X156083000Y-45847000D01*
X156063000Y-45847000D01*
X156063000Y-45593000D01*
X156083000Y-45593000D01*
X156083000Y-43847710D01*
X156337000Y-43847710D01*
X156337000Y-45593000D01*
X158081947Y-45593000D01*
X158196160Y-45276840D01*
X157927795Y-44628930D01*
X157379501Y-44054611D01*
X156653161Y-43733833D01*
X156337000Y-43847710D01*
X156083000Y-43847710D01*
X155766839Y-43733833D01*
X155040499Y-44054611D01*
X154492205Y-44628930D01*
X154223840Y-45276840D01*
X154338052Y-45592998D01*
X154232113Y-45592998D01*
X154223786Y-45302557D01*
X153984788Y-44725565D01*
X153697175Y-44602430D01*
X152579605Y-45720000D01*
X152220395Y-45720000D01*
X151102825Y-44602430D01*
X150815212Y-44725565D01*
X150555293Y-45407734D01*
X149355000Y-45407734D01*
X149355000Y-44422825D01*
X151282430Y-44422825D01*
X152400000Y-45540395D01*
X153517570Y-44422825D01*
X153394435Y-44135212D01*
X152712266Y-43875293D01*
X151982557Y-43896214D01*
X151405565Y-44135212D01*
X151282430Y-44422825D01*
X149355000Y-44422825D01*
X149355000Y-44193690D01*
X149258327Y-43960301D01*
X149079698Y-43781673D01*
X148846309Y-43685000D01*
X147605750Y-43685000D01*
X147447000Y-43843750D01*
X147193000Y-43843750D01*
X147034250Y-43685000D01*
X145793691Y-43685000D01*
X145560302Y-43781673D01*
X145381673Y-43960301D01*
X145285000Y-44193690D01*
X144907000Y-44193690D01*
X144907000Y-42037000D01*
X159893000Y-42037000D01*
X159893000Y-49530000D01*
G36*
X138303000Y-48742601D02*
X138167745Y-48701861D01*
X137339605Y-49530000D01*
X138167745Y-50358139D01*
X138303000Y-50317399D01*
X138303000Y-50673000D01*
X137947399Y-50673000D01*
X137988139Y-50537745D01*
X137160000Y-49709605D01*
X136331861Y-50537745D01*
X136405995Y-50783864D01*
X136943223Y-50976965D01*
X137033000Y-50972685D01*
X137033000Y-82423000D01*
X129667000Y-82423000D01*
X129667000Y-78796443D01*
X130933162Y-78796443D01*
X131275723Y-79271063D01*
X132608863Y-79831084D01*
X134054834Y-79838305D01*
X135393501Y-79291627D01*
X135424277Y-79271063D01*
X135766838Y-78796443D01*
X133350000Y-76379605D01*
X130933162Y-78796443D01*
X129667000Y-78796443D01*
X129667000Y-76904834D01*
X129711695Y-76904834D01*
X130258373Y-78243501D01*
X130278937Y-78274277D01*
X130753557Y-78616838D01*
X133170395Y-76200000D01*
X133529605Y-76200000D01*
X135946443Y-78616838D01*
X136421063Y-78274277D01*
X136981084Y-76941137D01*
X136988305Y-75495166D01*
X136441627Y-74156499D01*
X136421063Y-74125723D01*
X135946443Y-73783162D01*
X133529605Y-76200000D01*
X133170395Y-76200000D01*
X130753557Y-73783162D01*
X130278937Y-74125723D01*
X129718916Y-75458863D01*
X129711695Y-76904834D01*
X129667000Y-76904834D01*
X129667000Y-73603557D01*
X130933162Y-73603557D01*
X133350000Y-76020395D01*
X135766838Y-73603557D01*
X135424277Y-73128937D01*
X134091137Y-72568916D01*
X132645166Y-72561695D01*
X131306499Y-73108373D01*
X131275723Y-73128937D01*
X130933162Y-73603557D01*
X129667000Y-73603557D01*
X129667000Y-66483160D01*
X132633840Y-66483160D01*
X132902205Y-67131070D01*
X133450499Y-67705389D01*
X134176839Y-68026167D01*
X134493000Y-67912290D01*
X134493000Y-66167000D01*
X134747000Y-66167000D01*
X134747000Y-67912290D01*
X135063161Y-68026167D01*
X135789501Y-67705389D01*
X136337795Y-67131070D01*
X136606160Y-66483160D01*
X136491947Y-66167000D01*
X134747000Y-66167000D01*
X134493000Y-66167000D01*
X132748053Y-66167000D01*
X132633840Y-66483160D01*
X129667000Y-66483160D01*
X129667000Y-65596840D01*
X132633840Y-65596840D01*
X132748053Y-65913000D01*
X134493000Y-65913000D01*
X134493000Y-64167710D01*
X134747000Y-64167710D01*
X134747000Y-65913000D01*
X136491947Y-65913000D01*
X136606160Y-65596840D01*
X136337795Y-64948930D01*
X135789501Y-64374611D01*
X135063161Y-64053833D01*
X134747000Y-64167710D01*
X134493000Y-64167710D01*
X134176839Y-64053833D01*
X133450499Y-64374611D01*
X132902205Y-64948930D01*
X132633840Y-65596840D01*
X129667000Y-65596840D01*
X129667000Y-59746443D01*
X130933162Y-59746443D01*
X131275723Y-60221063D01*
X132608863Y-60781084D01*
X134054834Y-60788305D01*
X135393501Y-60241627D01*
X135424277Y-60221063D01*
X135766838Y-59746443D01*
X133350000Y-57329605D01*
X130933162Y-59746443D01*
X129667000Y-59746443D01*
X129667000Y-57854834D01*
X129711695Y-57854834D01*
X130258373Y-59193501D01*
X130278937Y-59224277D01*
X130753557Y-59566838D01*
X133170395Y-57150000D01*
X133529605Y-57150000D01*
X135946443Y-59566838D01*
X136421063Y-59224277D01*
X136981084Y-57891137D01*
X136988305Y-56445166D01*
X136441627Y-55106499D01*
X136421063Y-55075723D01*
X135946443Y-54733162D01*
X133529605Y-57150000D01*
X133170395Y-57150000D01*
X130753557Y-54733162D01*
X130278937Y-55075723D01*
X129718916Y-56408863D01*
X129711695Y-57854834D01*
X129667000Y-57854834D01*
X129667000Y-54553557D01*
X130933162Y-54553557D01*
X133350000Y-56970395D01*
X135766838Y-54553557D01*
X135424277Y-54078937D01*
X134091137Y-53518916D01*
X132645166Y-53511695D01*
X131306499Y-54058373D01*
X131275723Y-54078937D01*
X130933162Y-54553557D01*
X129667000Y-54553557D01*
X129667000Y-49313223D01*
X135713035Y-49313223D01*
X135740222Y-49883454D01*
X135906136Y-50284005D01*
X136152255Y-50358139D01*
X136980395Y-49530000D01*
X136152255Y-48701861D01*
X135906136Y-48775995D01*
X135713035Y-49313223D01*
X129667000Y-49313223D01*
X129667000Y-48522255D01*
X136331861Y-48522255D01*
X137160000Y-49350395D01*
X137988139Y-48522255D01*
X137914005Y-48276136D01*
X137376777Y-48083035D01*
X136806546Y-48110222D01*
X136405995Y-48276136D01*
X136331861Y-48522255D01*
X129667000Y-48522255D01*
X129667000Y-46163160D01*
X132633840Y-46163160D01*
X132902205Y-46811070D01*
X133450499Y-47385389D01*
X134176839Y-47706167D01*
X134493000Y-47592290D01*
X134493000Y-45847000D01*
X134747000Y-45847000D01*
X134747000Y-47592290D01*
X135063161Y-47706167D01*
X135789501Y-47385389D01*
X136337795Y-46811070D01*
X136606160Y-46163160D01*
X136491947Y-45847000D01*
X134747000Y-45847000D01*
X134493000Y-45847000D01*
X132748053Y-45847000D01*
X132633840Y-46163160D01*
X129667000Y-46163160D01*
X129667000Y-45276840D01*
X132633840Y-45276840D01*
X132748053Y-45593000D01*
X134493000Y-45593000D01*
X134493000Y-43847710D01*
X134747000Y-43847710D01*
X134747000Y-45593000D01*
X136491947Y-45593000D01*
X136606160Y-45276840D01*
X136337795Y-44628930D01*
X135789501Y-44054611D01*
X135063161Y-43733833D01*
X134747000Y-43847710D01*
X134493000Y-43847710D01*
X134176839Y-43733833D01*
X133450499Y-44054611D01*
X132902205Y-44628930D01*
X132633840Y-45276840D01*
X129667000Y-45276840D01*
X129667000Y-42037000D01*
X138303000Y-42037000D01*
X138303000Y-48742601D01*
X138303000Y-48742601D01*
G37*
X138303000Y-48742601D02*
X138167745Y-48701861D01*
X137339605Y-49530000D01*
X138167745Y-50358139D01*
X138303000Y-50317399D01*
X138303000Y-50673000D01*
X137947399Y-50673000D01*
X137988139Y-50537745D01*
X137160000Y-49709605D01*
X136331861Y-50537745D01*
X136405995Y-50783864D01*
X136943223Y-50976965D01*
X137033000Y-50972685D01*
X137033000Y-82423000D01*
X129667000Y-82423000D01*
X129667000Y-78796443D01*
X130933162Y-78796443D01*
X131275723Y-79271063D01*
X132608863Y-79831084D01*
X134054834Y-79838305D01*
X135393501Y-79291627D01*
X135424277Y-79271063D01*
X135766838Y-78796443D01*
X133350000Y-76379605D01*
X130933162Y-78796443D01*
X129667000Y-78796443D01*
X129667000Y-76904834D01*
X129711695Y-76904834D01*
X130258373Y-78243501D01*
X130278937Y-78274277D01*
X130753557Y-78616838D01*
X133170395Y-76200000D01*
X133529605Y-76200000D01*
X135946443Y-78616838D01*
X136421063Y-78274277D01*
X136981084Y-76941137D01*
X136988305Y-75495166D01*
X136441627Y-74156499D01*
X136421063Y-74125723D01*
X135946443Y-73783162D01*
X133529605Y-76200000D01*
X133170395Y-76200000D01*
X130753557Y-73783162D01*
X130278937Y-74125723D01*
X129718916Y-75458863D01*
X129711695Y-76904834D01*
X129667000Y-76904834D01*
X129667000Y-73603557D01*
X130933162Y-73603557D01*
X133350000Y-76020395D01*
X135766838Y-73603557D01*
X135424277Y-73128937D01*
X134091137Y-72568916D01*
X132645166Y-72561695D01*
X131306499Y-73108373D01*
X131275723Y-73128937D01*
X130933162Y-73603557D01*
X129667000Y-73603557D01*
X129667000Y-66483160D01*
X132633840Y-66483160D01*
X132902205Y-67131070D01*
X133450499Y-67705389D01*
X134176839Y-68026167D01*
X134493000Y-67912290D01*
X134493000Y-66167000D01*
X134747000Y-66167000D01*
X134747000Y-67912290D01*
X135063161Y-68026167D01*
X135789501Y-67705389D01*
X136337795Y-67131070D01*
X136606160Y-66483160D01*
X136491947Y-66167000D01*
X134747000Y-66167000D01*
X134493000Y-66167000D01*
X132748053Y-66167000D01*
X132633840Y-66483160D01*
X129667000Y-66483160D01*
X129667000Y-65596840D01*
X132633840Y-65596840D01*
X132748053Y-65913000D01*
X134493000Y-65913000D01*
X134493000Y-64167710D01*
X134747000Y-64167710D01*
X134747000Y-65913000D01*
X136491947Y-65913000D01*
X136606160Y-65596840D01*
X136337795Y-64948930D01*
X135789501Y-64374611D01*
X135063161Y-64053833D01*
X134747000Y-64167710D01*
X134493000Y-64167710D01*
X134176839Y-64053833D01*
X133450499Y-64374611D01*
X132902205Y-64948930D01*
X132633840Y-65596840D01*
X129667000Y-65596840D01*
X129667000Y-59746443D01*
X130933162Y-59746443D01*
X131275723Y-60221063D01*
X132608863Y-60781084D01*
X134054834Y-60788305D01*
X135393501Y-60241627D01*
X135424277Y-60221063D01*
X135766838Y-59746443D01*
X133350000Y-57329605D01*
X130933162Y-59746443D01*
X129667000Y-59746443D01*
X129667000Y-57854834D01*
X129711695Y-57854834D01*
X130258373Y-59193501D01*
X130278937Y-59224277D01*
X130753557Y-59566838D01*
X133170395Y-57150000D01*
X133529605Y-57150000D01*
X135946443Y-59566838D01*
X136421063Y-59224277D01*
X136981084Y-57891137D01*
X136988305Y-56445166D01*
X136441627Y-55106499D01*
X136421063Y-55075723D01*
X135946443Y-54733162D01*
X133529605Y-57150000D01*
X133170395Y-57150000D01*
X130753557Y-54733162D01*
X130278937Y-55075723D01*
X129718916Y-56408863D01*
X129711695Y-57854834D01*
X129667000Y-57854834D01*
X129667000Y-54553557D01*
X130933162Y-54553557D01*
X133350000Y-56970395D01*
X135766838Y-54553557D01*
X135424277Y-54078937D01*
X134091137Y-53518916D01*
X132645166Y-53511695D01*
X131306499Y-54058373D01*
X131275723Y-54078937D01*
X130933162Y-54553557D01*
X129667000Y-54553557D01*
X129667000Y-49313223D01*
X135713035Y-49313223D01*
X135740222Y-49883454D01*
X135906136Y-50284005D01*
X136152255Y-50358139D01*
X136980395Y-49530000D01*
X136152255Y-48701861D01*
X135906136Y-48775995D01*
X135713035Y-49313223D01*
X129667000Y-49313223D01*
X129667000Y-48522255D01*
X136331861Y-48522255D01*
X137160000Y-49350395D01*
X137988139Y-48522255D01*
X137914005Y-48276136D01*
X137376777Y-48083035D01*
X136806546Y-48110222D01*
X136405995Y-48276136D01*
X136331861Y-48522255D01*
X129667000Y-48522255D01*
X129667000Y-46163160D01*
X132633840Y-46163160D01*
X132902205Y-46811070D01*
X133450499Y-47385389D01*
X134176839Y-47706167D01*
X134493000Y-47592290D01*
X134493000Y-45847000D01*
X134747000Y-45847000D01*
X134747000Y-47592290D01*
X135063161Y-47706167D01*
X135789501Y-47385389D01*
X136337795Y-46811070D01*
X136606160Y-46163160D01*
X136491947Y-45847000D01*
X134747000Y-45847000D01*
X134493000Y-45847000D01*
X132748053Y-45847000D01*
X132633840Y-46163160D01*
X129667000Y-46163160D01*
X129667000Y-45276840D01*
X132633840Y-45276840D01*
X132748053Y-45593000D01*
X134493000Y-45593000D01*
X134493000Y-43847710D01*
X134747000Y-43847710D01*
X134747000Y-45593000D01*
X136491947Y-45593000D01*
X136606160Y-45276840D01*
X136337795Y-44628930D01*
X135789501Y-44054611D01*
X135063161Y-43733833D01*
X134747000Y-43847710D01*
X134493000Y-43847710D01*
X134176839Y-43733833D01*
X133450499Y-44054611D01*
X132902205Y-44628930D01*
X132633840Y-45276840D01*
X129667000Y-45276840D01*
X129667000Y-42037000D01*
X138303000Y-42037000D01*
X138303000Y-48742601D01*
G36*
X166243000Y-82423000D02*
X144907000Y-82423000D01*
X144907000Y-80037175D01*
X155092430Y-80037175D01*
X155215565Y-80324788D01*
X155897734Y-80584707D01*
X156627443Y-80563786D01*
X157204435Y-80324788D01*
X157327570Y-80037175D01*
X156210000Y-78919605D01*
X155092430Y-80037175D01*
X144907000Y-80037175D01*
X144907000Y-78427734D01*
X154365293Y-78427734D01*
X154386214Y-79157443D01*
X154625212Y-79734435D01*
X154912825Y-79857570D01*
X156030395Y-78740000D01*
X154912825Y-77622430D01*
X154625212Y-77745565D01*
X154365293Y-78427734D01*
X144907000Y-78427734D01*
X144907000Y-77442825D01*
X155092430Y-77442825D01*
X156210000Y-78560395D01*
X156224143Y-78546253D01*
X156403748Y-78725858D01*
X156389605Y-78740000D01*
X157507175Y-79857570D01*
X157794788Y-79734435D01*
X157967807Y-79280340D01*
X159278863Y-79831084D01*
X160724834Y-79838305D01*
X162063501Y-79291627D01*
X162094277Y-79271063D01*
X162436838Y-78796443D01*
X160020000Y-76379605D01*
X160005858Y-76393748D01*
X159826253Y-76214143D01*
X159840395Y-76200000D01*
X160199605Y-76200000D01*
X162616443Y-78616838D01*
X163091063Y-78274277D01*
X163651084Y-76941137D01*
X163658305Y-75495166D01*
X163111627Y-74156499D01*
X163091063Y-74125723D01*
X162616443Y-73783162D01*
X160199605Y-76200000D01*
X159840395Y-76200000D01*
X157423557Y-73783162D01*
X156948937Y-74125723D01*
X156388916Y-75458863D01*
X156381723Y-76899322D01*
X155792557Y-76916214D01*
X155215565Y-77155212D01*
X155092430Y-77442825D01*
X144907000Y-77442825D01*
X144907000Y-73603557D01*
X157603162Y-73603557D01*
X160020000Y-76020395D01*
X162436838Y-73603557D01*
X162094277Y-73128937D01*
X160761137Y-72568916D01*
X159315166Y-72561695D01*
X157976499Y-73108373D01*
X157945723Y-73128937D01*
X157603162Y-73603557D01*
X144907000Y-73603557D01*
X144907000Y-66325750D01*
X145285000Y-66325750D01*
X145285000Y-67566310D01*
X145381673Y-67799699D01*
X145560302Y-67978327D01*
X145793691Y-68075000D01*
X147034250Y-68075000D01*
X147193000Y-67916250D01*
X147193000Y-66167000D01*
X147447000Y-66167000D01*
X147447000Y-67916250D01*
X147605750Y-68075000D01*
X148846309Y-68075000D01*
X149079698Y-67978327D01*
X149258327Y-67799699D01*
X149355000Y-67566310D01*
X149355000Y-66483160D01*
X161843840Y-66483160D01*
X162112205Y-67131070D01*
X162660499Y-67705389D01*
X163386839Y-68026167D01*
X163703000Y-67912290D01*
X163703000Y-66167000D01*
X163957000Y-66167000D01*
X163957000Y-67912290D01*
X164273161Y-68026167D01*
X164999501Y-67705389D01*
X165547795Y-67131070D01*
X165816160Y-66483160D01*
X165701947Y-66167000D01*
X163957000Y-66167000D01*
X163703000Y-66167000D01*
X161958053Y-66167000D01*
X161843840Y-66483160D01*
X149355000Y-66483160D01*
X149355000Y-66325750D01*
X149196250Y-66167000D01*
X147447000Y-66167000D01*
X147193000Y-66167000D01*
X145443750Y-66167000D01*
X145285000Y-66325750D01*
X144907000Y-66325750D01*
X144907000Y-64513690D01*
X145285000Y-64513690D01*
X145285000Y-65754250D01*
X145443750Y-65913000D01*
X147193000Y-65913000D01*
X147193000Y-64163750D01*
X147447000Y-64163750D01*
X147447000Y-65913000D01*
X149196250Y-65913000D01*
X149355000Y-65754250D01*
X149355000Y-65596840D01*
X161843840Y-65596840D01*
X161958053Y-65913000D01*
X163703000Y-65913000D01*
X163703000Y-64167710D01*
X163957000Y-64167710D01*
X163957000Y-65913000D01*
X165701947Y-65913000D01*
X165816160Y-65596840D01*
X165547795Y-64948930D01*
X164999501Y-64374611D01*
X164273161Y-64053833D01*
X163957000Y-64167710D01*
X163703000Y-64167710D01*
X163386839Y-64053833D01*
X162660499Y-64374611D01*
X162112205Y-64948930D01*
X161843840Y-65596840D01*
X149355000Y-65596840D01*
X149355000Y-64513690D01*
X149258327Y-64280301D01*
X149079698Y-64101673D01*
X148846309Y-64005000D01*
X147605750Y-64005000D01*
X147447000Y-64163750D01*
X147193000Y-64163750D01*
X147034250Y-64005000D01*
X145793691Y-64005000D01*
X145560302Y-64101673D01*
X145381673Y-64280301D01*
X145285000Y-64513690D01*
X144907000Y-64513690D01*
X144907000Y-63627000D01*
X166243000Y-63627000D01*
X166243000Y-82423000D01*
X166243000Y-82423000D01*
G37*
X166243000Y-82423000D02*
X144907000Y-82423000D01*
X144907000Y-80037175D01*
X155092430Y-80037175D01*
X155215565Y-80324788D01*
X155897734Y-80584707D01*
X156627443Y-80563786D01*
X157204435Y-80324788D01*
X157327570Y-80037175D01*
X156210000Y-78919605D01*
X155092430Y-80037175D01*
X144907000Y-80037175D01*
X144907000Y-78427734D01*
X154365293Y-78427734D01*
X154386214Y-79157443D01*
X154625212Y-79734435D01*
X154912825Y-79857570D01*
X156030395Y-78740000D01*
X154912825Y-77622430D01*
X154625212Y-77745565D01*
X154365293Y-78427734D01*
X144907000Y-78427734D01*
X144907000Y-77442825D01*
X155092430Y-77442825D01*
X156210000Y-78560395D01*
X156224143Y-78546253D01*
X156403748Y-78725858D01*
X156389605Y-78740000D01*
X157507175Y-79857570D01*
X157794788Y-79734435D01*
X157967807Y-79280340D01*
X159278863Y-79831084D01*
X160724834Y-79838305D01*
X162063501Y-79291627D01*
X162094277Y-79271063D01*
X162436838Y-78796443D01*
X160020000Y-76379605D01*
X160005858Y-76393748D01*
X159826253Y-76214143D01*
X159840395Y-76200000D01*
X160199605Y-76200000D01*
X162616443Y-78616838D01*
X163091063Y-78274277D01*
X163651084Y-76941137D01*
X163658305Y-75495166D01*
X163111627Y-74156499D01*
X163091063Y-74125723D01*
X162616443Y-73783162D01*
X160199605Y-76200000D01*
X159840395Y-76200000D01*
X157423557Y-73783162D01*
X156948937Y-74125723D01*
X156388916Y-75458863D01*
X156381723Y-76899322D01*
X155792557Y-76916214D01*
X155215565Y-77155212D01*
X155092430Y-77442825D01*
X144907000Y-77442825D01*
X144907000Y-73603557D01*
X157603162Y-73603557D01*
X160020000Y-76020395D01*
X162436838Y-73603557D01*
X162094277Y-73128937D01*
X160761137Y-72568916D01*
X159315166Y-72561695D01*
X157976499Y-73108373D01*
X157945723Y-73128937D01*
X157603162Y-73603557D01*
X144907000Y-73603557D01*
X144907000Y-66325750D01*
X145285000Y-66325750D01*
X145285000Y-67566310D01*
X145381673Y-67799699D01*
X145560302Y-67978327D01*
X145793691Y-68075000D01*
X147034250Y-68075000D01*
X147193000Y-67916250D01*
X147193000Y-66167000D01*
X147447000Y-66167000D01*
X147447000Y-67916250D01*
X147605750Y-68075000D01*
X148846309Y-68075000D01*
X149079698Y-67978327D01*
X149258327Y-67799699D01*
X149355000Y-67566310D01*
X149355000Y-66483160D01*
X161843840Y-66483160D01*
X162112205Y-67131070D01*
X162660499Y-67705389D01*
X163386839Y-68026167D01*
X163703000Y-67912290D01*
X163703000Y-66167000D01*
X163957000Y-66167000D01*
X163957000Y-67912290D01*
X164273161Y-68026167D01*
X164999501Y-67705389D01*
X165547795Y-67131070D01*
X165816160Y-66483160D01*
X165701947Y-66167000D01*
X163957000Y-66167000D01*
X163703000Y-66167000D01*
X161958053Y-66167000D01*
X161843840Y-66483160D01*
X149355000Y-66483160D01*
X149355000Y-66325750D01*
X149196250Y-66167000D01*
X147447000Y-66167000D01*
X147193000Y-66167000D01*
X145443750Y-66167000D01*
X145285000Y-66325750D01*
X144907000Y-66325750D01*
X144907000Y-64513690D01*
X145285000Y-64513690D01*
X145285000Y-65754250D01*
X145443750Y-65913000D01*
X147193000Y-65913000D01*
X147193000Y-64163750D01*
X147447000Y-64163750D01*
X147447000Y-65913000D01*
X149196250Y-65913000D01*
X149355000Y-65754250D01*
X149355000Y-65596840D01*
X161843840Y-65596840D01*
X161958053Y-65913000D01*
X163703000Y-65913000D01*
X163703000Y-64167710D01*
X163957000Y-64167710D01*
X163957000Y-65913000D01*
X165701947Y-65913000D01*
X165816160Y-65596840D01*
X165547795Y-64948930D01*
X164999501Y-64374611D01*
X164273161Y-64053833D01*
X163957000Y-64167710D01*
X163703000Y-64167710D01*
X163386839Y-64053833D01*
X162660499Y-64374611D01*
X162112205Y-64948930D01*
X161843840Y-65596840D01*
X149355000Y-65596840D01*
X149355000Y-64513690D01*
X149258327Y-64280301D01*
X149079698Y-64101673D01*
X148846309Y-64005000D01*
X147605750Y-64005000D01*
X147447000Y-64163750D01*
X147193000Y-64163750D01*
X147034250Y-64005000D01*
X145793691Y-64005000D01*
X145560302Y-64101673D01*
X145381673Y-64280301D01*
X145285000Y-64513690D01*
X144907000Y-64513690D01*
X144907000Y-63627000D01*
X166243000Y-63627000D01*
X166243000Y-82423000D01*
G36*
X181483000Y-120410000D02*
X181482998Y-120410000D01*
X181482998Y-120568748D01*
X181324250Y-120410000D01*
X180608691Y-120410000D01*
X180375302Y-120506673D01*
X180196673Y-120685301D01*
X180100000Y-120918690D01*
X180100000Y-121634250D01*
X180258750Y-121793000D01*
X181483000Y-121793000D01*
X181483000Y-122047000D01*
X180258750Y-122047000D01*
X180100000Y-122205750D01*
X180100000Y-122921310D01*
X180196673Y-123154699D01*
X180375302Y-123333327D01*
X180608691Y-123430000D01*
X181324250Y-123430000D01*
X181482998Y-123271252D01*
X181482998Y-123430000D01*
X181483000Y-123430000D01*
X181483000Y-124333000D01*
X175387000Y-124333000D01*
X175387000Y-122927745D01*
X175701861Y-122927745D01*
X175775995Y-123173864D01*
X176313223Y-123366965D01*
X176883454Y-123339778D01*
X177284005Y-123173864D01*
X177358139Y-122927745D01*
X176530000Y-122099605D01*
X175701861Y-122927745D01*
X175387000Y-122927745D01*
X175387000Y-122707399D01*
X175522255Y-122748139D01*
X176350395Y-121920000D01*
X176709605Y-121920000D01*
X177537745Y-122748139D01*
X177783864Y-122674005D01*
X177976965Y-122136777D01*
X177949778Y-121566546D01*
X177783864Y-121165995D01*
X177537745Y-121091861D01*
X176709605Y-121920000D01*
X176350395Y-121920000D01*
X175522255Y-121091861D01*
X175387000Y-121132601D01*
X175387000Y-120912255D01*
X175701861Y-120912255D01*
X176530000Y-121740395D01*
X177358139Y-120912255D01*
X177284005Y-120666136D01*
X176746777Y-120473035D01*
X176176546Y-120500222D01*
X175775995Y-120666136D01*
X175701861Y-120912255D01*
X175387000Y-120912255D01*
X175387000Y-119507000D01*
X181483000Y-119507000D01*
X181483000Y-120410000D01*
X181483000Y-120410000D01*
G37*
X181483000Y-120410000D02*
X181482998Y-120410000D01*
X181482998Y-120568748D01*
X181324250Y-120410000D01*
X180608691Y-120410000D01*
X180375302Y-120506673D01*
X180196673Y-120685301D01*
X180100000Y-120918690D01*
X180100000Y-121634250D01*
X180258750Y-121793000D01*
X181483000Y-121793000D01*
X181483000Y-122047000D01*
X180258750Y-122047000D01*
X180100000Y-122205750D01*
X180100000Y-122921310D01*
X180196673Y-123154699D01*
X180375302Y-123333327D01*
X180608691Y-123430000D01*
X181324250Y-123430000D01*
X181482998Y-123271252D01*
X181482998Y-123430000D01*
X181483000Y-123430000D01*
X181483000Y-124333000D01*
X175387000Y-124333000D01*
X175387000Y-122927745D01*
X175701861Y-122927745D01*
X175775995Y-123173864D01*
X176313223Y-123366965D01*
X176883454Y-123339778D01*
X177284005Y-123173864D01*
X177358139Y-122927745D01*
X176530000Y-122099605D01*
X175701861Y-122927745D01*
X175387000Y-122927745D01*
X175387000Y-122707399D01*
X175522255Y-122748139D01*
X176350395Y-121920000D01*
X176709605Y-121920000D01*
X177537745Y-122748139D01*
X177783864Y-122674005D01*
X177976965Y-122136777D01*
X177949778Y-121566546D01*
X177783864Y-121165995D01*
X177537745Y-121091861D01*
X176709605Y-121920000D01*
X176350395Y-121920000D01*
X175522255Y-121091861D01*
X175387000Y-121132601D01*
X175387000Y-120912255D01*
X175701861Y-120912255D01*
X176530000Y-121740395D01*
X177358139Y-120912255D01*
X177284005Y-120666136D01*
X176746777Y-120473035D01*
X176176546Y-120500222D01*
X175775995Y-120666136D01*
X175701861Y-120912255D01*
X175387000Y-120912255D01*
X175387000Y-119507000D01*
X181483000Y-119507000D01*
X181483000Y-120410000D01*
G36*
X182617745Y-116358139D02*
X182863864Y-116284005D01*
X183056965Y-115746777D01*
X183054592Y-115697000D01*
X195421332Y-115697000D01*
X195430222Y-115883454D01*
X195596136Y-116284005D01*
X195842255Y-116358139D01*
X196503395Y-115697000D01*
X197196605Y-115697000D01*
X197857745Y-116358139D01*
X197993000Y-116317399D01*
X197993000Y-116713000D01*
X197625350Y-116713000D01*
X197678139Y-116537745D01*
X196850000Y-115709605D01*
X196021861Y-116537745D01*
X196074650Y-116713000D01*
X191770000Y-116713000D01*
X191720590Y-116723006D01*
X191678965Y-116751447D01*
X191651685Y-116793841D01*
X191643000Y-116840000D01*
X191643000Y-117983000D01*
X186690000Y-117983000D01*
X186640590Y-117993006D01*
X186598965Y-118021447D01*
X186571685Y-118063841D01*
X186563000Y-118110000D01*
X186563000Y-124333000D01*
X183007000Y-124333000D01*
X183007000Y-123155823D01*
X183073994Y-123057774D01*
X183112914Y-123096694D01*
X183227546Y-122982062D01*
X183310884Y-123235953D01*
X183875306Y-123441590D01*
X184475458Y-123415579D01*
X184909116Y-123235953D01*
X184992455Y-122982060D01*
X184110000Y-122099605D01*
X184095858Y-122113748D01*
X183916253Y-121934143D01*
X183930395Y-121920000D01*
X184289605Y-121920000D01*
X185172060Y-122802455D01*
X185425953Y-122719116D01*
X185631590Y-122154694D01*
X185605579Y-121554542D01*
X185425953Y-121120884D01*
X185172060Y-121037545D01*
X184289605Y-121920000D01*
X183930395Y-121920000D01*
X183916253Y-121905858D01*
X184095858Y-121726253D01*
X184110000Y-121740395D01*
X184992455Y-120857940D01*
X184909116Y-120604047D01*
X184344694Y-120398410D01*
X183744542Y-120424421D01*
X183310884Y-120604047D01*
X183227546Y-120857938D01*
X183112914Y-120743306D01*
X183071864Y-120784356D01*
X183007000Y-120683554D01*
X183007000Y-118110000D01*
X182996994Y-118060590D01*
X182968553Y-118018965D01*
X182926159Y-117991685D01*
X182880000Y-117983000D01*
X180467000Y-117983000D01*
X180467000Y-116537745D01*
X180781861Y-116537745D01*
X180855995Y-116783864D01*
X181393223Y-116976965D01*
X181963454Y-116949778D01*
X182364005Y-116783864D01*
X182438139Y-116537745D01*
X181610000Y-115709605D01*
X180781861Y-116537745D01*
X180467000Y-116537745D01*
X180467000Y-116317399D01*
X180602255Y-116358139D01*
X181263395Y-115697000D01*
X181956605Y-115697000D01*
X182617745Y-116358139D01*
X182617745Y-116358139D01*
G37*
X182617745Y-116358139D02*
X182863864Y-116284005D01*
X183056965Y-115746777D01*
X183054592Y-115697000D01*
X195421332Y-115697000D01*
X195430222Y-115883454D01*
X195596136Y-116284005D01*
X195842255Y-116358139D01*
X196503395Y-115697000D01*
X197196605Y-115697000D01*
X197857745Y-116358139D01*
X197993000Y-116317399D01*
X197993000Y-116713000D01*
X197625350Y-116713000D01*
X197678139Y-116537745D01*
X196850000Y-115709605D01*
X196021861Y-116537745D01*
X196074650Y-116713000D01*
X191770000Y-116713000D01*
X191720590Y-116723006D01*
X191678965Y-116751447D01*
X191651685Y-116793841D01*
X191643000Y-116840000D01*
X191643000Y-117983000D01*
X186690000Y-117983000D01*
X186640590Y-117993006D01*
X186598965Y-118021447D01*
X186571685Y-118063841D01*
X186563000Y-118110000D01*
X186563000Y-124333000D01*
X183007000Y-124333000D01*
X183007000Y-123155823D01*
X183073994Y-123057774D01*
X183112914Y-123096694D01*
X183227546Y-122982062D01*
X183310884Y-123235953D01*
X183875306Y-123441590D01*
X184475458Y-123415579D01*
X184909116Y-123235953D01*
X184992455Y-122982060D01*
X184110000Y-122099605D01*
X184095858Y-122113748D01*
X183916253Y-121934143D01*
X183930395Y-121920000D01*
X184289605Y-121920000D01*
X185172060Y-122802455D01*
X185425953Y-122719116D01*
X185631590Y-122154694D01*
X185605579Y-121554542D01*
X185425953Y-121120884D01*
X185172060Y-121037545D01*
X184289605Y-121920000D01*
X183930395Y-121920000D01*
X183916253Y-121905858D01*
X184095858Y-121726253D01*
X184110000Y-121740395D01*
X184992455Y-120857940D01*
X184909116Y-120604047D01*
X184344694Y-120398410D01*
X183744542Y-120424421D01*
X183310884Y-120604047D01*
X183227546Y-120857938D01*
X183112914Y-120743306D01*
X183071864Y-120784356D01*
X183007000Y-120683554D01*
X183007000Y-118110000D01*
X182996994Y-118060590D01*
X182968553Y-118018965D01*
X182926159Y-117991685D01*
X182880000Y-117983000D01*
X180467000Y-117983000D01*
X180467000Y-116537745D01*
X180781861Y-116537745D01*
X180855995Y-116783864D01*
X181393223Y-116976965D01*
X181963454Y-116949778D01*
X182364005Y-116783864D01*
X182438139Y-116537745D01*
X181610000Y-115709605D01*
X180781861Y-116537745D01*
X180467000Y-116537745D01*
X180467000Y-116317399D01*
X180602255Y-116358139D01*
X181263395Y-115697000D01*
X181956605Y-115697000D01*
X182617745Y-116358139D01*
M02*
