G04 #@! TF.FileFunction,Copper,L1,Top,Signal*
%FSLAX46Y46*%
G04 Gerber Fmt 4.6, Leading zero omitted, Abs format (unit mm)*
G04 Created by KiCad (PCBNEW 4.0.7) date 01/05/18 14:47:57*
%MOMM*%
%LPD*%
G01*
G04 APERTURE LIST*
%ADD10C,0.100000*%
%ADD11C,1.600000*%
%ADD12O,1.600000X1.600000*%
%ADD13R,4.600000X1.100000*%
%ADD14R,9.400000X10.800000*%
%ADD15R,4.550000X5.250000*%
%ADD16C,1.520000*%
%ADD17R,1.520000X1.520000*%
%ADD18C,2.000000*%
%ADD19R,2.800000X2.800000*%
%ADD20O,2.800000X2.800000*%
%ADD21C,5.999480*%
%ADD22R,1.750000X1.750000*%
%ADD23C,1.750000*%
%ADD24C,0.812800*%
%ADD25C,0.254000*%
G04 APERTURE END LIST*
D10*
D11*
X132080000Y-85090000D03*
D12*
X129540000Y-85090000D03*
D13*
X127695000Y-80010000D03*
X127695000Y-74930000D03*
D14*
X118545000Y-77470000D03*
D15*
X116120000Y-74695000D03*
X120970000Y-80245000D03*
X116120000Y-80245000D03*
X120970000Y-74695000D03*
D16*
X153670000Y-109220000D03*
X151130000Y-109220000D03*
D17*
X156210000Y-109220000D03*
D11*
X148590000Y-109220000D03*
D12*
X146050000Y-109220000D03*
D18*
X110490000Y-72390000D03*
X99090000Y-72390000D03*
D19*
X132080000Y-124460000D03*
D20*
X132080000Y-129540000D03*
D19*
X137160000Y-121920000D03*
D20*
X142240000Y-121920000D03*
D19*
X154940000Y-121920000D03*
D20*
X149860000Y-121920000D03*
D19*
X160020000Y-124460000D03*
D20*
X160020000Y-129540000D03*
D19*
X121920000Y-68580000D03*
D20*
X127000000Y-68580000D03*
D19*
X151130000Y-68580000D03*
D20*
X156210000Y-68580000D03*
D19*
X121920000Y-48260000D03*
D20*
X127000000Y-48260000D03*
D19*
X151130000Y-48260000D03*
D20*
X156210000Y-48260000D03*
D21*
X166370000Y-77470000D03*
X90170000Y-59690000D03*
X135890000Y-77470000D03*
X135890000Y-57150000D03*
X90170000Y-72390000D03*
X166370000Y-58420000D03*
D16*
X133350000Y-110490000D03*
X133350000Y-113030000D03*
D17*
X133350000Y-107950000D03*
D16*
X133350000Y-104140000D03*
X130810000Y-104140000D03*
D17*
X135890000Y-104140000D03*
D16*
X158750000Y-92710000D03*
X158750000Y-90170000D03*
D17*
X158750000Y-95250000D03*
D16*
X129540000Y-92710000D03*
X129540000Y-90170000D03*
D17*
X129540000Y-95250000D03*
D16*
X138430000Y-92710000D03*
X138430000Y-90170000D03*
D17*
X138430000Y-95250000D03*
D16*
X139700000Y-110490000D03*
X139700000Y-107950000D03*
D17*
X139700000Y-113030000D03*
D16*
X152400000Y-93980000D03*
X152400000Y-91440000D03*
D17*
X152400000Y-96520000D03*
D16*
X144780000Y-92710000D03*
X144780000Y-90170000D03*
D17*
X144780000Y-95250000D03*
D13*
X155635000Y-80010000D03*
X155635000Y-74930000D03*
D14*
X146485000Y-77470000D03*
D15*
X144060000Y-74695000D03*
X148910000Y-80245000D03*
X144060000Y-80245000D03*
X148910000Y-74695000D03*
D13*
X127695000Y-59690000D03*
X127695000Y-54610000D03*
D14*
X118545000Y-57150000D03*
D15*
X116120000Y-54375000D03*
X120970000Y-59925000D03*
X116120000Y-59925000D03*
X120970000Y-54375000D03*
D13*
X155635000Y-59690000D03*
X155635000Y-54610000D03*
D14*
X146485000Y-57150000D03*
D15*
X144060000Y-54375000D03*
X148910000Y-59925000D03*
X144060000Y-59925000D03*
X148910000Y-54375000D03*
D11*
X157480000Y-104140000D03*
D12*
X160020000Y-104140000D03*
D11*
X152400000Y-113030000D03*
D12*
X154940000Y-113030000D03*
D11*
X152400000Y-104140000D03*
D12*
X154940000Y-104140000D03*
D11*
X129540000Y-113030000D03*
D12*
X129540000Y-115570000D03*
D11*
X144780000Y-113030000D03*
D12*
X147320000Y-113030000D03*
D11*
X157480000Y-99060000D03*
D12*
X160020000Y-99060000D03*
D11*
X144780000Y-101600000D03*
D12*
X147320000Y-101600000D03*
D11*
X152400000Y-99060000D03*
D12*
X154940000Y-99060000D03*
D11*
X144780000Y-105410000D03*
D12*
X147320000Y-105410000D03*
D11*
X160020000Y-109220000D03*
D12*
X160020000Y-111760000D03*
D11*
X161290000Y-85090000D03*
D12*
X158750000Y-85090000D03*
D11*
X130810000Y-63500000D03*
D12*
X128270000Y-63500000D03*
D11*
X161290000Y-63500000D03*
D12*
X158750000Y-63500000D03*
D18*
X110490000Y-53340000D03*
X99090000Y-53340000D03*
X110490000Y-59690000D03*
X99090000Y-59690000D03*
X110490000Y-66040000D03*
X99090000Y-66040000D03*
X110490000Y-78740000D03*
X99090000Y-78740000D03*
D22*
X151130000Y-129540000D03*
D23*
X148630000Y-129540000D03*
X146130000Y-129540000D03*
X143630000Y-129540000D03*
X141130000Y-129540000D03*
D24*
X132080000Y-124460000D02*
X132080000Y-118110000D01*
X154940000Y-113030000D02*
X160020000Y-113030000D01*
X160020000Y-113030000D02*
X160020000Y-111760000D01*
X154940000Y-113030000D02*
X154940000Y-118110000D01*
X153670000Y-118110000D02*
X132080000Y-118110000D01*
X154940000Y-118110000D02*
X153670000Y-118110000D01*
X129540000Y-115570000D02*
X129540000Y-118110000D01*
X132080000Y-118110000D02*
X130810000Y-118110000D01*
X130810000Y-118110000D02*
X129540000Y-118110000D01*
X132080000Y-129540000D02*
X141130000Y-129540000D01*
X132080000Y-129540000D02*
X132080000Y-130810000D01*
X146050000Y-109220000D02*
X146050000Y-110490000D01*
X147320000Y-111760000D02*
X147320000Y-113030000D01*
X146050000Y-110490000D02*
X147320000Y-111760000D01*
X146050000Y-109220000D02*
X146050000Y-107950000D01*
X147320000Y-106680000D02*
X147320000Y-105410000D01*
X146050000Y-107950000D02*
X147320000Y-106680000D01*
X147320000Y-105410000D02*
X147320000Y-101600000D01*
X143630000Y-129540000D02*
X143630000Y-124580000D01*
X143630000Y-124580000D02*
X142240000Y-121920000D01*
X157480000Y-120650000D02*
X154940000Y-120650000D01*
X154940000Y-120650000D02*
X154940000Y-121920000D01*
X157480000Y-115570000D02*
X162560000Y-115570000D01*
X157480000Y-120650000D02*
X157480000Y-115570000D01*
X162560000Y-114300000D02*
X162560000Y-115570000D01*
X162560000Y-104140000D02*
X160020000Y-104140000D01*
X162560000Y-114300000D02*
X162560000Y-104140000D01*
X148630000Y-129540000D02*
X148630000Y-124420000D01*
X148630000Y-124420000D02*
X149860000Y-121920000D01*
X161290000Y-118110000D02*
X160020000Y-118110000D01*
X160020000Y-118110000D02*
X160020000Y-124460000D01*
X162560000Y-118110000D02*
X161290000Y-118110000D01*
X162560000Y-118110000D02*
X165100000Y-118110000D01*
X165100000Y-99060000D02*
X160020000Y-99060000D01*
X165100000Y-118110000D02*
X165100000Y-99060000D01*
X151130000Y-129540000D02*
X160020000Y-129540000D01*
X121920000Y-68580000D02*
X118110000Y-68580000D01*
X117275000Y-69415000D02*
X118545000Y-77470000D01*
X118110000Y-68580000D02*
X117275000Y-69415000D01*
X110490000Y-72390000D02*
X112195000Y-72390000D01*
X112195000Y-72390000D02*
X118545000Y-77470000D01*
X110490000Y-59690000D02*
X116005000Y-59690000D01*
X116005000Y-59690000D02*
X118545000Y-57150000D01*
X110490000Y-53340000D02*
X110490000Y-59690000D01*
X110490000Y-59690000D02*
X110490000Y-66040000D01*
X110490000Y-66040000D02*
X110490000Y-72390000D01*
X110490000Y-72390000D02*
X110490000Y-78740000D01*
X121920000Y-48260000D02*
X119380000Y-48260000D01*
X118545000Y-49095000D02*
X118545000Y-57150000D01*
X119380000Y-48260000D02*
X118545000Y-49095000D01*
X127695000Y-74930000D02*
X133350000Y-74930000D01*
X133350000Y-74930000D02*
X135890000Y-77470000D01*
X151130000Y-68580000D02*
X147320000Y-68580000D01*
X146485000Y-69415000D02*
X146485000Y-77470000D01*
X147320000Y-68580000D02*
X146485000Y-69415000D01*
X127000000Y-68580000D02*
X127000000Y-74355000D01*
X127000000Y-74355000D02*
X127695000Y-74930000D01*
X135890000Y-77470000D02*
X146485000Y-77470000D01*
X132080000Y-85090000D02*
X135890000Y-85090000D01*
X140970000Y-87630000D02*
X140970000Y-95250000D01*
X138430000Y-87630000D02*
X140970000Y-87630000D01*
X135890000Y-85090000D02*
X138430000Y-87630000D01*
X158750000Y-95250000D02*
X162560000Y-95250000D01*
X162560000Y-95250000D02*
X162560000Y-85090000D01*
X166370000Y-58420000D02*
X162560000Y-54610000D01*
X155635000Y-74930000D02*
X163830000Y-74930000D01*
X163830000Y-74930000D02*
X166370000Y-77470000D01*
X166370000Y-77470000D02*
X166370000Y-85090000D01*
X162560000Y-85090000D02*
X166370000Y-85090000D01*
X161290000Y-85090000D02*
X162560000Y-85090000D01*
X152400000Y-96520000D02*
X149860000Y-96520000D01*
X148590000Y-95250000D02*
X144780000Y-95250000D01*
X149860000Y-96520000D02*
X148590000Y-95250000D01*
X152400000Y-104140000D02*
X152400000Y-106680000D01*
X156210000Y-106680000D02*
X156210000Y-109220000D01*
X152400000Y-106680000D02*
X156210000Y-106680000D01*
X165100000Y-74930000D02*
X166370000Y-77470000D01*
X156210000Y-68580000D02*
X156210000Y-74355000D01*
X156210000Y-74355000D02*
X155635000Y-74930000D01*
X138430000Y-95250000D02*
X140970000Y-95250000D01*
X140970000Y-95250000D02*
X144780000Y-95250000D01*
X166370000Y-58420000D02*
X166370000Y-77470000D01*
X129540000Y-95250000D02*
X138430000Y-95250000D01*
X165100000Y-76200000D02*
X166370000Y-77470000D01*
X155635000Y-54610000D02*
X162560000Y-54610000D01*
X156210000Y-48260000D02*
X156210000Y-54035000D01*
X156210000Y-54035000D02*
X155635000Y-54610000D01*
X127695000Y-54610000D02*
X132080000Y-54610000D01*
X133350000Y-54610000D02*
X135890000Y-57150000D01*
X132080000Y-54610000D02*
X133350000Y-54610000D01*
X135890000Y-57150000D02*
X146485000Y-57150000D01*
X127000000Y-48260000D02*
X127000000Y-54035000D01*
X127000000Y-54035000D02*
X127695000Y-54610000D01*
X151130000Y-48260000D02*
X147320000Y-48260000D01*
X146485000Y-49095000D02*
X146485000Y-57150000D01*
X147320000Y-48260000D02*
X146485000Y-49095000D01*
X90170000Y-72390000D02*
X99090000Y-72390000D01*
X90170000Y-59690000D02*
X99090000Y-59690000D01*
X99090000Y-53340000D02*
X99090000Y-59690000D01*
X99090000Y-59690000D02*
X99090000Y-66040000D01*
X99090000Y-66040000D02*
X99090000Y-72390000D01*
X99090000Y-72390000D02*
X99090000Y-78740000D01*
X133350000Y-113030000D02*
X133350000Y-115570000D01*
X133350000Y-115570000D02*
X134620000Y-115570000D01*
X139700000Y-110490000D02*
X137160000Y-110490000D01*
X137160000Y-110490000D02*
X137160000Y-115570000D01*
X153670000Y-109220000D02*
X153670000Y-110490000D01*
X152400000Y-111760000D02*
X152400000Y-113030000D01*
X153670000Y-110490000D02*
X152400000Y-111760000D01*
X149860000Y-113030000D02*
X152400000Y-113030000D01*
X149860000Y-115570000D02*
X149860000Y-113030000D01*
X134620000Y-115570000D02*
X137160000Y-115570000D01*
X137160000Y-115570000D02*
X137160000Y-115570000D01*
X137160000Y-115570000D02*
X149860000Y-115570000D01*
X155635000Y-80010000D02*
X155635000Y-84515000D01*
X155635000Y-84515000D02*
X156210000Y-85090000D01*
X158750000Y-85090000D02*
X158750000Y-90170000D01*
X148590000Y-109220000D02*
X151130000Y-109220000D01*
X156210000Y-85090000D02*
X158750000Y-85090000D01*
X129540000Y-113030000D02*
X129540000Y-110490000D01*
X128270000Y-110490000D02*
X128270000Y-104140000D01*
X129540000Y-92710000D02*
X127000000Y-92710000D01*
X127000000Y-92710000D02*
X127000000Y-104140000D01*
X127000000Y-104140000D02*
X128270000Y-104140000D01*
X128270000Y-104140000D02*
X130810000Y-104140000D01*
X128270000Y-110490000D02*
X129540000Y-110490000D01*
X129540000Y-110490000D02*
X132080000Y-110490000D01*
X132080000Y-110490000D02*
X133350000Y-110490000D01*
X138430000Y-92710000D02*
X129540000Y-92710000D01*
X149860000Y-100330000D02*
X147320000Y-97790000D01*
X133350000Y-97790000D02*
X133350000Y-100330000D01*
X147320000Y-97790000D02*
X133350000Y-97790000D01*
X133350000Y-104140000D02*
X133350000Y-100330000D01*
X156210000Y-101600000D02*
X156210000Y-104140000D01*
X151130000Y-101600000D02*
X156210000Y-101600000D01*
X149860000Y-100330000D02*
X151130000Y-101600000D01*
X157480000Y-104140000D02*
X156210000Y-104140000D01*
X156210000Y-104140000D02*
X154940000Y-104140000D01*
X152400000Y-91440000D02*
X156210000Y-91440000D01*
X157480000Y-92710000D02*
X158750000Y-92710000D01*
X156210000Y-91440000D02*
X157480000Y-92710000D01*
X144780000Y-92710000D02*
X148590000Y-92710000D01*
X148590000Y-92710000D02*
X148590000Y-91440000D01*
X148590000Y-91440000D02*
X152400000Y-91440000D01*
X129540000Y-85090000D02*
X129540000Y-90170000D01*
X127695000Y-80010000D02*
X127695000Y-85090000D01*
X128270000Y-85090000D02*
X129540000Y-85090000D01*
X127695000Y-85090000D02*
X128270000Y-85090000D01*
X155635000Y-59690000D02*
X155635000Y-60385000D01*
X155635000Y-60385000D02*
X158750000Y-63500000D01*
X139700000Y-107950000D02*
X139700000Y-105410000D01*
X139700000Y-105410000D02*
X140970000Y-105410000D01*
X144780000Y-105410000D02*
X140970000Y-105410000D01*
X128270000Y-63500000D02*
X128270000Y-60265000D01*
X128270000Y-60265000D02*
X127695000Y-59690000D01*
X154940000Y-99060000D02*
X154940000Y-93980000D01*
X154940000Y-93980000D02*
X152400000Y-93980000D01*
X157480000Y-99060000D02*
X154940000Y-99060000D01*
D25*
G36*
X172593000Y-86233000D02*
X162077399Y-86233000D01*
X162118139Y-86097745D01*
X161290000Y-85269605D01*
X160461861Y-86097745D01*
X160502601Y-86233000D01*
X160147000Y-86233000D01*
X160147000Y-85877399D01*
X160282255Y-85918139D01*
X161110395Y-85090000D01*
X161469605Y-85090000D01*
X162297745Y-85918139D01*
X162543864Y-85844005D01*
X162736965Y-85306777D01*
X162709778Y-84736546D01*
X162543864Y-84335995D01*
X162297745Y-84261861D01*
X161469605Y-85090000D01*
X161110395Y-85090000D01*
X160282255Y-84261861D01*
X160147000Y-84302601D01*
X160147000Y-84082255D01*
X160461861Y-84082255D01*
X161290000Y-84910395D01*
X162118139Y-84082255D01*
X162044005Y-83836136D01*
X161506777Y-83643035D01*
X160936546Y-83670222D01*
X160535995Y-83836136D01*
X160461861Y-84082255D01*
X160147000Y-84082255D01*
X160147000Y-80066443D01*
X163953162Y-80066443D01*
X164295723Y-80541063D01*
X165628863Y-81101084D01*
X167074834Y-81108305D01*
X168413501Y-80561627D01*
X168444277Y-80541063D01*
X168786838Y-80066443D01*
X166370000Y-77649605D01*
X163953162Y-80066443D01*
X160147000Y-80066443D01*
X160147000Y-78174834D01*
X162731695Y-78174834D01*
X163278373Y-79513501D01*
X163298937Y-79544277D01*
X163773557Y-79886838D01*
X166190395Y-77470000D01*
X166549605Y-77470000D01*
X168966443Y-79886838D01*
X169441063Y-79544277D01*
X170001084Y-78211137D01*
X170008305Y-76765166D01*
X169461627Y-75426499D01*
X169441063Y-75395723D01*
X168966443Y-75053162D01*
X166549605Y-77470000D01*
X166190395Y-77470000D01*
X163773557Y-75053162D01*
X163298937Y-75395723D01*
X162738916Y-76728863D01*
X162731695Y-78174834D01*
X160147000Y-78174834D01*
X160147000Y-77470000D01*
X160136994Y-77420590D01*
X160108553Y-77378965D01*
X160066159Y-77351685D01*
X160020000Y-77343000D01*
X155067000Y-77343000D01*
X155067000Y-76115000D01*
X155349250Y-76115000D01*
X155508000Y-75956250D01*
X155508000Y-75057000D01*
X155762000Y-75057000D01*
X155762000Y-75956250D01*
X155920750Y-76115000D01*
X158061309Y-76115000D01*
X158294698Y-76018327D01*
X158473327Y-75839699D01*
X158570000Y-75606310D01*
X158570000Y-75215750D01*
X158411250Y-75057000D01*
X155762000Y-75057000D01*
X155508000Y-75057000D01*
X155488000Y-75057000D01*
X155488000Y-74873557D01*
X163953162Y-74873557D01*
X166370000Y-77290395D01*
X168786838Y-74873557D01*
X168444277Y-74398937D01*
X167111137Y-73838916D01*
X165665166Y-73831695D01*
X164326499Y-74378373D01*
X164295723Y-74398937D01*
X163953162Y-74873557D01*
X155488000Y-74873557D01*
X155488000Y-74803000D01*
X155508000Y-74803000D01*
X155508000Y-73903750D01*
X155762000Y-73903750D01*
X155762000Y-74803000D01*
X158411250Y-74803000D01*
X158570000Y-74644250D01*
X158570000Y-74253690D01*
X158473327Y-74020301D01*
X158294698Y-73841673D01*
X158061309Y-73745000D01*
X155920750Y-73745000D01*
X155762000Y-73903750D01*
X155508000Y-73903750D01*
X155349250Y-73745000D01*
X155067000Y-73745000D01*
X155067000Y-70257093D01*
X155766839Y-70566167D01*
X156083000Y-70452290D01*
X156083000Y-68707000D01*
X156337000Y-68707000D01*
X156337000Y-70452290D01*
X156653161Y-70566167D01*
X157379501Y-70245389D01*
X157927795Y-69671070D01*
X158196160Y-69023160D01*
X158081947Y-68707000D01*
X156337000Y-68707000D01*
X156083000Y-68707000D01*
X156063000Y-68707000D01*
X156063000Y-68453000D01*
X156083000Y-68453000D01*
X156083000Y-66707710D01*
X156337000Y-66707710D01*
X156337000Y-68453000D01*
X158081947Y-68453000D01*
X158196160Y-68136840D01*
X157927795Y-67488930D01*
X157379501Y-66914611D01*
X156653161Y-66593833D01*
X156337000Y-66707710D01*
X156083000Y-66707710D01*
X155766839Y-66593833D01*
X155067000Y-66902907D01*
X155067000Y-66167000D01*
X160020000Y-66167000D01*
X160069410Y-66156994D01*
X160111035Y-66128553D01*
X160138315Y-66086159D01*
X160147000Y-66040000D01*
X160147000Y-64507745D01*
X160461861Y-64507745D01*
X160535995Y-64753864D01*
X161073223Y-64946965D01*
X161643454Y-64919778D01*
X162044005Y-64753864D01*
X162118139Y-64507745D01*
X161290000Y-63679605D01*
X160461861Y-64507745D01*
X160147000Y-64507745D01*
X160147000Y-64287399D01*
X160282255Y-64328139D01*
X161110395Y-63500000D01*
X161469605Y-63500000D01*
X162297745Y-64328139D01*
X162543864Y-64254005D01*
X162736965Y-63716777D01*
X162709778Y-63146546D01*
X162543864Y-62745995D01*
X162297745Y-62671861D01*
X161469605Y-63500000D01*
X161110395Y-63500000D01*
X160282255Y-62671861D01*
X160147000Y-62712601D01*
X160147000Y-62492255D01*
X160461861Y-62492255D01*
X161290000Y-63320395D01*
X162118139Y-62492255D01*
X162044005Y-62246136D01*
X161506777Y-62053035D01*
X160936546Y-62080222D01*
X160535995Y-62246136D01*
X160461861Y-62492255D01*
X160147000Y-62492255D01*
X160147000Y-61016443D01*
X163953162Y-61016443D01*
X164295723Y-61491063D01*
X165628863Y-62051084D01*
X167074834Y-62058305D01*
X168413501Y-61511627D01*
X168444277Y-61491063D01*
X168786838Y-61016443D01*
X166370000Y-58599605D01*
X163953162Y-61016443D01*
X160147000Y-61016443D01*
X160147000Y-59124834D01*
X162731695Y-59124834D01*
X163278373Y-60463501D01*
X163298937Y-60494277D01*
X163773557Y-60836838D01*
X166190395Y-58420000D01*
X166549605Y-58420000D01*
X168966443Y-60836838D01*
X169441063Y-60494277D01*
X170001084Y-59161137D01*
X170008305Y-57715166D01*
X169461627Y-56376499D01*
X169441063Y-56345723D01*
X168966443Y-56003162D01*
X166549605Y-58420000D01*
X166190395Y-58420000D01*
X163773557Y-56003162D01*
X163298937Y-56345723D01*
X162738916Y-57678863D01*
X162731695Y-59124834D01*
X160147000Y-59124834D01*
X160147000Y-57150000D01*
X160136994Y-57100590D01*
X160108553Y-57058965D01*
X160066159Y-57031685D01*
X160020000Y-57023000D01*
X155067000Y-57023000D01*
X155067000Y-55823557D01*
X163953162Y-55823557D01*
X166370000Y-58240395D01*
X168786838Y-55823557D01*
X168444277Y-55348937D01*
X167111137Y-54788916D01*
X165665166Y-54781695D01*
X164326499Y-55328373D01*
X164295723Y-55348937D01*
X163953162Y-55823557D01*
X155067000Y-55823557D01*
X155067000Y-55795000D01*
X155349250Y-55795000D01*
X155508000Y-55636250D01*
X155508000Y-54737000D01*
X155762000Y-54737000D01*
X155762000Y-55636250D01*
X155920750Y-55795000D01*
X158061309Y-55795000D01*
X158294698Y-55698327D01*
X158473327Y-55519699D01*
X158570000Y-55286310D01*
X158570000Y-54895750D01*
X158411250Y-54737000D01*
X155762000Y-54737000D01*
X155508000Y-54737000D01*
X155488000Y-54737000D01*
X155488000Y-54483000D01*
X155508000Y-54483000D01*
X155508000Y-53583750D01*
X155762000Y-53583750D01*
X155762000Y-54483000D01*
X158411250Y-54483000D01*
X158570000Y-54324250D01*
X158570000Y-53933690D01*
X158473327Y-53700301D01*
X158294698Y-53521673D01*
X158061309Y-53425000D01*
X155920750Y-53425000D01*
X155762000Y-53583750D01*
X155508000Y-53583750D01*
X155349250Y-53425000D01*
X155067000Y-53425000D01*
X155067000Y-49937093D01*
X155766839Y-50246167D01*
X156083000Y-50132290D01*
X156083000Y-48387000D01*
X156337000Y-48387000D01*
X156337000Y-50132290D01*
X156653161Y-50246167D01*
X157379501Y-49925389D01*
X157927795Y-49351070D01*
X158196160Y-48703160D01*
X158081947Y-48387000D01*
X156337000Y-48387000D01*
X156083000Y-48387000D01*
X156063000Y-48387000D01*
X156063000Y-48133000D01*
X156083000Y-48133000D01*
X156083000Y-46387710D01*
X156337000Y-46387710D01*
X156337000Y-48133000D01*
X158081947Y-48133000D01*
X158196160Y-47816840D01*
X157927795Y-47168930D01*
X157379501Y-46594611D01*
X156653161Y-46273833D01*
X156337000Y-46387710D01*
X156083000Y-46387710D01*
X155766839Y-46273833D01*
X155067000Y-46582907D01*
X155067000Y-45847000D01*
X172593000Y-45847000D01*
X172593000Y-86233000D01*
X172593000Y-86233000D01*
G37*
X172593000Y-86233000D02*
X162077399Y-86233000D01*
X162118139Y-86097745D01*
X161290000Y-85269605D01*
X160461861Y-86097745D01*
X160502601Y-86233000D01*
X160147000Y-86233000D01*
X160147000Y-85877399D01*
X160282255Y-85918139D01*
X161110395Y-85090000D01*
X161469605Y-85090000D01*
X162297745Y-85918139D01*
X162543864Y-85844005D01*
X162736965Y-85306777D01*
X162709778Y-84736546D01*
X162543864Y-84335995D01*
X162297745Y-84261861D01*
X161469605Y-85090000D01*
X161110395Y-85090000D01*
X160282255Y-84261861D01*
X160147000Y-84302601D01*
X160147000Y-84082255D01*
X160461861Y-84082255D01*
X161290000Y-84910395D01*
X162118139Y-84082255D01*
X162044005Y-83836136D01*
X161506777Y-83643035D01*
X160936546Y-83670222D01*
X160535995Y-83836136D01*
X160461861Y-84082255D01*
X160147000Y-84082255D01*
X160147000Y-80066443D01*
X163953162Y-80066443D01*
X164295723Y-80541063D01*
X165628863Y-81101084D01*
X167074834Y-81108305D01*
X168413501Y-80561627D01*
X168444277Y-80541063D01*
X168786838Y-80066443D01*
X166370000Y-77649605D01*
X163953162Y-80066443D01*
X160147000Y-80066443D01*
X160147000Y-78174834D01*
X162731695Y-78174834D01*
X163278373Y-79513501D01*
X163298937Y-79544277D01*
X163773557Y-79886838D01*
X166190395Y-77470000D01*
X166549605Y-77470000D01*
X168966443Y-79886838D01*
X169441063Y-79544277D01*
X170001084Y-78211137D01*
X170008305Y-76765166D01*
X169461627Y-75426499D01*
X169441063Y-75395723D01*
X168966443Y-75053162D01*
X166549605Y-77470000D01*
X166190395Y-77470000D01*
X163773557Y-75053162D01*
X163298937Y-75395723D01*
X162738916Y-76728863D01*
X162731695Y-78174834D01*
X160147000Y-78174834D01*
X160147000Y-77470000D01*
X160136994Y-77420590D01*
X160108553Y-77378965D01*
X160066159Y-77351685D01*
X160020000Y-77343000D01*
X155067000Y-77343000D01*
X155067000Y-76115000D01*
X155349250Y-76115000D01*
X155508000Y-75956250D01*
X155508000Y-75057000D01*
X155762000Y-75057000D01*
X155762000Y-75956250D01*
X155920750Y-76115000D01*
X158061309Y-76115000D01*
X158294698Y-76018327D01*
X158473327Y-75839699D01*
X158570000Y-75606310D01*
X158570000Y-75215750D01*
X158411250Y-75057000D01*
X155762000Y-75057000D01*
X155508000Y-75057000D01*
X155488000Y-75057000D01*
X155488000Y-74873557D01*
X163953162Y-74873557D01*
X166370000Y-77290395D01*
X168786838Y-74873557D01*
X168444277Y-74398937D01*
X167111137Y-73838916D01*
X165665166Y-73831695D01*
X164326499Y-74378373D01*
X164295723Y-74398937D01*
X163953162Y-74873557D01*
X155488000Y-74873557D01*
X155488000Y-74803000D01*
X155508000Y-74803000D01*
X155508000Y-73903750D01*
X155762000Y-73903750D01*
X155762000Y-74803000D01*
X158411250Y-74803000D01*
X158570000Y-74644250D01*
X158570000Y-74253690D01*
X158473327Y-74020301D01*
X158294698Y-73841673D01*
X158061309Y-73745000D01*
X155920750Y-73745000D01*
X155762000Y-73903750D01*
X155508000Y-73903750D01*
X155349250Y-73745000D01*
X155067000Y-73745000D01*
X155067000Y-70257093D01*
X155766839Y-70566167D01*
X156083000Y-70452290D01*
X156083000Y-68707000D01*
X156337000Y-68707000D01*
X156337000Y-70452290D01*
X156653161Y-70566167D01*
X157379501Y-70245389D01*
X157927795Y-69671070D01*
X158196160Y-69023160D01*
X158081947Y-68707000D01*
X156337000Y-68707000D01*
X156083000Y-68707000D01*
X156063000Y-68707000D01*
X156063000Y-68453000D01*
X156083000Y-68453000D01*
X156083000Y-66707710D01*
X156337000Y-66707710D01*
X156337000Y-68453000D01*
X158081947Y-68453000D01*
X158196160Y-68136840D01*
X157927795Y-67488930D01*
X157379501Y-66914611D01*
X156653161Y-66593833D01*
X156337000Y-66707710D01*
X156083000Y-66707710D01*
X155766839Y-66593833D01*
X155067000Y-66902907D01*
X155067000Y-66167000D01*
X160020000Y-66167000D01*
X160069410Y-66156994D01*
X160111035Y-66128553D01*
X160138315Y-66086159D01*
X160147000Y-66040000D01*
X160147000Y-64507745D01*
X160461861Y-64507745D01*
X160535995Y-64753864D01*
X161073223Y-64946965D01*
X161643454Y-64919778D01*
X162044005Y-64753864D01*
X162118139Y-64507745D01*
X161290000Y-63679605D01*
X160461861Y-64507745D01*
X160147000Y-64507745D01*
X160147000Y-64287399D01*
X160282255Y-64328139D01*
X161110395Y-63500000D01*
X161469605Y-63500000D01*
X162297745Y-64328139D01*
X162543864Y-64254005D01*
X162736965Y-63716777D01*
X162709778Y-63146546D01*
X162543864Y-62745995D01*
X162297745Y-62671861D01*
X161469605Y-63500000D01*
X161110395Y-63500000D01*
X160282255Y-62671861D01*
X160147000Y-62712601D01*
X160147000Y-62492255D01*
X160461861Y-62492255D01*
X161290000Y-63320395D01*
X162118139Y-62492255D01*
X162044005Y-62246136D01*
X161506777Y-62053035D01*
X160936546Y-62080222D01*
X160535995Y-62246136D01*
X160461861Y-62492255D01*
X160147000Y-62492255D01*
X160147000Y-61016443D01*
X163953162Y-61016443D01*
X164295723Y-61491063D01*
X165628863Y-62051084D01*
X167074834Y-62058305D01*
X168413501Y-61511627D01*
X168444277Y-61491063D01*
X168786838Y-61016443D01*
X166370000Y-58599605D01*
X163953162Y-61016443D01*
X160147000Y-61016443D01*
X160147000Y-59124834D01*
X162731695Y-59124834D01*
X163278373Y-60463501D01*
X163298937Y-60494277D01*
X163773557Y-60836838D01*
X166190395Y-58420000D01*
X166549605Y-58420000D01*
X168966443Y-60836838D01*
X169441063Y-60494277D01*
X170001084Y-59161137D01*
X170008305Y-57715166D01*
X169461627Y-56376499D01*
X169441063Y-56345723D01*
X168966443Y-56003162D01*
X166549605Y-58420000D01*
X166190395Y-58420000D01*
X163773557Y-56003162D01*
X163298937Y-56345723D01*
X162738916Y-57678863D01*
X162731695Y-59124834D01*
X160147000Y-59124834D01*
X160147000Y-57150000D01*
X160136994Y-57100590D01*
X160108553Y-57058965D01*
X160066159Y-57031685D01*
X160020000Y-57023000D01*
X155067000Y-57023000D01*
X155067000Y-55823557D01*
X163953162Y-55823557D01*
X166370000Y-58240395D01*
X168786838Y-55823557D01*
X168444277Y-55348937D01*
X167111137Y-54788916D01*
X165665166Y-54781695D01*
X164326499Y-55328373D01*
X164295723Y-55348937D01*
X163953162Y-55823557D01*
X155067000Y-55823557D01*
X155067000Y-55795000D01*
X155349250Y-55795000D01*
X155508000Y-55636250D01*
X155508000Y-54737000D01*
X155762000Y-54737000D01*
X155762000Y-55636250D01*
X155920750Y-55795000D01*
X158061309Y-55795000D01*
X158294698Y-55698327D01*
X158473327Y-55519699D01*
X158570000Y-55286310D01*
X158570000Y-54895750D01*
X158411250Y-54737000D01*
X155762000Y-54737000D01*
X155508000Y-54737000D01*
X155488000Y-54737000D01*
X155488000Y-54483000D01*
X155508000Y-54483000D01*
X155508000Y-53583750D01*
X155762000Y-53583750D01*
X155762000Y-54483000D01*
X158411250Y-54483000D01*
X158570000Y-54324250D01*
X158570000Y-53933690D01*
X158473327Y-53700301D01*
X158294698Y-53521673D01*
X158061309Y-53425000D01*
X155920750Y-53425000D01*
X155762000Y-53583750D01*
X155508000Y-53583750D01*
X155349250Y-53425000D01*
X155067000Y-53425000D01*
X155067000Y-49937093D01*
X155766839Y-50246167D01*
X156083000Y-50132290D01*
X156083000Y-48387000D01*
X156337000Y-48387000D01*
X156337000Y-50132290D01*
X156653161Y-50246167D01*
X157379501Y-49925389D01*
X157927795Y-49351070D01*
X158196160Y-48703160D01*
X158081947Y-48387000D01*
X156337000Y-48387000D01*
X156083000Y-48387000D01*
X156063000Y-48387000D01*
X156063000Y-48133000D01*
X156083000Y-48133000D01*
X156083000Y-46387710D01*
X156337000Y-46387710D01*
X156337000Y-48133000D01*
X158081947Y-48133000D01*
X158196160Y-47816840D01*
X157927795Y-47168930D01*
X157379501Y-46594611D01*
X156653161Y-46273833D01*
X156337000Y-46387710D01*
X156083000Y-46387710D01*
X155766839Y-46273833D01*
X155067000Y-46582907D01*
X155067000Y-45847000D01*
X172593000Y-45847000D01*
X172593000Y-86233000D01*
G36*
X123063000Y-46225000D02*
X122205750Y-46225000D01*
X122047000Y-46383750D01*
X122047000Y-48133000D01*
X122067000Y-48133000D01*
X122067000Y-48387000D01*
X122047000Y-48387000D01*
X122047000Y-50136250D01*
X122205750Y-50295000D01*
X123063000Y-50295000D01*
X123063000Y-51115000D01*
X118568691Y-51115000D01*
X118545000Y-51124813D01*
X118521309Y-51115000D01*
X113718691Y-51115000D01*
X113485302Y-51211673D01*
X113306673Y-51390301D01*
X113210000Y-51623690D01*
X113210000Y-57126310D01*
X113219813Y-57150000D01*
X113210000Y-57173690D01*
X113210000Y-62676310D01*
X113306673Y-62909699D01*
X113485302Y-63088327D01*
X113718691Y-63185000D01*
X118521309Y-63185000D01*
X118545000Y-63175187D01*
X118568691Y-63185000D01*
X123063000Y-63185000D01*
X123063000Y-66545000D01*
X122205750Y-66545000D01*
X122047000Y-66703750D01*
X122047000Y-68453000D01*
X122067000Y-68453000D01*
X122067000Y-68707000D01*
X122047000Y-68707000D01*
X122047000Y-70456250D01*
X122205750Y-70615000D01*
X123063000Y-70615000D01*
X123063000Y-71435000D01*
X118568691Y-71435000D01*
X118545000Y-71444813D01*
X118521309Y-71435000D01*
X113718691Y-71435000D01*
X113485302Y-71531673D01*
X113306673Y-71710301D01*
X113210000Y-71943690D01*
X113210000Y-77446310D01*
X113219813Y-77470000D01*
X113210000Y-77493690D01*
X113210000Y-82996310D01*
X113306673Y-83229699D01*
X113485302Y-83408327D01*
X113718691Y-83505000D01*
X118521309Y-83505000D01*
X118545000Y-83495187D01*
X118568691Y-83505000D01*
X123063000Y-83505000D01*
X123063000Y-83693000D01*
X106807000Y-83693000D01*
X106807000Y-79892532D01*
X109517073Y-79892532D01*
X109615736Y-80159387D01*
X110225461Y-80385908D01*
X110875460Y-80361856D01*
X111364264Y-80159387D01*
X111462927Y-79892532D01*
X110490000Y-78919605D01*
X109517073Y-79892532D01*
X106807000Y-79892532D01*
X106807000Y-78475461D01*
X108844092Y-78475461D01*
X108868144Y-79125460D01*
X109070613Y-79614264D01*
X109337468Y-79712927D01*
X110310395Y-78740000D01*
X110669605Y-78740000D01*
X111642532Y-79712927D01*
X111909387Y-79614264D01*
X112135908Y-79004539D01*
X112111856Y-78354540D01*
X111909387Y-77865736D01*
X111642532Y-77767073D01*
X110669605Y-78740000D01*
X110310395Y-78740000D01*
X109337468Y-77767073D01*
X109070613Y-77865736D01*
X108844092Y-78475461D01*
X106807000Y-78475461D01*
X106807000Y-77587468D01*
X109517073Y-77587468D01*
X110490000Y-78560395D01*
X111462927Y-77587468D01*
X111364264Y-77320613D01*
X110754539Y-77094092D01*
X110104540Y-77118144D01*
X109615736Y-77320613D01*
X109517073Y-77587468D01*
X106807000Y-77587468D01*
X106807000Y-73542532D01*
X109517073Y-73542532D01*
X109615736Y-73809387D01*
X110225461Y-74035908D01*
X110875460Y-74011856D01*
X111364264Y-73809387D01*
X111462927Y-73542532D01*
X110490000Y-72569605D01*
X109517073Y-73542532D01*
X106807000Y-73542532D01*
X106807000Y-72125461D01*
X108844092Y-72125461D01*
X108868144Y-72775460D01*
X109070613Y-73264264D01*
X109337468Y-73362927D01*
X110310395Y-72390000D01*
X110669605Y-72390000D01*
X111642532Y-73362927D01*
X111909387Y-73264264D01*
X112135908Y-72654539D01*
X112111856Y-72004540D01*
X111909387Y-71515736D01*
X111642532Y-71417073D01*
X110669605Y-72390000D01*
X110310395Y-72390000D01*
X109337468Y-71417073D01*
X109070613Y-71515736D01*
X108844092Y-72125461D01*
X106807000Y-72125461D01*
X106807000Y-71237468D01*
X109517073Y-71237468D01*
X110490000Y-72210395D01*
X111462927Y-71237468D01*
X111364264Y-70970613D01*
X110754539Y-70744092D01*
X110104540Y-70768144D01*
X109615736Y-70970613D01*
X109517073Y-71237468D01*
X106807000Y-71237468D01*
X106807000Y-68865750D01*
X119885000Y-68865750D01*
X119885000Y-70106310D01*
X119981673Y-70339699D01*
X120160302Y-70518327D01*
X120393691Y-70615000D01*
X121634250Y-70615000D01*
X121793000Y-70456250D01*
X121793000Y-68707000D01*
X120043750Y-68707000D01*
X119885000Y-68865750D01*
X106807000Y-68865750D01*
X106807000Y-67192532D01*
X109517073Y-67192532D01*
X109615736Y-67459387D01*
X110225461Y-67685908D01*
X110875460Y-67661856D01*
X111364264Y-67459387D01*
X111462927Y-67192532D01*
X111324085Y-67053690D01*
X119885000Y-67053690D01*
X119885000Y-68294250D01*
X120043750Y-68453000D01*
X121793000Y-68453000D01*
X121793000Y-66703750D01*
X121634250Y-66545000D01*
X120393691Y-66545000D01*
X120160302Y-66641673D01*
X119981673Y-66820301D01*
X119885000Y-67053690D01*
X111324085Y-67053690D01*
X110490000Y-66219605D01*
X109517073Y-67192532D01*
X106807000Y-67192532D01*
X106807000Y-65775461D01*
X108844092Y-65775461D01*
X108868144Y-66425460D01*
X109070613Y-66914264D01*
X109337468Y-67012927D01*
X110310395Y-66040000D01*
X110669605Y-66040000D01*
X111642532Y-67012927D01*
X111909387Y-66914264D01*
X112135908Y-66304539D01*
X112111856Y-65654540D01*
X111909387Y-65165736D01*
X111642532Y-65067073D01*
X110669605Y-66040000D01*
X110310395Y-66040000D01*
X109337468Y-65067073D01*
X109070613Y-65165736D01*
X108844092Y-65775461D01*
X106807000Y-65775461D01*
X106807000Y-64887468D01*
X109517073Y-64887468D01*
X110490000Y-65860395D01*
X111462927Y-64887468D01*
X111364264Y-64620613D01*
X110754539Y-64394092D01*
X110104540Y-64418144D01*
X109615736Y-64620613D01*
X109517073Y-64887468D01*
X106807000Y-64887468D01*
X106807000Y-60842532D01*
X109517073Y-60842532D01*
X109615736Y-61109387D01*
X110225461Y-61335908D01*
X110875460Y-61311856D01*
X111364264Y-61109387D01*
X111462927Y-60842532D01*
X110490000Y-59869605D01*
X109517073Y-60842532D01*
X106807000Y-60842532D01*
X106807000Y-59425461D01*
X108844092Y-59425461D01*
X108868144Y-60075460D01*
X109070613Y-60564264D01*
X109337468Y-60662927D01*
X110310395Y-59690000D01*
X110669605Y-59690000D01*
X111642532Y-60662927D01*
X111909387Y-60564264D01*
X112135908Y-59954539D01*
X112111856Y-59304540D01*
X111909387Y-58815736D01*
X111642532Y-58717073D01*
X110669605Y-59690000D01*
X110310395Y-59690000D01*
X109337468Y-58717073D01*
X109070613Y-58815736D01*
X108844092Y-59425461D01*
X106807000Y-59425461D01*
X106807000Y-58537468D01*
X109517073Y-58537468D01*
X110490000Y-59510395D01*
X111462927Y-58537468D01*
X111364264Y-58270613D01*
X110754539Y-58044092D01*
X110104540Y-58068144D01*
X109615736Y-58270613D01*
X109517073Y-58537468D01*
X106807000Y-58537468D01*
X106807000Y-54492532D01*
X109517073Y-54492532D01*
X109615736Y-54759387D01*
X110225461Y-54985908D01*
X110875460Y-54961856D01*
X111364264Y-54759387D01*
X111462927Y-54492532D01*
X110490000Y-53519605D01*
X109517073Y-54492532D01*
X106807000Y-54492532D01*
X106807000Y-53075461D01*
X108844092Y-53075461D01*
X108868144Y-53725460D01*
X109070613Y-54214264D01*
X109337468Y-54312927D01*
X110310395Y-53340000D01*
X110669605Y-53340000D01*
X111642532Y-54312927D01*
X111909387Y-54214264D01*
X112135908Y-53604539D01*
X112111856Y-52954540D01*
X111909387Y-52465736D01*
X111642532Y-52367073D01*
X110669605Y-53340000D01*
X110310395Y-53340000D01*
X109337468Y-52367073D01*
X109070613Y-52465736D01*
X108844092Y-53075461D01*
X106807000Y-53075461D01*
X106807000Y-52187468D01*
X109517073Y-52187468D01*
X110490000Y-53160395D01*
X111462927Y-52187468D01*
X111364264Y-51920613D01*
X110754539Y-51694092D01*
X110104540Y-51718144D01*
X109615736Y-51920613D01*
X109517073Y-52187468D01*
X106807000Y-52187468D01*
X106807000Y-48545750D01*
X119885000Y-48545750D01*
X119885000Y-49786310D01*
X119981673Y-50019699D01*
X120160302Y-50198327D01*
X120393691Y-50295000D01*
X121634250Y-50295000D01*
X121793000Y-50136250D01*
X121793000Y-48387000D01*
X120043750Y-48387000D01*
X119885000Y-48545750D01*
X106807000Y-48545750D01*
X106807000Y-46733690D01*
X119885000Y-46733690D01*
X119885000Y-47974250D01*
X120043750Y-48133000D01*
X121793000Y-48133000D01*
X121793000Y-46383750D01*
X121634250Y-46225000D01*
X120393691Y-46225000D01*
X120160302Y-46321673D01*
X119981673Y-46500301D01*
X119885000Y-46733690D01*
X106807000Y-46733690D01*
X106807000Y-45847000D01*
X123063000Y-45847000D01*
X123063000Y-46225000D01*
X123063000Y-46225000D01*
G37*
X123063000Y-46225000D02*
X122205750Y-46225000D01*
X122047000Y-46383750D01*
X122047000Y-48133000D01*
X122067000Y-48133000D01*
X122067000Y-48387000D01*
X122047000Y-48387000D01*
X122047000Y-50136250D01*
X122205750Y-50295000D01*
X123063000Y-50295000D01*
X123063000Y-51115000D01*
X118568691Y-51115000D01*
X118545000Y-51124813D01*
X118521309Y-51115000D01*
X113718691Y-51115000D01*
X113485302Y-51211673D01*
X113306673Y-51390301D01*
X113210000Y-51623690D01*
X113210000Y-57126310D01*
X113219813Y-57150000D01*
X113210000Y-57173690D01*
X113210000Y-62676310D01*
X113306673Y-62909699D01*
X113485302Y-63088327D01*
X113718691Y-63185000D01*
X118521309Y-63185000D01*
X118545000Y-63175187D01*
X118568691Y-63185000D01*
X123063000Y-63185000D01*
X123063000Y-66545000D01*
X122205750Y-66545000D01*
X122047000Y-66703750D01*
X122047000Y-68453000D01*
X122067000Y-68453000D01*
X122067000Y-68707000D01*
X122047000Y-68707000D01*
X122047000Y-70456250D01*
X122205750Y-70615000D01*
X123063000Y-70615000D01*
X123063000Y-71435000D01*
X118568691Y-71435000D01*
X118545000Y-71444813D01*
X118521309Y-71435000D01*
X113718691Y-71435000D01*
X113485302Y-71531673D01*
X113306673Y-71710301D01*
X113210000Y-71943690D01*
X113210000Y-77446310D01*
X113219813Y-77470000D01*
X113210000Y-77493690D01*
X113210000Y-82996310D01*
X113306673Y-83229699D01*
X113485302Y-83408327D01*
X113718691Y-83505000D01*
X118521309Y-83505000D01*
X118545000Y-83495187D01*
X118568691Y-83505000D01*
X123063000Y-83505000D01*
X123063000Y-83693000D01*
X106807000Y-83693000D01*
X106807000Y-79892532D01*
X109517073Y-79892532D01*
X109615736Y-80159387D01*
X110225461Y-80385908D01*
X110875460Y-80361856D01*
X111364264Y-80159387D01*
X111462927Y-79892532D01*
X110490000Y-78919605D01*
X109517073Y-79892532D01*
X106807000Y-79892532D01*
X106807000Y-78475461D01*
X108844092Y-78475461D01*
X108868144Y-79125460D01*
X109070613Y-79614264D01*
X109337468Y-79712927D01*
X110310395Y-78740000D01*
X110669605Y-78740000D01*
X111642532Y-79712927D01*
X111909387Y-79614264D01*
X112135908Y-79004539D01*
X112111856Y-78354540D01*
X111909387Y-77865736D01*
X111642532Y-77767073D01*
X110669605Y-78740000D01*
X110310395Y-78740000D01*
X109337468Y-77767073D01*
X109070613Y-77865736D01*
X108844092Y-78475461D01*
X106807000Y-78475461D01*
X106807000Y-77587468D01*
X109517073Y-77587468D01*
X110490000Y-78560395D01*
X111462927Y-77587468D01*
X111364264Y-77320613D01*
X110754539Y-77094092D01*
X110104540Y-77118144D01*
X109615736Y-77320613D01*
X109517073Y-77587468D01*
X106807000Y-77587468D01*
X106807000Y-73542532D01*
X109517073Y-73542532D01*
X109615736Y-73809387D01*
X110225461Y-74035908D01*
X110875460Y-74011856D01*
X111364264Y-73809387D01*
X111462927Y-73542532D01*
X110490000Y-72569605D01*
X109517073Y-73542532D01*
X106807000Y-73542532D01*
X106807000Y-72125461D01*
X108844092Y-72125461D01*
X108868144Y-72775460D01*
X109070613Y-73264264D01*
X109337468Y-73362927D01*
X110310395Y-72390000D01*
X110669605Y-72390000D01*
X111642532Y-73362927D01*
X111909387Y-73264264D01*
X112135908Y-72654539D01*
X112111856Y-72004540D01*
X111909387Y-71515736D01*
X111642532Y-71417073D01*
X110669605Y-72390000D01*
X110310395Y-72390000D01*
X109337468Y-71417073D01*
X109070613Y-71515736D01*
X108844092Y-72125461D01*
X106807000Y-72125461D01*
X106807000Y-71237468D01*
X109517073Y-71237468D01*
X110490000Y-72210395D01*
X111462927Y-71237468D01*
X111364264Y-70970613D01*
X110754539Y-70744092D01*
X110104540Y-70768144D01*
X109615736Y-70970613D01*
X109517073Y-71237468D01*
X106807000Y-71237468D01*
X106807000Y-68865750D01*
X119885000Y-68865750D01*
X119885000Y-70106310D01*
X119981673Y-70339699D01*
X120160302Y-70518327D01*
X120393691Y-70615000D01*
X121634250Y-70615000D01*
X121793000Y-70456250D01*
X121793000Y-68707000D01*
X120043750Y-68707000D01*
X119885000Y-68865750D01*
X106807000Y-68865750D01*
X106807000Y-67192532D01*
X109517073Y-67192532D01*
X109615736Y-67459387D01*
X110225461Y-67685908D01*
X110875460Y-67661856D01*
X111364264Y-67459387D01*
X111462927Y-67192532D01*
X111324085Y-67053690D01*
X119885000Y-67053690D01*
X119885000Y-68294250D01*
X120043750Y-68453000D01*
X121793000Y-68453000D01*
X121793000Y-66703750D01*
X121634250Y-66545000D01*
X120393691Y-66545000D01*
X120160302Y-66641673D01*
X119981673Y-66820301D01*
X119885000Y-67053690D01*
X111324085Y-67053690D01*
X110490000Y-66219605D01*
X109517073Y-67192532D01*
X106807000Y-67192532D01*
X106807000Y-65775461D01*
X108844092Y-65775461D01*
X108868144Y-66425460D01*
X109070613Y-66914264D01*
X109337468Y-67012927D01*
X110310395Y-66040000D01*
X110669605Y-66040000D01*
X111642532Y-67012927D01*
X111909387Y-66914264D01*
X112135908Y-66304539D01*
X112111856Y-65654540D01*
X111909387Y-65165736D01*
X111642532Y-65067073D01*
X110669605Y-66040000D01*
X110310395Y-66040000D01*
X109337468Y-65067073D01*
X109070613Y-65165736D01*
X108844092Y-65775461D01*
X106807000Y-65775461D01*
X106807000Y-64887468D01*
X109517073Y-64887468D01*
X110490000Y-65860395D01*
X111462927Y-64887468D01*
X111364264Y-64620613D01*
X110754539Y-64394092D01*
X110104540Y-64418144D01*
X109615736Y-64620613D01*
X109517073Y-64887468D01*
X106807000Y-64887468D01*
X106807000Y-60842532D01*
X109517073Y-60842532D01*
X109615736Y-61109387D01*
X110225461Y-61335908D01*
X110875460Y-61311856D01*
X111364264Y-61109387D01*
X111462927Y-60842532D01*
X110490000Y-59869605D01*
X109517073Y-60842532D01*
X106807000Y-60842532D01*
X106807000Y-59425461D01*
X108844092Y-59425461D01*
X108868144Y-60075460D01*
X109070613Y-60564264D01*
X109337468Y-60662927D01*
X110310395Y-59690000D01*
X110669605Y-59690000D01*
X111642532Y-60662927D01*
X111909387Y-60564264D01*
X112135908Y-59954539D01*
X112111856Y-59304540D01*
X111909387Y-58815736D01*
X111642532Y-58717073D01*
X110669605Y-59690000D01*
X110310395Y-59690000D01*
X109337468Y-58717073D01*
X109070613Y-58815736D01*
X108844092Y-59425461D01*
X106807000Y-59425461D01*
X106807000Y-58537468D01*
X109517073Y-58537468D01*
X110490000Y-59510395D01*
X111462927Y-58537468D01*
X111364264Y-58270613D01*
X110754539Y-58044092D01*
X110104540Y-58068144D01*
X109615736Y-58270613D01*
X109517073Y-58537468D01*
X106807000Y-58537468D01*
X106807000Y-54492532D01*
X109517073Y-54492532D01*
X109615736Y-54759387D01*
X110225461Y-54985908D01*
X110875460Y-54961856D01*
X111364264Y-54759387D01*
X111462927Y-54492532D01*
X110490000Y-53519605D01*
X109517073Y-54492532D01*
X106807000Y-54492532D01*
X106807000Y-53075461D01*
X108844092Y-53075461D01*
X108868144Y-53725460D01*
X109070613Y-54214264D01*
X109337468Y-54312927D01*
X110310395Y-53340000D01*
X110669605Y-53340000D01*
X111642532Y-54312927D01*
X111909387Y-54214264D01*
X112135908Y-53604539D01*
X112111856Y-52954540D01*
X111909387Y-52465736D01*
X111642532Y-52367073D01*
X110669605Y-53340000D01*
X110310395Y-53340000D01*
X109337468Y-52367073D01*
X109070613Y-52465736D01*
X108844092Y-53075461D01*
X106807000Y-53075461D01*
X106807000Y-52187468D01*
X109517073Y-52187468D01*
X110490000Y-53160395D01*
X111462927Y-52187468D01*
X111364264Y-51920613D01*
X110754539Y-51694092D01*
X110104540Y-51718144D01*
X109615736Y-51920613D01*
X109517073Y-52187468D01*
X106807000Y-52187468D01*
X106807000Y-48545750D01*
X119885000Y-48545750D01*
X119885000Y-49786310D01*
X119981673Y-50019699D01*
X120160302Y-50198327D01*
X120393691Y-50295000D01*
X121634250Y-50295000D01*
X121793000Y-50136250D01*
X121793000Y-48387000D01*
X120043750Y-48387000D01*
X119885000Y-48545750D01*
X106807000Y-48545750D01*
X106807000Y-46733690D01*
X119885000Y-46733690D01*
X119885000Y-47974250D01*
X120043750Y-48133000D01*
X121793000Y-48133000D01*
X121793000Y-46383750D01*
X121634250Y-46225000D01*
X120393691Y-46225000D01*
X120160302Y-46321673D01*
X119981673Y-46500301D01*
X119885000Y-46733690D01*
X106807000Y-46733690D01*
X106807000Y-45847000D01*
X123063000Y-45847000D01*
X123063000Y-46225000D01*
G36*
X102743000Y-83693000D02*
X85217000Y-83693000D01*
X85217000Y-79892532D01*
X98117073Y-79892532D01*
X98215736Y-80159387D01*
X98825461Y-80385908D01*
X99475460Y-80361856D01*
X99964264Y-80159387D01*
X100062927Y-79892532D01*
X99090000Y-78919605D01*
X98117073Y-79892532D01*
X85217000Y-79892532D01*
X85217000Y-78475461D01*
X97444092Y-78475461D01*
X97468144Y-79125460D01*
X97670613Y-79614264D01*
X97937468Y-79712927D01*
X98910395Y-78740000D01*
X99269605Y-78740000D01*
X100242532Y-79712927D01*
X100509387Y-79614264D01*
X100735908Y-79004539D01*
X100711856Y-78354540D01*
X100509387Y-77865736D01*
X100242532Y-77767073D01*
X99269605Y-78740000D01*
X98910395Y-78740000D01*
X97937468Y-77767073D01*
X97670613Y-77865736D01*
X97444092Y-78475461D01*
X85217000Y-78475461D01*
X85217000Y-77587468D01*
X98117073Y-77587468D01*
X99090000Y-78560395D01*
X100062927Y-77587468D01*
X99964264Y-77320613D01*
X99354539Y-77094092D01*
X98704540Y-77118144D01*
X98215736Y-77320613D01*
X98117073Y-77587468D01*
X85217000Y-77587468D01*
X85217000Y-74986443D01*
X87753162Y-74986443D01*
X88095723Y-75461063D01*
X89428863Y-76021084D01*
X90874834Y-76028305D01*
X92213501Y-75481627D01*
X92244277Y-75461063D01*
X92586838Y-74986443D01*
X90170000Y-72569605D01*
X87753162Y-74986443D01*
X85217000Y-74986443D01*
X85217000Y-73094834D01*
X86531695Y-73094834D01*
X87078373Y-74433501D01*
X87098937Y-74464277D01*
X87573557Y-74806838D01*
X89990395Y-72390000D01*
X90349605Y-72390000D01*
X92766443Y-74806838D01*
X93241063Y-74464277D01*
X93628266Y-73542532D01*
X98117073Y-73542532D01*
X98215736Y-73809387D01*
X98825461Y-74035908D01*
X99475460Y-74011856D01*
X99964264Y-73809387D01*
X100062927Y-73542532D01*
X99090000Y-72569605D01*
X98117073Y-73542532D01*
X93628266Y-73542532D01*
X93801084Y-73131137D01*
X93806106Y-72125461D01*
X97444092Y-72125461D01*
X97468144Y-72775460D01*
X97670613Y-73264264D01*
X97937468Y-73362927D01*
X98910395Y-72390000D01*
X99269605Y-72390000D01*
X100242532Y-73362927D01*
X100509387Y-73264264D01*
X100735908Y-72654539D01*
X100711856Y-72004540D01*
X100509387Y-71515736D01*
X100242532Y-71417073D01*
X99269605Y-72390000D01*
X98910395Y-72390000D01*
X97937468Y-71417073D01*
X97670613Y-71515736D01*
X97444092Y-72125461D01*
X93806106Y-72125461D01*
X93808305Y-71685166D01*
X93625477Y-71237468D01*
X98117073Y-71237468D01*
X99090000Y-72210395D01*
X100062927Y-71237468D01*
X99964264Y-70970613D01*
X99354539Y-70744092D01*
X98704540Y-70768144D01*
X98215736Y-70970613D01*
X98117073Y-71237468D01*
X93625477Y-71237468D01*
X93261627Y-70346499D01*
X93241063Y-70315723D01*
X92766443Y-69973162D01*
X90349605Y-72390000D01*
X89990395Y-72390000D01*
X87573557Y-69973162D01*
X87098937Y-70315723D01*
X86538916Y-71648863D01*
X86531695Y-73094834D01*
X85217000Y-73094834D01*
X85217000Y-69793557D01*
X87753162Y-69793557D01*
X90170000Y-72210395D01*
X92586838Y-69793557D01*
X92244277Y-69318937D01*
X90911137Y-68758916D01*
X89465166Y-68751695D01*
X88126499Y-69298373D01*
X88095723Y-69318937D01*
X87753162Y-69793557D01*
X85217000Y-69793557D01*
X85217000Y-67192532D01*
X98117073Y-67192532D01*
X98215736Y-67459387D01*
X98825461Y-67685908D01*
X99475460Y-67661856D01*
X99964264Y-67459387D01*
X100062927Y-67192532D01*
X99090000Y-66219605D01*
X98117073Y-67192532D01*
X85217000Y-67192532D01*
X85217000Y-65775461D01*
X97444092Y-65775461D01*
X97468144Y-66425460D01*
X97670613Y-66914264D01*
X97937468Y-67012927D01*
X98910395Y-66040000D01*
X99269605Y-66040000D01*
X100242532Y-67012927D01*
X100509387Y-66914264D01*
X100735908Y-66304539D01*
X100711856Y-65654540D01*
X100509387Y-65165736D01*
X100242532Y-65067073D01*
X99269605Y-66040000D01*
X98910395Y-66040000D01*
X97937468Y-65067073D01*
X97670613Y-65165736D01*
X97444092Y-65775461D01*
X85217000Y-65775461D01*
X85217000Y-64887468D01*
X98117073Y-64887468D01*
X99090000Y-65860395D01*
X100062927Y-64887468D01*
X99964264Y-64620613D01*
X99354539Y-64394092D01*
X98704540Y-64418144D01*
X98215736Y-64620613D01*
X98117073Y-64887468D01*
X85217000Y-64887468D01*
X85217000Y-62286443D01*
X87753162Y-62286443D01*
X88095723Y-62761063D01*
X89428863Y-63321084D01*
X90874834Y-63328305D01*
X92213501Y-62781627D01*
X92244277Y-62761063D01*
X92586838Y-62286443D01*
X90170000Y-59869605D01*
X87753162Y-62286443D01*
X85217000Y-62286443D01*
X85217000Y-60394834D01*
X86531695Y-60394834D01*
X87078373Y-61733501D01*
X87098937Y-61764277D01*
X87573557Y-62106838D01*
X89990395Y-59690000D01*
X90349605Y-59690000D01*
X92766443Y-62106838D01*
X93241063Y-61764277D01*
X93628266Y-60842532D01*
X98117073Y-60842532D01*
X98215736Y-61109387D01*
X98825461Y-61335908D01*
X99475460Y-61311856D01*
X99964264Y-61109387D01*
X100062927Y-60842532D01*
X99090000Y-59869605D01*
X98117073Y-60842532D01*
X93628266Y-60842532D01*
X93801084Y-60431137D01*
X93806106Y-59425461D01*
X97444092Y-59425461D01*
X97468144Y-60075460D01*
X97670613Y-60564264D01*
X97937468Y-60662927D01*
X98910395Y-59690000D01*
X99269605Y-59690000D01*
X100242532Y-60662927D01*
X100509387Y-60564264D01*
X100735908Y-59954539D01*
X100711856Y-59304540D01*
X100509387Y-58815736D01*
X100242532Y-58717073D01*
X99269605Y-59690000D01*
X98910395Y-59690000D01*
X97937468Y-58717073D01*
X97670613Y-58815736D01*
X97444092Y-59425461D01*
X93806106Y-59425461D01*
X93808305Y-58985166D01*
X93625477Y-58537468D01*
X98117073Y-58537468D01*
X99090000Y-59510395D01*
X100062927Y-58537468D01*
X99964264Y-58270613D01*
X99354539Y-58044092D01*
X98704540Y-58068144D01*
X98215736Y-58270613D01*
X98117073Y-58537468D01*
X93625477Y-58537468D01*
X93261627Y-57646499D01*
X93241063Y-57615723D01*
X92766443Y-57273162D01*
X90349605Y-59690000D01*
X89990395Y-59690000D01*
X87573557Y-57273162D01*
X87098937Y-57615723D01*
X86538916Y-58948863D01*
X86531695Y-60394834D01*
X85217000Y-60394834D01*
X85217000Y-57093557D01*
X87753162Y-57093557D01*
X90170000Y-59510395D01*
X92586838Y-57093557D01*
X92244277Y-56618937D01*
X90911137Y-56058916D01*
X89465166Y-56051695D01*
X88126499Y-56598373D01*
X88095723Y-56618937D01*
X87753162Y-57093557D01*
X85217000Y-57093557D01*
X85217000Y-54492532D01*
X98117073Y-54492532D01*
X98215736Y-54759387D01*
X98825461Y-54985908D01*
X99475460Y-54961856D01*
X99964264Y-54759387D01*
X100062927Y-54492532D01*
X99090000Y-53519605D01*
X98117073Y-54492532D01*
X85217000Y-54492532D01*
X85217000Y-53075461D01*
X97444092Y-53075461D01*
X97468144Y-53725460D01*
X97670613Y-54214264D01*
X97937468Y-54312927D01*
X98910395Y-53340000D01*
X99269605Y-53340000D01*
X100242532Y-54312927D01*
X100509387Y-54214264D01*
X100735908Y-53604539D01*
X100711856Y-52954540D01*
X100509387Y-52465736D01*
X100242532Y-52367073D01*
X99269605Y-53340000D01*
X98910395Y-53340000D01*
X97937468Y-52367073D01*
X97670613Y-52465736D01*
X97444092Y-53075461D01*
X85217000Y-53075461D01*
X85217000Y-52187468D01*
X98117073Y-52187468D01*
X99090000Y-53160395D01*
X100062927Y-52187468D01*
X99964264Y-51920613D01*
X99354539Y-51694092D01*
X98704540Y-51718144D01*
X98215736Y-51920613D01*
X98117073Y-52187468D01*
X85217000Y-52187468D01*
X85217000Y-45847000D01*
X102743000Y-45847000D01*
X102743000Y-83693000D01*
X102743000Y-83693000D01*
G37*
X102743000Y-83693000D02*
X85217000Y-83693000D01*
X85217000Y-79892532D01*
X98117073Y-79892532D01*
X98215736Y-80159387D01*
X98825461Y-80385908D01*
X99475460Y-80361856D01*
X99964264Y-80159387D01*
X100062927Y-79892532D01*
X99090000Y-78919605D01*
X98117073Y-79892532D01*
X85217000Y-79892532D01*
X85217000Y-78475461D01*
X97444092Y-78475461D01*
X97468144Y-79125460D01*
X97670613Y-79614264D01*
X97937468Y-79712927D01*
X98910395Y-78740000D01*
X99269605Y-78740000D01*
X100242532Y-79712927D01*
X100509387Y-79614264D01*
X100735908Y-79004539D01*
X100711856Y-78354540D01*
X100509387Y-77865736D01*
X100242532Y-77767073D01*
X99269605Y-78740000D01*
X98910395Y-78740000D01*
X97937468Y-77767073D01*
X97670613Y-77865736D01*
X97444092Y-78475461D01*
X85217000Y-78475461D01*
X85217000Y-77587468D01*
X98117073Y-77587468D01*
X99090000Y-78560395D01*
X100062927Y-77587468D01*
X99964264Y-77320613D01*
X99354539Y-77094092D01*
X98704540Y-77118144D01*
X98215736Y-77320613D01*
X98117073Y-77587468D01*
X85217000Y-77587468D01*
X85217000Y-74986443D01*
X87753162Y-74986443D01*
X88095723Y-75461063D01*
X89428863Y-76021084D01*
X90874834Y-76028305D01*
X92213501Y-75481627D01*
X92244277Y-75461063D01*
X92586838Y-74986443D01*
X90170000Y-72569605D01*
X87753162Y-74986443D01*
X85217000Y-74986443D01*
X85217000Y-73094834D01*
X86531695Y-73094834D01*
X87078373Y-74433501D01*
X87098937Y-74464277D01*
X87573557Y-74806838D01*
X89990395Y-72390000D01*
X90349605Y-72390000D01*
X92766443Y-74806838D01*
X93241063Y-74464277D01*
X93628266Y-73542532D01*
X98117073Y-73542532D01*
X98215736Y-73809387D01*
X98825461Y-74035908D01*
X99475460Y-74011856D01*
X99964264Y-73809387D01*
X100062927Y-73542532D01*
X99090000Y-72569605D01*
X98117073Y-73542532D01*
X93628266Y-73542532D01*
X93801084Y-73131137D01*
X93806106Y-72125461D01*
X97444092Y-72125461D01*
X97468144Y-72775460D01*
X97670613Y-73264264D01*
X97937468Y-73362927D01*
X98910395Y-72390000D01*
X99269605Y-72390000D01*
X100242532Y-73362927D01*
X100509387Y-73264264D01*
X100735908Y-72654539D01*
X100711856Y-72004540D01*
X100509387Y-71515736D01*
X100242532Y-71417073D01*
X99269605Y-72390000D01*
X98910395Y-72390000D01*
X97937468Y-71417073D01*
X97670613Y-71515736D01*
X97444092Y-72125461D01*
X93806106Y-72125461D01*
X93808305Y-71685166D01*
X93625477Y-71237468D01*
X98117073Y-71237468D01*
X99090000Y-72210395D01*
X100062927Y-71237468D01*
X99964264Y-70970613D01*
X99354539Y-70744092D01*
X98704540Y-70768144D01*
X98215736Y-70970613D01*
X98117073Y-71237468D01*
X93625477Y-71237468D01*
X93261627Y-70346499D01*
X93241063Y-70315723D01*
X92766443Y-69973162D01*
X90349605Y-72390000D01*
X89990395Y-72390000D01*
X87573557Y-69973162D01*
X87098937Y-70315723D01*
X86538916Y-71648863D01*
X86531695Y-73094834D01*
X85217000Y-73094834D01*
X85217000Y-69793557D01*
X87753162Y-69793557D01*
X90170000Y-72210395D01*
X92586838Y-69793557D01*
X92244277Y-69318937D01*
X90911137Y-68758916D01*
X89465166Y-68751695D01*
X88126499Y-69298373D01*
X88095723Y-69318937D01*
X87753162Y-69793557D01*
X85217000Y-69793557D01*
X85217000Y-67192532D01*
X98117073Y-67192532D01*
X98215736Y-67459387D01*
X98825461Y-67685908D01*
X99475460Y-67661856D01*
X99964264Y-67459387D01*
X100062927Y-67192532D01*
X99090000Y-66219605D01*
X98117073Y-67192532D01*
X85217000Y-67192532D01*
X85217000Y-65775461D01*
X97444092Y-65775461D01*
X97468144Y-66425460D01*
X97670613Y-66914264D01*
X97937468Y-67012927D01*
X98910395Y-66040000D01*
X99269605Y-66040000D01*
X100242532Y-67012927D01*
X100509387Y-66914264D01*
X100735908Y-66304539D01*
X100711856Y-65654540D01*
X100509387Y-65165736D01*
X100242532Y-65067073D01*
X99269605Y-66040000D01*
X98910395Y-66040000D01*
X97937468Y-65067073D01*
X97670613Y-65165736D01*
X97444092Y-65775461D01*
X85217000Y-65775461D01*
X85217000Y-64887468D01*
X98117073Y-64887468D01*
X99090000Y-65860395D01*
X100062927Y-64887468D01*
X99964264Y-64620613D01*
X99354539Y-64394092D01*
X98704540Y-64418144D01*
X98215736Y-64620613D01*
X98117073Y-64887468D01*
X85217000Y-64887468D01*
X85217000Y-62286443D01*
X87753162Y-62286443D01*
X88095723Y-62761063D01*
X89428863Y-63321084D01*
X90874834Y-63328305D01*
X92213501Y-62781627D01*
X92244277Y-62761063D01*
X92586838Y-62286443D01*
X90170000Y-59869605D01*
X87753162Y-62286443D01*
X85217000Y-62286443D01*
X85217000Y-60394834D01*
X86531695Y-60394834D01*
X87078373Y-61733501D01*
X87098937Y-61764277D01*
X87573557Y-62106838D01*
X89990395Y-59690000D01*
X90349605Y-59690000D01*
X92766443Y-62106838D01*
X93241063Y-61764277D01*
X93628266Y-60842532D01*
X98117073Y-60842532D01*
X98215736Y-61109387D01*
X98825461Y-61335908D01*
X99475460Y-61311856D01*
X99964264Y-61109387D01*
X100062927Y-60842532D01*
X99090000Y-59869605D01*
X98117073Y-60842532D01*
X93628266Y-60842532D01*
X93801084Y-60431137D01*
X93806106Y-59425461D01*
X97444092Y-59425461D01*
X97468144Y-60075460D01*
X97670613Y-60564264D01*
X97937468Y-60662927D01*
X98910395Y-59690000D01*
X99269605Y-59690000D01*
X100242532Y-60662927D01*
X100509387Y-60564264D01*
X100735908Y-59954539D01*
X100711856Y-59304540D01*
X100509387Y-58815736D01*
X100242532Y-58717073D01*
X99269605Y-59690000D01*
X98910395Y-59690000D01*
X97937468Y-58717073D01*
X97670613Y-58815736D01*
X97444092Y-59425461D01*
X93806106Y-59425461D01*
X93808305Y-58985166D01*
X93625477Y-58537468D01*
X98117073Y-58537468D01*
X99090000Y-59510395D01*
X100062927Y-58537468D01*
X99964264Y-58270613D01*
X99354539Y-58044092D01*
X98704540Y-58068144D01*
X98215736Y-58270613D01*
X98117073Y-58537468D01*
X93625477Y-58537468D01*
X93261627Y-57646499D01*
X93241063Y-57615723D01*
X92766443Y-57273162D01*
X90349605Y-59690000D01*
X89990395Y-59690000D01*
X87573557Y-57273162D01*
X87098937Y-57615723D01*
X86538916Y-58948863D01*
X86531695Y-60394834D01*
X85217000Y-60394834D01*
X85217000Y-57093557D01*
X87753162Y-57093557D01*
X90170000Y-59510395D01*
X92586838Y-57093557D01*
X92244277Y-56618937D01*
X90911137Y-56058916D01*
X89465166Y-56051695D01*
X88126499Y-56598373D01*
X88095723Y-56618937D01*
X87753162Y-57093557D01*
X85217000Y-57093557D01*
X85217000Y-54492532D01*
X98117073Y-54492532D01*
X98215736Y-54759387D01*
X98825461Y-54985908D01*
X99475460Y-54961856D01*
X99964264Y-54759387D01*
X100062927Y-54492532D01*
X99090000Y-53519605D01*
X98117073Y-54492532D01*
X85217000Y-54492532D01*
X85217000Y-53075461D01*
X97444092Y-53075461D01*
X97468144Y-53725460D01*
X97670613Y-54214264D01*
X97937468Y-54312927D01*
X98910395Y-53340000D01*
X99269605Y-53340000D01*
X100242532Y-54312927D01*
X100509387Y-54214264D01*
X100735908Y-53604539D01*
X100711856Y-52954540D01*
X100509387Y-52465736D01*
X100242532Y-52367073D01*
X99269605Y-53340000D01*
X98910395Y-53340000D01*
X97937468Y-52367073D01*
X97670613Y-52465736D01*
X97444092Y-53075461D01*
X85217000Y-53075461D01*
X85217000Y-52187468D01*
X98117073Y-52187468D01*
X99090000Y-53160395D01*
X100062927Y-52187468D01*
X99964264Y-51920613D01*
X99354539Y-51694092D01*
X98704540Y-51718144D01*
X98215736Y-51920613D01*
X98117073Y-52187468D01*
X85217000Y-52187468D01*
X85217000Y-45847000D01*
X102743000Y-45847000D01*
X102743000Y-83693000D01*
G36*
X152273000Y-66545000D02*
X151415750Y-66545000D01*
X151257000Y-66703750D01*
X151257000Y-68453000D01*
X151277000Y-68453000D01*
X151277000Y-68707000D01*
X151257000Y-68707000D01*
X151257000Y-70456250D01*
X151415750Y-70615000D01*
X152273000Y-70615000D01*
X152273000Y-83693000D01*
X137287000Y-83693000D01*
X137287000Y-82550000D01*
X137276994Y-82500590D01*
X137248553Y-82458965D01*
X137206159Y-82431685D01*
X137160000Y-82423000D01*
X134747000Y-82423000D01*
X134747000Y-81280000D01*
X134736994Y-81230590D01*
X134708553Y-81188965D01*
X134666159Y-81161685D01*
X134620000Y-81153000D01*
X132207000Y-81153000D01*
X132207000Y-80066443D01*
X133473162Y-80066443D01*
X133815723Y-80541063D01*
X135148863Y-81101084D01*
X136594834Y-81108305D01*
X137933501Y-80561627D01*
X137964277Y-80541063D01*
X138306838Y-80066443D01*
X135890000Y-77649605D01*
X133473162Y-80066443D01*
X132207000Y-80066443D01*
X132207000Y-78174834D01*
X132251695Y-78174834D01*
X132798373Y-79513501D01*
X132818937Y-79544277D01*
X133293557Y-79886838D01*
X135710395Y-77470000D01*
X136069605Y-77470000D01*
X138486443Y-79886838D01*
X138961063Y-79544277D01*
X139521084Y-78211137D01*
X139528305Y-76765166D01*
X138981627Y-75426499D01*
X138961063Y-75395723D01*
X138486443Y-75053162D01*
X136069605Y-77470000D01*
X135710395Y-77470000D01*
X133293557Y-75053162D01*
X132818937Y-75395723D01*
X132258916Y-76728863D01*
X132251695Y-78174834D01*
X132207000Y-78174834D01*
X132207000Y-77470000D01*
X132196994Y-77420590D01*
X132168553Y-77378965D01*
X132126159Y-77351685D01*
X132080000Y-77343000D01*
X125857000Y-77343000D01*
X125857000Y-76115000D01*
X127409250Y-76115000D01*
X127568000Y-75956250D01*
X127568000Y-75057000D01*
X127822000Y-75057000D01*
X127822000Y-75956250D01*
X127980750Y-76115000D01*
X130121309Y-76115000D01*
X130354698Y-76018327D01*
X130533327Y-75839699D01*
X130630000Y-75606310D01*
X130630000Y-75215750D01*
X130471250Y-75057000D01*
X127822000Y-75057000D01*
X127568000Y-75057000D01*
X127548000Y-75057000D01*
X127548000Y-74873557D01*
X133473162Y-74873557D01*
X135890000Y-77290395D01*
X138306838Y-74873557D01*
X137964277Y-74398937D01*
X136631137Y-73838916D01*
X135185166Y-73831695D01*
X133846499Y-74378373D01*
X133815723Y-74398937D01*
X133473162Y-74873557D01*
X127548000Y-74873557D01*
X127548000Y-74803000D01*
X127568000Y-74803000D01*
X127568000Y-73903750D01*
X127822000Y-73903750D01*
X127822000Y-74803000D01*
X130471250Y-74803000D01*
X130630000Y-74644250D01*
X130630000Y-74253690D01*
X130533327Y-74020301D01*
X130354698Y-73841673D01*
X130121309Y-73745000D01*
X127980750Y-73745000D01*
X127822000Y-73903750D01*
X127568000Y-73903750D01*
X127409250Y-73745000D01*
X125857000Y-73745000D01*
X125857000Y-71943690D01*
X141150000Y-71943690D01*
X141150000Y-77446310D01*
X141159813Y-77470000D01*
X141150000Y-77493690D01*
X141150000Y-82996310D01*
X141246673Y-83229699D01*
X141425302Y-83408327D01*
X141658691Y-83505000D01*
X146461309Y-83505000D01*
X146485000Y-83495187D01*
X146508691Y-83505000D01*
X151311309Y-83505000D01*
X151544698Y-83408327D01*
X151723327Y-83229699D01*
X151820000Y-82996310D01*
X151820000Y-77493690D01*
X151810187Y-77470000D01*
X151820000Y-77446310D01*
X151820000Y-71943690D01*
X151723327Y-71710301D01*
X151544698Y-71531673D01*
X151311309Y-71435000D01*
X146508691Y-71435000D01*
X146485000Y-71444813D01*
X146461309Y-71435000D01*
X141658691Y-71435000D01*
X141425302Y-71531673D01*
X141246673Y-71710301D01*
X141150000Y-71943690D01*
X125857000Y-71943690D01*
X125857000Y-70257093D01*
X126556839Y-70566167D01*
X126873000Y-70452290D01*
X126873000Y-68707000D01*
X127127000Y-68707000D01*
X127127000Y-70452290D01*
X127443161Y-70566167D01*
X128169501Y-70245389D01*
X128717795Y-69671070D01*
X128986160Y-69023160D01*
X128929296Y-68865750D01*
X149095000Y-68865750D01*
X149095000Y-70106310D01*
X149191673Y-70339699D01*
X149370302Y-70518327D01*
X149603691Y-70615000D01*
X150844250Y-70615000D01*
X151003000Y-70456250D01*
X151003000Y-68707000D01*
X149253750Y-68707000D01*
X149095000Y-68865750D01*
X128929296Y-68865750D01*
X128871947Y-68707000D01*
X127127000Y-68707000D01*
X126873000Y-68707000D01*
X126853000Y-68707000D01*
X126853000Y-68453000D01*
X126873000Y-68453000D01*
X126873000Y-66707710D01*
X127127000Y-66707710D01*
X127127000Y-68453000D01*
X128871947Y-68453000D01*
X128986160Y-68136840D01*
X128717795Y-67488930D01*
X128302278Y-67053690D01*
X149095000Y-67053690D01*
X149095000Y-68294250D01*
X149253750Y-68453000D01*
X151003000Y-68453000D01*
X151003000Y-66703750D01*
X150844250Y-66545000D01*
X149603691Y-66545000D01*
X149370302Y-66641673D01*
X149191673Y-66820301D01*
X149095000Y-67053690D01*
X128302278Y-67053690D01*
X128169501Y-66914611D01*
X127443161Y-66593833D01*
X127127000Y-66707710D01*
X126873000Y-66707710D01*
X126556839Y-66593833D01*
X125857000Y-66902907D01*
X125857000Y-66167000D01*
X152273000Y-66167000D01*
X152273000Y-66545000D01*
X152273000Y-66545000D01*
G37*
X152273000Y-66545000D02*
X151415750Y-66545000D01*
X151257000Y-66703750D01*
X151257000Y-68453000D01*
X151277000Y-68453000D01*
X151277000Y-68707000D01*
X151257000Y-68707000D01*
X151257000Y-70456250D01*
X151415750Y-70615000D01*
X152273000Y-70615000D01*
X152273000Y-83693000D01*
X137287000Y-83693000D01*
X137287000Y-82550000D01*
X137276994Y-82500590D01*
X137248553Y-82458965D01*
X137206159Y-82431685D01*
X137160000Y-82423000D01*
X134747000Y-82423000D01*
X134747000Y-81280000D01*
X134736994Y-81230590D01*
X134708553Y-81188965D01*
X134666159Y-81161685D01*
X134620000Y-81153000D01*
X132207000Y-81153000D01*
X132207000Y-80066443D01*
X133473162Y-80066443D01*
X133815723Y-80541063D01*
X135148863Y-81101084D01*
X136594834Y-81108305D01*
X137933501Y-80561627D01*
X137964277Y-80541063D01*
X138306838Y-80066443D01*
X135890000Y-77649605D01*
X133473162Y-80066443D01*
X132207000Y-80066443D01*
X132207000Y-78174834D01*
X132251695Y-78174834D01*
X132798373Y-79513501D01*
X132818937Y-79544277D01*
X133293557Y-79886838D01*
X135710395Y-77470000D01*
X136069605Y-77470000D01*
X138486443Y-79886838D01*
X138961063Y-79544277D01*
X139521084Y-78211137D01*
X139528305Y-76765166D01*
X138981627Y-75426499D01*
X138961063Y-75395723D01*
X138486443Y-75053162D01*
X136069605Y-77470000D01*
X135710395Y-77470000D01*
X133293557Y-75053162D01*
X132818937Y-75395723D01*
X132258916Y-76728863D01*
X132251695Y-78174834D01*
X132207000Y-78174834D01*
X132207000Y-77470000D01*
X132196994Y-77420590D01*
X132168553Y-77378965D01*
X132126159Y-77351685D01*
X132080000Y-77343000D01*
X125857000Y-77343000D01*
X125857000Y-76115000D01*
X127409250Y-76115000D01*
X127568000Y-75956250D01*
X127568000Y-75057000D01*
X127822000Y-75057000D01*
X127822000Y-75956250D01*
X127980750Y-76115000D01*
X130121309Y-76115000D01*
X130354698Y-76018327D01*
X130533327Y-75839699D01*
X130630000Y-75606310D01*
X130630000Y-75215750D01*
X130471250Y-75057000D01*
X127822000Y-75057000D01*
X127568000Y-75057000D01*
X127548000Y-75057000D01*
X127548000Y-74873557D01*
X133473162Y-74873557D01*
X135890000Y-77290395D01*
X138306838Y-74873557D01*
X137964277Y-74398937D01*
X136631137Y-73838916D01*
X135185166Y-73831695D01*
X133846499Y-74378373D01*
X133815723Y-74398937D01*
X133473162Y-74873557D01*
X127548000Y-74873557D01*
X127548000Y-74803000D01*
X127568000Y-74803000D01*
X127568000Y-73903750D01*
X127822000Y-73903750D01*
X127822000Y-74803000D01*
X130471250Y-74803000D01*
X130630000Y-74644250D01*
X130630000Y-74253690D01*
X130533327Y-74020301D01*
X130354698Y-73841673D01*
X130121309Y-73745000D01*
X127980750Y-73745000D01*
X127822000Y-73903750D01*
X127568000Y-73903750D01*
X127409250Y-73745000D01*
X125857000Y-73745000D01*
X125857000Y-71943690D01*
X141150000Y-71943690D01*
X141150000Y-77446310D01*
X141159813Y-77470000D01*
X141150000Y-77493690D01*
X141150000Y-82996310D01*
X141246673Y-83229699D01*
X141425302Y-83408327D01*
X141658691Y-83505000D01*
X146461309Y-83505000D01*
X146485000Y-83495187D01*
X146508691Y-83505000D01*
X151311309Y-83505000D01*
X151544698Y-83408327D01*
X151723327Y-83229699D01*
X151820000Y-82996310D01*
X151820000Y-77493690D01*
X151810187Y-77470000D01*
X151820000Y-77446310D01*
X151820000Y-71943690D01*
X151723327Y-71710301D01*
X151544698Y-71531673D01*
X151311309Y-71435000D01*
X146508691Y-71435000D01*
X146485000Y-71444813D01*
X146461309Y-71435000D01*
X141658691Y-71435000D01*
X141425302Y-71531673D01*
X141246673Y-71710301D01*
X141150000Y-71943690D01*
X125857000Y-71943690D01*
X125857000Y-70257093D01*
X126556839Y-70566167D01*
X126873000Y-70452290D01*
X126873000Y-68707000D01*
X127127000Y-68707000D01*
X127127000Y-70452290D01*
X127443161Y-70566167D01*
X128169501Y-70245389D01*
X128717795Y-69671070D01*
X128986160Y-69023160D01*
X128929296Y-68865750D01*
X149095000Y-68865750D01*
X149095000Y-70106310D01*
X149191673Y-70339699D01*
X149370302Y-70518327D01*
X149603691Y-70615000D01*
X150844250Y-70615000D01*
X151003000Y-70456250D01*
X151003000Y-68707000D01*
X149253750Y-68707000D01*
X149095000Y-68865750D01*
X128929296Y-68865750D01*
X128871947Y-68707000D01*
X127127000Y-68707000D01*
X126873000Y-68707000D01*
X126853000Y-68707000D01*
X126853000Y-68453000D01*
X126873000Y-68453000D01*
X126873000Y-66707710D01*
X127127000Y-66707710D01*
X127127000Y-68453000D01*
X128871947Y-68453000D01*
X128986160Y-68136840D01*
X128717795Y-67488930D01*
X128302278Y-67053690D01*
X149095000Y-67053690D01*
X149095000Y-68294250D01*
X149253750Y-68453000D01*
X151003000Y-68453000D01*
X151003000Y-66703750D01*
X150844250Y-66545000D01*
X149603691Y-66545000D01*
X149370302Y-66641673D01*
X149191673Y-66820301D01*
X149095000Y-67053690D01*
X128302278Y-67053690D01*
X128169501Y-66914611D01*
X127443161Y-66593833D01*
X127127000Y-66707710D01*
X126873000Y-66707710D01*
X126556839Y-66593833D01*
X125857000Y-66902907D01*
X125857000Y-66167000D01*
X152273000Y-66167000D01*
X152273000Y-66545000D01*
G36*
X152273000Y-46225000D02*
X151415750Y-46225000D01*
X151257000Y-46383750D01*
X151257000Y-48133000D01*
X151277000Y-48133000D01*
X151277000Y-48387000D01*
X151257000Y-48387000D01*
X151257000Y-50136250D01*
X151415750Y-50295000D01*
X152273000Y-50295000D01*
X152273000Y-63373000D01*
X134747000Y-63373000D01*
X134747000Y-60960000D01*
X134736994Y-60910590D01*
X134708553Y-60868965D01*
X134666159Y-60841685D01*
X134620000Y-60833000D01*
X132207000Y-60833000D01*
X132207000Y-59746443D01*
X133473162Y-59746443D01*
X133815723Y-60221063D01*
X135148863Y-60781084D01*
X136594834Y-60788305D01*
X137933501Y-60241627D01*
X137964277Y-60221063D01*
X138306838Y-59746443D01*
X135890000Y-57329605D01*
X133473162Y-59746443D01*
X132207000Y-59746443D01*
X132207000Y-57854834D01*
X132251695Y-57854834D01*
X132798373Y-59193501D01*
X132818937Y-59224277D01*
X133293557Y-59566838D01*
X135710395Y-57150000D01*
X136069605Y-57150000D01*
X138486443Y-59566838D01*
X138961063Y-59224277D01*
X139521084Y-57891137D01*
X139528305Y-56445166D01*
X138981627Y-55106499D01*
X138961063Y-55075723D01*
X138486443Y-54733162D01*
X136069605Y-57150000D01*
X135710395Y-57150000D01*
X133293557Y-54733162D01*
X132818937Y-55075723D01*
X132258916Y-56408863D01*
X132251695Y-57854834D01*
X132207000Y-57854834D01*
X132207000Y-57150000D01*
X132196994Y-57100590D01*
X132168553Y-57058965D01*
X132126159Y-57031685D01*
X132080000Y-57023000D01*
X125857000Y-57023000D01*
X125857000Y-55795000D01*
X127409250Y-55795000D01*
X127568000Y-55636250D01*
X127568000Y-54737000D01*
X127822000Y-54737000D01*
X127822000Y-55636250D01*
X127980750Y-55795000D01*
X130121309Y-55795000D01*
X130354698Y-55698327D01*
X130533327Y-55519699D01*
X130630000Y-55286310D01*
X130630000Y-54895750D01*
X130471250Y-54737000D01*
X127822000Y-54737000D01*
X127568000Y-54737000D01*
X127548000Y-54737000D01*
X127548000Y-54553557D01*
X133473162Y-54553557D01*
X135890000Y-56970395D01*
X138306838Y-54553557D01*
X137964277Y-54078937D01*
X136631137Y-53518916D01*
X135185166Y-53511695D01*
X133846499Y-54058373D01*
X133815723Y-54078937D01*
X133473162Y-54553557D01*
X127548000Y-54553557D01*
X127548000Y-54483000D01*
X127568000Y-54483000D01*
X127568000Y-53583750D01*
X127822000Y-53583750D01*
X127822000Y-54483000D01*
X130471250Y-54483000D01*
X130630000Y-54324250D01*
X130630000Y-53933690D01*
X130533327Y-53700301D01*
X130354698Y-53521673D01*
X130121309Y-53425000D01*
X127980750Y-53425000D01*
X127822000Y-53583750D01*
X127568000Y-53583750D01*
X127409250Y-53425000D01*
X125857000Y-53425000D01*
X125857000Y-51623690D01*
X141150000Y-51623690D01*
X141150000Y-57126310D01*
X141159813Y-57150000D01*
X141150000Y-57173690D01*
X141150000Y-62676310D01*
X141246673Y-62909699D01*
X141425302Y-63088327D01*
X141658691Y-63185000D01*
X146461309Y-63185000D01*
X146485000Y-63175187D01*
X146508691Y-63185000D01*
X151311309Y-63185000D01*
X151544698Y-63088327D01*
X151723327Y-62909699D01*
X151820000Y-62676310D01*
X151820000Y-57173690D01*
X151810187Y-57150000D01*
X151820000Y-57126310D01*
X151820000Y-51623690D01*
X151723327Y-51390301D01*
X151544698Y-51211673D01*
X151311309Y-51115000D01*
X146508691Y-51115000D01*
X146485000Y-51124813D01*
X146461309Y-51115000D01*
X141658691Y-51115000D01*
X141425302Y-51211673D01*
X141246673Y-51390301D01*
X141150000Y-51623690D01*
X125857000Y-51623690D01*
X125857000Y-49937093D01*
X126556839Y-50246167D01*
X126873000Y-50132290D01*
X126873000Y-48387000D01*
X127127000Y-48387000D01*
X127127000Y-50132290D01*
X127443161Y-50246167D01*
X128169501Y-49925389D01*
X128717795Y-49351070D01*
X128986160Y-48703160D01*
X128929296Y-48545750D01*
X149095000Y-48545750D01*
X149095000Y-49786310D01*
X149191673Y-50019699D01*
X149370302Y-50198327D01*
X149603691Y-50295000D01*
X150844250Y-50295000D01*
X151003000Y-50136250D01*
X151003000Y-48387000D01*
X149253750Y-48387000D01*
X149095000Y-48545750D01*
X128929296Y-48545750D01*
X128871947Y-48387000D01*
X127127000Y-48387000D01*
X126873000Y-48387000D01*
X126853000Y-48387000D01*
X126853000Y-48133000D01*
X126873000Y-48133000D01*
X126873000Y-46387710D01*
X127127000Y-46387710D01*
X127127000Y-48133000D01*
X128871947Y-48133000D01*
X128986160Y-47816840D01*
X128717795Y-47168930D01*
X128302278Y-46733690D01*
X149095000Y-46733690D01*
X149095000Y-47974250D01*
X149253750Y-48133000D01*
X151003000Y-48133000D01*
X151003000Y-46383750D01*
X150844250Y-46225000D01*
X149603691Y-46225000D01*
X149370302Y-46321673D01*
X149191673Y-46500301D01*
X149095000Y-46733690D01*
X128302278Y-46733690D01*
X128169501Y-46594611D01*
X127443161Y-46273833D01*
X127127000Y-46387710D01*
X126873000Y-46387710D01*
X126556839Y-46273833D01*
X125857000Y-46582907D01*
X125857000Y-45847000D01*
X152273000Y-45847000D01*
X152273000Y-46225000D01*
X152273000Y-46225000D01*
G37*
X152273000Y-46225000D02*
X151415750Y-46225000D01*
X151257000Y-46383750D01*
X151257000Y-48133000D01*
X151277000Y-48133000D01*
X151277000Y-48387000D01*
X151257000Y-48387000D01*
X151257000Y-50136250D01*
X151415750Y-50295000D01*
X152273000Y-50295000D01*
X152273000Y-63373000D01*
X134747000Y-63373000D01*
X134747000Y-60960000D01*
X134736994Y-60910590D01*
X134708553Y-60868965D01*
X134666159Y-60841685D01*
X134620000Y-60833000D01*
X132207000Y-60833000D01*
X132207000Y-59746443D01*
X133473162Y-59746443D01*
X133815723Y-60221063D01*
X135148863Y-60781084D01*
X136594834Y-60788305D01*
X137933501Y-60241627D01*
X137964277Y-60221063D01*
X138306838Y-59746443D01*
X135890000Y-57329605D01*
X133473162Y-59746443D01*
X132207000Y-59746443D01*
X132207000Y-57854834D01*
X132251695Y-57854834D01*
X132798373Y-59193501D01*
X132818937Y-59224277D01*
X133293557Y-59566838D01*
X135710395Y-57150000D01*
X136069605Y-57150000D01*
X138486443Y-59566838D01*
X138961063Y-59224277D01*
X139521084Y-57891137D01*
X139528305Y-56445166D01*
X138981627Y-55106499D01*
X138961063Y-55075723D01*
X138486443Y-54733162D01*
X136069605Y-57150000D01*
X135710395Y-57150000D01*
X133293557Y-54733162D01*
X132818937Y-55075723D01*
X132258916Y-56408863D01*
X132251695Y-57854834D01*
X132207000Y-57854834D01*
X132207000Y-57150000D01*
X132196994Y-57100590D01*
X132168553Y-57058965D01*
X132126159Y-57031685D01*
X132080000Y-57023000D01*
X125857000Y-57023000D01*
X125857000Y-55795000D01*
X127409250Y-55795000D01*
X127568000Y-55636250D01*
X127568000Y-54737000D01*
X127822000Y-54737000D01*
X127822000Y-55636250D01*
X127980750Y-55795000D01*
X130121309Y-55795000D01*
X130354698Y-55698327D01*
X130533327Y-55519699D01*
X130630000Y-55286310D01*
X130630000Y-54895750D01*
X130471250Y-54737000D01*
X127822000Y-54737000D01*
X127568000Y-54737000D01*
X127548000Y-54737000D01*
X127548000Y-54553557D01*
X133473162Y-54553557D01*
X135890000Y-56970395D01*
X138306838Y-54553557D01*
X137964277Y-54078937D01*
X136631137Y-53518916D01*
X135185166Y-53511695D01*
X133846499Y-54058373D01*
X133815723Y-54078937D01*
X133473162Y-54553557D01*
X127548000Y-54553557D01*
X127548000Y-54483000D01*
X127568000Y-54483000D01*
X127568000Y-53583750D01*
X127822000Y-53583750D01*
X127822000Y-54483000D01*
X130471250Y-54483000D01*
X130630000Y-54324250D01*
X130630000Y-53933690D01*
X130533327Y-53700301D01*
X130354698Y-53521673D01*
X130121309Y-53425000D01*
X127980750Y-53425000D01*
X127822000Y-53583750D01*
X127568000Y-53583750D01*
X127409250Y-53425000D01*
X125857000Y-53425000D01*
X125857000Y-51623690D01*
X141150000Y-51623690D01*
X141150000Y-57126310D01*
X141159813Y-57150000D01*
X141150000Y-57173690D01*
X141150000Y-62676310D01*
X141246673Y-62909699D01*
X141425302Y-63088327D01*
X141658691Y-63185000D01*
X146461309Y-63185000D01*
X146485000Y-63175187D01*
X146508691Y-63185000D01*
X151311309Y-63185000D01*
X151544698Y-63088327D01*
X151723327Y-62909699D01*
X151820000Y-62676310D01*
X151820000Y-57173690D01*
X151810187Y-57150000D01*
X151820000Y-57126310D01*
X151820000Y-51623690D01*
X151723327Y-51390301D01*
X151544698Y-51211673D01*
X151311309Y-51115000D01*
X146508691Y-51115000D01*
X146485000Y-51124813D01*
X146461309Y-51115000D01*
X141658691Y-51115000D01*
X141425302Y-51211673D01*
X141246673Y-51390301D01*
X141150000Y-51623690D01*
X125857000Y-51623690D01*
X125857000Y-49937093D01*
X126556839Y-50246167D01*
X126873000Y-50132290D01*
X126873000Y-48387000D01*
X127127000Y-48387000D01*
X127127000Y-50132290D01*
X127443161Y-50246167D01*
X128169501Y-49925389D01*
X128717795Y-49351070D01*
X128986160Y-48703160D01*
X128929296Y-48545750D01*
X149095000Y-48545750D01*
X149095000Y-49786310D01*
X149191673Y-50019699D01*
X149370302Y-50198327D01*
X149603691Y-50295000D01*
X150844250Y-50295000D01*
X151003000Y-50136250D01*
X151003000Y-48387000D01*
X149253750Y-48387000D01*
X149095000Y-48545750D01*
X128929296Y-48545750D01*
X128871947Y-48387000D01*
X127127000Y-48387000D01*
X126873000Y-48387000D01*
X126853000Y-48387000D01*
X126853000Y-48133000D01*
X126873000Y-48133000D01*
X126873000Y-46387710D01*
X127127000Y-46387710D01*
X127127000Y-48133000D01*
X128871947Y-48133000D01*
X128986160Y-47816840D01*
X128717795Y-47168930D01*
X128302278Y-46733690D01*
X149095000Y-46733690D01*
X149095000Y-47974250D01*
X149253750Y-48133000D01*
X151003000Y-48133000D01*
X151003000Y-46383750D01*
X150844250Y-46225000D01*
X149603691Y-46225000D01*
X149370302Y-46321673D01*
X149191673Y-46500301D01*
X149095000Y-46733690D01*
X128302278Y-46733690D01*
X128169501Y-46594611D01*
X127443161Y-46273833D01*
X127127000Y-46387710D01*
X126873000Y-46387710D01*
X126556839Y-46273833D01*
X125857000Y-46582907D01*
X125857000Y-45847000D01*
X152273000Y-45847000D01*
X152273000Y-46225000D01*
M02*
