M48
;DRILL file {KiCad 4.0.7} date 01/06/18 10:05:57
;FORMAT={-:-/ absolute / inch / decimal}
FMAT,2
INCH,TZ
T1C0.032
T2C0.039
T3C0.055
T4C0.098
%
G90
G05
M72
T1
X5.1Y-2.5
X5.1Y-3.35
X5.1Y-3.55
X5.1Y-3.65
X5.1Y-3.75
X5.1Y-4.45
X5.1Y-4.55
X5.15Y-4.1
X5.2Y-2.5
X5.2Y-3.35
X5.25Y-4.1
X5.25Y-4.25
X5.25Y-4.35
X5.25Y-4.45
X5.35Y-4.1
X5.45Y-3.55
X5.45Y-3.65
X5.45Y-3.75
X5.5Y-4.25
X5.5Y-4.35
X5.5Y-4.45
X5.7Y-3.55
X5.7Y-3.65
X5.7Y-3.75
X5.7Y-4.
X5.7Y-4.15
X5.7Y-4.45
X5.75Y-4.3
X5.8Y-4.
X5.8Y-4.15
X5.8Y-4.45
X5.85Y-4.3
X5.95Y-4.3
X6.Y-3.6
X6.Y-3.7
X6.Y-3.8
X6.Y-3.9
X6.Y-4.1
X6.Y-4.45
X6.05Y-4.3
X6.1Y-3.9
X6.1Y-4.1
X6.1Y-4.45
X6.15Y-4.3
X6.2Y-3.9
X6.2Y-4.1
X6.25Y-2.5
X6.25Y-3.35
X6.25Y-3.55
X6.25Y-3.65
X6.25Y-3.75
X6.3Y-3.9
X6.3Y-4.1
X6.3Y-4.3
X6.3Y-4.4
X6.35Y-2.5
X6.35Y-3.35
T2
X3.9012Y-2.1
X3.9012Y-2.35
X3.9012Y-2.6
X3.9012Y-2.85
X3.9012Y-3.1
X4.35Y-2.1
X4.35Y-2.35
X4.35Y-2.6
X4.35Y-2.85
X4.35Y-3.1
X5.5563Y-5.1
X5.6547Y-5.1
X5.7531Y-5.1
X5.8516Y-5.1
X5.95Y-5.1
T3
X4.8Y-1.9
X4.8Y-2.7
X5.Y-1.9
X5.Y-2.7
X5.2Y-4.9
X5.2Y-5.1
X5.4Y-4.8
X5.6Y-4.8
X5.9Y-4.8
X5.95Y-1.9
X5.95Y-2.7
X6.1Y-4.8
X6.15Y-1.9
X6.15Y-2.7
X6.3Y-4.9
X6.3Y-5.1
T4
X3.55Y-2.35
X3.55Y-2.85
X5.35Y-2.25
X5.35Y-3.05
X6.55Y-2.3
X6.55Y-3.05
T0
M30
