G04 #@! TF.FileFunction,Copper,L2,Bot,Signal*
%FSLAX46Y46*%
G04 Gerber Fmt 4.6, Leading zero omitted, Abs format (unit mm)*
G04 Created by KiCad (PCBNEW 4.0.7) date 12/30/17 20:57:52*
%MOMM*%
%LPD*%
G01*
G04 APERTURE LIST*
%ADD10C,0.100000*%
%ADD11C,2.000000*%
%ADD12R,2.800000X2.800000*%
%ADD13O,2.800000X2.800000*%
%ADD14C,5.999480*%
%ADD15C,1.520000*%
%ADD16R,1.520000X1.520000*%
%ADD17C,1.600000*%
%ADD18O,1.600000X1.600000*%
%ADD19R,3.000000X2.350000*%
%ADD20O,3.000000X2.350000*%
%ADD21C,0.812800*%
%ADD22C,0.254000*%
G04 APERTURE END LIST*
D10*
D11*
X149860000Y-45720000D03*
X138460000Y-45720000D03*
D12*
X199390000Y-90170000D03*
D13*
X204470000Y-90170000D03*
D12*
X199390000Y-85090000D03*
D13*
X204470000Y-85090000D03*
D12*
X199390000Y-77470000D03*
D13*
X204470000Y-77470000D03*
D12*
X199390000Y-72390000D03*
D13*
X204470000Y-72390000D03*
D12*
X165100000Y-41910000D03*
D13*
X170180000Y-41910000D03*
D12*
X194310000Y-41910000D03*
D13*
X199390000Y-41910000D03*
D12*
X165100000Y-21590000D03*
D13*
X170180000Y-21590000D03*
D12*
X194310000Y-21590000D03*
D13*
X199390000Y-21590000D03*
D14*
X210820000Y-50800000D03*
X128270000Y-33020000D03*
X179070000Y-50800000D03*
X179070000Y-30480000D03*
X128270000Y-45720000D03*
X210820000Y-31750000D03*
D15*
X170180000Y-87630000D03*
X172720000Y-87630000D03*
D16*
X167640000Y-87630000D03*
D15*
X179070000Y-95250000D03*
X179070000Y-92710000D03*
D16*
X179070000Y-97790000D03*
D15*
X154940000Y-68580000D03*
X154940000Y-66040000D03*
D16*
X154940000Y-71120000D03*
D15*
X193040000Y-66040000D03*
X193040000Y-63500000D03*
D16*
X193040000Y-68580000D03*
D15*
X161290000Y-66040000D03*
X161290000Y-63500000D03*
D16*
X161290000Y-68580000D03*
D15*
X170180000Y-66040000D03*
X170180000Y-63500000D03*
D16*
X170180000Y-68580000D03*
D15*
X170180000Y-95250000D03*
X167640000Y-95250000D03*
D16*
X172720000Y-95250000D03*
D15*
X184150000Y-66040000D03*
X184150000Y-63500000D03*
D16*
X184150000Y-68580000D03*
D15*
X176530000Y-66040000D03*
X176530000Y-63500000D03*
D16*
X176530000Y-68580000D03*
D17*
X190500000Y-77470000D03*
D18*
X193040000Y-77470000D03*
D17*
X189230000Y-86360000D03*
D18*
X191770000Y-86360000D03*
D17*
X184150000Y-77470000D03*
D18*
X186690000Y-77470000D03*
D17*
X177800000Y-87630000D03*
D18*
X180340000Y-87630000D03*
D17*
X189230000Y-90170000D03*
D18*
X191770000Y-90170000D03*
D17*
X177800000Y-83820000D03*
D18*
X180340000Y-83820000D03*
D17*
X190500000Y-72390000D03*
D18*
X193040000Y-72390000D03*
D17*
X177800000Y-76200000D03*
D18*
X180340000Y-76200000D03*
D17*
X184150000Y-72390000D03*
D18*
X186690000Y-72390000D03*
D17*
X177800000Y-80010000D03*
D18*
X180340000Y-80010000D03*
D17*
X189230000Y-93980000D03*
D18*
X191770000Y-93980000D03*
D17*
X175260000Y-58420000D03*
D18*
X172720000Y-58420000D03*
D17*
X204470000Y-58420000D03*
D18*
X201930000Y-58420000D03*
D17*
X173990000Y-36830000D03*
D18*
X171450000Y-36830000D03*
D17*
X204470000Y-36830000D03*
D18*
X201930000Y-36830000D03*
D11*
X149860000Y-26670000D03*
X138460000Y-26670000D03*
X149860000Y-33020000D03*
X138460000Y-33020000D03*
X149860000Y-39370000D03*
X138460000Y-39370000D03*
X149860000Y-52070000D03*
X138460000Y-52070000D03*
D19*
X212090000Y-73660000D03*
D20*
X212090000Y-77620000D03*
X212090000Y-81580000D03*
X212090000Y-85540000D03*
X212090000Y-89500000D03*
D21*
X207010000Y-97790000D02*
X208280000Y-97790000D01*
X215900000Y-90170000D02*
X215900000Y-88900000D01*
X208280000Y-97790000D02*
X215900000Y-90170000D01*
X205740000Y-97790000D02*
X207010000Y-97790000D01*
X215900000Y-88900000D02*
X215900000Y-87630000D01*
X215900000Y-87630000D02*
X215900000Y-69850000D01*
X215900000Y-69850000D02*
X204470000Y-58420000D01*
X173990000Y-36830000D02*
X175260000Y-36830000D01*
X199390000Y-38100000D02*
X199390000Y-41910000D01*
X176530000Y-38100000D02*
X199390000Y-38100000D01*
X175260000Y-36830000D02*
X176530000Y-38100000D01*
X179070000Y-97790000D02*
X205740000Y-97790000D01*
X199390000Y-40640000D02*
X199390000Y-41910000D01*
X161290000Y-77470000D02*
X161290000Y-87630000D01*
X161290000Y-87630000D02*
X167640000Y-87630000D01*
X161290000Y-71120000D02*
X161290000Y-77470000D01*
X161290000Y-68580000D02*
X161290000Y-71120000D01*
X184150000Y-72390000D02*
X184150000Y-77470000D01*
X184150000Y-68580000D02*
X184150000Y-72390000D01*
X154940000Y-71120000D02*
X161290000Y-71120000D01*
X184150000Y-68580000D02*
X193040000Y-68580000D01*
X172720000Y-95250000D02*
X172720000Y-91440000D01*
X167640000Y-91440000D02*
X167640000Y-87630000D01*
X172720000Y-91440000D02*
X167640000Y-91440000D01*
X177800000Y-87630000D02*
X177800000Y-90170000D01*
X195580000Y-63500000D02*
X193040000Y-63500000D01*
X195580000Y-82550000D02*
X195580000Y-63500000D01*
X184150000Y-82550000D02*
X195580000Y-82550000D01*
X184150000Y-90170000D02*
X184150000Y-82550000D01*
X177800000Y-90170000D02*
X184150000Y-90170000D01*
X177800000Y-83820000D02*
X163830000Y-83820000D01*
X163830000Y-63500000D02*
X161290000Y-63500000D01*
X163830000Y-83820000D02*
X163830000Y-63500000D01*
X201930000Y-36830000D02*
X201930000Y-39370000D01*
X201930000Y-39370000D02*
X203200000Y-40640000D01*
X176530000Y-63500000D02*
X172720000Y-63500000D01*
X176530000Y-63500000D02*
X176530000Y-62230000D01*
X203200000Y-52070000D02*
X203200000Y-40640000D01*
X199390000Y-52070000D02*
X203200000Y-52070000D01*
X199390000Y-60960000D02*
X199390000Y-52070000D01*
X177800000Y-60960000D02*
X199390000Y-60960000D01*
X176530000Y-62230000D02*
X177800000Y-60960000D01*
X170180000Y-63500000D02*
X172720000Y-63500000D01*
X172720000Y-71120000D02*
X177800000Y-76200000D01*
X172720000Y-63500000D02*
X172720000Y-71120000D01*
X177800000Y-80010000D02*
X166370000Y-80010000D01*
X171450000Y-38100000D02*
X171450000Y-36830000D01*
X173990000Y-40640000D02*
X171450000Y-38100000D01*
X173990000Y-50800000D02*
X173990000Y-40640000D01*
X170180000Y-50800000D02*
X173990000Y-50800000D01*
X170180000Y-60960000D02*
X170180000Y-50800000D01*
X166370000Y-60960000D02*
X170180000Y-60960000D01*
X166370000Y-80010000D02*
X166370000Y-60960000D01*
D22*
G36*
X195453000Y-19555000D02*
X194595750Y-19555000D01*
X194437000Y-19713750D01*
X194437000Y-21463000D01*
X194457000Y-21463000D01*
X194457000Y-21717000D01*
X194437000Y-21717000D01*
X194437000Y-23466250D01*
X194595750Y-23625000D01*
X195453000Y-23625000D01*
X195453000Y-36703000D01*
X177927000Y-36703000D01*
X177927000Y-34290000D01*
X177916994Y-34240590D01*
X177888553Y-34198965D01*
X177846159Y-34171685D01*
X177800000Y-34163000D01*
X175387000Y-34163000D01*
X175387000Y-33076443D01*
X176653162Y-33076443D01*
X176995723Y-33551063D01*
X178328863Y-34111084D01*
X179774834Y-34118305D01*
X181113501Y-33571627D01*
X181144277Y-33551063D01*
X181486838Y-33076443D01*
X179070000Y-30659605D01*
X176653162Y-33076443D01*
X175387000Y-33076443D01*
X175387000Y-31184834D01*
X175431695Y-31184834D01*
X175978373Y-32523501D01*
X175998937Y-32554277D01*
X176473557Y-32896838D01*
X178890395Y-30480000D01*
X179249605Y-30480000D01*
X181666443Y-32896838D01*
X182141063Y-32554277D01*
X182701084Y-31221137D01*
X182708305Y-29775166D01*
X182161627Y-28436499D01*
X182141063Y-28405723D01*
X181666443Y-28063162D01*
X179249605Y-30480000D01*
X178890395Y-30480000D01*
X176473557Y-28063162D01*
X175998937Y-28405723D01*
X175438916Y-29738863D01*
X175431695Y-31184834D01*
X175387000Y-31184834D01*
X175387000Y-30480000D01*
X175376994Y-30430590D01*
X175348553Y-30388965D01*
X175306159Y-30361685D01*
X175260000Y-30353000D01*
X169037000Y-30353000D01*
X169037000Y-27883557D01*
X176653162Y-27883557D01*
X179070000Y-30300395D01*
X181486838Y-27883557D01*
X181144277Y-27408937D01*
X179811137Y-26848916D01*
X178365166Y-26841695D01*
X177026499Y-27388373D01*
X176995723Y-27408937D01*
X176653162Y-27883557D01*
X169037000Y-27883557D01*
X169037000Y-23267093D01*
X169736839Y-23576167D01*
X170053000Y-23462290D01*
X170053000Y-21717000D01*
X170307000Y-21717000D01*
X170307000Y-23462290D01*
X170623161Y-23576167D01*
X171349501Y-23255389D01*
X171897795Y-22681070D01*
X172166160Y-22033160D01*
X172109296Y-21875750D01*
X192275000Y-21875750D01*
X192275000Y-23116310D01*
X192371673Y-23349699D01*
X192550302Y-23528327D01*
X192783691Y-23625000D01*
X194024250Y-23625000D01*
X194183000Y-23466250D01*
X194183000Y-21717000D01*
X192433750Y-21717000D01*
X192275000Y-21875750D01*
X172109296Y-21875750D01*
X172051947Y-21717000D01*
X170307000Y-21717000D01*
X170053000Y-21717000D01*
X170033000Y-21717000D01*
X170033000Y-21463000D01*
X170053000Y-21463000D01*
X170053000Y-19717710D01*
X170307000Y-19717710D01*
X170307000Y-21463000D01*
X172051947Y-21463000D01*
X172166160Y-21146840D01*
X171897795Y-20498930D01*
X171482278Y-20063690D01*
X192275000Y-20063690D01*
X192275000Y-21304250D01*
X192433750Y-21463000D01*
X194183000Y-21463000D01*
X194183000Y-19713750D01*
X194024250Y-19555000D01*
X192783691Y-19555000D01*
X192550302Y-19651673D01*
X192371673Y-19830301D01*
X192275000Y-20063690D01*
X171482278Y-20063690D01*
X171349501Y-19924611D01*
X170623161Y-19603833D01*
X170307000Y-19717710D01*
X170053000Y-19717710D01*
X169736839Y-19603833D01*
X169037000Y-19912907D01*
X169037000Y-19177000D01*
X195453000Y-19177000D01*
X195453000Y-19555000D01*
X195453000Y-19555000D01*
G37*
X195453000Y-19555000D02*
X194595750Y-19555000D01*
X194437000Y-19713750D01*
X194437000Y-21463000D01*
X194457000Y-21463000D01*
X194457000Y-21717000D01*
X194437000Y-21717000D01*
X194437000Y-23466250D01*
X194595750Y-23625000D01*
X195453000Y-23625000D01*
X195453000Y-36703000D01*
X177927000Y-36703000D01*
X177927000Y-34290000D01*
X177916994Y-34240590D01*
X177888553Y-34198965D01*
X177846159Y-34171685D01*
X177800000Y-34163000D01*
X175387000Y-34163000D01*
X175387000Y-33076443D01*
X176653162Y-33076443D01*
X176995723Y-33551063D01*
X178328863Y-34111084D01*
X179774834Y-34118305D01*
X181113501Y-33571627D01*
X181144277Y-33551063D01*
X181486838Y-33076443D01*
X179070000Y-30659605D01*
X176653162Y-33076443D01*
X175387000Y-33076443D01*
X175387000Y-31184834D01*
X175431695Y-31184834D01*
X175978373Y-32523501D01*
X175998937Y-32554277D01*
X176473557Y-32896838D01*
X178890395Y-30480000D01*
X179249605Y-30480000D01*
X181666443Y-32896838D01*
X182141063Y-32554277D01*
X182701084Y-31221137D01*
X182708305Y-29775166D01*
X182161627Y-28436499D01*
X182141063Y-28405723D01*
X181666443Y-28063162D01*
X179249605Y-30480000D01*
X178890395Y-30480000D01*
X176473557Y-28063162D01*
X175998937Y-28405723D01*
X175438916Y-29738863D01*
X175431695Y-31184834D01*
X175387000Y-31184834D01*
X175387000Y-30480000D01*
X175376994Y-30430590D01*
X175348553Y-30388965D01*
X175306159Y-30361685D01*
X175260000Y-30353000D01*
X169037000Y-30353000D01*
X169037000Y-27883557D01*
X176653162Y-27883557D01*
X179070000Y-30300395D01*
X181486838Y-27883557D01*
X181144277Y-27408937D01*
X179811137Y-26848916D01*
X178365166Y-26841695D01*
X177026499Y-27388373D01*
X176995723Y-27408937D01*
X176653162Y-27883557D01*
X169037000Y-27883557D01*
X169037000Y-23267093D01*
X169736839Y-23576167D01*
X170053000Y-23462290D01*
X170053000Y-21717000D01*
X170307000Y-21717000D01*
X170307000Y-23462290D01*
X170623161Y-23576167D01*
X171349501Y-23255389D01*
X171897795Y-22681070D01*
X172166160Y-22033160D01*
X172109296Y-21875750D01*
X192275000Y-21875750D01*
X192275000Y-23116310D01*
X192371673Y-23349699D01*
X192550302Y-23528327D01*
X192783691Y-23625000D01*
X194024250Y-23625000D01*
X194183000Y-23466250D01*
X194183000Y-21717000D01*
X192433750Y-21717000D01*
X192275000Y-21875750D01*
X172109296Y-21875750D01*
X172051947Y-21717000D01*
X170307000Y-21717000D01*
X170053000Y-21717000D01*
X170033000Y-21717000D01*
X170033000Y-21463000D01*
X170053000Y-21463000D01*
X170053000Y-19717710D01*
X170307000Y-19717710D01*
X170307000Y-21463000D01*
X172051947Y-21463000D01*
X172166160Y-21146840D01*
X171897795Y-20498930D01*
X171482278Y-20063690D01*
X192275000Y-20063690D01*
X192275000Y-21304250D01*
X192433750Y-21463000D01*
X194183000Y-21463000D01*
X194183000Y-19713750D01*
X194024250Y-19555000D01*
X192783691Y-19555000D01*
X192550302Y-19651673D01*
X192371673Y-19830301D01*
X192275000Y-20063690D01*
X171482278Y-20063690D01*
X171349501Y-19924611D01*
X170623161Y-19603833D01*
X170307000Y-19717710D01*
X170053000Y-19717710D01*
X169736839Y-19603833D01*
X169037000Y-19912907D01*
X169037000Y-19177000D01*
X195453000Y-19177000D01*
X195453000Y-19555000D01*
G36*
X142113000Y-57023000D02*
X124587000Y-57023000D01*
X124587000Y-53222532D01*
X137487073Y-53222532D01*
X137585736Y-53489387D01*
X138195461Y-53715908D01*
X138845460Y-53691856D01*
X139334264Y-53489387D01*
X139432927Y-53222532D01*
X138460000Y-52249605D01*
X137487073Y-53222532D01*
X124587000Y-53222532D01*
X124587000Y-51805461D01*
X136814092Y-51805461D01*
X136838144Y-52455460D01*
X137040613Y-52944264D01*
X137307468Y-53042927D01*
X138280395Y-52070000D01*
X138639605Y-52070000D01*
X139612532Y-53042927D01*
X139879387Y-52944264D01*
X140105908Y-52334539D01*
X140081856Y-51684540D01*
X139879387Y-51195736D01*
X139612532Y-51097073D01*
X138639605Y-52070000D01*
X138280395Y-52070000D01*
X137307468Y-51097073D01*
X137040613Y-51195736D01*
X136814092Y-51805461D01*
X124587000Y-51805461D01*
X124587000Y-50917468D01*
X137487073Y-50917468D01*
X138460000Y-51890395D01*
X139432927Y-50917468D01*
X139334264Y-50650613D01*
X138724539Y-50424092D01*
X138074540Y-50448144D01*
X137585736Y-50650613D01*
X137487073Y-50917468D01*
X124587000Y-50917468D01*
X124587000Y-48316443D01*
X125853162Y-48316443D01*
X126195723Y-48791063D01*
X127528863Y-49351084D01*
X128974834Y-49358305D01*
X130313501Y-48811627D01*
X130344277Y-48791063D01*
X130686838Y-48316443D01*
X128270000Y-45899605D01*
X125853162Y-48316443D01*
X124587000Y-48316443D01*
X124587000Y-46424834D01*
X124631695Y-46424834D01*
X125178373Y-47763501D01*
X125198937Y-47794277D01*
X125673557Y-48136838D01*
X128090395Y-45720000D01*
X128449605Y-45720000D01*
X130866443Y-48136838D01*
X131341063Y-47794277D01*
X131728266Y-46872532D01*
X137487073Y-46872532D01*
X137585736Y-47139387D01*
X138195461Y-47365908D01*
X138845460Y-47341856D01*
X139334264Y-47139387D01*
X139432927Y-46872532D01*
X138460000Y-45899605D01*
X137487073Y-46872532D01*
X131728266Y-46872532D01*
X131901084Y-46461137D01*
X131906106Y-45455461D01*
X136814092Y-45455461D01*
X136838144Y-46105460D01*
X137040613Y-46594264D01*
X137307468Y-46692927D01*
X138280395Y-45720000D01*
X138639605Y-45720000D01*
X139612532Y-46692927D01*
X139879387Y-46594264D01*
X140105908Y-45984539D01*
X140081856Y-45334540D01*
X139879387Y-44845736D01*
X139612532Y-44747073D01*
X138639605Y-45720000D01*
X138280395Y-45720000D01*
X137307468Y-44747073D01*
X137040613Y-44845736D01*
X136814092Y-45455461D01*
X131906106Y-45455461D01*
X131908305Y-45015166D01*
X131725477Y-44567468D01*
X137487073Y-44567468D01*
X138460000Y-45540395D01*
X139432927Y-44567468D01*
X139334264Y-44300613D01*
X138724539Y-44074092D01*
X138074540Y-44098144D01*
X137585736Y-44300613D01*
X137487073Y-44567468D01*
X131725477Y-44567468D01*
X131361627Y-43676499D01*
X131341063Y-43645723D01*
X130866443Y-43303162D01*
X128449605Y-45720000D01*
X128090395Y-45720000D01*
X125673557Y-43303162D01*
X125198937Y-43645723D01*
X124638916Y-44978863D01*
X124631695Y-46424834D01*
X124587000Y-46424834D01*
X124587000Y-43123557D01*
X125853162Y-43123557D01*
X128270000Y-45540395D01*
X130686838Y-43123557D01*
X130344277Y-42648937D01*
X129011137Y-42088916D01*
X127565166Y-42081695D01*
X126226499Y-42628373D01*
X126195723Y-42648937D01*
X125853162Y-43123557D01*
X124587000Y-43123557D01*
X124587000Y-40522532D01*
X137487073Y-40522532D01*
X137585736Y-40789387D01*
X138195461Y-41015908D01*
X138845460Y-40991856D01*
X139334264Y-40789387D01*
X139432927Y-40522532D01*
X138460000Y-39549605D01*
X137487073Y-40522532D01*
X124587000Y-40522532D01*
X124587000Y-39105461D01*
X136814092Y-39105461D01*
X136838144Y-39755460D01*
X137040613Y-40244264D01*
X137307468Y-40342927D01*
X138280395Y-39370000D01*
X138639605Y-39370000D01*
X139612532Y-40342927D01*
X139879387Y-40244264D01*
X140105908Y-39634539D01*
X140081856Y-38984540D01*
X139879387Y-38495736D01*
X139612532Y-38397073D01*
X138639605Y-39370000D01*
X138280395Y-39370000D01*
X137307468Y-38397073D01*
X137040613Y-38495736D01*
X136814092Y-39105461D01*
X124587000Y-39105461D01*
X124587000Y-38217468D01*
X137487073Y-38217468D01*
X138460000Y-39190395D01*
X139432927Y-38217468D01*
X139334264Y-37950613D01*
X138724539Y-37724092D01*
X138074540Y-37748144D01*
X137585736Y-37950613D01*
X137487073Y-38217468D01*
X124587000Y-38217468D01*
X124587000Y-35616443D01*
X125853162Y-35616443D01*
X126195723Y-36091063D01*
X127528863Y-36651084D01*
X128974834Y-36658305D01*
X130313501Y-36111627D01*
X130344277Y-36091063D01*
X130686838Y-35616443D01*
X128270000Y-33199605D01*
X125853162Y-35616443D01*
X124587000Y-35616443D01*
X124587000Y-33724834D01*
X124631695Y-33724834D01*
X125178373Y-35063501D01*
X125198937Y-35094277D01*
X125673557Y-35436838D01*
X128090395Y-33020000D01*
X128449605Y-33020000D01*
X130866443Y-35436838D01*
X131341063Y-35094277D01*
X131728266Y-34172532D01*
X137487073Y-34172532D01*
X137585736Y-34439387D01*
X138195461Y-34665908D01*
X138845460Y-34641856D01*
X139334264Y-34439387D01*
X139432927Y-34172532D01*
X138460000Y-33199605D01*
X137487073Y-34172532D01*
X131728266Y-34172532D01*
X131901084Y-33761137D01*
X131906106Y-32755461D01*
X136814092Y-32755461D01*
X136838144Y-33405460D01*
X137040613Y-33894264D01*
X137307468Y-33992927D01*
X138280395Y-33020000D01*
X138639605Y-33020000D01*
X139612532Y-33992927D01*
X139879387Y-33894264D01*
X140105908Y-33284539D01*
X140081856Y-32634540D01*
X139879387Y-32145736D01*
X139612532Y-32047073D01*
X138639605Y-33020000D01*
X138280395Y-33020000D01*
X137307468Y-32047073D01*
X137040613Y-32145736D01*
X136814092Y-32755461D01*
X131906106Y-32755461D01*
X131908305Y-32315166D01*
X131725477Y-31867468D01*
X137487073Y-31867468D01*
X138460000Y-32840395D01*
X139432927Y-31867468D01*
X139334264Y-31600613D01*
X138724539Y-31374092D01*
X138074540Y-31398144D01*
X137585736Y-31600613D01*
X137487073Y-31867468D01*
X131725477Y-31867468D01*
X131361627Y-30976499D01*
X131341063Y-30945723D01*
X130866443Y-30603162D01*
X128449605Y-33020000D01*
X128090395Y-33020000D01*
X125673557Y-30603162D01*
X125198937Y-30945723D01*
X124638916Y-32278863D01*
X124631695Y-33724834D01*
X124587000Y-33724834D01*
X124587000Y-30423557D01*
X125853162Y-30423557D01*
X128270000Y-32840395D01*
X130686838Y-30423557D01*
X130344277Y-29948937D01*
X129011137Y-29388916D01*
X127565166Y-29381695D01*
X126226499Y-29928373D01*
X126195723Y-29948937D01*
X125853162Y-30423557D01*
X124587000Y-30423557D01*
X124587000Y-27822532D01*
X137487073Y-27822532D01*
X137585736Y-28089387D01*
X138195461Y-28315908D01*
X138845460Y-28291856D01*
X139334264Y-28089387D01*
X139432927Y-27822532D01*
X138460000Y-26849605D01*
X137487073Y-27822532D01*
X124587000Y-27822532D01*
X124587000Y-26405461D01*
X136814092Y-26405461D01*
X136838144Y-27055460D01*
X137040613Y-27544264D01*
X137307468Y-27642927D01*
X138280395Y-26670000D01*
X138639605Y-26670000D01*
X139612532Y-27642927D01*
X139879387Y-27544264D01*
X140105908Y-26934539D01*
X140081856Y-26284540D01*
X139879387Y-25795736D01*
X139612532Y-25697073D01*
X138639605Y-26670000D01*
X138280395Y-26670000D01*
X137307468Y-25697073D01*
X137040613Y-25795736D01*
X136814092Y-26405461D01*
X124587000Y-26405461D01*
X124587000Y-25517468D01*
X137487073Y-25517468D01*
X138460000Y-26490395D01*
X139432927Y-25517468D01*
X139334264Y-25250613D01*
X138724539Y-25024092D01*
X138074540Y-25048144D01*
X137585736Y-25250613D01*
X137487073Y-25517468D01*
X124587000Y-25517468D01*
X124587000Y-19177000D01*
X142113000Y-19177000D01*
X142113000Y-57023000D01*
X142113000Y-57023000D01*
G37*
X142113000Y-57023000D02*
X124587000Y-57023000D01*
X124587000Y-53222532D01*
X137487073Y-53222532D01*
X137585736Y-53489387D01*
X138195461Y-53715908D01*
X138845460Y-53691856D01*
X139334264Y-53489387D01*
X139432927Y-53222532D01*
X138460000Y-52249605D01*
X137487073Y-53222532D01*
X124587000Y-53222532D01*
X124587000Y-51805461D01*
X136814092Y-51805461D01*
X136838144Y-52455460D01*
X137040613Y-52944264D01*
X137307468Y-53042927D01*
X138280395Y-52070000D01*
X138639605Y-52070000D01*
X139612532Y-53042927D01*
X139879387Y-52944264D01*
X140105908Y-52334539D01*
X140081856Y-51684540D01*
X139879387Y-51195736D01*
X139612532Y-51097073D01*
X138639605Y-52070000D01*
X138280395Y-52070000D01*
X137307468Y-51097073D01*
X137040613Y-51195736D01*
X136814092Y-51805461D01*
X124587000Y-51805461D01*
X124587000Y-50917468D01*
X137487073Y-50917468D01*
X138460000Y-51890395D01*
X139432927Y-50917468D01*
X139334264Y-50650613D01*
X138724539Y-50424092D01*
X138074540Y-50448144D01*
X137585736Y-50650613D01*
X137487073Y-50917468D01*
X124587000Y-50917468D01*
X124587000Y-48316443D01*
X125853162Y-48316443D01*
X126195723Y-48791063D01*
X127528863Y-49351084D01*
X128974834Y-49358305D01*
X130313501Y-48811627D01*
X130344277Y-48791063D01*
X130686838Y-48316443D01*
X128270000Y-45899605D01*
X125853162Y-48316443D01*
X124587000Y-48316443D01*
X124587000Y-46424834D01*
X124631695Y-46424834D01*
X125178373Y-47763501D01*
X125198937Y-47794277D01*
X125673557Y-48136838D01*
X128090395Y-45720000D01*
X128449605Y-45720000D01*
X130866443Y-48136838D01*
X131341063Y-47794277D01*
X131728266Y-46872532D01*
X137487073Y-46872532D01*
X137585736Y-47139387D01*
X138195461Y-47365908D01*
X138845460Y-47341856D01*
X139334264Y-47139387D01*
X139432927Y-46872532D01*
X138460000Y-45899605D01*
X137487073Y-46872532D01*
X131728266Y-46872532D01*
X131901084Y-46461137D01*
X131906106Y-45455461D01*
X136814092Y-45455461D01*
X136838144Y-46105460D01*
X137040613Y-46594264D01*
X137307468Y-46692927D01*
X138280395Y-45720000D01*
X138639605Y-45720000D01*
X139612532Y-46692927D01*
X139879387Y-46594264D01*
X140105908Y-45984539D01*
X140081856Y-45334540D01*
X139879387Y-44845736D01*
X139612532Y-44747073D01*
X138639605Y-45720000D01*
X138280395Y-45720000D01*
X137307468Y-44747073D01*
X137040613Y-44845736D01*
X136814092Y-45455461D01*
X131906106Y-45455461D01*
X131908305Y-45015166D01*
X131725477Y-44567468D01*
X137487073Y-44567468D01*
X138460000Y-45540395D01*
X139432927Y-44567468D01*
X139334264Y-44300613D01*
X138724539Y-44074092D01*
X138074540Y-44098144D01*
X137585736Y-44300613D01*
X137487073Y-44567468D01*
X131725477Y-44567468D01*
X131361627Y-43676499D01*
X131341063Y-43645723D01*
X130866443Y-43303162D01*
X128449605Y-45720000D01*
X128090395Y-45720000D01*
X125673557Y-43303162D01*
X125198937Y-43645723D01*
X124638916Y-44978863D01*
X124631695Y-46424834D01*
X124587000Y-46424834D01*
X124587000Y-43123557D01*
X125853162Y-43123557D01*
X128270000Y-45540395D01*
X130686838Y-43123557D01*
X130344277Y-42648937D01*
X129011137Y-42088916D01*
X127565166Y-42081695D01*
X126226499Y-42628373D01*
X126195723Y-42648937D01*
X125853162Y-43123557D01*
X124587000Y-43123557D01*
X124587000Y-40522532D01*
X137487073Y-40522532D01*
X137585736Y-40789387D01*
X138195461Y-41015908D01*
X138845460Y-40991856D01*
X139334264Y-40789387D01*
X139432927Y-40522532D01*
X138460000Y-39549605D01*
X137487073Y-40522532D01*
X124587000Y-40522532D01*
X124587000Y-39105461D01*
X136814092Y-39105461D01*
X136838144Y-39755460D01*
X137040613Y-40244264D01*
X137307468Y-40342927D01*
X138280395Y-39370000D01*
X138639605Y-39370000D01*
X139612532Y-40342927D01*
X139879387Y-40244264D01*
X140105908Y-39634539D01*
X140081856Y-38984540D01*
X139879387Y-38495736D01*
X139612532Y-38397073D01*
X138639605Y-39370000D01*
X138280395Y-39370000D01*
X137307468Y-38397073D01*
X137040613Y-38495736D01*
X136814092Y-39105461D01*
X124587000Y-39105461D01*
X124587000Y-38217468D01*
X137487073Y-38217468D01*
X138460000Y-39190395D01*
X139432927Y-38217468D01*
X139334264Y-37950613D01*
X138724539Y-37724092D01*
X138074540Y-37748144D01*
X137585736Y-37950613D01*
X137487073Y-38217468D01*
X124587000Y-38217468D01*
X124587000Y-35616443D01*
X125853162Y-35616443D01*
X126195723Y-36091063D01*
X127528863Y-36651084D01*
X128974834Y-36658305D01*
X130313501Y-36111627D01*
X130344277Y-36091063D01*
X130686838Y-35616443D01*
X128270000Y-33199605D01*
X125853162Y-35616443D01*
X124587000Y-35616443D01*
X124587000Y-33724834D01*
X124631695Y-33724834D01*
X125178373Y-35063501D01*
X125198937Y-35094277D01*
X125673557Y-35436838D01*
X128090395Y-33020000D01*
X128449605Y-33020000D01*
X130866443Y-35436838D01*
X131341063Y-35094277D01*
X131728266Y-34172532D01*
X137487073Y-34172532D01*
X137585736Y-34439387D01*
X138195461Y-34665908D01*
X138845460Y-34641856D01*
X139334264Y-34439387D01*
X139432927Y-34172532D01*
X138460000Y-33199605D01*
X137487073Y-34172532D01*
X131728266Y-34172532D01*
X131901084Y-33761137D01*
X131906106Y-32755461D01*
X136814092Y-32755461D01*
X136838144Y-33405460D01*
X137040613Y-33894264D01*
X137307468Y-33992927D01*
X138280395Y-33020000D01*
X138639605Y-33020000D01*
X139612532Y-33992927D01*
X139879387Y-33894264D01*
X140105908Y-33284539D01*
X140081856Y-32634540D01*
X139879387Y-32145736D01*
X139612532Y-32047073D01*
X138639605Y-33020000D01*
X138280395Y-33020000D01*
X137307468Y-32047073D01*
X137040613Y-32145736D01*
X136814092Y-32755461D01*
X131906106Y-32755461D01*
X131908305Y-32315166D01*
X131725477Y-31867468D01*
X137487073Y-31867468D01*
X138460000Y-32840395D01*
X139432927Y-31867468D01*
X139334264Y-31600613D01*
X138724539Y-31374092D01*
X138074540Y-31398144D01*
X137585736Y-31600613D01*
X137487073Y-31867468D01*
X131725477Y-31867468D01*
X131361627Y-30976499D01*
X131341063Y-30945723D01*
X130866443Y-30603162D01*
X128449605Y-33020000D01*
X128090395Y-33020000D01*
X125673557Y-30603162D01*
X125198937Y-30945723D01*
X124638916Y-32278863D01*
X124631695Y-33724834D01*
X124587000Y-33724834D01*
X124587000Y-30423557D01*
X125853162Y-30423557D01*
X128270000Y-32840395D01*
X130686838Y-30423557D01*
X130344277Y-29948937D01*
X129011137Y-29388916D01*
X127565166Y-29381695D01*
X126226499Y-29928373D01*
X126195723Y-29948937D01*
X125853162Y-30423557D01*
X124587000Y-30423557D01*
X124587000Y-27822532D01*
X137487073Y-27822532D01*
X137585736Y-28089387D01*
X138195461Y-28315908D01*
X138845460Y-28291856D01*
X139334264Y-28089387D01*
X139432927Y-27822532D01*
X138460000Y-26849605D01*
X137487073Y-27822532D01*
X124587000Y-27822532D01*
X124587000Y-26405461D01*
X136814092Y-26405461D01*
X136838144Y-27055460D01*
X137040613Y-27544264D01*
X137307468Y-27642927D01*
X138280395Y-26670000D01*
X138639605Y-26670000D01*
X139612532Y-27642927D01*
X139879387Y-27544264D01*
X140105908Y-26934539D01*
X140081856Y-26284540D01*
X139879387Y-25795736D01*
X139612532Y-25697073D01*
X138639605Y-26670000D01*
X138280395Y-26670000D01*
X137307468Y-25697073D01*
X137040613Y-25795736D01*
X136814092Y-26405461D01*
X124587000Y-26405461D01*
X124587000Y-25517468D01*
X137487073Y-25517468D01*
X138460000Y-26490395D01*
X139432927Y-25517468D01*
X139334264Y-25250613D01*
X138724539Y-25024092D01*
X138074540Y-25048144D01*
X137585736Y-25250613D01*
X137487073Y-25517468D01*
X124587000Y-25517468D01*
X124587000Y-19177000D01*
X142113000Y-19177000D01*
X142113000Y-57023000D01*
G36*
X166243000Y-19555000D02*
X165385750Y-19555000D01*
X165227000Y-19713750D01*
X165227000Y-21463000D01*
X165247000Y-21463000D01*
X165247000Y-21717000D01*
X165227000Y-21717000D01*
X165227000Y-23466250D01*
X165385750Y-23625000D01*
X166243000Y-23625000D01*
X166243000Y-39875000D01*
X165385750Y-39875000D01*
X165227000Y-40033750D01*
X165227000Y-41783000D01*
X165247000Y-41783000D01*
X165247000Y-42037000D01*
X165227000Y-42037000D01*
X165227000Y-43786250D01*
X165385750Y-43945000D01*
X166243000Y-43945000D01*
X166243000Y-57023000D01*
X146177000Y-57023000D01*
X146177000Y-53222532D01*
X148887073Y-53222532D01*
X148985736Y-53489387D01*
X149595461Y-53715908D01*
X150245460Y-53691856D01*
X150734264Y-53489387D01*
X150832927Y-53222532D01*
X149860000Y-52249605D01*
X148887073Y-53222532D01*
X146177000Y-53222532D01*
X146177000Y-51805461D01*
X148214092Y-51805461D01*
X148238144Y-52455460D01*
X148440613Y-52944264D01*
X148707468Y-53042927D01*
X149680395Y-52070000D01*
X150039605Y-52070000D01*
X151012532Y-53042927D01*
X151279387Y-52944264D01*
X151505908Y-52334539D01*
X151481856Y-51684540D01*
X151279387Y-51195736D01*
X151012532Y-51097073D01*
X150039605Y-52070000D01*
X149680395Y-52070000D01*
X148707468Y-51097073D01*
X148440613Y-51195736D01*
X148214092Y-51805461D01*
X146177000Y-51805461D01*
X146177000Y-50917468D01*
X148887073Y-50917468D01*
X149860000Y-51890395D01*
X150832927Y-50917468D01*
X150734264Y-50650613D01*
X150124539Y-50424092D01*
X149474540Y-50448144D01*
X148985736Y-50650613D01*
X148887073Y-50917468D01*
X146177000Y-50917468D01*
X146177000Y-46872532D01*
X148887073Y-46872532D01*
X148985736Y-47139387D01*
X149595461Y-47365908D01*
X150245460Y-47341856D01*
X150734264Y-47139387D01*
X150832927Y-46872532D01*
X149860000Y-45899605D01*
X148887073Y-46872532D01*
X146177000Y-46872532D01*
X146177000Y-45455461D01*
X148214092Y-45455461D01*
X148238144Y-46105460D01*
X148440613Y-46594264D01*
X148707468Y-46692927D01*
X149680395Y-45720000D01*
X150039605Y-45720000D01*
X151012532Y-46692927D01*
X151279387Y-46594264D01*
X151505908Y-45984539D01*
X151481856Y-45334540D01*
X151279387Y-44845736D01*
X151012532Y-44747073D01*
X150039605Y-45720000D01*
X149680395Y-45720000D01*
X148707468Y-44747073D01*
X148440613Y-44845736D01*
X148214092Y-45455461D01*
X146177000Y-45455461D01*
X146177000Y-44567468D01*
X148887073Y-44567468D01*
X149860000Y-45540395D01*
X150832927Y-44567468D01*
X150734264Y-44300613D01*
X150124539Y-44074092D01*
X149474540Y-44098144D01*
X148985736Y-44300613D01*
X148887073Y-44567468D01*
X146177000Y-44567468D01*
X146177000Y-42195750D01*
X163065000Y-42195750D01*
X163065000Y-43436310D01*
X163161673Y-43669699D01*
X163340302Y-43848327D01*
X163573691Y-43945000D01*
X164814250Y-43945000D01*
X164973000Y-43786250D01*
X164973000Y-42037000D01*
X163223750Y-42037000D01*
X163065000Y-42195750D01*
X146177000Y-42195750D01*
X146177000Y-40522532D01*
X148887073Y-40522532D01*
X148985736Y-40789387D01*
X149595461Y-41015908D01*
X150245460Y-40991856D01*
X150734264Y-40789387D01*
X150832927Y-40522532D01*
X150694085Y-40383690D01*
X163065000Y-40383690D01*
X163065000Y-41624250D01*
X163223750Y-41783000D01*
X164973000Y-41783000D01*
X164973000Y-40033750D01*
X164814250Y-39875000D01*
X163573691Y-39875000D01*
X163340302Y-39971673D01*
X163161673Y-40150301D01*
X163065000Y-40383690D01*
X150694085Y-40383690D01*
X149860000Y-39549605D01*
X148887073Y-40522532D01*
X146177000Y-40522532D01*
X146177000Y-39105461D01*
X148214092Y-39105461D01*
X148238144Y-39755460D01*
X148440613Y-40244264D01*
X148707468Y-40342927D01*
X149680395Y-39370000D01*
X150039605Y-39370000D01*
X151012532Y-40342927D01*
X151279387Y-40244264D01*
X151505908Y-39634539D01*
X151481856Y-38984540D01*
X151279387Y-38495736D01*
X151012532Y-38397073D01*
X150039605Y-39370000D01*
X149680395Y-39370000D01*
X148707468Y-38397073D01*
X148440613Y-38495736D01*
X148214092Y-39105461D01*
X146177000Y-39105461D01*
X146177000Y-38217468D01*
X148887073Y-38217468D01*
X149860000Y-39190395D01*
X150832927Y-38217468D01*
X150734264Y-37950613D01*
X150124539Y-37724092D01*
X149474540Y-37748144D01*
X148985736Y-37950613D01*
X148887073Y-38217468D01*
X146177000Y-38217468D01*
X146177000Y-34172532D01*
X148887073Y-34172532D01*
X148985736Y-34439387D01*
X149595461Y-34665908D01*
X150245460Y-34641856D01*
X150734264Y-34439387D01*
X150832927Y-34172532D01*
X149860000Y-33199605D01*
X148887073Y-34172532D01*
X146177000Y-34172532D01*
X146177000Y-32755461D01*
X148214092Y-32755461D01*
X148238144Y-33405460D01*
X148440613Y-33894264D01*
X148707468Y-33992927D01*
X149680395Y-33020000D01*
X150039605Y-33020000D01*
X151012532Y-33992927D01*
X151279387Y-33894264D01*
X151505908Y-33284539D01*
X151481856Y-32634540D01*
X151279387Y-32145736D01*
X151012532Y-32047073D01*
X150039605Y-33020000D01*
X149680395Y-33020000D01*
X148707468Y-32047073D01*
X148440613Y-32145736D01*
X148214092Y-32755461D01*
X146177000Y-32755461D01*
X146177000Y-31867468D01*
X148887073Y-31867468D01*
X149860000Y-32840395D01*
X150832927Y-31867468D01*
X150734264Y-31600613D01*
X150124539Y-31374092D01*
X149474540Y-31398144D01*
X148985736Y-31600613D01*
X148887073Y-31867468D01*
X146177000Y-31867468D01*
X146177000Y-27822532D01*
X148887073Y-27822532D01*
X148985736Y-28089387D01*
X149595461Y-28315908D01*
X150245460Y-28291856D01*
X150734264Y-28089387D01*
X150832927Y-27822532D01*
X149860000Y-26849605D01*
X148887073Y-27822532D01*
X146177000Y-27822532D01*
X146177000Y-26405461D01*
X148214092Y-26405461D01*
X148238144Y-27055460D01*
X148440613Y-27544264D01*
X148707468Y-27642927D01*
X149680395Y-26670000D01*
X150039605Y-26670000D01*
X151012532Y-27642927D01*
X151279387Y-27544264D01*
X151505908Y-26934539D01*
X151481856Y-26284540D01*
X151279387Y-25795736D01*
X151012532Y-25697073D01*
X150039605Y-26670000D01*
X149680395Y-26670000D01*
X148707468Y-25697073D01*
X148440613Y-25795736D01*
X148214092Y-26405461D01*
X146177000Y-26405461D01*
X146177000Y-25517468D01*
X148887073Y-25517468D01*
X149860000Y-26490395D01*
X150832927Y-25517468D01*
X150734264Y-25250613D01*
X150124539Y-25024092D01*
X149474540Y-25048144D01*
X148985736Y-25250613D01*
X148887073Y-25517468D01*
X146177000Y-25517468D01*
X146177000Y-21875750D01*
X163065000Y-21875750D01*
X163065000Y-23116310D01*
X163161673Y-23349699D01*
X163340302Y-23528327D01*
X163573691Y-23625000D01*
X164814250Y-23625000D01*
X164973000Y-23466250D01*
X164973000Y-21717000D01*
X163223750Y-21717000D01*
X163065000Y-21875750D01*
X146177000Y-21875750D01*
X146177000Y-20063690D01*
X163065000Y-20063690D01*
X163065000Y-21304250D01*
X163223750Y-21463000D01*
X164973000Y-21463000D01*
X164973000Y-19713750D01*
X164814250Y-19555000D01*
X163573691Y-19555000D01*
X163340302Y-19651673D01*
X163161673Y-19830301D01*
X163065000Y-20063690D01*
X146177000Y-20063690D01*
X146177000Y-19177000D01*
X166243000Y-19177000D01*
X166243000Y-19555000D01*
X166243000Y-19555000D01*
G37*
X166243000Y-19555000D02*
X165385750Y-19555000D01*
X165227000Y-19713750D01*
X165227000Y-21463000D01*
X165247000Y-21463000D01*
X165247000Y-21717000D01*
X165227000Y-21717000D01*
X165227000Y-23466250D01*
X165385750Y-23625000D01*
X166243000Y-23625000D01*
X166243000Y-39875000D01*
X165385750Y-39875000D01*
X165227000Y-40033750D01*
X165227000Y-41783000D01*
X165247000Y-41783000D01*
X165247000Y-42037000D01*
X165227000Y-42037000D01*
X165227000Y-43786250D01*
X165385750Y-43945000D01*
X166243000Y-43945000D01*
X166243000Y-57023000D01*
X146177000Y-57023000D01*
X146177000Y-53222532D01*
X148887073Y-53222532D01*
X148985736Y-53489387D01*
X149595461Y-53715908D01*
X150245460Y-53691856D01*
X150734264Y-53489387D01*
X150832927Y-53222532D01*
X149860000Y-52249605D01*
X148887073Y-53222532D01*
X146177000Y-53222532D01*
X146177000Y-51805461D01*
X148214092Y-51805461D01*
X148238144Y-52455460D01*
X148440613Y-52944264D01*
X148707468Y-53042927D01*
X149680395Y-52070000D01*
X150039605Y-52070000D01*
X151012532Y-53042927D01*
X151279387Y-52944264D01*
X151505908Y-52334539D01*
X151481856Y-51684540D01*
X151279387Y-51195736D01*
X151012532Y-51097073D01*
X150039605Y-52070000D01*
X149680395Y-52070000D01*
X148707468Y-51097073D01*
X148440613Y-51195736D01*
X148214092Y-51805461D01*
X146177000Y-51805461D01*
X146177000Y-50917468D01*
X148887073Y-50917468D01*
X149860000Y-51890395D01*
X150832927Y-50917468D01*
X150734264Y-50650613D01*
X150124539Y-50424092D01*
X149474540Y-50448144D01*
X148985736Y-50650613D01*
X148887073Y-50917468D01*
X146177000Y-50917468D01*
X146177000Y-46872532D01*
X148887073Y-46872532D01*
X148985736Y-47139387D01*
X149595461Y-47365908D01*
X150245460Y-47341856D01*
X150734264Y-47139387D01*
X150832927Y-46872532D01*
X149860000Y-45899605D01*
X148887073Y-46872532D01*
X146177000Y-46872532D01*
X146177000Y-45455461D01*
X148214092Y-45455461D01*
X148238144Y-46105460D01*
X148440613Y-46594264D01*
X148707468Y-46692927D01*
X149680395Y-45720000D01*
X150039605Y-45720000D01*
X151012532Y-46692927D01*
X151279387Y-46594264D01*
X151505908Y-45984539D01*
X151481856Y-45334540D01*
X151279387Y-44845736D01*
X151012532Y-44747073D01*
X150039605Y-45720000D01*
X149680395Y-45720000D01*
X148707468Y-44747073D01*
X148440613Y-44845736D01*
X148214092Y-45455461D01*
X146177000Y-45455461D01*
X146177000Y-44567468D01*
X148887073Y-44567468D01*
X149860000Y-45540395D01*
X150832927Y-44567468D01*
X150734264Y-44300613D01*
X150124539Y-44074092D01*
X149474540Y-44098144D01*
X148985736Y-44300613D01*
X148887073Y-44567468D01*
X146177000Y-44567468D01*
X146177000Y-42195750D01*
X163065000Y-42195750D01*
X163065000Y-43436310D01*
X163161673Y-43669699D01*
X163340302Y-43848327D01*
X163573691Y-43945000D01*
X164814250Y-43945000D01*
X164973000Y-43786250D01*
X164973000Y-42037000D01*
X163223750Y-42037000D01*
X163065000Y-42195750D01*
X146177000Y-42195750D01*
X146177000Y-40522532D01*
X148887073Y-40522532D01*
X148985736Y-40789387D01*
X149595461Y-41015908D01*
X150245460Y-40991856D01*
X150734264Y-40789387D01*
X150832927Y-40522532D01*
X150694085Y-40383690D01*
X163065000Y-40383690D01*
X163065000Y-41624250D01*
X163223750Y-41783000D01*
X164973000Y-41783000D01*
X164973000Y-40033750D01*
X164814250Y-39875000D01*
X163573691Y-39875000D01*
X163340302Y-39971673D01*
X163161673Y-40150301D01*
X163065000Y-40383690D01*
X150694085Y-40383690D01*
X149860000Y-39549605D01*
X148887073Y-40522532D01*
X146177000Y-40522532D01*
X146177000Y-39105461D01*
X148214092Y-39105461D01*
X148238144Y-39755460D01*
X148440613Y-40244264D01*
X148707468Y-40342927D01*
X149680395Y-39370000D01*
X150039605Y-39370000D01*
X151012532Y-40342927D01*
X151279387Y-40244264D01*
X151505908Y-39634539D01*
X151481856Y-38984540D01*
X151279387Y-38495736D01*
X151012532Y-38397073D01*
X150039605Y-39370000D01*
X149680395Y-39370000D01*
X148707468Y-38397073D01*
X148440613Y-38495736D01*
X148214092Y-39105461D01*
X146177000Y-39105461D01*
X146177000Y-38217468D01*
X148887073Y-38217468D01*
X149860000Y-39190395D01*
X150832927Y-38217468D01*
X150734264Y-37950613D01*
X150124539Y-37724092D01*
X149474540Y-37748144D01*
X148985736Y-37950613D01*
X148887073Y-38217468D01*
X146177000Y-38217468D01*
X146177000Y-34172532D01*
X148887073Y-34172532D01*
X148985736Y-34439387D01*
X149595461Y-34665908D01*
X150245460Y-34641856D01*
X150734264Y-34439387D01*
X150832927Y-34172532D01*
X149860000Y-33199605D01*
X148887073Y-34172532D01*
X146177000Y-34172532D01*
X146177000Y-32755461D01*
X148214092Y-32755461D01*
X148238144Y-33405460D01*
X148440613Y-33894264D01*
X148707468Y-33992927D01*
X149680395Y-33020000D01*
X150039605Y-33020000D01*
X151012532Y-33992927D01*
X151279387Y-33894264D01*
X151505908Y-33284539D01*
X151481856Y-32634540D01*
X151279387Y-32145736D01*
X151012532Y-32047073D01*
X150039605Y-33020000D01*
X149680395Y-33020000D01*
X148707468Y-32047073D01*
X148440613Y-32145736D01*
X148214092Y-32755461D01*
X146177000Y-32755461D01*
X146177000Y-31867468D01*
X148887073Y-31867468D01*
X149860000Y-32840395D01*
X150832927Y-31867468D01*
X150734264Y-31600613D01*
X150124539Y-31374092D01*
X149474540Y-31398144D01*
X148985736Y-31600613D01*
X148887073Y-31867468D01*
X146177000Y-31867468D01*
X146177000Y-27822532D01*
X148887073Y-27822532D01*
X148985736Y-28089387D01*
X149595461Y-28315908D01*
X150245460Y-28291856D01*
X150734264Y-28089387D01*
X150832927Y-27822532D01*
X149860000Y-26849605D01*
X148887073Y-27822532D01*
X146177000Y-27822532D01*
X146177000Y-26405461D01*
X148214092Y-26405461D01*
X148238144Y-27055460D01*
X148440613Y-27544264D01*
X148707468Y-27642927D01*
X149680395Y-26670000D01*
X150039605Y-26670000D01*
X151012532Y-27642927D01*
X151279387Y-27544264D01*
X151505908Y-26934539D01*
X151481856Y-26284540D01*
X151279387Y-25795736D01*
X151012532Y-25697073D01*
X150039605Y-26670000D01*
X149680395Y-26670000D01*
X148707468Y-25697073D01*
X148440613Y-25795736D01*
X148214092Y-26405461D01*
X146177000Y-26405461D01*
X146177000Y-25517468D01*
X148887073Y-25517468D01*
X149860000Y-26490395D01*
X150832927Y-25517468D01*
X150734264Y-25250613D01*
X150124539Y-25024092D01*
X149474540Y-25048144D01*
X148985736Y-25250613D01*
X148887073Y-25517468D01*
X146177000Y-25517468D01*
X146177000Y-21875750D01*
X163065000Y-21875750D01*
X163065000Y-23116310D01*
X163161673Y-23349699D01*
X163340302Y-23528327D01*
X163573691Y-23625000D01*
X164814250Y-23625000D01*
X164973000Y-23466250D01*
X164973000Y-21717000D01*
X163223750Y-21717000D01*
X163065000Y-21875750D01*
X146177000Y-21875750D01*
X146177000Y-20063690D01*
X163065000Y-20063690D01*
X163065000Y-21304250D01*
X163223750Y-21463000D01*
X164973000Y-21463000D01*
X164973000Y-19713750D01*
X164814250Y-19555000D01*
X163573691Y-19555000D01*
X163340302Y-19651673D01*
X163161673Y-19830301D01*
X163065000Y-20063690D01*
X146177000Y-20063690D01*
X146177000Y-19177000D01*
X166243000Y-19177000D01*
X166243000Y-19555000D01*
G36*
X215773000Y-59563000D02*
X205257399Y-59563000D01*
X205298139Y-59427745D01*
X204470000Y-58599605D01*
X203641861Y-59427745D01*
X203682601Y-59563000D01*
X203327000Y-59563000D01*
X203327000Y-59207399D01*
X203462255Y-59248139D01*
X204290395Y-58420000D01*
X204649605Y-58420000D01*
X205477745Y-59248139D01*
X205723864Y-59174005D01*
X205916965Y-58636777D01*
X205889778Y-58066546D01*
X205723864Y-57665995D01*
X205477745Y-57591861D01*
X204649605Y-58420000D01*
X204290395Y-58420000D01*
X203462255Y-57591861D01*
X203327000Y-57632601D01*
X203327000Y-57412255D01*
X203641861Y-57412255D01*
X204470000Y-58240395D01*
X205298139Y-57412255D01*
X205224005Y-57166136D01*
X204686777Y-56973035D01*
X204116546Y-57000222D01*
X203715995Y-57166136D01*
X203641861Y-57412255D01*
X203327000Y-57412255D01*
X203327000Y-53467000D01*
X205740000Y-53467000D01*
X205789410Y-53456994D01*
X205831035Y-53428553D01*
X205851697Y-53396443D01*
X208403162Y-53396443D01*
X208745723Y-53871063D01*
X210078863Y-54431084D01*
X211524834Y-54438305D01*
X212863501Y-53891627D01*
X212894277Y-53871063D01*
X213236838Y-53396443D01*
X210820000Y-50979605D01*
X208403162Y-53396443D01*
X205851697Y-53396443D01*
X205858315Y-53386159D01*
X205867000Y-53340000D01*
X205867000Y-51504834D01*
X207181695Y-51504834D01*
X207728373Y-52843501D01*
X207748937Y-52874277D01*
X208223557Y-53216838D01*
X210640395Y-50800000D01*
X210999605Y-50800000D01*
X213416443Y-53216838D01*
X213891063Y-52874277D01*
X214451084Y-51541137D01*
X214458305Y-50095166D01*
X213911627Y-48756499D01*
X213891063Y-48725723D01*
X213416443Y-48383162D01*
X210999605Y-50800000D01*
X210640395Y-50800000D01*
X208223557Y-48383162D01*
X207748937Y-48725723D01*
X207188916Y-50058863D01*
X207181695Y-51504834D01*
X205867000Y-51504834D01*
X205867000Y-48203557D01*
X208403162Y-48203557D01*
X210820000Y-50620395D01*
X213236838Y-48203557D01*
X212894277Y-47728937D01*
X211561137Y-47168916D01*
X210115166Y-47161695D01*
X208776499Y-47708373D01*
X208745723Y-47728937D01*
X208403162Y-48203557D01*
X205867000Y-48203557D01*
X205867000Y-38100000D01*
X205856994Y-38050590D01*
X205828553Y-38008965D01*
X205786159Y-37981685D01*
X205740000Y-37973000D01*
X205257399Y-37973000D01*
X205298139Y-37837745D01*
X204470000Y-37009605D01*
X203641861Y-37837745D01*
X203682601Y-37973000D01*
X203327000Y-37973000D01*
X203327000Y-37617399D01*
X203462255Y-37658139D01*
X204290395Y-36830000D01*
X204649605Y-36830000D01*
X205477745Y-37658139D01*
X205723864Y-37584005D01*
X205916965Y-37046777D01*
X205889778Y-36476546D01*
X205723864Y-36075995D01*
X205477745Y-36001861D01*
X204649605Y-36830000D01*
X204290395Y-36830000D01*
X203462255Y-36001861D01*
X203327000Y-36042601D01*
X203327000Y-35822255D01*
X203641861Y-35822255D01*
X204470000Y-36650395D01*
X205298139Y-35822255D01*
X205224005Y-35576136D01*
X204686777Y-35383035D01*
X204116546Y-35410222D01*
X203715995Y-35576136D01*
X203641861Y-35822255D01*
X203327000Y-35822255D01*
X203327000Y-34346443D01*
X208403162Y-34346443D01*
X208745723Y-34821063D01*
X210078863Y-35381084D01*
X211524834Y-35388305D01*
X212863501Y-34841627D01*
X212894277Y-34821063D01*
X213236838Y-34346443D01*
X210820000Y-31929605D01*
X208403162Y-34346443D01*
X203327000Y-34346443D01*
X203327000Y-32454834D01*
X207181695Y-32454834D01*
X207728373Y-33793501D01*
X207748937Y-33824277D01*
X208223557Y-34166838D01*
X210640395Y-31750000D01*
X210999605Y-31750000D01*
X213416443Y-34166838D01*
X213891063Y-33824277D01*
X214451084Y-32491137D01*
X214458305Y-31045166D01*
X213911627Y-29706499D01*
X213891063Y-29675723D01*
X213416443Y-29333162D01*
X210999605Y-31750000D01*
X210640395Y-31750000D01*
X208223557Y-29333162D01*
X207748937Y-29675723D01*
X207188916Y-31008863D01*
X207181695Y-32454834D01*
X203327000Y-32454834D01*
X203327000Y-30480000D01*
X203316994Y-30430590D01*
X203288553Y-30388965D01*
X203246159Y-30361685D01*
X203200000Y-30353000D01*
X198247000Y-30353000D01*
X198247000Y-29153557D01*
X208403162Y-29153557D01*
X210820000Y-31570395D01*
X213236838Y-29153557D01*
X212894277Y-28678937D01*
X211561137Y-28118916D01*
X210115166Y-28111695D01*
X208776499Y-28658373D01*
X208745723Y-28678937D01*
X208403162Y-29153557D01*
X198247000Y-29153557D01*
X198247000Y-23267093D01*
X198946839Y-23576167D01*
X199263000Y-23462290D01*
X199263000Y-21717000D01*
X199517000Y-21717000D01*
X199517000Y-23462290D01*
X199833161Y-23576167D01*
X200559501Y-23255389D01*
X201107795Y-22681070D01*
X201376160Y-22033160D01*
X201261947Y-21717000D01*
X199517000Y-21717000D01*
X199263000Y-21717000D01*
X199243000Y-21717000D01*
X199243000Y-21463000D01*
X199263000Y-21463000D01*
X199263000Y-19717710D01*
X199517000Y-19717710D01*
X199517000Y-21463000D01*
X201261947Y-21463000D01*
X201376160Y-21146840D01*
X201107795Y-20498930D01*
X200559501Y-19924611D01*
X199833161Y-19603833D01*
X199517000Y-19717710D01*
X199263000Y-19717710D01*
X198946839Y-19603833D01*
X198247000Y-19912907D01*
X198247000Y-19177000D01*
X215773000Y-19177000D01*
X215773000Y-59563000D01*
X215773000Y-59563000D01*
G37*
X215773000Y-59563000D02*
X205257399Y-59563000D01*
X205298139Y-59427745D01*
X204470000Y-58599605D01*
X203641861Y-59427745D01*
X203682601Y-59563000D01*
X203327000Y-59563000D01*
X203327000Y-59207399D01*
X203462255Y-59248139D01*
X204290395Y-58420000D01*
X204649605Y-58420000D01*
X205477745Y-59248139D01*
X205723864Y-59174005D01*
X205916965Y-58636777D01*
X205889778Y-58066546D01*
X205723864Y-57665995D01*
X205477745Y-57591861D01*
X204649605Y-58420000D01*
X204290395Y-58420000D01*
X203462255Y-57591861D01*
X203327000Y-57632601D01*
X203327000Y-57412255D01*
X203641861Y-57412255D01*
X204470000Y-58240395D01*
X205298139Y-57412255D01*
X205224005Y-57166136D01*
X204686777Y-56973035D01*
X204116546Y-57000222D01*
X203715995Y-57166136D01*
X203641861Y-57412255D01*
X203327000Y-57412255D01*
X203327000Y-53467000D01*
X205740000Y-53467000D01*
X205789410Y-53456994D01*
X205831035Y-53428553D01*
X205851697Y-53396443D01*
X208403162Y-53396443D01*
X208745723Y-53871063D01*
X210078863Y-54431084D01*
X211524834Y-54438305D01*
X212863501Y-53891627D01*
X212894277Y-53871063D01*
X213236838Y-53396443D01*
X210820000Y-50979605D01*
X208403162Y-53396443D01*
X205851697Y-53396443D01*
X205858315Y-53386159D01*
X205867000Y-53340000D01*
X205867000Y-51504834D01*
X207181695Y-51504834D01*
X207728373Y-52843501D01*
X207748937Y-52874277D01*
X208223557Y-53216838D01*
X210640395Y-50800000D01*
X210999605Y-50800000D01*
X213416443Y-53216838D01*
X213891063Y-52874277D01*
X214451084Y-51541137D01*
X214458305Y-50095166D01*
X213911627Y-48756499D01*
X213891063Y-48725723D01*
X213416443Y-48383162D01*
X210999605Y-50800000D01*
X210640395Y-50800000D01*
X208223557Y-48383162D01*
X207748937Y-48725723D01*
X207188916Y-50058863D01*
X207181695Y-51504834D01*
X205867000Y-51504834D01*
X205867000Y-48203557D01*
X208403162Y-48203557D01*
X210820000Y-50620395D01*
X213236838Y-48203557D01*
X212894277Y-47728937D01*
X211561137Y-47168916D01*
X210115166Y-47161695D01*
X208776499Y-47708373D01*
X208745723Y-47728937D01*
X208403162Y-48203557D01*
X205867000Y-48203557D01*
X205867000Y-38100000D01*
X205856994Y-38050590D01*
X205828553Y-38008965D01*
X205786159Y-37981685D01*
X205740000Y-37973000D01*
X205257399Y-37973000D01*
X205298139Y-37837745D01*
X204470000Y-37009605D01*
X203641861Y-37837745D01*
X203682601Y-37973000D01*
X203327000Y-37973000D01*
X203327000Y-37617399D01*
X203462255Y-37658139D01*
X204290395Y-36830000D01*
X204649605Y-36830000D01*
X205477745Y-37658139D01*
X205723864Y-37584005D01*
X205916965Y-37046777D01*
X205889778Y-36476546D01*
X205723864Y-36075995D01*
X205477745Y-36001861D01*
X204649605Y-36830000D01*
X204290395Y-36830000D01*
X203462255Y-36001861D01*
X203327000Y-36042601D01*
X203327000Y-35822255D01*
X203641861Y-35822255D01*
X204470000Y-36650395D01*
X205298139Y-35822255D01*
X205224005Y-35576136D01*
X204686777Y-35383035D01*
X204116546Y-35410222D01*
X203715995Y-35576136D01*
X203641861Y-35822255D01*
X203327000Y-35822255D01*
X203327000Y-34346443D01*
X208403162Y-34346443D01*
X208745723Y-34821063D01*
X210078863Y-35381084D01*
X211524834Y-35388305D01*
X212863501Y-34841627D01*
X212894277Y-34821063D01*
X213236838Y-34346443D01*
X210820000Y-31929605D01*
X208403162Y-34346443D01*
X203327000Y-34346443D01*
X203327000Y-32454834D01*
X207181695Y-32454834D01*
X207728373Y-33793501D01*
X207748937Y-33824277D01*
X208223557Y-34166838D01*
X210640395Y-31750000D01*
X210999605Y-31750000D01*
X213416443Y-34166838D01*
X213891063Y-33824277D01*
X214451084Y-32491137D01*
X214458305Y-31045166D01*
X213911627Y-29706499D01*
X213891063Y-29675723D01*
X213416443Y-29333162D01*
X210999605Y-31750000D01*
X210640395Y-31750000D01*
X208223557Y-29333162D01*
X207748937Y-29675723D01*
X207188916Y-31008863D01*
X207181695Y-32454834D01*
X203327000Y-32454834D01*
X203327000Y-30480000D01*
X203316994Y-30430590D01*
X203288553Y-30388965D01*
X203246159Y-30361685D01*
X203200000Y-30353000D01*
X198247000Y-30353000D01*
X198247000Y-29153557D01*
X208403162Y-29153557D01*
X210820000Y-31570395D01*
X213236838Y-29153557D01*
X212894277Y-28678937D01*
X211561137Y-28118916D01*
X210115166Y-28111695D01*
X208776499Y-28658373D01*
X208745723Y-28678937D01*
X208403162Y-29153557D01*
X198247000Y-29153557D01*
X198247000Y-23267093D01*
X198946839Y-23576167D01*
X199263000Y-23462290D01*
X199263000Y-21717000D01*
X199517000Y-21717000D01*
X199517000Y-23462290D01*
X199833161Y-23576167D01*
X200559501Y-23255389D01*
X201107795Y-22681070D01*
X201376160Y-22033160D01*
X201261947Y-21717000D01*
X199517000Y-21717000D01*
X199263000Y-21717000D01*
X199243000Y-21717000D01*
X199243000Y-21463000D01*
X199263000Y-21463000D01*
X199263000Y-19717710D01*
X199517000Y-19717710D01*
X199517000Y-21463000D01*
X201261947Y-21463000D01*
X201376160Y-21146840D01*
X201107795Y-20498930D01*
X200559501Y-19924611D01*
X199833161Y-19603833D01*
X199517000Y-19717710D01*
X199263000Y-19717710D01*
X198946839Y-19603833D01*
X198247000Y-19912907D01*
X198247000Y-19177000D01*
X215773000Y-19177000D01*
X215773000Y-59563000D01*
G36*
X195453000Y-39875000D02*
X194595750Y-39875000D01*
X194437000Y-40033750D01*
X194437000Y-41783000D01*
X194457000Y-41783000D01*
X194457000Y-42037000D01*
X194437000Y-42037000D01*
X194437000Y-43786250D01*
X194595750Y-43945000D01*
X195453000Y-43945000D01*
X195453000Y-57023000D01*
X177927000Y-57023000D01*
X177927000Y-54610000D01*
X177916994Y-54560590D01*
X177888553Y-54518965D01*
X177846159Y-54491685D01*
X177800000Y-54483000D01*
X175387000Y-54483000D01*
X175387000Y-53396443D01*
X176653162Y-53396443D01*
X176995723Y-53871063D01*
X178328863Y-54431084D01*
X179774834Y-54438305D01*
X181113501Y-53891627D01*
X181144277Y-53871063D01*
X181486838Y-53396443D01*
X179070000Y-50979605D01*
X176653162Y-53396443D01*
X175387000Y-53396443D01*
X175387000Y-51504834D01*
X175431695Y-51504834D01*
X175978373Y-52843501D01*
X175998937Y-52874277D01*
X176473557Y-53216838D01*
X178890395Y-50800000D01*
X179249605Y-50800000D01*
X181666443Y-53216838D01*
X182141063Y-52874277D01*
X182701084Y-51541137D01*
X182708305Y-50095166D01*
X182161627Y-48756499D01*
X182141063Y-48725723D01*
X181666443Y-48383162D01*
X179249605Y-50800000D01*
X178890395Y-50800000D01*
X176473557Y-48383162D01*
X175998937Y-48725723D01*
X175438916Y-50058863D01*
X175431695Y-51504834D01*
X175387000Y-51504834D01*
X175387000Y-48203557D01*
X176653162Y-48203557D01*
X179070000Y-50620395D01*
X181486838Y-48203557D01*
X181144277Y-47728937D01*
X179811137Y-47168916D01*
X178365166Y-47161695D01*
X177026499Y-47708373D01*
X176995723Y-47728937D01*
X176653162Y-48203557D01*
X175387000Y-48203557D01*
X175387000Y-42195750D01*
X192275000Y-42195750D01*
X192275000Y-43436310D01*
X192371673Y-43669699D01*
X192550302Y-43848327D01*
X192783691Y-43945000D01*
X194024250Y-43945000D01*
X194183000Y-43786250D01*
X194183000Y-42037000D01*
X192433750Y-42037000D01*
X192275000Y-42195750D01*
X175387000Y-42195750D01*
X175387000Y-40383690D01*
X192275000Y-40383690D01*
X192275000Y-41624250D01*
X192433750Y-41783000D01*
X194183000Y-41783000D01*
X194183000Y-40033750D01*
X194024250Y-39875000D01*
X192783691Y-39875000D01*
X192550302Y-39971673D01*
X192371673Y-40150301D01*
X192275000Y-40383690D01*
X175387000Y-40383690D01*
X175387000Y-39497000D01*
X195453000Y-39497000D01*
X195453000Y-39875000D01*
X195453000Y-39875000D01*
G37*
X195453000Y-39875000D02*
X194595750Y-39875000D01*
X194437000Y-40033750D01*
X194437000Y-41783000D01*
X194457000Y-41783000D01*
X194457000Y-42037000D01*
X194437000Y-42037000D01*
X194437000Y-43786250D01*
X194595750Y-43945000D01*
X195453000Y-43945000D01*
X195453000Y-57023000D01*
X177927000Y-57023000D01*
X177927000Y-54610000D01*
X177916994Y-54560590D01*
X177888553Y-54518965D01*
X177846159Y-54491685D01*
X177800000Y-54483000D01*
X175387000Y-54483000D01*
X175387000Y-53396443D01*
X176653162Y-53396443D01*
X176995723Y-53871063D01*
X178328863Y-54431084D01*
X179774834Y-54438305D01*
X181113501Y-53891627D01*
X181144277Y-53871063D01*
X181486838Y-53396443D01*
X179070000Y-50979605D01*
X176653162Y-53396443D01*
X175387000Y-53396443D01*
X175387000Y-51504834D01*
X175431695Y-51504834D01*
X175978373Y-52843501D01*
X175998937Y-52874277D01*
X176473557Y-53216838D01*
X178890395Y-50800000D01*
X179249605Y-50800000D01*
X181666443Y-53216838D01*
X182141063Y-52874277D01*
X182701084Y-51541137D01*
X182708305Y-50095166D01*
X182161627Y-48756499D01*
X182141063Y-48725723D01*
X181666443Y-48383162D01*
X179249605Y-50800000D01*
X178890395Y-50800000D01*
X176473557Y-48383162D01*
X175998937Y-48725723D01*
X175438916Y-50058863D01*
X175431695Y-51504834D01*
X175387000Y-51504834D01*
X175387000Y-48203557D01*
X176653162Y-48203557D01*
X179070000Y-50620395D01*
X181486838Y-48203557D01*
X181144277Y-47728937D01*
X179811137Y-47168916D01*
X178365166Y-47161695D01*
X177026499Y-47708373D01*
X176995723Y-47728937D01*
X176653162Y-48203557D01*
X175387000Y-48203557D01*
X175387000Y-42195750D01*
X192275000Y-42195750D01*
X192275000Y-43436310D01*
X192371673Y-43669699D01*
X192550302Y-43848327D01*
X192783691Y-43945000D01*
X194024250Y-43945000D01*
X194183000Y-43786250D01*
X194183000Y-42037000D01*
X192433750Y-42037000D01*
X192275000Y-42195750D01*
X175387000Y-42195750D01*
X175387000Y-40383690D01*
X192275000Y-40383690D01*
X192275000Y-41624250D01*
X192433750Y-41783000D01*
X194183000Y-41783000D01*
X194183000Y-40033750D01*
X194024250Y-39875000D01*
X192783691Y-39875000D01*
X192550302Y-39971673D01*
X192371673Y-40150301D01*
X192275000Y-40383690D01*
X175387000Y-40383690D01*
X175387000Y-39497000D01*
X195453000Y-39497000D01*
X195453000Y-39875000D01*
M02*
