M48
;DRILL file {KiCad 4.0.7} date 12/30/17 20:57:55
;FORMAT={-:-/ absolute / inch / decimal}
FMAT,2
INCH,TZ
T1C0.032
T2C0.039
T3C0.055
T4C0.065
T5C0.098
%
G90
G05
M72
T1
X6.1Y-2.6
X6.1Y-2.7
X6.1Y-2.8
X6.35Y-2.5
X6.35Y-2.6
X6.35Y-2.7
X6.6Y-3.45
X6.6Y-3.75
X6.7Y-2.5
X6.7Y-2.6
X6.7Y-2.7
X6.7Y-3.45
X6.7Y-3.75
X6.75Y-1.45
X6.8Y-2.3
X6.8Y-3.45
X6.8Y-3.75
X6.85Y-1.45
X6.9Y-2.3
X6.95Y-2.5
X6.95Y-2.6
X6.95Y-2.7
X7.Y-3.
X7.Y-3.15
X7.Y-3.3
X7.Y-3.45
X7.05Y-3.65
X7.05Y-3.75
X7.05Y-3.85
X7.1Y-3.
X7.1Y-3.15
X7.1Y-3.3
X7.1Y-3.45
X7.25Y-2.5
X7.25Y-2.6
X7.25Y-2.7
X7.25Y-2.85
X7.25Y-3.05
X7.35Y-2.85
X7.35Y-3.05
X7.45Y-3.4
X7.45Y-3.55
X7.45Y-3.7
X7.5Y-2.85
X7.5Y-3.05
X7.55Y-3.4
X7.55Y-3.55
X7.55Y-3.7
X7.6Y-2.5
X7.6Y-2.6
X7.6Y-2.7
X7.6Y-2.85
X7.6Y-3.05
X7.95Y-1.45
X7.95Y-2.3
X8.05Y-1.45
X8.05Y-2.3
T2
X5.4512Y-1.05
X5.4512Y-1.3
X5.4512Y-1.55
X5.4512Y-1.8
X5.4512Y-2.05
X5.9Y-1.05
X5.9Y-1.3
X5.9Y-1.55
X5.9Y-1.8
X5.9Y-2.05
T3
X6.5Y-0.85
X6.5Y-1.65
X6.7Y-0.85
X6.7Y-1.65
X7.65Y-0.85
X7.65Y-1.65
X7.85Y-0.85
X7.85Y-1.65
X7.85Y-2.85
X7.85Y-3.05
X7.85Y-3.35
X7.85Y-3.55
X8.05Y-2.85
X8.05Y-3.05
X8.05Y-3.35
X8.05Y-3.55
T4
X8.35Y-2.9
X8.35Y-3.0559
X8.35Y-3.2118
X8.35Y-3.3677
X8.35Y-3.5236
T5
X5.05Y-1.3
X5.05Y-1.8
X7.05Y-1.2
X7.05Y-2.
X8.3Y-1.25
X8.3Y-2.
T0
M30
